%TF.GenerationSoftware,KiCad,Pcbnew,7.0.10*%
%TF.CreationDate,2024-01-15T00:01:57-05:00*%
%TF.ProjectId,Thinkpad-USB-keyboard-PCB,5468696e-6b70-4616-942d-5553422d6b65,rev?*%
%TF.SameCoordinates,Original*%
%TF.FileFunction,Soldermask,Bot*%
%TF.FilePolarity,Negative*%
%FSLAX46Y46*%
G04 Gerber Fmt 4.6, Leading zero omitted, Abs format (unit mm)*
G04 Created by KiCad (PCBNEW 7.0.10) date 2024-01-15 00:01:57*
%MOMM*%
%LPD*%
G01*
G04 APERTURE LIST*
%ADD10C,5.700000*%
%ADD11R,1.600000X1.500000*%
%ADD12C,1.600000*%
%ADD13C,3.000000*%
%ADD14C,0.650000*%
%ADD15O,1.000000X2.100000*%
%ADD16O,1.000000X1.600000*%
%ADD17C,2.582000*%
%ADD18R,1.700000X1.700000*%
%ADD19O,1.700000X1.700000*%
%ADD20C,2.000000*%
G04 APERTURE END LIST*
D10*
%TO.C,H8*%
X0Y-58000000D03*
%TD*%
D11*
%TO.C,J2*%
X-24500000Y-9360000D03*
D12*
X-27000000Y-9360000D03*
X-29000000Y-9360000D03*
X-31500000Y-9360000D03*
D13*
X-21430000Y-6650000D03*
X-34570000Y-6650000D03*
%TD*%
D10*
%TO.C,H7*%
X65000000Y-58000000D03*
%TD*%
D14*
%TO.C,J7*%
X58890000Y-2040000D03*
X53110000Y-2040000D03*
D15*
X60320000Y-2570000D03*
D16*
X60320000Y1610000D03*
D15*
X51680000Y-2570000D03*
D16*
X51680000Y1610000D03*
%TD*%
D17*
%TO.C,H12*%
X-35000000Y-54000000D03*
%TD*%
D10*
%TO.C,H6*%
X-40000000Y-58000000D03*
%TD*%
%TO.C,H3*%
X15000000Y-2000000D03*
%TD*%
%TO.C,H4*%
X46000000Y-2000000D03*
%TD*%
D17*
%TO.C,H10*%
X59000000Y-58000000D03*
%TD*%
D11*
%TO.C,J3*%
X31500000Y-9360000D03*
D12*
X29000000Y-9360000D03*
X27000000Y-9360000D03*
X24500000Y-9360000D03*
D13*
X34570000Y-6650000D03*
X21430000Y-6650000D03*
%TD*%
D10*
%TO.C,H5*%
X65000000Y-2000000D03*
%TD*%
%TO.C,H1*%
X-40000000Y-2000000D03*
%TD*%
D14*
%TO.C,J1*%
X2890000Y-2040000D03*
X-2890000Y-2040000D03*
D15*
X4320000Y-2570000D03*
D16*
X4320000Y1610000D03*
D15*
X-4320000Y-2570000D03*
D16*
X-4320000Y1610000D03*
%TD*%
D18*
%TO.C,J4*%
X53000000Y-44000000D03*
D19*
X53000000Y-41460000D03*
X53000000Y-38920000D03*
X53000000Y-36380000D03*
X53000000Y-33840000D03*
%TD*%
D17*
%TO.C,H9*%
X39000000Y0D03*
%TD*%
D10*
%TO.C,H2*%
X-16000000Y-2000000D03*
%TD*%
D17*
%TO.C,H11*%
X-37000000Y-16000000D03*
%TD*%
D20*
%TO.C,SW3*%
X13000000Y-32700000D03*
X6500000Y-32700000D03*
X13000000Y-37200000D03*
X6500000Y-37200000D03*
%TD*%
%TO.C,SW1*%
X59000000Y-17000000D03*
X59000000Y-23500000D03*
X63500000Y-17000000D03*
X63500000Y-23500000D03*
%TD*%
M02*
