%TF.GenerationSoftware,KiCad,Pcbnew,7.0.10*%
%TF.CreationDate,2024-01-15T00:01:57-05:00*%
%TF.ProjectId,Thinkpad-USB-keyboard-PCB,5468696e-6b70-4616-942d-5553422d6b65,rev?*%
%TF.SameCoordinates,Original*%
%TF.FileFunction,Legend,Bot*%
%TF.FilePolarity,Positive*%
%FSLAX46Y46*%
G04 Gerber Fmt 4.6, Leading zero omitted, Abs format (unit mm)*
G04 Created by KiCad (PCBNEW 7.0.10) date 2024-01-15 00:01:57*
%MOMM*%
%LPD*%
G01*
G04 APERTURE LIST*
%ADD10C,0.300000*%
%ADD11C,0.200000*%
%ADD12C,0.150000*%
%ADD13C,0.120000*%
G04 APERTURE END LIST*
D10*
X12195489Y-39815114D02*
X11981203Y-39886542D01*
X11981203Y-39886542D02*
X11909774Y-39957971D01*
X11909774Y-39957971D02*
X11838346Y-40100828D01*
X11838346Y-40100828D02*
X11838346Y-40315114D01*
X11838346Y-40315114D02*
X11909774Y-40457971D01*
X11909774Y-40457971D02*
X11981203Y-40529400D01*
X11981203Y-40529400D02*
X12124060Y-40600828D01*
X12124060Y-40600828D02*
X12695489Y-40600828D01*
X12695489Y-40600828D02*
X12695489Y-39100828D01*
X12695489Y-39100828D02*
X12195489Y-39100828D01*
X12195489Y-39100828D02*
X12052632Y-39172257D01*
X12052632Y-39172257D02*
X11981203Y-39243685D01*
X11981203Y-39243685D02*
X11909774Y-39386542D01*
X11909774Y-39386542D02*
X11909774Y-39529400D01*
X11909774Y-39529400D02*
X11981203Y-39672257D01*
X11981203Y-39672257D02*
X12052632Y-39743685D01*
X12052632Y-39743685D02*
X12195489Y-39815114D01*
X12195489Y-39815114D02*
X12695489Y-39815114D01*
X10909774Y-39100828D02*
X10624060Y-39100828D01*
X10624060Y-39100828D02*
X10481203Y-39172257D01*
X10481203Y-39172257D02*
X10338346Y-39315114D01*
X10338346Y-39315114D02*
X10266917Y-39600828D01*
X10266917Y-39600828D02*
X10266917Y-40100828D01*
X10266917Y-40100828D02*
X10338346Y-40386542D01*
X10338346Y-40386542D02*
X10481203Y-40529400D01*
X10481203Y-40529400D02*
X10624060Y-40600828D01*
X10624060Y-40600828D02*
X10909774Y-40600828D01*
X10909774Y-40600828D02*
X11052632Y-40529400D01*
X11052632Y-40529400D02*
X11195489Y-40386542D01*
X11195489Y-40386542D02*
X11266917Y-40100828D01*
X11266917Y-40100828D02*
X11266917Y-39600828D01*
X11266917Y-39600828D02*
X11195489Y-39315114D01*
X11195489Y-39315114D02*
X11052632Y-39172257D01*
X11052632Y-39172257D02*
X10909774Y-39100828D01*
X9338345Y-39100828D02*
X9052631Y-39100828D01*
X9052631Y-39100828D02*
X8909774Y-39172257D01*
X8909774Y-39172257D02*
X8766917Y-39315114D01*
X8766917Y-39315114D02*
X8695488Y-39600828D01*
X8695488Y-39600828D02*
X8695488Y-40100828D01*
X8695488Y-40100828D02*
X8766917Y-40386542D01*
X8766917Y-40386542D02*
X8909774Y-40529400D01*
X8909774Y-40529400D02*
X9052631Y-40600828D01*
X9052631Y-40600828D02*
X9338345Y-40600828D01*
X9338345Y-40600828D02*
X9481203Y-40529400D01*
X9481203Y-40529400D02*
X9624060Y-40386542D01*
X9624060Y-40386542D02*
X9695488Y-40100828D01*
X9695488Y-40100828D02*
X9695488Y-39600828D01*
X9695488Y-39600828D02*
X9624060Y-39315114D01*
X9624060Y-39315114D02*
X9481203Y-39172257D01*
X9481203Y-39172257D02*
X9338345Y-39100828D01*
X8266916Y-39100828D02*
X7409774Y-39100828D01*
X7838345Y-40600828D02*
X7838345Y-39100828D01*
D11*
X19239850Y-58642742D02*
X19239850Y-59499885D01*
X19239850Y-59499885D02*
X19296993Y-59671314D01*
X19296993Y-59671314D02*
X19411279Y-59785600D01*
X19411279Y-59785600D02*
X19582707Y-59842742D01*
X19582707Y-59842742D02*
X19696993Y-59842742D01*
X18096993Y-59842742D02*
X18668421Y-59842742D01*
X18668421Y-59842742D02*
X18668421Y-58642742D01*
X17011278Y-59728457D02*
X17068421Y-59785600D01*
X17068421Y-59785600D02*
X17239849Y-59842742D01*
X17239849Y-59842742D02*
X17354135Y-59842742D01*
X17354135Y-59842742D02*
X17525564Y-59785600D01*
X17525564Y-59785600D02*
X17639849Y-59671314D01*
X17639849Y-59671314D02*
X17696992Y-59557028D01*
X17696992Y-59557028D02*
X17754135Y-59328457D01*
X17754135Y-59328457D02*
X17754135Y-59157028D01*
X17754135Y-59157028D02*
X17696992Y-58928457D01*
X17696992Y-58928457D02*
X17639849Y-58814171D01*
X17639849Y-58814171D02*
X17525564Y-58699885D01*
X17525564Y-58699885D02*
X17354135Y-58642742D01*
X17354135Y-58642742D02*
X17239849Y-58642742D01*
X17239849Y-58642742D02*
X17068421Y-58699885D01*
X17068421Y-58699885D02*
X17011278Y-58757028D01*
X16154135Y-58642742D02*
X16154135Y-59499885D01*
X16154135Y-59499885D02*
X16211278Y-59671314D01*
X16211278Y-59671314D02*
X16325564Y-59785600D01*
X16325564Y-59785600D02*
X16496992Y-59842742D01*
X16496992Y-59842742D02*
X16611278Y-59842742D01*
X15011278Y-59842742D02*
X15582706Y-59842742D01*
X15582706Y-59842742D02*
X15582706Y-58642742D01*
X13925563Y-59728457D02*
X13982706Y-59785600D01*
X13982706Y-59785600D02*
X14154134Y-59842742D01*
X14154134Y-59842742D02*
X14268420Y-59842742D01*
X14268420Y-59842742D02*
X14439849Y-59785600D01*
X14439849Y-59785600D02*
X14554134Y-59671314D01*
X14554134Y-59671314D02*
X14611277Y-59557028D01*
X14611277Y-59557028D02*
X14668420Y-59328457D01*
X14668420Y-59328457D02*
X14668420Y-59157028D01*
X14668420Y-59157028D02*
X14611277Y-58928457D01*
X14611277Y-58928457D02*
X14554134Y-58814171D01*
X14554134Y-58814171D02*
X14439849Y-58699885D01*
X14439849Y-58699885D02*
X14268420Y-58642742D01*
X14268420Y-58642742D02*
X14154134Y-58642742D01*
X14154134Y-58642742D02*
X13982706Y-58699885D01*
X13982706Y-58699885D02*
X13925563Y-58757028D01*
X13068420Y-58642742D02*
X13068420Y-59499885D01*
X13068420Y-59499885D02*
X13125563Y-59671314D01*
X13125563Y-59671314D02*
X13239849Y-59785600D01*
X13239849Y-59785600D02*
X13411277Y-59842742D01*
X13411277Y-59842742D02*
X13525563Y-59842742D01*
X11925563Y-59842742D02*
X12496991Y-59842742D01*
X12496991Y-59842742D02*
X12496991Y-58642742D01*
X10839848Y-59728457D02*
X10896991Y-59785600D01*
X10896991Y-59785600D02*
X11068419Y-59842742D01*
X11068419Y-59842742D02*
X11182705Y-59842742D01*
X11182705Y-59842742D02*
X11354134Y-59785600D01*
X11354134Y-59785600D02*
X11468419Y-59671314D01*
X11468419Y-59671314D02*
X11525562Y-59557028D01*
X11525562Y-59557028D02*
X11582705Y-59328457D01*
X11582705Y-59328457D02*
X11582705Y-59157028D01*
X11582705Y-59157028D02*
X11525562Y-58928457D01*
X11525562Y-58928457D02*
X11468419Y-58814171D01*
X11468419Y-58814171D02*
X11354134Y-58699885D01*
X11354134Y-58699885D02*
X11182705Y-58642742D01*
X11182705Y-58642742D02*
X11068419Y-58642742D01*
X11068419Y-58642742D02*
X10896991Y-58699885D01*
X10896991Y-58699885D02*
X10839848Y-58757028D01*
X9982705Y-58642742D02*
X9982705Y-59499885D01*
X9982705Y-59499885D02*
X10039848Y-59671314D01*
X10039848Y-59671314D02*
X10154134Y-59785600D01*
X10154134Y-59785600D02*
X10325562Y-59842742D01*
X10325562Y-59842742D02*
X10439848Y-59842742D01*
X8839848Y-59842742D02*
X9411276Y-59842742D01*
X9411276Y-59842742D02*
X9411276Y-58642742D01*
X7754133Y-59728457D02*
X7811276Y-59785600D01*
X7811276Y-59785600D02*
X7982704Y-59842742D01*
X7982704Y-59842742D02*
X8096990Y-59842742D01*
X8096990Y-59842742D02*
X8268419Y-59785600D01*
X8268419Y-59785600D02*
X8382704Y-59671314D01*
X8382704Y-59671314D02*
X8439847Y-59557028D01*
X8439847Y-59557028D02*
X8496990Y-59328457D01*
X8496990Y-59328457D02*
X8496990Y-59157028D01*
X8496990Y-59157028D02*
X8439847Y-58928457D01*
X8439847Y-58928457D02*
X8382704Y-58814171D01*
X8382704Y-58814171D02*
X8268419Y-58699885D01*
X8268419Y-58699885D02*
X8096990Y-58642742D01*
X8096990Y-58642742D02*
X7982704Y-58642742D01*
X7982704Y-58642742D02*
X7811276Y-58699885D01*
X7811276Y-58699885D02*
X7754133Y-58757028D01*
D10*
X66950828Y-18211653D02*
X66236542Y-17711653D01*
X66950828Y-17354510D02*
X65450828Y-17354510D01*
X65450828Y-17354510D02*
X65450828Y-17925939D01*
X65450828Y-17925939D02*
X65522257Y-18068796D01*
X65522257Y-18068796D02*
X65593685Y-18140225D01*
X65593685Y-18140225D02*
X65736542Y-18211653D01*
X65736542Y-18211653D02*
X65950828Y-18211653D01*
X65950828Y-18211653D02*
X66093685Y-18140225D01*
X66093685Y-18140225D02*
X66165114Y-18068796D01*
X66165114Y-18068796D02*
X66236542Y-17925939D01*
X66236542Y-17925939D02*
X66236542Y-17354510D01*
X66165114Y-18854510D02*
X66165114Y-19354510D01*
X66950828Y-19568796D02*
X66950828Y-18854510D01*
X66950828Y-18854510D02*
X65450828Y-18854510D01*
X65450828Y-18854510D02*
X65450828Y-19568796D01*
X66879400Y-20140225D02*
X66950828Y-20354511D01*
X66950828Y-20354511D02*
X66950828Y-20711653D01*
X66950828Y-20711653D02*
X66879400Y-20854511D01*
X66879400Y-20854511D02*
X66807971Y-20925939D01*
X66807971Y-20925939D02*
X66665114Y-20997368D01*
X66665114Y-20997368D02*
X66522257Y-20997368D01*
X66522257Y-20997368D02*
X66379400Y-20925939D01*
X66379400Y-20925939D02*
X66307971Y-20854511D01*
X66307971Y-20854511D02*
X66236542Y-20711653D01*
X66236542Y-20711653D02*
X66165114Y-20425939D01*
X66165114Y-20425939D02*
X66093685Y-20283082D01*
X66093685Y-20283082D02*
X66022257Y-20211653D01*
X66022257Y-20211653D02*
X65879400Y-20140225D01*
X65879400Y-20140225D02*
X65736542Y-20140225D01*
X65736542Y-20140225D02*
X65593685Y-20211653D01*
X65593685Y-20211653D02*
X65522257Y-20283082D01*
X65522257Y-20283082D02*
X65450828Y-20425939D01*
X65450828Y-20425939D02*
X65450828Y-20783082D01*
X65450828Y-20783082D02*
X65522257Y-20997368D01*
X66165114Y-21640224D02*
X66165114Y-22140224D01*
X66950828Y-22354510D02*
X66950828Y-21640224D01*
X66950828Y-21640224D02*
X65450828Y-21640224D01*
X65450828Y-21640224D02*
X65450828Y-22354510D01*
X65450828Y-22783082D02*
X65450828Y-23640225D01*
X66950828Y-23211653D02*
X65450828Y-23211653D01*
D12*
X11083332Y-31107200D02*
X10940475Y-31154819D01*
X10940475Y-31154819D02*
X10702380Y-31154819D01*
X10702380Y-31154819D02*
X10607142Y-31107200D01*
X10607142Y-31107200D02*
X10559523Y-31059580D01*
X10559523Y-31059580D02*
X10511904Y-30964342D01*
X10511904Y-30964342D02*
X10511904Y-30869104D01*
X10511904Y-30869104D02*
X10559523Y-30773866D01*
X10559523Y-30773866D02*
X10607142Y-30726247D01*
X10607142Y-30726247D02*
X10702380Y-30678628D01*
X10702380Y-30678628D02*
X10892856Y-30631009D01*
X10892856Y-30631009D02*
X10988094Y-30583390D01*
X10988094Y-30583390D02*
X11035713Y-30535771D01*
X11035713Y-30535771D02*
X11083332Y-30440533D01*
X11083332Y-30440533D02*
X11083332Y-30345295D01*
X11083332Y-30345295D02*
X11035713Y-30250057D01*
X11035713Y-30250057D02*
X10988094Y-30202438D01*
X10988094Y-30202438D02*
X10892856Y-30154819D01*
X10892856Y-30154819D02*
X10654761Y-30154819D01*
X10654761Y-30154819D02*
X10511904Y-30202438D01*
X10178570Y-30154819D02*
X9940475Y-31154819D01*
X9940475Y-31154819D02*
X9749999Y-30440533D01*
X9749999Y-30440533D02*
X9559523Y-31154819D01*
X9559523Y-31154819D02*
X9321428Y-30154819D01*
X9035713Y-30154819D02*
X8416666Y-30154819D01*
X8416666Y-30154819D02*
X8749999Y-30535771D01*
X8749999Y-30535771D02*
X8607142Y-30535771D01*
X8607142Y-30535771D02*
X8511904Y-30583390D01*
X8511904Y-30583390D02*
X8464285Y-30631009D01*
X8464285Y-30631009D02*
X8416666Y-30726247D01*
X8416666Y-30726247D02*
X8416666Y-30964342D01*
X8416666Y-30964342D02*
X8464285Y-31059580D01*
X8464285Y-31059580D02*
X8511904Y-31107200D01*
X8511904Y-31107200D02*
X8607142Y-31154819D01*
X8607142Y-31154819D02*
X8892856Y-31154819D01*
X8892856Y-31154819D02*
X8988094Y-31107200D01*
X8988094Y-31107200D02*
X9035713Y-31059580D01*
X57407200Y-18916667D02*
X57454819Y-19059524D01*
X57454819Y-19059524D02*
X57454819Y-19297619D01*
X57454819Y-19297619D02*
X57407200Y-19392857D01*
X57407200Y-19392857D02*
X57359580Y-19440476D01*
X57359580Y-19440476D02*
X57264342Y-19488095D01*
X57264342Y-19488095D02*
X57169104Y-19488095D01*
X57169104Y-19488095D02*
X57073866Y-19440476D01*
X57073866Y-19440476D02*
X57026247Y-19392857D01*
X57026247Y-19392857D02*
X56978628Y-19297619D01*
X56978628Y-19297619D02*
X56931009Y-19107143D01*
X56931009Y-19107143D02*
X56883390Y-19011905D01*
X56883390Y-19011905D02*
X56835771Y-18964286D01*
X56835771Y-18964286D02*
X56740533Y-18916667D01*
X56740533Y-18916667D02*
X56645295Y-18916667D01*
X56645295Y-18916667D02*
X56550057Y-18964286D01*
X56550057Y-18964286D02*
X56502438Y-19011905D01*
X56502438Y-19011905D02*
X56454819Y-19107143D01*
X56454819Y-19107143D02*
X56454819Y-19345238D01*
X56454819Y-19345238D02*
X56502438Y-19488095D01*
X56454819Y-19821429D02*
X57454819Y-20059524D01*
X57454819Y-20059524D02*
X56740533Y-20250000D01*
X56740533Y-20250000D02*
X57454819Y-20440476D01*
X57454819Y-20440476D02*
X56454819Y-20678572D01*
X57454819Y-21583333D02*
X57454819Y-21011905D01*
X57454819Y-21297619D02*
X56454819Y-21297619D01*
X56454819Y-21297619D02*
X56597676Y-21202381D01*
X56597676Y-21202381D02*
X56692914Y-21107143D01*
X56692914Y-21107143D02*
X56740533Y-21011905D01*
D13*
%TO.C,SW3*%
X13250000Y-34200000D02*
X13250000Y-35700000D01*
X12000000Y-38200000D02*
X7500000Y-38200000D01*
X7500000Y-31700000D02*
X12000000Y-31700000D01*
X6250000Y-35700000D02*
X6250000Y-34200000D01*
%TO.C,SW1*%
X60500000Y-16750000D02*
X62000000Y-16750000D01*
X64500000Y-18000000D02*
X64500000Y-22500000D01*
X58000000Y-22500000D02*
X58000000Y-18000000D01*
X62000000Y-23750000D02*
X60500000Y-23750000D01*
%TD*%
M02*
