M48
; DRILL file {KiCad 7.0.10} date Mon Jan 15 00:02:04 2024
; FORMAT={-:-/ absolute / metric / decimal}
; #@! TF.CreationDate,2024-01-15T00:02:04-05:00
; #@! TF.GenerationSoftware,Kicad,Pcbnew,7.0.10
; #@! TF.FileFunction,Plated,1,2,PTH
FMAT,2
METRIC
; #@! TA.AperFunction,Plated,PTH,ViaDrill
T1C0.300
; #@! TA.AperFunction,Plated,PTH,ViaDrill
T2C0.400
; #@! TA.AperFunction,Plated,PTH,ComponentDrill
T3C0.600
; #@! TA.AperFunction,Plated,PTH,ComponentDrill
T4C0.950
; #@! TA.AperFunction,Plated,PTH,ComponentDrill
T5C1.000
; #@! TA.AperFunction,Plated,PTH,ComponentDrill
T6C1.100
; #@! TA.AperFunction,Plated,PTH,ComponentDrill
T7C2.300
; #@! TA.AperFunction,Plated,PTH,ComponentDrill
T8C3.200
%
G90
G05
T1
X-28.0Y-12.2
X-27.9Y-14.7
X-25.9Y-10.3
X-3.4Y-24.0
X-3.4Y-27.4
X-2.5Y-28.7
X-1.6Y-24.0
X-1.6Y-27.4
X-0.1Y-1.0
X0.1Y-8.8
X1.1Y-8.8
X9.81Y-17.77
X10.02Y-25.45
X10.1Y-24.34
X10.3Y-21.7
X10.97Y-23.41
X11.44Y-17.78
X11.89Y-25.07
X11.9Y-20.9
X13.97Y-29.03
X14.665Y-29.835
X15.76Y-36.75
X15.91Y-29.92
X19.92Y-29.955
X20.85Y-47.78
X21.54Y-48.28
X21.57Y-46.76
X22.5Y-51.61
X24.62Y-56.1
X25.13Y-33.645
X25.76Y-48.28
X25.79Y-47.45
X26.69Y-47.09
X27.33Y-32.27
X27.9Y-10.7
X27.9Y-15.0
X28.13Y-27.17
X29.99Y-38.28
X30.0Y-11.4
X30.1Y-8.5
X31.1Y-32.0
X31.44Y-23.94
X32.4Y-30.9
X32.44Y-32.42
X32.855Y-27.391
X33.15Y-50.245
X33.32Y-16.27
X33.54Y-52.75
X33.54Y-59.84
X33.86Y-49.12
X34.0Y-29.1
X34.0Y-31.0
X34.12Y-60.4
X34.18Y-34.06
X34.18Y-35.835
X34.28Y-37.295
X34.4Y-27.2
X34.77Y-21.24
X35.03Y-59.52
X35.4Y-31.7
X35.52Y-46.95
X35.6Y-33.1
X35.7Y-34.2
X35.71Y-47.84
X36.19Y-57.66
X36.83Y-36.85
X37.1Y-31.7
X37.47Y-32.475
X37.952Y-37.076
X38.5Y-45.2
X38.9Y-46.0
X39.3Y-46.8
X39.3Y-47.6
X39.96Y-32.81
X40.11Y-59.69
X40.4Y-43.8
X40.87Y-29.815
X41.57Y-58.17
X41.7Y-46.9
X42.71Y-58.89
X42.8Y-47.2
X43.66Y-35.4
X44.0Y-46.0
X44.55Y-36.37
X44.81Y-37.15
X44.85Y-35.45
X46.6Y-51.2
X47.3Y-26.0
X47.3Y-27.3
X47.6Y-52.1
X47.74Y-30.25
X47.9Y-49.9
X48.8Y-50.9
X48.87Y-31.37
X49.0Y-27.3
X49.1Y-25.9
X50.62Y-35.66
X50.64Y-37.1
X54.07Y-2.17
X56.4Y-7.84
X56.8Y-40.6
X57.86Y-2.14
X58.1Y-53.7
X58.7Y-53.1
X59.2Y-54.8
X59.7Y-40.7
X59.7Y-42.6
X59.9Y-4.05
X59.9Y-54.2
X60.74Y-4.67
X61.1Y-40.7
X61.1Y-42.6
T2
X-41.438Y-16.79
X-31.0Y-17.5
X-27.9Y-17.2
X-24.9Y-11.95
X-24.5Y-18.1
X-23.05Y-14.97
X-22.75Y-10.0
X-19.0Y-25.0
X-14.79Y-14.96
X-14.11Y-10.59
X-14.1Y-18.05
X-10.16Y-20.76
X-9.7Y-8.3
X-8.56Y-11.22
X-7.5Y-0.25
X-7.5Y-3.25
X-6.15Y0.25
X-6.15Y-0.9
X-5.9Y-21.55
X-5.9Y-22.575
X-4.8Y-7.1
X-3.25Y-17.15
X-3.0Y-12.0
X-2.51Y-1.08
X-1.8Y-2.0
X-1.7Y-7.2
X-1.3Y0.9
X-0.9Y-14.7
X1.3Y0.9
X1.8Y-2.0
X2.55Y-1.08
X3.0Y-12.0
X3.0Y-20.35
X3.25Y-7.2
X4.75Y-22.6
X5.25Y-6.91
X5.9Y-17.425
X6.0Y-3.0
X7.275Y-13.075
X7.32Y-19.06
X7.475Y-11.225
X7.6Y2.3
X9.1Y-16.0
X9.3Y1.1
X9.72Y-5.25
X10.0Y-3.0
X10.25Y-16.0
X10.59Y-27.68
X11.175Y-15.2
X11.86Y-29.02
X11.91Y-27.82
X13.325Y-11.475
X14.04Y-18.95
X14.15Y-27.64
X15.75Y-13.75
X16.375Y-15.975
X16.63Y-33.2
X16.725Y-14.65
X17.03Y-36.92
X17.15Y-10.65
X17.2Y-17.65
X19.7Y-32.1
X21.5Y-37.0
X22.11Y-25.71
X24.02Y-38.41
X24.13Y-16.73
X27.54Y-19.39
X27.7Y0.7
X29.1Y2.2
X29.57Y-58.1
X31.05Y-45.75
X31.85Y-22.4
X32.2Y-13.45
X32.7Y-43.95
X34.21Y-41.03
X35.764Y-49.678
X37.2Y-25.75
X38.9Y-19.5
X39.1Y-42.3
X40.7Y-24.3
X41.9Y-25.1
X42.722Y-35.093
X42.9Y-22.6
X43.0Y-45.2
X43.2Y-23.8
X43.8Y-16.1
X45.4Y-9.25
X46.35Y-11.0
X47.6Y-25.0
X48.0Y-6.7
X48.2Y-28.1
X49.2Y-52.4
X49.4Y-16.0
X49.55Y-19.45
X49.7Y-5.1
X50.4Y-7.0
X51.95Y-4.45
X53.0Y-12.0
X54.0Y-1.0
X54.9Y-5.67
X55.25Y-12.0
X55.5Y-23.9
X56.35Y-10.5
X57.0Y-29.4
X57.2Y-13.3
X57.4Y-43.7
X57.6Y-31.7
X57.6Y-40.1
X58.0Y-1.0
X58.1Y-28.2
X58.5Y-42.6
X58.6Y-30.9
X58.6Y-40.6
X59.0Y-28.6
X59.2Y-41.7
X59.5Y-29.6
X60.27Y-50.21
X60.89Y-7.32
X60.9Y-54.45
X61.25Y-3.8
X61.4Y-41.7
X62.15Y-5.88
X62.28Y-50.53
X65.9Y-9.6
T4
X-31.5Y-9.36
X-29.0Y-9.36
X-27.0Y-9.36
X-24.5Y-9.36
X24.5Y-9.36
X27.0Y-9.36
X29.0Y-9.36
X31.5Y-9.36
T5
X53.0Y-33.84
X53.0Y-36.38
X53.0Y-38.92
X53.0Y-41.46
X53.0Y-44.0
T6
X6.5Y-32.7
X6.5Y-37.2
X13.0Y-32.7
X13.0Y-37.2
X59.0Y-17.0
X59.0Y-23.5
X63.5Y-17.0
X63.5Y-23.5
T7
X-34.57Y-6.65
X-21.43Y-6.65
X21.43Y-6.65
X34.57Y-6.65
T8
X-40.0Y-2.0
X-40.0Y-58.0
X-16.0Y-2.0
X0.0Y-58.0
X15.0Y-2.0
X46.0Y-2.0
X65.0Y-2.0
X65.0Y-58.0
T3
G00X-4.32Y1.31
M15
G01X-4.32Y1.91
M16
G05
G00X-4.32Y-3.12
M15
G01X-4.32Y-2.02
M16
G05
G00X4.32Y1.31
M15
G01X4.32Y1.91
M16
G05
G00X4.32Y-3.12
M15
G01X4.32Y-2.02
M16
G05
G00X51.68Y1.31
M15
G01X51.68Y1.91
M16
G05
G00X51.68Y-3.12
M15
G01X51.68Y-2.02
M16
G05
G00X60.32Y1.31
M15
G01X60.32Y1.91
M16
G05
G00X60.32Y-3.12
M15
G01X60.32Y-2.02
M16
G05
M30
