%TF.GenerationSoftware,KiCad,Pcbnew,7.0.10*%
%TF.CreationDate,2024-01-15T00:01:57-05:00*%
%TF.ProjectId,Thinkpad-USB-keyboard-PCB,5468696e-6b70-4616-942d-5553422d6b65,rev?*%
%TF.SameCoordinates,Original*%
%TF.FileFunction,Copper,L2,Bot*%
%TF.FilePolarity,Positive*%
%FSLAX46Y46*%
G04 Gerber Fmt 4.6, Leading zero omitted, Abs format (unit mm)*
G04 Created by KiCad (PCBNEW 7.0.10) date 2024-01-15 00:01:57*
%MOMM*%
%LPD*%
G01*
G04 APERTURE LIST*
%TA.AperFunction,ComponentPad*%
%ADD10C,5.700000*%
%TD*%
%TA.AperFunction,ComponentPad*%
%ADD11R,1.600000X1.500000*%
%TD*%
%TA.AperFunction,ComponentPad*%
%ADD12C,1.600000*%
%TD*%
%TA.AperFunction,ComponentPad*%
%ADD13C,3.000000*%
%TD*%
%TA.AperFunction,ComponentPad*%
%ADD14O,1.000000X2.100000*%
%TD*%
%TA.AperFunction,ComponentPad*%
%ADD15O,1.000000X1.600000*%
%TD*%
%TA.AperFunction,WasherPad*%
%ADD16C,2.286000*%
%TD*%
%TA.AperFunction,ComponentPad*%
%ADD17R,1.700000X1.700000*%
%TD*%
%TA.AperFunction,ComponentPad*%
%ADD18O,1.700000X1.700000*%
%TD*%
%TA.AperFunction,ComponentPad*%
%ADD19C,2.000000*%
%TD*%
%TA.AperFunction,ViaPad*%
%ADD20C,0.800000*%
%TD*%
%TA.AperFunction,ViaPad*%
%ADD21C,0.600000*%
%TD*%
%TA.AperFunction,Conductor*%
%ADD22C,0.300000*%
%TD*%
%TA.AperFunction,Conductor*%
%ADD23C,0.200000*%
%TD*%
%TA.AperFunction,Conductor*%
%ADD24C,0.500000*%
%TD*%
%TA.AperFunction,Conductor*%
%ADD25C,1.000000*%
%TD*%
G04 APERTURE END LIST*
D10*
%TO.P,H8,1,1*%
%TO.N,GNDPWR*%
X0Y-58000000D03*
%TD*%
D11*
%TO.P,J2,1,VBUS*%
%TO.N,+5V*%
X-24500000Y-9360000D03*
D12*
%TO.P,J2,2,D-*%
%TO.N,D1-*%
X-27000000Y-9360000D03*
%TO.P,J2,3,D+*%
%TO.N,D1+*%
X-29000000Y-9360000D03*
%TO.P,J2,4,GND*%
%TO.N,GND*%
X-31500000Y-9360000D03*
D13*
%TO.P,J2,5,Shield*%
%TO.N,GNDPWR*%
X-21430000Y-6650000D03*
X-34570000Y-6650000D03*
%TD*%
D10*
%TO.P,H7,1,1*%
%TO.N,GNDPWR*%
X65000000Y-58000000D03*
%TD*%
D14*
%TO.P,J7,S1,SHIELD*%
%TO.N,GNDPWR*%
X60320000Y-2570000D03*
D15*
X60320000Y1610000D03*
D14*
X51680000Y-2570000D03*
D15*
X51680000Y1610000D03*
%TD*%
D16*
%TO.P,H12,*%
%TO.N,*%
X-35000000Y-54000000D03*
%TD*%
D10*
%TO.P,H6,1,1*%
%TO.N,GNDPWR*%
X-40000000Y-58000000D03*
%TD*%
%TO.P,H3,1,1*%
%TO.N,GNDPWR*%
X15000000Y-2000000D03*
%TD*%
%TO.P,H4,1,1*%
%TO.N,GNDPWR*%
X46000000Y-2000000D03*
%TD*%
D16*
%TO.P,H10,*%
%TO.N,*%
X59000000Y-58000000D03*
%TD*%
D11*
%TO.P,J3,1,VBUS*%
%TO.N,+5V*%
X31500000Y-9360000D03*
D12*
%TO.P,J3,2,D-*%
%TO.N,D4-*%
X29000000Y-9360000D03*
%TO.P,J3,3,D+*%
%TO.N,D4+*%
X27000000Y-9360000D03*
%TO.P,J3,4,GND*%
%TO.N,GND*%
X24500000Y-9360000D03*
D13*
%TO.P,J3,5,Shield*%
%TO.N,GNDPWR*%
X34570000Y-6650000D03*
X21430000Y-6650000D03*
%TD*%
D10*
%TO.P,H5,1,1*%
%TO.N,GNDPWR*%
X65000000Y-2000000D03*
%TD*%
%TO.P,H1,1,1*%
%TO.N,GNDPWR*%
X-40000000Y-2000000D03*
%TD*%
D14*
%TO.P,J1,S1,SHIELD*%
%TO.N,GNDPWR*%
X4320000Y-2570000D03*
D15*
X4320000Y1610000D03*
D14*
X-4320000Y-2570000D03*
D15*
X-4320000Y1610000D03*
%TD*%
D17*
%TO.P,J4,1,Pin_1*%
%TO.N,RESET*%
X53000000Y-44000000D03*
D18*
%TO.P,J4,2,Pin_2*%
%TO.N,+3V3*%
X53000000Y-41460000D03*
%TO.P,J4,3,Pin_3*%
%TO.N,GND*%
X53000000Y-38920000D03*
%TO.P,J4,4,Pin_4*%
%TO.N,SWD*%
X53000000Y-36380000D03*
%TO.P,J4,5,Pin_5*%
%TO.N,SWCLK*%
X53000000Y-33840000D03*
%TD*%
D16*
%TO.P,H9,*%
%TO.N,*%
X39000000Y0D03*
%TD*%
D10*
%TO.P,H2,1,1*%
%TO.N,GNDPWR*%
X-16000000Y-2000000D03*
%TD*%
D16*
%TO.P,H11,*%
%TO.N,*%
X-37000000Y-16000000D03*
%TD*%
D19*
%TO.P,SW3,1,1*%
%TO.N,GND*%
X13000000Y-32700000D03*
X6500000Y-32700000D03*
%TO.P,SW3,2,2*%
%TO.N,/~{USB_BOOT}*%
X13000000Y-37200000D03*
X6500000Y-37200000D03*
%TD*%
%TO.P,SW1,1,1*%
%TO.N,GND*%
X59000000Y-17000000D03*
X59000000Y-23500000D03*
%TO.P,SW1,2,2*%
%TO.N,RESET*%
X63500000Y-17000000D03*
X63500000Y-23500000D03*
%TD*%
D20*
%TO.N,GNDPWR*%
X2550000Y-1080000D03*
X-2510000Y-1080000D03*
%TO.N,GND*%
X65900000Y-9600000D03*
X43800000Y-16100000D03*
X38900000Y-19500000D03*
X57200000Y-13300000D03*
X53000000Y-12000000D03*
X50400000Y-7000000D03*
X48000000Y-6700000D03*
X49700000Y-5100000D03*
%TO.N,GNDPWR*%
X27700000Y700000D03*
X29100000Y2200000D03*
X9300000Y1100000D03*
X7600000Y2300000D03*
%TO.N,GND*%
X-27900000Y-17200000D03*
X-31000000Y-17500000D03*
X-4800000Y-7100000D03*
X-1700000Y-7200000D03*
X-900000Y-14700000D03*
X24130000Y-16730000D03*
%TO.N,+5V*%
X43000000Y-45200000D03*
%TO.N,GND*%
X14150000Y-27640000D03*
D21*
X24620000Y-56100000D03*
X34120000Y-60400000D03*
%TO.N,LED-CAPS-LOCK*%
X33540000Y-59840000D03*
X33540000Y-52750000D03*
%TO.N,GND*%
X21540000Y-48280000D03*
X25760000Y-48280000D03*
X22500000Y-51610000D03*
X21570000Y-46760000D03*
X26690000Y-47090000D03*
%TO.N,Net-(U2-GPIO9)*%
X25790000Y-47450000D03*
X20850000Y-47780000D03*
D20*
%TO.N,GND*%
X-24500000Y-18100000D03*
X34210000Y-41030000D03*
D21*
X11440000Y-17780000D03*
D20*
X59500000Y-29600000D03*
X19700000Y-32100000D03*
D21*
X47300000Y-27300000D03*
X30100000Y-8500000D03*
X59200000Y-54800000D03*
D20*
X22110000Y-25710000D03*
D21*
X49100000Y-25900000D03*
D20*
X43200000Y-23800000D03*
X10250000Y-16000000D03*
X49400000Y-16000000D03*
X62280000Y-50530000D03*
D21*
X34000000Y-31000000D03*
X31440000Y-23940000D03*
X32440000Y-32420000D03*
X50620000Y-35660000D03*
X48870000Y-31370000D03*
X9810000Y-17770000D03*
X11900000Y-20900000D03*
X13970000Y-29030000D03*
X58100000Y-53700000D03*
X42800000Y-47200000D03*
X41570000Y-58170000D03*
D20*
X24020000Y-38410000D03*
D21*
X41700000Y-46900000D03*
D20*
X61250000Y-3800000D03*
D21*
X35030000Y-59520000D03*
D20*
X-24900000Y-11950000D03*
X49550000Y-19450000D03*
X-41437500Y-16790000D03*
X9720000Y-5250000D03*
D21*
X-27900000Y-14700000D03*
D20*
X5250000Y-6910000D03*
D21*
X44000000Y-46000000D03*
D20*
X57000000Y-29400000D03*
D21*
X-3400000Y-24000000D03*
D20*
X21500000Y-37000000D03*
X29570000Y-58100000D03*
X16630000Y-33200000D03*
D21*
X47900000Y-49900000D03*
D20*
X3000000Y-12000000D03*
D21*
X50640000Y-37100000D03*
X40110000Y-59690000D03*
X19920000Y-29954843D03*
X39300000Y-46800000D03*
X47300000Y-26000000D03*
X47600000Y-52100000D03*
X59700000Y-42600000D03*
D20*
X15750000Y-13750000D03*
X-3000000Y-12000000D03*
X-10160000Y-20760000D03*
D21*
X35400000Y-31700000D03*
X25130000Y-33644843D03*
D20*
X17030000Y-36920000D03*
X46350000Y-11000000D03*
X55500000Y-23900000D03*
X32700000Y-43950000D03*
D21*
X46600000Y-51200000D03*
D20*
X32200000Y-13450000D03*
X-8560000Y-11220000D03*
X-19000000Y-25000000D03*
X16375000Y-15975000D03*
D21*
X15910000Y-29920000D03*
D20*
X-14100000Y-18050000D03*
D21*
X39300000Y-47600000D03*
D20*
X41900000Y-25100000D03*
X56350000Y-10500000D03*
D21*
X61100000Y-42600000D03*
D20*
X31050000Y-45750000D03*
X9100000Y-16000000D03*
X13325000Y-11475000D03*
X35763686Y-49678427D03*
X-22750000Y-10000000D03*
D21*
X-25900000Y-10300000D03*
X-1600000Y-27400000D03*
X36190000Y-57660000D03*
X47740000Y-30250000D03*
X100000Y-8800000D03*
X48800000Y-50900000D03*
X37100000Y-31700000D03*
D20*
X-14790000Y-14960000D03*
X42721573Y-35093270D03*
D21*
X-1600000Y-24000000D03*
X34770000Y-21240000D03*
X44810000Y-37150000D03*
X10020000Y-25450000D03*
X-3400000Y-27400000D03*
D20*
X51950000Y-4450000D03*
D21*
X56800000Y-40600000D03*
D20*
X3000000Y-20350000D03*
X-14110000Y-10590000D03*
D21*
X30000000Y-11400000D03*
X59700000Y-40700000D03*
D20*
X58600000Y-40600000D03*
X45400000Y-9250000D03*
X3250000Y-7200000D03*
X58500000Y-42600000D03*
D21*
X33150000Y-50244843D03*
X61100000Y-40700000D03*
D20*
X-3250000Y-17150000D03*
D21*
X27330000Y-32270000D03*
X28130000Y-27170000D03*
D20*
X-23050000Y-14970000D03*
D21*
X39960000Y-32810000D03*
X29990000Y-38280000D03*
D20*
X17200000Y-17650000D03*
D21*
X40400000Y-43800000D03*
X38500000Y-45200000D03*
D20*
X58100000Y-28200000D03*
D21*
X11890000Y-25070000D03*
X27900000Y-15000000D03*
D20*
X55250000Y-12000000D03*
X60900000Y-54450000D03*
X27540000Y-19390000D03*
X39100000Y-42300000D03*
D21*
X37951528Y-37075546D03*
D20*
X11175000Y-15200000D03*
X11860000Y-29020000D03*
D21*
X40870000Y-29814843D03*
X44850000Y-35450000D03*
D20*
X58600000Y-30900000D03*
X54900000Y-5670000D03*
D21*
X35520000Y-46950000D03*
D20*
X60270000Y-50210000D03*
X31850000Y-22400000D03*
X60890000Y-7320000D03*
D21*
X33860000Y-49120000D03*
X35600000Y-33100000D03*
X33320000Y-16270000D03*
D20*
X10590000Y-27680000D03*
D21*
X59900000Y-4050000D03*
X10970000Y-23410000D03*
X34180000Y-34060000D03*
X31100000Y-32000000D03*
X36830000Y-36850000D03*
D20*
X37200000Y-25750000D03*
D21*
X49000000Y-27300000D03*
D20*
X-7500000Y-3250000D03*
X-9700000Y-8300000D03*
X62150000Y-5880000D03*
D21*
%TO.N,+3V3*%
X35700000Y-34200000D03*
X-2500000Y-28700000D03*
D20*
X47600000Y-25000000D03*
X17150000Y-10650000D03*
X61400000Y-41700000D03*
X14040000Y-18950000D03*
D21*
X34280000Y-37294843D03*
X10300000Y-21700000D03*
X14665000Y-29835000D03*
D20*
X7320000Y-19060000D03*
D21*
X34000000Y-29100000D03*
D20*
X16725000Y-14650000D03*
X-5900000Y-21550000D03*
D21*
X34180000Y-35834843D03*
X15760000Y-36750000D03*
D20*
X-5900000Y-22575000D03*
X59200000Y-41700000D03*
X48200000Y-28100000D03*
D21*
%TO.N,VBUS*%
X1100000Y-8800000D03*
D20*
X1800000Y-2000000D03*
X-1800000Y-2000000D03*
%TO.N,GNDPWR*%
X54000000Y-1000000D03*
X-1300000Y900000D03*
X6000000Y-3000000D03*
X1300000Y900000D03*
X-7500000Y-250000D03*
X58000000Y-1000000D03*
D21*
X-100000Y-1000000D03*
D20*
X10000000Y-3000000D03*
D21*
%TO.N,D2+*%
X10100000Y-24340000D03*
D20*
X11910000Y-27820000D03*
%TO.N,Net-(U3-RBIAS)*%
X5900000Y-17425000D03*
X4750000Y-22600000D03*
%TO.N,Net-(U3-SUSP_IND{slash}LOCAL_PWR{slash}NON_REM0)*%
X7475000Y-11225000D03*
X7275000Y-13075000D03*
D21*
%TO.N,SWD*%
X44550000Y-36370000D03*
%TO.N,SWCLK*%
X43660000Y-35400000D03*
%TO.N,+5V*%
X38900000Y-46000000D03*
X56400000Y-7840000D03*
X-28000000Y-12200000D03*
D20*
X49200000Y-52400000D03*
X-6150000Y-900000D03*
D21*
X57860000Y-2140000D03*
X54070000Y-2170000D03*
D20*
X-6150000Y250000D03*
D21*
X27900000Y-10700000D03*
X59900000Y-54200000D03*
X60740000Y-4670000D03*
X58700000Y-53100000D03*
%TO.N,+1V1*%
X32855422Y-27390980D03*
X32400000Y-30900000D03*
%TO.N,RESET*%
X37470000Y-32474843D03*
D20*
X42900000Y-22600000D03*
X59000000Y-28600000D03*
X40700000Y-24300000D03*
X57600000Y-40100000D03*
X57400000Y-43700000D03*
X57600000Y-31700000D03*
D21*
X34400000Y-27200000D03*
%TO.N,TP4-RESET-5V*%
X35710000Y-47840000D03*
X42710000Y-58890000D03*
%TD*%
D22*
%TO.N,+5V*%
X42700000Y-45500000D02*
X43000000Y-45200000D01*
X42700000Y-46000000D02*
X42700000Y-45500000D01*
%TO.N,LED-CAPS-LOCK*%
X33540000Y-52750000D02*
X33540000Y-59840000D01*
D23*
%TO.N,Net-(U2-GPIO9)*%
X25790000Y-47450000D02*
X21180000Y-47450000D01*
X21180000Y-47450000D02*
X20850000Y-47780000D01*
%TO.N,+3V3*%
X34180000Y-37194843D02*
X34280000Y-37294843D01*
D22*
X33200000Y-31300000D02*
X34900000Y-33000000D01*
D24*
X48200000Y-25600000D02*
X47600000Y-25000000D01*
D22*
X10300000Y-18440000D02*
X10680000Y-18060000D01*
D24*
X7320000Y-18880000D02*
X9200000Y-17000000D01*
D22*
X10680000Y-18060000D02*
X10680000Y-17000000D01*
D24*
X7320000Y-19060000D02*
X7320000Y-18880000D01*
D23*
X34180000Y-35720000D02*
X34180000Y-35834843D01*
D24*
X-5900000Y-22575000D02*
X-2600000Y-22575000D01*
D22*
X34900000Y-33000000D02*
X34900000Y-33400000D01*
D24*
X5850000Y-22850000D02*
X5175000Y-23525000D01*
X10680000Y-17000000D02*
X12100000Y-17000000D01*
X48200000Y-28100000D02*
X48200000Y-25600000D01*
X7320000Y-19060000D02*
X6440000Y-19060000D01*
D23*
X35700000Y-34200000D02*
X34180000Y-35720000D01*
D22*
X34000000Y-30038077D02*
X33200000Y-30838077D01*
X7320000Y-19060000D02*
X7340000Y-19060000D01*
D24*
X5850000Y-19650000D02*
X5850000Y-22850000D01*
D22*
X10300000Y-21700000D02*
X10300000Y-18440000D01*
D24*
X12100000Y-17000000D02*
X12100000Y-17010000D01*
X3750000Y-23500000D02*
X100000Y-23500000D01*
X-2500000Y-22675000D02*
X-2600000Y-22575000D01*
D23*
X15760000Y-30930000D02*
X14665000Y-29835000D01*
D24*
X17150000Y-10650000D02*
X17150000Y-14225000D01*
X17150000Y-14225000D02*
X16725000Y-14650000D01*
X3775000Y-23525000D02*
X3750000Y-23500000D01*
D23*
X34180000Y-35834843D02*
X34180000Y-37194843D01*
D24*
X5175000Y-23525000D02*
X3775000Y-23525000D01*
X10300000Y-17000000D02*
X10680000Y-17000000D01*
X12100000Y-17010000D02*
X14040000Y-18950000D01*
X-2500000Y-28700000D02*
X-2500000Y-22675000D01*
X61400000Y-41700000D02*
X59200000Y-41700000D01*
D22*
X34900000Y-33400000D02*
X35700000Y-34200000D01*
D24*
X6440000Y-19060000D02*
X5850000Y-19650000D01*
X9200000Y-17000000D02*
X10300000Y-17000000D01*
X-2600000Y-22575000D02*
X-825000Y-22575000D01*
D23*
X15760000Y-36750000D02*
X15760000Y-30930000D01*
D22*
X33200000Y-30838077D02*
X33200000Y-31300000D01*
D24*
X-825000Y-22575000D02*
X100000Y-23500000D01*
D22*
X34000000Y-29100000D02*
X34000000Y-30038077D01*
%TO.N,VBUS*%
X2500000Y-3300000D02*
X2500000Y-2800000D01*
X4300000Y-5100000D02*
X2500000Y-3300000D01*
X2500000Y-2800000D02*
X1800000Y-2100000D01*
X4300000Y-7400000D02*
X4300000Y-5100000D01*
X2900000Y-8800000D02*
X4300000Y-7400000D01*
D24*
X-1800000Y-1950000D02*
X1750000Y-1950000D01*
D22*
X1800000Y-2100000D02*
X1800000Y-2000000D01*
X1100000Y-8800000D02*
X2900000Y-8800000D01*
D24*
X1750000Y-1950000D02*
X1800000Y-1900000D01*
D25*
%TO.N,GNDPWR*%
X65000000Y-55600000D02*
X67090000Y-53510000D01*
X-40000000Y-58000000D02*
X0Y-58000000D01*
X65000000Y-7110000D02*
X65000000Y-2000000D01*
X-40000000Y-2000000D02*
X-40000000Y-58000000D01*
X65000000Y-58000000D02*
X65000000Y-55600000D01*
X67090000Y-9200000D02*
X65000000Y-7110000D01*
X-40000000Y-2000000D02*
X-16000000Y-2000000D01*
X67090000Y-53510000D02*
X67090000Y-9200000D01*
D22*
%TO.N,D2+*%
X11910000Y-26150000D02*
X11910000Y-27820000D01*
X10100000Y-24340000D02*
X11910000Y-26150000D01*
%TO.N,Net-(U3-RBIAS)*%
X5900000Y-18800000D02*
X5450000Y-19250000D01*
X5450000Y-19250000D02*
X5275000Y-19425000D01*
X5275000Y-19425000D02*
X5275000Y-21850000D01*
X5275000Y-21850000D02*
X5275000Y-22075000D01*
X5275000Y-22075000D02*
X4750000Y-22600000D01*
X5900000Y-17425000D02*
X5900000Y-18800000D01*
%TO.N,Net-(U3-SUSP_IND{slash}LOCAL_PWR{slash}NON_REM0)*%
X7275000Y-13075000D02*
X7475000Y-12875000D01*
X7475000Y-12875000D02*
X7475000Y-11225000D01*
D23*
%TO.N,SWD*%
X45150000Y-36370000D02*
X45160000Y-36380000D01*
X45160000Y-36380000D02*
X53000000Y-36380000D01*
X44550000Y-36370000D02*
X45150000Y-36370000D01*
%TO.N,SWCLK*%
X48510000Y-30550000D02*
X49710000Y-30550000D01*
X43660000Y-35400000D02*
X48510000Y-30550000D01*
X49710000Y-30550000D02*
X53000000Y-33840000D01*
D22*
%TO.N,+5V*%
X56400000Y-6220000D02*
X57950000Y-4670000D01*
D24*
X-5800000Y-100000D02*
X-6150000Y250000D01*
D22*
X-24500000Y-10700000D02*
X-24500000Y-9360000D01*
X59200000Y-4680000D02*
X59210000Y-4670000D01*
D24*
X58700000Y-53100000D02*
X58800000Y-53100000D01*
D22*
X54770000Y-1470000D02*
X57190000Y-1470000D01*
X27900000Y-10700000D02*
X30160000Y-10700000D01*
D24*
X31500000Y-9360000D02*
X31500000Y-1600000D01*
D22*
X59190000Y-4670000D02*
X59200000Y-4680000D01*
D24*
X9000000Y2300000D02*
X6600000Y-100000D01*
X27600000Y2300000D02*
X9000000Y2300000D01*
X6600000Y-100000D02*
X-5800000Y-100000D01*
X42700000Y-46000000D02*
X49100000Y-52400000D01*
D22*
X-26000000Y-11100000D02*
X-24900000Y-11100000D01*
X-24900000Y-11100000D02*
X-24500000Y-10700000D01*
X57950000Y-4670000D02*
X59190000Y-4670000D01*
D24*
X49100000Y-52400000D02*
X49200000Y-52400000D01*
D22*
X57190000Y-1470000D02*
X57860000Y-2140000D01*
X54070000Y-2170000D02*
X54770000Y-1470000D01*
D24*
X58800000Y-53100000D02*
X59900000Y-54200000D01*
D22*
X-28000000Y-12200000D02*
X-27100000Y-12200000D01*
X56400000Y-7840000D02*
X56400000Y-6220000D01*
X30160000Y-10700000D02*
X31500000Y-9360000D01*
X-27100000Y-12200000D02*
X-26000000Y-11100000D01*
D24*
X38900000Y-46000000D02*
X42700000Y-46000000D01*
D22*
X59210000Y-4670000D02*
X60740000Y-4670000D01*
D24*
X31500000Y-1600000D02*
X27600000Y2300000D01*
D23*
%TO.N,+1V1*%
X32800000Y-30500000D02*
X32400000Y-30900000D01*
X32855422Y-27390980D02*
X32800000Y-27446402D01*
X32800000Y-27446402D02*
X32800000Y-30500000D01*
%TO.N,RESET*%
X34974843Y-32474843D02*
X37470000Y-32474843D01*
X34600000Y-32100000D02*
X34974843Y-32474843D01*
X42800000Y-22600000D02*
X42900000Y-22600000D01*
D24*
X57600000Y-40100000D02*
X57600000Y-43500000D01*
X57600000Y-43500000D02*
X57400000Y-43700000D01*
X57600000Y-30000000D02*
X57600000Y-31700000D01*
D23*
X41000000Y-24300000D02*
X41100000Y-24300000D01*
X41100000Y-24300000D02*
X42600000Y-22800000D01*
X42600000Y-22800000D02*
X42800000Y-22600000D01*
X34400000Y-27200000D02*
X34600000Y-27400000D01*
D24*
X59000000Y-28600000D02*
X57600000Y-30000000D01*
D23*
X34600000Y-27400000D02*
X34600000Y-32100000D01*
X41000000Y-24300000D02*
X40700000Y-24300000D01*
D22*
%TO.N,TP4-RESET-5V*%
X34650000Y-48900000D02*
X34650000Y-50570000D01*
X35990000Y-58540000D02*
X36340000Y-58890000D01*
X34650000Y-50570000D02*
X34650000Y-57200000D01*
X34650000Y-57200000D02*
X35990000Y-58540000D01*
X41780000Y-58890000D02*
X42710000Y-58890000D01*
X36340000Y-58890000D02*
X41780000Y-58890000D01*
X35710000Y-47840000D02*
X34650000Y-48900000D01*
%TD*%
%TA.AperFunction,Conductor*%
%TO.N,+5V*%
G36*
X-5557879Y729998D02*
G01*
X-5511386Y676342D01*
X-5500000Y624000D01*
X-5500000Y-1374000D01*
X-5520002Y-1442121D01*
X-5573658Y-1488614D01*
X-5626000Y-1500000D01*
X-6624000Y-1500000D01*
X-6692121Y-1479998D01*
X-6738614Y-1426342D01*
X-6750000Y-1374000D01*
X-6750000Y624000D01*
X-6729998Y692121D01*
X-6676342Y738614D01*
X-6624000Y750000D01*
X-5626000Y750000D01*
X-5557879Y729998D01*
G37*
%TD.AperFunction*%
%TD*%
%TA.AperFunction,Conductor*%
%TO.N,+3V3*%
G36*
X-5457879Y-20920002D02*
G01*
X-5411386Y-20973658D01*
X-5400000Y-21026000D01*
X-5400000Y-23024000D01*
X-5420002Y-23092121D01*
X-5473658Y-23138614D01*
X-5526000Y-23150000D01*
X-6274000Y-23150000D01*
X-6342121Y-23129998D01*
X-6388614Y-23076342D01*
X-6400000Y-23024000D01*
X-6400000Y-21026000D01*
X-6379998Y-20957879D01*
X-6326342Y-20911386D01*
X-6274000Y-20900000D01*
X-5526000Y-20900000D01*
X-5457879Y-20920002D01*
G37*
%TD.AperFunction*%
%TD*%
%TA.AperFunction,Conductor*%
%TO.N,GND*%
G36*
X-2989075Y-58719407D02*
G01*
X-2953111Y-58768907D01*
X-2952139Y-58772079D01*
X-2883853Y-59009104D01*
X-2752736Y-59325648D01*
X-2587002Y-59625521D01*
X-2388735Y-59904953D01*
X-2160428Y-60160428D01*
X-1904953Y-60388735D01*
X-1747003Y-60500806D01*
X-1720291Y-60519759D01*
X-1683774Y-60568853D01*
X-1683087Y-60630034D01*
X-1718493Y-60679935D01*
X-1776468Y-60699494D01*
X-1777579Y-60699500D01*
X-38222421Y-60699500D01*
X-38280612Y-60680593D01*
X-38316576Y-60631093D01*
X-38316576Y-60569907D01*
X-38280612Y-60520407D01*
X-38279709Y-60519759D01*
X-38252997Y-60500806D01*
X-38095047Y-60388735D01*
X-37908631Y-60222143D01*
X-37839578Y-60160434D01*
X-37839565Y-60160421D01*
X-37766280Y-60078415D01*
X-37611265Y-59904953D01*
X-37412998Y-59625521D01*
X-37380448Y-59566627D01*
X-37247265Y-59325652D01*
X-37116147Y-59009105D01*
X-37047865Y-58772093D01*
X-37013587Y-58721411D01*
X-36956066Y-58700556D01*
X-36952734Y-58700500D01*
X-3047266Y-58700500D01*
X-2989075Y-58719407D01*
G37*
%TD.AperFunction*%
%TA.AperFunction,Conductor*%
G36*
X-5068379Y-2694572D02*
G01*
X-5028310Y-2740812D01*
X-5020500Y-2779352D01*
X-5020500Y-3162372D01*
X-5005140Y-3288872D01*
X-4944818Y-3447930D01*
X-4897024Y-3517169D01*
X-4879500Y-3573407D01*
X-4879500Y-3593934D01*
X-4898407Y-3652125D01*
X-4947907Y-3688089D01*
X-4964409Y-3691926D01*
X-4969814Y-3692703D01*
X-4969815Y-3692703D01*
X-4969820Y-3692704D01*
X-4991906Y-3698193D01*
X-5029487Y-3707532D01*
X-5051302Y-3720291D01*
X-5126401Y-3764212D01*
X-5126404Y-3764215D01*
X-5126406Y-3764216D01*
X-5180056Y-3810704D01*
X-5180057Y-3810705D01*
X-5222238Y-3855441D01*
X-5273123Y-3955518D01*
X-5293125Y-4023639D01*
X-5293125Y-4023641D01*
X-5305500Y-4109703D01*
X-5305500Y-4109708D01*
X-5305500Y-4374000D01*
X-5298519Y-4438937D01*
X-5287133Y-4491279D01*
X-5276175Y-4529488D01*
X-5219496Y-4626401D01*
X-5173003Y-4680057D01*
X-5128267Y-4722238D01*
X-5028190Y-4773123D01*
X-4960069Y-4793125D01*
X-4923182Y-4798428D01*
X-4874004Y-4805500D01*
X-4874000Y-4805500D01*
X2758711Y-4805500D01*
X2759537Y-4805485D01*
X2769609Y-4805305D01*
X2778598Y-4804984D01*
X2874458Y-4785917D01*
X2940978Y-4761106D01*
X2996129Y-4733932D01*
X3078780Y-4657948D01*
X3121327Y-4601112D01*
X3125204Y-4594669D01*
X3171410Y-4554561D01*
X3232366Y-4549271D01*
X3280032Y-4575714D01*
X3920504Y-5216186D01*
X3948281Y-5270703D01*
X3949500Y-5286190D01*
X3949500Y-7213810D01*
X3930593Y-7272001D01*
X3920504Y-7283814D01*
X2783814Y-8420504D01*
X2729297Y-8448281D01*
X2713810Y-8449500D01*
X1503759Y-8449500D01*
X1445568Y-8430593D01*
X1436596Y-8422359D01*
X1436480Y-8422494D01*
X1431128Y-8417856D01*
X1310057Y-8340049D01*
X1310054Y-8340047D01*
X1310053Y-8340047D01*
X1310050Y-8340046D01*
X1171964Y-8299500D01*
X1171961Y-8299500D01*
X1028039Y-8299500D01*
X1028035Y-8299500D01*
X889949Y-8340046D01*
X889942Y-8340049D01*
X768873Y-8417855D01*
X674622Y-8526628D01*
X614834Y-8657543D01*
X594353Y-8799997D01*
X594353Y-8800002D01*
X614834Y-8942456D01*
X654581Y-9029488D01*
X674623Y-9073373D01*
X768872Y-9182143D01*
X768873Y-9182144D01*
X889942Y-9259950D01*
X889947Y-9259953D01*
X982501Y-9287129D01*
X1028035Y-9300499D01*
X1028036Y-9300499D01*
X1028039Y-9300500D01*
X1028041Y-9300500D01*
X1171959Y-9300500D01*
X1171961Y-9300500D01*
X1310053Y-9259953D01*
X1431128Y-9182143D01*
X1436480Y-9177506D01*
X1437968Y-9179223D01*
X1481341Y-9153072D01*
X1503759Y-9150500D01*
X2853381Y-9150500D01*
X2873696Y-9152607D01*
X2875606Y-9153007D01*
X2885315Y-9155043D01*
X2915662Y-9151259D01*
X2927907Y-9150500D01*
X2929043Y-9150500D01*
X2948521Y-9147249D01*
X2952552Y-9146661D01*
X3001393Y-9140573D01*
X3001396Y-9140571D01*
X3008429Y-9138477D01*
X3015375Y-9136092D01*
X3015381Y-9136092D01*
X3058655Y-9112671D01*
X3062279Y-9110807D01*
X3106482Y-9089199D01*
X3106482Y-9089198D01*
X3106484Y-9089198D01*
X3106485Y-9089196D01*
X3112470Y-9084923D01*
X3118255Y-9080420D01*
X3118255Y-9080419D01*
X3118258Y-9080418D01*
X3151579Y-9044220D01*
X3154364Y-9041316D01*
X4514884Y-7680796D01*
X4530734Y-7667926D01*
X4540669Y-7661437D01*
X4559451Y-7637303D01*
X4567577Y-7628104D01*
X4568375Y-7627307D01*
X4579886Y-7611182D01*
X4582288Y-7607962D01*
X4612517Y-7569126D01*
X4612517Y-7569123D01*
X4616023Y-7562645D01*
X4619237Y-7556071D01*
X4619237Y-7556069D01*
X4619240Y-7556066D01*
X4633287Y-7508881D01*
X4634512Y-7505054D01*
X4650500Y-7458488D01*
X4650500Y-7458483D01*
X4651707Y-7451254D01*
X4652617Y-7443954D01*
X4650585Y-7394823D01*
X4650500Y-7390732D01*
X4650500Y-5146613D01*
X4652607Y-5126297D01*
X4655042Y-5114685D01*
X4651260Y-5084342D01*
X4650500Y-5072098D01*
X4650500Y-5070959D01*
X4649414Y-5064452D01*
X4647243Y-5051447D01*
X4646658Y-5047429D01*
X4645114Y-5035042D01*
X4640573Y-4998607D01*
X4640571Y-4998604D01*
X4638477Y-4991569D01*
X4636092Y-4984620D01*
X4636092Y-4984619D01*
X4618232Y-4951618D01*
X4607165Y-4891445D01*
X4633580Y-4836256D01*
X4687391Y-4807133D01*
X4705300Y-4805500D01*
X10095500Y-4805500D01*
X10153691Y-4824407D01*
X10189655Y-4873907D01*
X10194500Y-4904500D01*
X10194500Y-8873996D01*
X10194499Y-8873996D01*
X10198470Y-8910930D01*
X10201481Y-8938937D01*
X10209384Y-8975269D01*
X10212870Y-8991291D01*
X10223823Y-9029484D01*
X10223824Y-9029486D01*
X10223825Y-9029488D01*
X10256246Y-9084923D01*
X10280506Y-9126404D01*
X10326274Y-9179223D01*
X10326997Y-9180057D01*
X10371733Y-9222238D01*
X10471810Y-9273123D01*
X10539931Y-9293125D01*
X10568620Y-9297250D01*
X10625996Y-9305500D01*
X10626000Y-9305500D01*
X22873996Y-9305500D01*
X22874000Y-9305500D01*
X22938937Y-9298519D01*
X22991279Y-9287133D01*
X23029488Y-9276175D01*
X23038024Y-9271182D01*
X23097797Y-9258125D01*
X23153832Y-9282696D01*
X23184723Y-9335510D01*
X23187004Y-9356639D01*
X23187004Y-9360003D01*
X23206949Y-9587991D01*
X23266187Y-9809069D01*
X23362910Y-10016495D01*
X23412899Y-10087888D01*
X24035779Y-9465007D01*
X24063481Y-9559351D01*
X24137327Y-9674258D01*
X24240555Y-9763705D01*
X24364801Y-9820446D01*
X24394493Y-9824715D01*
X23772110Y-10447099D01*
X23843503Y-10497088D01*
X24050930Y-10593812D01*
X24272008Y-10653050D01*
X24499997Y-10672996D01*
X24500003Y-10672996D01*
X24727991Y-10653050D01*
X24949069Y-10593812D01*
X25156498Y-10497087D01*
X25156499Y-10497087D01*
X25227888Y-10447099D01*
X24605504Y-9824715D01*
X24635199Y-9820446D01*
X24759445Y-9763705D01*
X24862673Y-9674258D01*
X24936519Y-9559351D01*
X24964219Y-9465008D01*
X25587099Y-10087888D01*
X25637087Y-10016499D01*
X25637087Y-10016498D01*
X25733812Y-9809069D01*
X25793050Y-9587991D01*
X25805662Y-9443826D01*
X25829568Y-9387505D01*
X25876337Y-9359402D01*
X25864611Y-9358248D01*
X25818874Y-9317605D01*
X25805662Y-9276173D01*
X25793050Y-9132008D01*
X25733812Y-8910930D01*
X25637088Y-8703503D01*
X25587099Y-8632110D01*
X24964219Y-9254989D01*
X24936519Y-9160649D01*
X24862673Y-9045742D01*
X24759445Y-8956295D01*
X24635199Y-8899554D01*
X24605502Y-8895284D01*
X25227888Y-8272899D01*
X25156495Y-8222910D01*
X24949069Y-8126187D01*
X24727991Y-8066949D01*
X24500003Y-8047004D01*
X24499997Y-8047004D01*
X24272008Y-8066949D01*
X24050925Y-8126188D01*
X23843510Y-8222907D01*
X23843493Y-8222917D01*
X23772110Y-8272899D01*
X24394495Y-8895284D01*
X24364801Y-8899554D01*
X24240555Y-8956295D01*
X24137327Y-9045742D01*
X24063481Y-9160649D01*
X24035780Y-9254991D01*
X23412803Y-8632014D01*
X23353510Y-8618325D01*
X23313370Y-8572147D01*
X23305500Y-8533466D01*
X23305500Y-7900779D01*
X23324407Y-7842588D01*
X23373907Y-7806624D01*
X23418589Y-7802787D01*
X23437456Y-7805500D01*
X23437457Y-7805500D01*
X30823496Y-7805500D01*
X30823500Y-7805500D01*
X30888437Y-7798519D01*
X30929456Y-7789596D01*
X30990336Y-7795701D01*
X31036000Y-7836425D01*
X31049500Y-7886333D01*
X31049500Y-8310500D01*
X31030593Y-8368691D01*
X30981093Y-8404655D01*
X30950500Y-8409500D01*
X30680252Y-8409500D01*
X30680251Y-8409500D01*
X30680241Y-8409501D01*
X30621772Y-8421132D01*
X30621766Y-8421134D01*
X30555451Y-8465445D01*
X30555445Y-8465451D01*
X30511134Y-8531766D01*
X30511132Y-8531772D01*
X30499501Y-8590241D01*
X30499500Y-8590253D01*
X30499500Y-9823810D01*
X30480593Y-9882001D01*
X30470504Y-9893814D01*
X30043814Y-10320504D01*
X29989297Y-10348281D01*
X29973810Y-10349500D01*
X29648075Y-10349500D01*
X29589884Y-10330593D01*
X29553920Y-10281093D01*
X29553920Y-10219907D01*
X29585270Y-10173972D01*
X29710878Y-10070887D01*
X29710877Y-10070887D01*
X29710883Y-10070883D01*
X29835910Y-9918538D01*
X29928814Y-9744727D01*
X29986024Y-9556132D01*
X29986024Y-9556127D01*
X29986025Y-9556126D01*
X30005341Y-9360003D01*
X30005341Y-9359996D01*
X29986025Y-9163873D01*
X29986024Y-9163870D01*
X29986024Y-9163868D01*
X29928814Y-8975273D01*
X29911273Y-8942457D01*
X29880562Y-8885000D01*
X29835910Y-8801462D01*
X29824464Y-8787515D01*
X29710887Y-8649121D01*
X29710878Y-8649112D01*
X29558542Y-8524093D01*
X29558540Y-8524092D01*
X29558538Y-8524090D01*
X29517618Y-8502218D01*
X29384732Y-8431188D01*
X29384730Y-8431187D01*
X29351583Y-8421132D01*
X29250911Y-8390593D01*
X29196129Y-8373975D01*
X29196126Y-8373974D01*
X29000003Y-8354659D01*
X28999997Y-8354659D01*
X28803873Y-8373974D01*
X28803870Y-8373975D01*
X28615269Y-8431187D01*
X28615267Y-8431188D01*
X28441467Y-8524087D01*
X28441457Y-8524093D01*
X28289121Y-8649112D01*
X28289112Y-8649121D01*
X28164093Y-8801457D01*
X28164089Y-8801463D01*
X28087310Y-8945107D01*
X28043204Y-8987513D01*
X27982596Y-8995896D01*
X27928635Y-8967053D01*
X27912690Y-8945107D01*
X27880562Y-8885000D01*
X27835910Y-8801462D01*
X27824464Y-8787515D01*
X27710887Y-8649121D01*
X27710878Y-8649112D01*
X27558542Y-8524093D01*
X27558540Y-8524092D01*
X27558538Y-8524090D01*
X27517618Y-8502218D01*
X27384732Y-8431188D01*
X27384730Y-8431187D01*
X27351583Y-8421132D01*
X27250911Y-8390593D01*
X27196129Y-8373975D01*
X27196126Y-8373974D01*
X27000003Y-8354659D01*
X26999997Y-8354659D01*
X26803873Y-8373974D01*
X26803870Y-8373975D01*
X26615269Y-8431187D01*
X26615267Y-8431188D01*
X26441467Y-8524087D01*
X26441457Y-8524093D01*
X26289121Y-8649112D01*
X26289112Y-8649121D01*
X26164093Y-8801457D01*
X26164087Y-8801467D01*
X26071188Y-8975267D01*
X26071187Y-8975269D01*
X26013975Y-9163870D01*
X26013974Y-9163873D01*
X26002808Y-9277249D01*
X25978288Y-9333306D01*
X25932105Y-9360373D01*
X25942967Y-9361324D01*
X25989144Y-9401465D01*
X26002808Y-9442750D01*
X26013974Y-9556127D01*
X26013975Y-9556129D01*
X26013976Y-9556132D01*
X26063445Y-9719210D01*
X26071187Y-9744730D01*
X26071188Y-9744732D01*
X26113457Y-9823810D01*
X26164090Y-9918538D01*
X26164092Y-9918540D01*
X26164093Y-9918542D01*
X26289112Y-10070878D01*
X26289121Y-10070887D01*
X26433143Y-10189083D01*
X26441462Y-10195910D01*
X26615273Y-10288814D01*
X26803868Y-10346024D01*
X26803870Y-10346024D01*
X26803873Y-10346025D01*
X26999997Y-10365341D01*
X27000000Y-10365341D01*
X27000003Y-10365341D01*
X27196126Y-10346025D01*
X27196127Y-10346024D01*
X27196132Y-10346024D01*
X27352219Y-10298675D01*
X27413391Y-10299876D01*
X27462175Y-10336805D01*
X27479937Y-10395355D01*
X27471009Y-10434538D01*
X27414834Y-10557541D01*
X27414834Y-10557543D01*
X27394353Y-10699997D01*
X27394353Y-10700002D01*
X27414834Y-10842456D01*
X27451235Y-10922161D01*
X27474623Y-10973373D01*
X27556826Y-11068241D01*
X27568873Y-11082144D01*
X27689942Y-11159950D01*
X27689947Y-11159953D01*
X27796403Y-11191211D01*
X27828035Y-11200499D01*
X27828036Y-11200499D01*
X27828039Y-11200500D01*
X27828041Y-11200500D01*
X27971959Y-11200500D01*
X27971961Y-11200500D01*
X28110053Y-11159953D01*
X28231128Y-11082143D01*
X28236480Y-11077506D01*
X28237968Y-11079223D01*
X28281341Y-11053072D01*
X28303759Y-11050500D01*
X30113381Y-11050500D01*
X30133696Y-11052607D01*
X30135606Y-11053007D01*
X30145315Y-11055043D01*
X30175662Y-11051259D01*
X30187907Y-11050500D01*
X30189043Y-11050500D01*
X30208521Y-11047249D01*
X30212552Y-11046661D01*
X30261393Y-11040573D01*
X30261396Y-11040571D01*
X30268429Y-11038477D01*
X30275375Y-11036092D01*
X30275381Y-11036092D01*
X30318655Y-11012671D01*
X30322279Y-11010807D01*
X30366482Y-10989199D01*
X30366482Y-10989198D01*
X30366484Y-10989198D01*
X30366485Y-10989196D01*
X30372470Y-10984923D01*
X30378255Y-10980420D01*
X30378255Y-10980419D01*
X30378258Y-10980418D01*
X30411578Y-10944220D01*
X30414389Y-10941292D01*
X31016187Y-10339496D01*
X31070703Y-10311719D01*
X31086190Y-10310500D01*
X32319747Y-10310500D01*
X32319748Y-10310500D01*
X32378231Y-10298867D01*
X32444552Y-10254552D01*
X32488867Y-10188231D01*
X32500500Y-10129748D01*
X32500500Y-8916511D01*
X32519407Y-8858320D01*
X32568907Y-8822356D01*
X32630093Y-8822356D01*
X32679593Y-8858320D01*
X32697932Y-8905927D01*
X32701481Y-8938937D01*
X32709384Y-8975269D01*
X32712870Y-8991291D01*
X32723823Y-9029484D01*
X32723824Y-9029486D01*
X32723825Y-9029488D01*
X32756246Y-9084923D01*
X32780506Y-9126404D01*
X32826274Y-9179223D01*
X32826997Y-9180057D01*
X32871733Y-9222238D01*
X32971810Y-9273123D01*
X33039931Y-9293125D01*
X33068620Y-9297250D01*
X33125996Y-9305500D01*
X33126000Y-9305500D01*
X42873996Y-9305500D01*
X42874000Y-9305500D01*
X42938937Y-9298519D01*
X42991279Y-9287133D01*
X43029488Y-9276175D01*
X43126401Y-9219496D01*
X43180057Y-9173003D01*
X43222238Y-9128267D01*
X43273123Y-9028190D01*
X43293125Y-8960069D01*
X43301826Y-8899554D01*
X43305500Y-8874004D01*
X43305500Y-7840002D01*
X55894353Y-7840002D01*
X55914834Y-7982456D01*
X55974622Y-8113371D01*
X55974623Y-8113373D01*
X56059728Y-8211590D01*
X56068873Y-8222144D01*
X56189242Y-8299500D01*
X56189947Y-8299953D01*
X56274937Y-8324908D01*
X56328035Y-8340499D01*
X56328036Y-8340499D01*
X56328039Y-8340500D01*
X56328041Y-8340500D01*
X56471959Y-8340500D01*
X56471961Y-8340500D01*
X56610053Y-8299953D01*
X56731128Y-8222143D01*
X56825377Y-8113373D01*
X56885165Y-7982457D01*
X56896908Y-7900779D01*
X56905647Y-7840002D01*
X56905647Y-7839997D01*
X56885165Y-7697543D01*
X56868675Y-7661436D01*
X56825377Y-7566627D01*
X56816226Y-7556066D01*
X56774680Y-7508117D01*
X56750863Y-7451757D01*
X56750500Y-7443287D01*
X56750500Y-6406190D01*
X56769407Y-6347999D01*
X56779496Y-6336186D01*
X58066186Y-5049496D01*
X58120703Y-5021719D01*
X58136190Y-5020500D01*
X59100923Y-5020500D01*
X59129170Y-5024615D01*
X59156046Y-5032617D01*
X59158493Y-5032515D01*
X59182907Y-5034538D01*
X59185315Y-5035043D01*
X59224904Y-5030107D01*
X59233050Y-5029431D01*
X59272922Y-5027783D01*
X59274226Y-5027273D01*
X59310218Y-5020500D01*
X60336241Y-5020500D01*
X60394432Y-5039407D01*
X60403403Y-5047640D01*
X60403520Y-5047506D01*
X60408871Y-5052143D01*
X60529942Y-5129950D01*
X60529947Y-5129953D01*
X60636403Y-5161211D01*
X60668035Y-5170499D01*
X60668036Y-5170499D01*
X60668039Y-5170500D01*
X60668041Y-5170500D01*
X60811959Y-5170500D01*
X60811961Y-5170500D01*
X60950053Y-5129953D01*
X61071128Y-5052143D01*
X61165377Y-4943373D01*
X61225165Y-4812457D01*
X61232549Y-4761099D01*
X61245647Y-4670002D01*
X61245647Y-4669997D01*
X61225165Y-4527543D01*
X61208609Y-4491291D01*
X61165377Y-4396627D01*
X61071128Y-4287857D01*
X61071127Y-4287856D01*
X61071126Y-4287855D01*
X60950057Y-4210049D01*
X60950054Y-4210047D01*
X60950053Y-4210047D01*
X60950050Y-4210046D01*
X60811964Y-4169500D01*
X60811961Y-4169500D01*
X60668039Y-4169500D01*
X60668035Y-4169500D01*
X60529949Y-4210046D01*
X60529942Y-4210049D01*
X60408871Y-4287856D01*
X60403520Y-4292494D01*
X60402031Y-4290776D01*
X60358659Y-4316928D01*
X60336241Y-4319500D01*
X59256614Y-4319500D01*
X59236299Y-4317393D01*
X59224685Y-4314957D01*
X59195022Y-4318654D01*
X59186898Y-4319328D01*
X59184832Y-4319414D01*
X59180715Y-4319500D01*
X57996619Y-4319500D01*
X57976304Y-4317393D01*
X57964685Y-4314957D01*
X57945144Y-4317393D01*
X57934338Y-4318740D01*
X57922093Y-4319500D01*
X57920960Y-4319500D01*
X57901470Y-4322751D01*
X57897431Y-4323339D01*
X57848607Y-4329426D01*
X57841581Y-4331517D01*
X57834616Y-4333908D01*
X57791361Y-4357317D01*
X57787724Y-4359189D01*
X57743520Y-4380799D01*
X57737542Y-4385066D01*
X57731744Y-4389580D01*
X57698431Y-4425765D01*
X57695601Y-4428715D01*
X56185118Y-5939198D01*
X56169265Y-5952071D01*
X56159335Y-5958559D01*
X56159332Y-5958561D01*
X56140548Y-5982695D01*
X56132437Y-5991880D01*
X56131627Y-5992689D01*
X56131619Y-5992698D01*
X56120133Y-6008786D01*
X56117690Y-6012063D01*
X56087482Y-6050874D01*
X56083981Y-6057343D01*
X56080759Y-6063934D01*
X56066718Y-6111096D01*
X56065470Y-6114990D01*
X56049500Y-6161510D01*
X56048293Y-6168743D01*
X56047383Y-6176045D01*
X56047383Y-6176046D01*
X56049187Y-6219675D01*
X56049415Y-6225175D01*
X56049500Y-6229266D01*
X56049500Y-7443287D01*
X56030593Y-7501478D01*
X56025320Y-7508117D01*
X55974623Y-7566626D01*
X55914834Y-7697543D01*
X55894353Y-7839997D01*
X55894353Y-7840002D01*
X43305500Y-7840002D01*
X43305500Y-6404500D01*
X43324407Y-6346309D01*
X43373907Y-6310345D01*
X43404500Y-6305500D01*
X47903321Y-6305500D01*
X47903325Y-6305500D01*
X47918382Y-6305045D01*
X47921371Y-6305000D01*
X48078629Y-6305000D01*
X48081618Y-6305045D01*
X48096675Y-6305500D01*
X48096679Y-6305500D01*
X48875996Y-6305500D01*
X48876000Y-6305500D01*
X48940941Y-6298518D01*
X48940949Y-6298516D01*
X48940951Y-6298516D01*
X48992425Y-6287318D01*
X48992426Y-6287317D01*
X48992452Y-6287312D01*
X49030658Y-6276354D01*
X49127571Y-6219675D01*
X49180375Y-6173920D01*
X49222553Y-6129187D01*
X49273439Y-6029111D01*
X49293124Y-5962072D01*
X49305500Y-5876000D01*
X49305500Y-5153991D01*
X49304943Y-5135548D01*
X49304039Y-5120601D01*
X49302981Y-5108962D01*
X49302981Y-5091038D01*
X49304039Y-5079398D01*
X49304943Y-5064452D01*
X49305500Y-5046008D01*
X49305500Y-3948666D01*
X49302903Y-3908913D01*
X49298704Y-3876918D01*
X49296529Y-3862887D01*
X49256793Y-3757884D01*
X49220477Y-3698193D01*
X49183393Y-3649145D01*
X49139116Y-3616329D01*
X49093193Y-3582294D01*
X49093188Y-3582291D01*
X49030375Y-3551716D01*
X49021113Y-3548312D01*
X48972665Y-3530505D01*
X48972662Y-3530504D01*
X48860646Y-3523030D01*
X48820104Y-3527844D01*
X48760090Y-3515928D01*
X48718542Y-3471013D01*
X48711328Y-3410254D01*
X48721784Y-3381649D01*
X48752736Y-3325648D01*
X48834677Y-3127824D01*
X48874412Y-3081300D01*
X48933907Y-3067016D01*
X48990435Y-3090431D01*
X49011596Y-3115729D01*
X49018522Y-3127571D01*
X49064277Y-3180375D01*
X49109010Y-3222553D01*
X49209086Y-3273439D01*
X49209088Y-3273439D01*
X49209089Y-3273440D01*
X49261641Y-3288871D01*
X49276125Y-3293124D01*
X49362197Y-3305500D01*
X49362198Y-3305500D01*
X50555996Y-3305500D01*
X50556000Y-3305500D01*
X50620941Y-3298518D01*
X50620949Y-3298516D01*
X50620951Y-3298516D01*
X50672425Y-3287318D01*
X50672426Y-3287317D01*
X50672452Y-3287312D01*
X50710658Y-3276354D01*
X50807571Y-3219675D01*
X50828755Y-3201318D01*
X50885112Y-3177500D01*
X50944708Y-3191358D01*
X50984777Y-3237598D01*
X50991864Y-3264201D01*
X50993628Y-3278723D01*
X50994860Y-3288872D01*
X51055182Y-3447930D01*
X51151817Y-3587929D01*
X51279148Y-3700734D01*
X51429775Y-3779790D01*
X51594944Y-3820500D01*
X51594947Y-3820500D01*
X51765053Y-3820500D01*
X51765056Y-3820500D01*
X51930225Y-3779790D01*
X52080852Y-3700734D01*
X52208183Y-3587929D01*
X52304818Y-3447930D01*
X52365140Y-3288872D01*
X52367818Y-3266810D01*
X52393600Y-3211324D01*
X52447073Y-3181588D01*
X52507813Y-3188961D01*
X52534010Y-3206711D01*
X52550812Y-3222552D01*
X52550811Y-3222552D01*
X52622356Y-3258931D01*
X52650889Y-3273439D01*
X52650891Y-3273439D01*
X52650892Y-3273440D01*
X52703444Y-3288871D01*
X52717928Y-3293124D01*
X52804000Y-3305500D01*
X52804001Y-3305500D01*
X53885628Y-3305500D01*
X53889098Y-3305480D01*
X53890824Y-3305459D01*
X53892128Y-3305444D01*
X53981528Y-3290958D01*
X54038592Y-3272716D01*
X54096697Y-3272990D01*
X54096944Y-3272150D01*
X54153890Y-3288871D01*
X54168374Y-3293124D01*
X54254446Y-3305500D01*
X54254447Y-3305500D01*
X59195996Y-3305500D01*
X59196000Y-3305500D01*
X59260941Y-3298518D01*
X59260949Y-3298516D01*
X59260951Y-3298516D01*
X59312425Y-3287318D01*
X59312426Y-3287317D01*
X59312452Y-3287312D01*
X59350658Y-3276354D01*
X59447571Y-3219675D01*
X59468755Y-3201318D01*
X59525112Y-3177500D01*
X59584708Y-3191358D01*
X59624777Y-3237598D01*
X59631864Y-3264201D01*
X59633628Y-3278723D01*
X59634860Y-3288872D01*
X59695182Y-3447930D01*
X59791817Y-3587929D01*
X59919148Y-3700734D01*
X60069775Y-3779790D01*
X60234944Y-3820500D01*
X60234947Y-3820500D01*
X60405053Y-3820500D01*
X60405056Y-3820500D01*
X60570225Y-3779790D01*
X60720852Y-3700734D01*
X60848183Y-3587929D01*
X60944818Y-3447930D01*
X61005140Y-3288872D01*
X61007818Y-3266810D01*
X61033600Y-3211324D01*
X61087073Y-3181588D01*
X61147813Y-3188961D01*
X61174010Y-3206711D01*
X61190812Y-3222552D01*
X61190811Y-3222552D01*
X61262356Y-3258931D01*
X61290889Y-3273439D01*
X61290891Y-3273439D01*
X61290892Y-3273440D01*
X61343444Y-3288871D01*
X61357928Y-3293124D01*
X61444000Y-3305500D01*
X61444001Y-3305500D01*
X61637814Y-3305500D01*
X61657337Y-3304875D01*
X61660306Y-3304684D01*
X61673181Y-3303859D01*
X61776425Y-3278722D01*
X61840403Y-3250639D01*
X61893932Y-3220385D01*
X61972150Y-3139844D01*
X61991352Y-3110913D01*
X62039282Y-3072885D01*
X62100413Y-3070293D01*
X62151392Y-3104127D01*
X62165301Y-3127773D01*
X62183085Y-3170707D01*
X62247264Y-3325648D01*
X62277557Y-3380459D01*
X62289157Y-3440534D01*
X62263230Y-3495955D01*
X62209680Y-3525551D01*
X62186754Y-3527260D01*
X62098163Y-3523537D01*
X62029009Y-3533481D01*
X61969343Y-3548311D01*
X61872426Y-3604993D01*
X61819625Y-3650745D01*
X61819624Y-3650746D01*
X61777446Y-3695480D01*
X61726562Y-3795551D01*
X61726559Y-3795558D01*
X61706877Y-3862587D01*
X61706875Y-3862597D01*
X61700215Y-3908921D01*
X61694500Y-3948666D01*
X61694500Y-4876000D01*
X61697278Y-4901836D01*
X61701483Y-4940951D01*
X61712681Y-4992425D01*
X61712685Y-4992441D01*
X61712688Y-4992452D01*
X61723646Y-5030658D01*
X61780325Y-5127571D01*
X61826080Y-5180375D01*
X61870813Y-5222553D01*
X61970889Y-5273439D01*
X61970891Y-5273439D01*
X61970892Y-5273440D01*
X62037921Y-5293122D01*
X62037928Y-5293124D01*
X62124000Y-5305500D01*
X62124001Y-5305500D01*
X63042818Y-5305500D01*
X63042819Y-5305500D01*
X63074348Y-5303869D01*
X63099811Y-5301227D01*
X63105712Y-5300556D01*
X63212713Y-5266561D01*
X63274281Y-5233529D01*
X63325256Y-5199160D01*
X63396892Y-5112713D01*
X63430829Y-5051639D01*
X63439059Y-5032515D01*
X63455131Y-4995169D01*
X63455131Y-4995168D01*
X63455133Y-4995164D01*
X63468661Y-4883711D01*
X63468033Y-4873907D01*
X63464033Y-4811494D01*
X63465192Y-4811419D01*
X63476473Y-4755532D01*
X63521519Y-4714126D01*
X63582301Y-4707106D01*
X63610598Y-4717500D01*
X63674352Y-4752736D01*
X63990896Y-4883853D01*
X63990897Y-4883853D01*
X63990899Y-4883854D01*
X64089937Y-4912386D01*
X64227906Y-4952134D01*
X64278589Y-4986412D01*
X64299444Y-5043933D01*
X64299500Y-5047265D01*
X64299500Y-7085844D01*
X64299319Y-7091823D01*
X64295641Y-7152604D01*
X64306622Y-7212529D01*
X64307521Y-7218437D01*
X64314860Y-7278873D01*
X64314861Y-7278875D01*
X64319255Y-7290461D01*
X64324067Y-7307723D01*
X64326303Y-7319926D01*
X64326305Y-7319932D01*
X64350508Y-7373710D01*
X64351302Y-7375473D01*
X64353581Y-7380974D01*
X64372140Y-7429909D01*
X64375183Y-7437933D01*
X64375183Y-7437934D01*
X64382229Y-7448141D01*
X64391029Y-7463743D01*
X64396120Y-7475055D01*
X64433676Y-7522992D01*
X64437218Y-7527806D01*
X64471814Y-7577925D01*
X64471818Y-7577930D01*
X64517389Y-7618302D01*
X64521744Y-7622401D01*
X66360504Y-9461161D01*
X66388281Y-9515678D01*
X66389500Y-9531165D01*
X66389500Y-53178834D01*
X66370593Y-53237025D01*
X66360504Y-53248838D01*
X64665196Y-54944145D01*
X64611775Y-54971742D01*
X64320142Y-55021293D01*
X64320123Y-55021297D01*
X63990897Y-55116146D01*
X63674347Y-55247265D01*
X63374483Y-55412995D01*
X63374479Y-55412998D01*
X63095047Y-55611265D01*
X63020031Y-55678302D01*
X62839578Y-55839565D01*
X62839565Y-55839578D01*
X62678302Y-56020031D01*
X62611265Y-56095047D01*
X62611263Y-56095050D01*
X62412995Y-56374483D01*
X62247265Y-56674347D01*
X62116146Y-56990897D01*
X62021297Y-57320123D01*
X62021293Y-57320141D01*
X61963905Y-57657903D01*
X61963902Y-57657923D01*
X61944693Y-57999995D01*
X61944693Y-58000004D01*
X61963902Y-58342076D01*
X61963905Y-58342096D01*
X62021293Y-58679858D01*
X62021297Y-58679876D01*
X62116146Y-59009102D01*
X62247265Y-59325652D01*
X62380448Y-59566627D01*
X62412998Y-59625521D01*
X62611265Y-59904953D01*
X62766280Y-60078415D01*
X62839565Y-60160421D01*
X62839578Y-60160434D01*
X62908631Y-60222143D01*
X63095047Y-60388735D01*
X63252997Y-60500806D01*
X63279709Y-60519759D01*
X63316226Y-60568853D01*
X63316913Y-60630034D01*
X63281507Y-60679935D01*
X63223532Y-60699494D01*
X63222421Y-60699500D01*
X1777579Y-60699500D01*
X1719388Y-60680593D01*
X1683424Y-60631093D01*
X1683424Y-60569907D01*
X1719388Y-60520407D01*
X1720291Y-60519759D01*
X1747003Y-60500806D01*
X1904953Y-60388735D01*
X2160428Y-60160428D01*
X2388735Y-59904953D01*
X2434820Y-59840002D01*
X33034353Y-59840002D01*
X33054834Y-59982456D01*
X33065058Y-60004842D01*
X33114623Y-60113373D01*
X33208872Y-60222143D01*
X33208873Y-60222144D01*
X33293123Y-60276288D01*
X33329947Y-60299953D01*
X33436403Y-60331211D01*
X33468035Y-60340499D01*
X33468036Y-60340499D01*
X33468039Y-60340500D01*
X33468041Y-60340500D01*
X33611959Y-60340500D01*
X33611961Y-60340500D01*
X33750053Y-60299953D01*
X33871128Y-60222143D01*
X33965377Y-60113373D01*
X34025165Y-59982457D01*
X34045647Y-59840000D01*
X34036672Y-59777579D01*
X34025165Y-59697543D01*
X33992271Y-59625516D01*
X33965377Y-59566627D01*
X33961019Y-59561597D01*
X33914680Y-59508117D01*
X33890863Y-59451757D01*
X33890500Y-59443287D01*
X33890500Y-57185313D01*
X34294957Y-57185313D01*
X34298740Y-57215662D01*
X34299500Y-57227907D01*
X34299500Y-57229042D01*
X34302751Y-57248528D01*
X34303337Y-57252547D01*
X34306584Y-57278589D01*
X34309427Y-57301393D01*
X34311527Y-57308448D01*
X34313907Y-57315380D01*
X34337322Y-57358646D01*
X34339195Y-57362285D01*
X34360801Y-57406482D01*
X34365078Y-57412472D01*
X34369581Y-57418258D01*
X34405764Y-57451567D01*
X34408717Y-57454399D01*
X36059197Y-59104879D01*
X36072068Y-59120729D01*
X36078563Y-59130669D01*
X36102694Y-59149451D01*
X36111878Y-59157560D01*
X36112689Y-59158370D01*
X36112693Y-59158374D01*
X36128773Y-59169856D01*
X36132051Y-59172300D01*
X36170874Y-59202517D01*
X36170878Y-59202518D01*
X36177354Y-59206022D01*
X36183934Y-59209240D01*
X36231102Y-59223282D01*
X36234964Y-59224520D01*
X36245311Y-59228072D01*
X36281512Y-59240500D01*
X36281514Y-59240500D01*
X36288733Y-59241705D01*
X36296039Y-59242615D01*
X36296046Y-59242617D01*
X36345186Y-59240584D01*
X36349276Y-59240500D01*
X41721512Y-59240500D01*
X42306241Y-59240500D01*
X42364432Y-59259407D01*
X42373403Y-59267640D01*
X42373520Y-59267506D01*
X42378871Y-59272143D01*
X42499942Y-59349950D01*
X42499947Y-59349953D01*
X42606403Y-59381211D01*
X42638035Y-59390499D01*
X42638036Y-59390499D01*
X42638039Y-59390500D01*
X42638041Y-59390500D01*
X42781959Y-59390500D01*
X42781961Y-59390500D01*
X42920053Y-59349953D01*
X43041128Y-59272143D01*
X43135377Y-59163373D01*
X43195165Y-59032457D01*
X43215647Y-58890000D01*
X43207907Y-58836170D01*
X43195165Y-58747543D01*
X43183231Y-58721411D01*
X43135377Y-58616627D01*
X43041128Y-58507857D01*
X43041127Y-58507856D01*
X43041126Y-58507855D01*
X42920057Y-58430049D01*
X42920054Y-58430047D01*
X42920053Y-58430047D01*
X42920050Y-58430046D01*
X42781964Y-58389500D01*
X42781961Y-58389500D01*
X42638039Y-58389500D01*
X42638035Y-58389500D01*
X42499949Y-58430046D01*
X42499942Y-58430049D01*
X42378871Y-58507856D01*
X42373520Y-58512494D01*
X42372031Y-58510776D01*
X42328659Y-58536928D01*
X42306241Y-58539500D01*
X36526188Y-58539500D01*
X36467997Y-58520593D01*
X36456184Y-58510503D01*
X36217307Y-58271624D01*
X36217307Y-58271625D01*
X35945685Y-58000003D01*
X57699150Y-58000003D01*
X57718911Y-58225882D01*
X57718912Y-58225889D01*
X57718913Y-58225890D01*
X57777601Y-58444917D01*
X57873431Y-58650425D01*
X58003491Y-58836170D01*
X58163830Y-58996509D01*
X58163833Y-58996511D01*
X58163834Y-58996512D01*
X58181819Y-59009105D01*
X58349575Y-59126569D01*
X58555083Y-59222399D01*
X58774110Y-59281087D01*
X58774114Y-59281087D01*
X58774117Y-59281088D01*
X58999997Y-59300850D01*
X59000000Y-59300850D01*
X59000003Y-59300850D01*
X59225882Y-59281088D01*
X59225883Y-59281087D01*
X59225890Y-59281087D01*
X59444917Y-59222399D01*
X59650425Y-59126569D01*
X59836170Y-58996509D01*
X59996509Y-58836170D01*
X60126569Y-58650425D01*
X60222399Y-58444917D01*
X60281087Y-58225890D01*
X60300850Y-58000000D01*
X60281087Y-57774110D01*
X60222399Y-57555083D01*
X60126569Y-57349575D01*
X59996509Y-57163830D01*
X59836170Y-57003491D01*
X59836166Y-57003488D01*
X59836165Y-57003487D01*
X59733117Y-56931333D01*
X59650425Y-56873431D01*
X59444917Y-56777601D01*
X59225890Y-56718913D01*
X59225889Y-56718912D01*
X59225882Y-56718911D01*
X59000003Y-56699150D01*
X58999997Y-56699150D01*
X58774117Y-56718911D01*
X58555083Y-56777601D01*
X58349576Y-56873430D01*
X58163834Y-57003487D01*
X58003487Y-57163834D01*
X57873430Y-57349576D01*
X57777601Y-57555083D01*
X57718911Y-57774117D01*
X57699150Y-57999996D01*
X57699150Y-58000003D01*
X35945685Y-58000003D01*
X35029496Y-57083814D01*
X35001719Y-57029297D01*
X35000500Y-57013810D01*
X35000500Y-53100002D01*
X58194353Y-53100002D01*
X58214834Y-53242456D01*
X58217749Y-53248838D01*
X58274623Y-53373373D01*
X58368872Y-53482143D01*
X58368873Y-53482144D01*
X58482369Y-53555083D01*
X58489947Y-53559953D01*
X58596403Y-53591211D01*
X58628035Y-53600499D01*
X58628036Y-53600499D01*
X58628039Y-53600500D01*
X58628042Y-53600500D01*
X58635046Y-53601507D01*
X58634619Y-53604474D01*
X58680579Y-53619407D01*
X58692392Y-53629496D01*
X59410175Y-54347278D01*
X59430224Y-54376155D01*
X59474623Y-54473373D01*
X59568872Y-54582143D01*
X59568873Y-54582144D01*
X59675118Y-54650423D01*
X59689947Y-54659953D01*
X59796403Y-54691211D01*
X59828035Y-54700499D01*
X59828036Y-54700499D01*
X59828039Y-54700500D01*
X59828041Y-54700500D01*
X59971959Y-54700500D01*
X59971961Y-54700500D01*
X60110053Y-54659953D01*
X60231128Y-54582143D01*
X60325377Y-54473373D01*
X60385165Y-54342457D01*
X60405647Y-54200000D01*
X60385165Y-54057543D01*
X60325377Y-53926627D01*
X60231128Y-53817857D01*
X60231127Y-53817856D01*
X60231126Y-53817855D01*
X60110054Y-53740047D01*
X60087719Y-53733489D01*
X60045607Y-53708503D01*
X59140366Y-52803263D01*
X59132978Y-52794995D01*
X59109879Y-52766030D01*
X59062258Y-52733562D01*
X59059241Y-52731421D01*
X59012881Y-52697206D01*
X59006322Y-52693740D01*
X59006527Y-52693350D01*
X59004546Y-52692350D01*
X59004356Y-52692746D01*
X58997676Y-52689529D01*
X58990184Y-52687218D01*
X58965847Y-52675903D01*
X58910053Y-52640047D01*
X58887218Y-52633342D01*
X58771964Y-52599500D01*
X58771961Y-52599500D01*
X58628039Y-52599500D01*
X58628035Y-52599500D01*
X58489949Y-52640046D01*
X58489942Y-52640049D01*
X58368873Y-52717855D01*
X58274622Y-52826628D01*
X58214834Y-52957543D01*
X58194353Y-53099997D01*
X58194353Y-53100002D01*
X35000500Y-53100002D01*
X35000500Y-49086190D01*
X35019407Y-49027999D01*
X35029496Y-49016186D01*
X35676186Y-48369496D01*
X35730703Y-48341719D01*
X35746190Y-48340500D01*
X35781959Y-48340500D01*
X35781961Y-48340500D01*
X35920053Y-48299953D01*
X36041128Y-48222143D01*
X36135377Y-48113373D01*
X36195165Y-47982457D01*
X36210769Y-47873929D01*
X36215647Y-47840002D01*
X36215647Y-47839997D01*
X36195165Y-47697543D01*
X36135377Y-47566627D01*
X36041128Y-47457857D01*
X36041127Y-47457856D01*
X36041126Y-47457855D01*
X35920057Y-47380049D01*
X35920054Y-47380047D01*
X35920053Y-47380047D01*
X35920050Y-47380046D01*
X35781964Y-47339500D01*
X35781961Y-47339500D01*
X35638039Y-47339500D01*
X35638035Y-47339500D01*
X35499949Y-47380046D01*
X35499942Y-47380049D01*
X35378873Y-47457855D01*
X35284622Y-47566628D01*
X35224834Y-47697544D01*
X35207368Y-47819021D01*
X35180372Y-47873929D01*
X35179380Y-47874936D01*
X34435118Y-48619198D01*
X34419265Y-48632071D01*
X34409335Y-48638559D01*
X34409332Y-48638561D01*
X34390548Y-48662695D01*
X34382437Y-48671880D01*
X34381627Y-48672689D01*
X34381619Y-48672698D01*
X34370133Y-48688786D01*
X34367690Y-48692063D01*
X34337482Y-48730874D01*
X34333981Y-48737343D01*
X34330759Y-48743934D01*
X34316718Y-48791096D01*
X34315470Y-48794990D01*
X34299500Y-48841510D01*
X34298293Y-48848743D01*
X34297383Y-48856047D01*
X34299415Y-48905175D01*
X34299500Y-48909266D01*
X34299500Y-57153381D01*
X34297393Y-57173696D01*
X34294957Y-57185313D01*
X33890500Y-57185313D01*
X33890500Y-53146710D01*
X33909407Y-53088519D01*
X33914666Y-53081896D01*
X33965377Y-53023373D01*
X34025165Y-52892457D01*
X34038553Y-52799339D01*
X34045647Y-52750002D01*
X34045647Y-52749997D01*
X34025165Y-52607543D01*
X34021492Y-52599500D01*
X33965377Y-52476627D01*
X33871128Y-52367857D01*
X33871127Y-52367856D01*
X33871126Y-52367855D01*
X33750057Y-52290049D01*
X33750054Y-52290047D01*
X33750053Y-52290047D01*
X33750050Y-52290046D01*
X33611964Y-52249500D01*
X33611961Y-52249500D01*
X33468039Y-52249500D01*
X33468035Y-52249500D01*
X33329949Y-52290046D01*
X33329942Y-52290049D01*
X33208873Y-52367855D01*
X33114622Y-52476628D01*
X33054834Y-52607543D01*
X33034353Y-52749997D01*
X33034353Y-52750002D01*
X33054834Y-52892456D01*
X33105541Y-53003487D01*
X33114623Y-53023373D01*
X33165320Y-53081880D01*
X33189137Y-53138238D01*
X33189500Y-53146710D01*
X33189500Y-59443287D01*
X33170593Y-59501478D01*
X33165320Y-59508117D01*
X33114623Y-59566626D01*
X33054834Y-59697543D01*
X33034353Y-59839997D01*
X33034353Y-59840002D01*
X2434820Y-59840002D01*
X2587002Y-59625521D01*
X2752736Y-59325648D01*
X2883853Y-59009104D01*
X2978704Y-58679870D01*
X3036096Y-58342086D01*
X3042622Y-58225890D01*
X3055307Y-58000004D01*
X3055307Y-57999995D01*
X3036097Y-57657923D01*
X3036094Y-57657903D01*
X2978706Y-57320141D01*
X2978702Y-57320123D01*
X2933676Y-57163834D01*
X2883853Y-56990896D01*
X2752736Y-56674352D01*
X2752734Y-56674347D01*
X2587004Y-56374483D01*
X2587002Y-56374479D01*
X2388735Y-56095047D01*
X2223249Y-55909868D01*
X2160434Y-55839578D01*
X2160421Y-55839565D01*
X2078415Y-55766280D01*
X1904953Y-55611265D01*
X1625521Y-55412998D01*
X1625516Y-55412995D01*
X1325651Y-55247265D01*
X1325652Y-55247265D01*
X1009102Y-55116146D01*
X679876Y-55021297D01*
X679858Y-55021293D01*
X342096Y-54963905D01*
X342076Y-54963902D01*
X5Y-54944693D01*
X-5Y-54944693D01*
X-342076Y-54963902D01*
X-342096Y-54963905D01*
X-679858Y-55021293D01*
X-679876Y-55021297D01*
X-1009102Y-55116146D01*
X-1325652Y-55247265D01*
X-1625516Y-55412995D01*
X-1625521Y-55412998D01*
X-1904953Y-55611265D01*
X-2078415Y-55766280D01*
X-2160421Y-55839565D01*
X-2160434Y-55839578D01*
X-2223249Y-55909868D01*
X-2388735Y-56095047D01*
X-2587002Y-56374479D01*
X-2587004Y-56374483D01*
X-2752734Y-56674347D01*
X-2752736Y-56674352D01*
X-2883853Y-56990896D01*
X-2952135Y-57227907D01*
X-2986413Y-57278589D01*
X-3043934Y-57299444D01*
X-3047266Y-57299500D01*
X-36952734Y-57299500D01*
X-37010925Y-57280593D01*
X-37046889Y-57231093D01*
X-37047865Y-57227907D01*
X-37116147Y-56990894D01*
X-37247265Y-56674347D01*
X-37412995Y-56374483D01*
X-37611263Y-56095050D01*
X-37611262Y-56095050D01*
X-37611265Y-56095047D01*
X-37678302Y-56020031D01*
X-37839565Y-55839578D01*
X-37839578Y-55839565D01*
X-38020031Y-55678302D01*
X-38095047Y-55611265D01*
X-38374479Y-55412998D01*
X-38374477Y-55412998D01*
X-38374483Y-55412995D01*
X-38674348Y-55247265D01*
X-38674347Y-55247265D01*
X-38990894Y-55116147D01*
X-39227907Y-55047864D01*
X-39278589Y-55013586D01*
X-39299444Y-54956064D01*
X-39299500Y-54952733D01*
X-39299500Y-54000003D01*
X-36300850Y-54000003D01*
X-36283353Y-54199997D01*
X-36281087Y-54225890D01*
X-36222399Y-54444917D01*
X-36126569Y-54650425D01*
X-35996509Y-54836170D01*
X-35836170Y-54996509D01*
X-35650425Y-55126569D01*
X-35444917Y-55222399D01*
X-35225890Y-55281087D01*
X-35225883Y-55281087D01*
X-35225882Y-55281088D01*
X-35000003Y-55300850D01*
X-35000000Y-55300850D01*
X-34999997Y-55300850D01*
X-34774117Y-55281088D01*
X-34774114Y-55281087D01*
X-34774110Y-55281087D01*
X-34555083Y-55222399D01*
X-34349575Y-55126569D01*
X-34199231Y-55021297D01*
X-34163834Y-54996512D01*
X-34163833Y-54996511D01*
X-34163830Y-54996509D01*
X-34003491Y-54836170D01*
X-33873431Y-54650425D01*
X-33777601Y-54444917D01*
X-33718913Y-54225890D01*
X-33718912Y-54225889D01*
X-33718911Y-54225882D01*
X-33699150Y-54000003D01*
X-33699150Y-53999996D01*
X-33718911Y-53774117D01*
X-33777601Y-53555083D01*
X-33873430Y-53349576D01*
X-34003487Y-53163834D01*
X-34163834Y-53003487D01*
X-34349576Y-52873430D01*
X-34555083Y-52777601D01*
X-34774117Y-52718911D01*
X-34999997Y-52699150D01*
X-35000003Y-52699150D01*
X-35225882Y-52718911D01*
X-35225889Y-52718912D01*
X-35225890Y-52718913D01*
X-35444917Y-52777601D01*
X-35650425Y-52873431D01*
X-35723412Y-52924537D01*
X-35836165Y-53003487D01*
X-35836166Y-53003488D01*
X-35836170Y-53003491D01*
X-35996509Y-53163830D01*
X-36126569Y-53349575D01*
X-36222399Y-53555083D01*
X-36281087Y-53774110D01*
X-36281087Y-53774114D01*
X-36281088Y-53774117D01*
X-36300850Y-53999996D01*
X-36300850Y-54000003D01*
X-39299500Y-54000003D01*
X-39299500Y-47780002D01*
X20344353Y-47780002D01*
X20364834Y-47922456D01*
X20377641Y-47950499D01*
X20424623Y-48053373D01*
X20476613Y-48113373D01*
X20518873Y-48162144D01*
X20639942Y-48239950D01*
X20639947Y-48239953D01*
X20746403Y-48271211D01*
X20778035Y-48280499D01*
X20778036Y-48280499D01*
X20778039Y-48280500D01*
X20778041Y-48280500D01*
X20921959Y-48280500D01*
X20921961Y-48280500D01*
X21060053Y-48239953D01*
X21181128Y-48162143D01*
X21275377Y-48053373D01*
X21335165Y-47922457D01*
X21337048Y-47909358D01*
X21347681Y-47835411D01*
X21374677Y-47780503D01*
X21428791Y-47751950D01*
X21445673Y-47750500D01*
X25342917Y-47750500D01*
X25401108Y-47769407D01*
X25417733Y-47784667D01*
X25458872Y-47832143D01*
X25579947Y-47909953D01*
X25686403Y-47941211D01*
X25718035Y-47950499D01*
X25718036Y-47950499D01*
X25718039Y-47950500D01*
X25718041Y-47950500D01*
X25861959Y-47950500D01*
X25861961Y-47950500D01*
X26000053Y-47909953D01*
X26121128Y-47832143D01*
X26215377Y-47723373D01*
X26275165Y-47592457D01*
X26287505Y-47506627D01*
X26295647Y-47450002D01*
X26295647Y-47449997D01*
X26275165Y-47307543D01*
X26215377Y-47176627D01*
X26121128Y-47067857D01*
X26121127Y-47067856D01*
X26121126Y-47067855D01*
X26000057Y-46990049D01*
X26000054Y-46990047D01*
X26000053Y-46990047D01*
X26000050Y-46990046D01*
X25861964Y-46949500D01*
X25861961Y-46949500D01*
X25718039Y-46949500D01*
X25718035Y-46949500D01*
X25579949Y-46990046D01*
X25579942Y-46990049D01*
X25458876Y-47067854D01*
X25458871Y-47067858D01*
X25417736Y-47115331D01*
X25365340Y-47146927D01*
X25342917Y-47149500D01*
X21245164Y-47149500D01*
X21231488Y-47147267D01*
X21231317Y-47148494D01*
X21222233Y-47147226D01*
X21175358Y-47149394D01*
X21170786Y-47149500D01*
X21152152Y-47149500D01*
X21152029Y-47149523D01*
X21138419Y-47151101D01*
X21110009Y-47152414D01*
X21101005Y-47156389D01*
X21079226Y-47163132D01*
X21069568Y-47164937D01*
X21069566Y-47164938D01*
X21045386Y-47179909D01*
X21033266Y-47186298D01*
X21007235Y-47197793D01*
X21007234Y-47197793D01*
X21000280Y-47204747D01*
X20982403Y-47218907D01*
X20974048Y-47224080D01*
X20961904Y-47240162D01*
X20911748Y-47275204D01*
X20882901Y-47279500D01*
X20778035Y-47279500D01*
X20639949Y-47320046D01*
X20639942Y-47320049D01*
X20518873Y-47397855D01*
X20424622Y-47506628D01*
X20364834Y-47637543D01*
X20344353Y-47779997D01*
X20344353Y-47780002D01*
X-39299500Y-47780002D01*
X-39299500Y-46000002D01*
X38394353Y-46000002D01*
X38414834Y-46142456D01*
X38474622Y-46273371D01*
X38474623Y-46273373D01*
X38568872Y-46382143D01*
X38568873Y-46382144D01*
X38689942Y-46459950D01*
X38689947Y-46459953D01*
X38796403Y-46491211D01*
X38828035Y-46500499D01*
X38828036Y-46500499D01*
X38828039Y-46500500D01*
X38828041Y-46500500D01*
X38971959Y-46500500D01*
X38971961Y-46500500D01*
X39110053Y-46459953D01*
X39110056Y-46459950D01*
X39111162Y-46459447D01*
X39113531Y-46458931D01*
X39116847Y-46457958D01*
X39116916Y-46458195D01*
X39152288Y-46450500D01*
X42472388Y-46450500D01*
X42530579Y-46469407D01*
X42542392Y-46479496D01*
X48597706Y-52534810D01*
X48619166Y-52566928D01*
X48671694Y-52693740D01*
X48675464Y-52702841D01*
X48730754Y-52774897D01*
X48770448Y-52826628D01*
X48771718Y-52828282D01*
X48897159Y-52924536D01*
X49043238Y-52985044D01*
X49160809Y-53000522D01*
X49199999Y-53005682D01*
X49200000Y-53005682D01*
X49200001Y-53005682D01*
X49231352Y-53001554D01*
X49356762Y-52985044D01*
X49502841Y-52924536D01*
X49628282Y-52828282D01*
X49724536Y-52702841D01*
X49785044Y-52556762D01*
X49805682Y-52400000D01*
X49785044Y-52243238D01*
X49724537Y-52097161D01*
X49724537Y-52097160D01*
X49628286Y-51971723D01*
X49628285Y-51971722D01*
X49628282Y-51971718D01*
X49628277Y-51971714D01*
X49628276Y-51971713D01*
X49502838Y-51875462D01*
X49356766Y-51814957D01*
X49356758Y-51814955D01*
X49200001Y-51794318D01*
X49200000Y-51794318D01*
X49195645Y-51794891D01*
X49187799Y-51795924D01*
X49127639Y-51784771D01*
X49104877Y-51767774D01*
X43237053Y-45899950D01*
X43209276Y-45845433D01*
X43218847Y-45785001D01*
X43262112Y-45741736D01*
X43269156Y-45738488D01*
X43302841Y-45724536D01*
X43428282Y-45628282D01*
X43524536Y-45502841D01*
X43585044Y-45356762D01*
X43605682Y-45200000D01*
X43585044Y-45043238D01*
X43585042Y-45043233D01*
X43524537Y-44897161D01*
X43524537Y-44897160D01*
X43503502Y-44869746D01*
X51949500Y-44869746D01*
X51949501Y-44869758D01*
X51961132Y-44928227D01*
X51961133Y-44928231D01*
X52005448Y-44994552D01*
X52071769Y-45038867D01*
X52116231Y-45047711D01*
X52130241Y-45050498D01*
X52130246Y-45050498D01*
X52130252Y-45050500D01*
X52130253Y-45050500D01*
X53869747Y-45050500D01*
X53869748Y-45050500D01*
X53928231Y-45038867D01*
X53994552Y-44994552D01*
X54038867Y-44928231D01*
X54050500Y-44869748D01*
X54050500Y-43700000D01*
X56794318Y-43700000D01*
X56814955Y-43856758D01*
X56814957Y-43856766D01*
X56875462Y-44002838D01*
X56875462Y-44002839D01*
X56875464Y-44002841D01*
X56971718Y-44128282D01*
X57097159Y-44224536D01*
X57243238Y-44285044D01*
X57360809Y-44300522D01*
X57399999Y-44305682D01*
X57400000Y-44305682D01*
X57400001Y-44305682D01*
X57431352Y-44301554D01*
X57556762Y-44285044D01*
X57702841Y-44224536D01*
X57828282Y-44128282D01*
X57924536Y-44002841D01*
X57985044Y-43856762D01*
X58002229Y-43726217D01*
X58008600Y-43704864D01*
X58008284Y-43704767D01*
X58010472Y-43697673D01*
X58027477Y-43642538D01*
X58028595Y-43639138D01*
X58047646Y-43584699D01*
X58047646Y-43584696D01*
X58047647Y-43584694D01*
X58049026Y-43577407D01*
X58049460Y-43577489D01*
X58049831Y-43575307D01*
X58049394Y-43575242D01*
X58050500Y-43567904D01*
X58050500Y-43510300D01*
X58050569Y-43506598D01*
X58050618Y-43505280D01*
X58052725Y-43448990D01*
X58052723Y-43448984D01*
X58051894Y-43441616D01*
X58052331Y-43441566D01*
X58050500Y-43427652D01*
X58050500Y-41700000D01*
X58594318Y-41700000D01*
X58614955Y-41856758D01*
X58614957Y-41856766D01*
X58675462Y-42002838D01*
X58675462Y-42002839D01*
X58771713Y-42128276D01*
X58771718Y-42128282D01*
X58897159Y-42224536D01*
X59043238Y-42285044D01*
X59160809Y-42300522D01*
X59199999Y-42305682D01*
X59200000Y-42305682D01*
X59200001Y-42305682D01*
X59231352Y-42301554D01*
X59356762Y-42285044D01*
X59502841Y-42224536D01*
X59572665Y-42170957D01*
X59630341Y-42150534D01*
X59632932Y-42150500D01*
X60967068Y-42150500D01*
X61025259Y-42169407D01*
X61027315Y-42170943D01*
X61097159Y-42224536D01*
X61243238Y-42285044D01*
X61360809Y-42300522D01*
X61399999Y-42305682D01*
X61400000Y-42305682D01*
X61400001Y-42305682D01*
X61431352Y-42301554D01*
X61556762Y-42285044D01*
X61702841Y-42224536D01*
X61828282Y-42128282D01*
X61924536Y-42002841D01*
X61985044Y-41856762D01*
X62005682Y-41700000D01*
X62001196Y-41665929D01*
X61985044Y-41543241D01*
X61985044Y-41543238D01*
X61924537Y-41397161D01*
X61924537Y-41397160D01*
X61828286Y-41271723D01*
X61828285Y-41271722D01*
X61828282Y-41271718D01*
X61828277Y-41271714D01*
X61828276Y-41271713D01*
X61702838Y-41175462D01*
X61556766Y-41114957D01*
X61556758Y-41114955D01*
X61400001Y-41094318D01*
X61399999Y-41094318D01*
X61243241Y-41114955D01*
X61243233Y-41114957D01*
X61097161Y-41175462D01*
X61058994Y-41204748D01*
X61027334Y-41229042D01*
X60969659Y-41249466D01*
X60967068Y-41249500D01*
X59632932Y-41249500D01*
X59574741Y-41230593D01*
X59572684Y-41229056D01*
X59502841Y-41175464D01*
X59502840Y-41175463D01*
X59502838Y-41175462D01*
X59356766Y-41114957D01*
X59356758Y-41114955D01*
X59200001Y-41094318D01*
X59199999Y-41094318D01*
X59043241Y-41114955D01*
X59043233Y-41114957D01*
X58897161Y-41175462D01*
X58897160Y-41175462D01*
X58771723Y-41271713D01*
X58771713Y-41271723D01*
X58675462Y-41397160D01*
X58675462Y-41397161D01*
X58614957Y-41543233D01*
X58614955Y-41543241D01*
X58594318Y-41699999D01*
X58594318Y-41700000D01*
X58050500Y-41700000D01*
X58050500Y-40532932D01*
X58069407Y-40474741D01*
X58070936Y-40472693D01*
X58124536Y-40402841D01*
X58185044Y-40256762D01*
X58205682Y-40100000D01*
X58185044Y-39943238D01*
X58124537Y-39797161D01*
X58124537Y-39797160D01*
X58028286Y-39671723D01*
X58028285Y-39671722D01*
X58028282Y-39671718D01*
X58028277Y-39671714D01*
X58028276Y-39671713D01*
X57902838Y-39575462D01*
X57756766Y-39514957D01*
X57756758Y-39514955D01*
X57600001Y-39494318D01*
X57599999Y-39494318D01*
X57443241Y-39514955D01*
X57443233Y-39514957D01*
X57297161Y-39575462D01*
X57297160Y-39575462D01*
X57171723Y-39671713D01*
X57171713Y-39671723D01*
X57075462Y-39797160D01*
X57075462Y-39797161D01*
X57014957Y-39943233D01*
X57014955Y-39943241D01*
X56994318Y-40099999D01*
X56994318Y-40100000D01*
X57014955Y-40256758D01*
X57014957Y-40256766D01*
X57075462Y-40402838D01*
X57075463Y-40402840D01*
X57075464Y-40402841D01*
X57129042Y-40472665D01*
X57149466Y-40530340D01*
X57149500Y-40532932D01*
X57149500Y-43088086D01*
X57130593Y-43146277D01*
X57100008Y-43173818D01*
X57097160Y-43175462D01*
X56971723Y-43271713D01*
X56971713Y-43271723D01*
X56875462Y-43397160D01*
X56875462Y-43397161D01*
X56814957Y-43543233D01*
X56814955Y-43543241D01*
X56794318Y-43699999D01*
X56794318Y-43700000D01*
X54050500Y-43700000D01*
X54050500Y-43130252D01*
X54038867Y-43071769D01*
X53994552Y-43005448D01*
X53994548Y-43005445D01*
X53928233Y-42961134D01*
X53928231Y-42961133D01*
X53928228Y-42961132D01*
X53928227Y-42961132D01*
X53869758Y-42949501D01*
X53869748Y-42949500D01*
X52130252Y-42949500D01*
X52130251Y-42949500D01*
X52130241Y-42949501D01*
X52071772Y-42961132D01*
X52071766Y-42961134D01*
X52005451Y-43005445D01*
X52005445Y-43005451D01*
X51961134Y-43071766D01*
X51961132Y-43071772D01*
X51949501Y-43130241D01*
X51949500Y-43130253D01*
X51949500Y-44869746D01*
X43503502Y-44869746D01*
X43428286Y-44771723D01*
X43428285Y-44771722D01*
X43428282Y-44771718D01*
X43428277Y-44771714D01*
X43428276Y-44771713D01*
X43302838Y-44675462D01*
X43156766Y-44614957D01*
X43156758Y-44614955D01*
X43000001Y-44594318D01*
X42999999Y-44594318D01*
X42843241Y-44614955D01*
X42843233Y-44614957D01*
X42697161Y-44675462D01*
X42697160Y-44675462D01*
X42571723Y-44771713D01*
X42571713Y-44771723D01*
X42475462Y-44897160D01*
X42475462Y-44897161D01*
X42414957Y-45043233D01*
X42414955Y-45043241D01*
X42394318Y-45199999D01*
X42394318Y-45200000D01*
X42402661Y-45263375D01*
X42391511Y-45323536D01*
X42391177Y-45324046D01*
X42383990Y-45337326D01*
X42380759Y-45343934D01*
X42366718Y-45391096D01*
X42365470Y-45394990D01*
X42349500Y-45441510D01*
X42348291Y-45448751D01*
X42346549Y-45462740D01*
X42320592Y-45518147D01*
X42267026Y-45547715D01*
X42248309Y-45549500D01*
X39152288Y-45549500D01*
X39116916Y-45541804D01*
X39116847Y-45542042D01*
X39113531Y-45541068D01*
X39111162Y-45540553D01*
X39110056Y-45540048D01*
X39110049Y-45540046D01*
X39093605Y-45535217D01*
X38971964Y-45499500D01*
X38971961Y-45499500D01*
X38828039Y-45499500D01*
X38828035Y-45499500D01*
X38689949Y-45540046D01*
X38689942Y-45540049D01*
X38568873Y-45617855D01*
X38474622Y-45726628D01*
X38414834Y-45857543D01*
X38394353Y-45999997D01*
X38394353Y-46000002D01*
X-39299500Y-46000002D01*
X-39299500Y-37200000D01*
X5294357Y-37200000D01*
X5314885Y-37421536D01*
X5375771Y-37635528D01*
X5474942Y-37834689D01*
X5609019Y-38012236D01*
X5773438Y-38162124D01*
X5962599Y-38279247D01*
X6170060Y-38359618D01*
X6388757Y-38400500D01*
X6611243Y-38400500D01*
X6829940Y-38359618D01*
X7037401Y-38279247D01*
X7226562Y-38162124D01*
X7390981Y-38012236D01*
X7525058Y-37834689D01*
X7624229Y-37635528D01*
X7685115Y-37421536D01*
X7705643Y-37200000D01*
X11794357Y-37200000D01*
X11814885Y-37421536D01*
X11875771Y-37635528D01*
X11974942Y-37834689D01*
X12109019Y-38012236D01*
X12273438Y-38162124D01*
X12462599Y-38279247D01*
X12670060Y-38359618D01*
X12888757Y-38400500D01*
X13111243Y-38400500D01*
X13329940Y-38359618D01*
X13537401Y-38279247D01*
X13726562Y-38162124D01*
X13890981Y-38012236D01*
X14025058Y-37834689D01*
X14124229Y-37635528D01*
X14185115Y-37421536D01*
X14205643Y-37200000D01*
X14185115Y-36978464D01*
X14124229Y-36764472D01*
X14025058Y-36565311D01*
X13890981Y-36387764D01*
X13726562Y-36237876D01*
X13537401Y-36120753D01*
X13329940Y-36040382D01*
X13329939Y-36040381D01*
X13329937Y-36040381D01*
X13111243Y-35999500D01*
X12888757Y-35999500D01*
X12670062Y-36040381D01*
X12643702Y-36050593D01*
X12462599Y-36120753D01*
X12285278Y-36230545D01*
X12273438Y-36237876D01*
X12109020Y-36387763D01*
X11974943Y-36565309D01*
X11974938Y-36565318D01*
X11881909Y-36752145D01*
X11875771Y-36764472D01*
X11814885Y-36978464D01*
X11794357Y-37200000D01*
X7705643Y-37200000D01*
X7685115Y-36978464D01*
X7624229Y-36764472D01*
X7525058Y-36565311D01*
X7390981Y-36387764D01*
X7226562Y-36237876D01*
X7037401Y-36120753D01*
X6829940Y-36040382D01*
X6829939Y-36040381D01*
X6829937Y-36040381D01*
X6611243Y-35999500D01*
X6388757Y-35999500D01*
X6170062Y-36040381D01*
X6143702Y-36050593D01*
X5962599Y-36120753D01*
X5785278Y-36230545D01*
X5773438Y-36237876D01*
X5609020Y-36387763D01*
X5474943Y-36565309D01*
X5474938Y-36565318D01*
X5381909Y-36752145D01*
X5375771Y-36764472D01*
X5314885Y-36978464D01*
X5294357Y-37200000D01*
X-39299500Y-37200000D01*
X-39299500Y-32700000D01*
X4987337Y-32700000D01*
X5005959Y-32936631D01*
X5061372Y-33167440D01*
X5152205Y-33386732D01*
X5152208Y-33386738D01*
X5266896Y-33573890D01*
X5973096Y-32867689D01*
X5976884Y-32885915D01*
X6046442Y-33020156D01*
X6149638Y-33130652D01*
X6278819Y-33209209D01*
X6334421Y-33224788D01*
X5626108Y-33933102D01*
X5813262Y-34047791D01*
X5813267Y-34047794D01*
X6032559Y-34138627D01*
X6032558Y-34138627D01*
X6263368Y-34194040D01*
X6500000Y-34212662D01*
X6736631Y-34194040D01*
X6967440Y-34138627D01*
X7186732Y-34047794D01*
X7186737Y-34047791D01*
X7373890Y-33933102D01*
X6667623Y-33226835D01*
X6788458Y-33174349D01*
X6905739Y-33078934D01*
X6992928Y-32955415D01*
X7024838Y-32865626D01*
X7733102Y-33573890D01*
X7847791Y-33386737D01*
X7847794Y-33386732D01*
X7938627Y-33167440D01*
X7994040Y-32936631D01*
X8012662Y-32700000D01*
X11487337Y-32700000D01*
X11505959Y-32936631D01*
X11561372Y-33167440D01*
X11652205Y-33386732D01*
X11652208Y-33386738D01*
X11766896Y-33573890D01*
X12473096Y-32867689D01*
X12476884Y-32885915D01*
X12546442Y-33020156D01*
X12649638Y-33130652D01*
X12778819Y-33209209D01*
X12834421Y-33224788D01*
X12126108Y-33933102D01*
X12313262Y-34047791D01*
X12313267Y-34047794D01*
X12532559Y-34138627D01*
X12532558Y-34138627D01*
X12763368Y-34194040D01*
X13000000Y-34212662D01*
X13236631Y-34194040D01*
X13467440Y-34138627D01*
X13686732Y-34047794D01*
X13686737Y-34047791D01*
X13873890Y-33933102D01*
X13167623Y-33226835D01*
X13288458Y-33174349D01*
X13405739Y-33078934D01*
X13492928Y-32955415D01*
X13524838Y-32865626D01*
X14233102Y-33573890D01*
X14347791Y-33386737D01*
X14347794Y-33386732D01*
X14438627Y-33167440D01*
X14494040Y-32936631D01*
X14512662Y-32700000D01*
X14494040Y-32463368D01*
X14438627Y-32232559D01*
X14347794Y-32013267D01*
X14347791Y-32013262D01*
X14233102Y-31826108D01*
X13526902Y-32532307D01*
X13523116Y-32514085D01*
X13453558Y-32379844D01*
X13350362Y-32269348D01*
X13221181Y-32190791D01*
X13165575Y-32175210D01*
X13873890Y-31466896D01*
X13873891Y-31466896D01*
X13686738Y-31352208D01*
X13686732Y-31352205D01*
X13467440Y-31261372D01*
X13467441Y-31261372D01*
X13236631Y-31205959D01*
X13000000Y-31187337D01*
X12763368Y-31205959D01*
X12532559Y-31261372D01*
X12313267Y-31352205D01*
X12313255Y-31352211D01*
X12126108Y-31466896D01*
X12832376Y-32173164D01*
X12711542Y-32225651D01*
X12594261Y-32321066D01*
X12507072Y-32444585D01*
X12475161Y-32534373D01*
X11766896Y-31826108D01*
X11652211Y-32013255D01*
X11652205Y-32013267D01*
X11561372Y-32232559D01*
X11505959Y-32463368D01*
X11487337Y-32700000D01*
X8012662Y-32700000D01*
X7994040Y-32463368D01*
X7938627Y-32232559D01*
X7847794Y-32013267D01*
X7847791Y-32013262D01*
X7733102Y-31826108D01*
X7026902Y-32532307D01*
X7023116Y-32514085D01*
X6953558Y-32379844D01*
X6850362Y-32269348D01*
X6721181Y-32190791D01*
X6665575Y-32175210D01*
X7373890Y-31466896D01*
X7373891Y-31466896D01*
X7186738Y-31352208D01*
X7186732Y-31352205D01*
X6967440Y-31261372D01*
X6967441Y-31261372D01*
X6736631Y-31205959D01*
X6500000Y-31187337D01*
X6263368Y-31205959D01*
X6032559Y-31261372D01*
X5813267Y-31352205D01*
X5813255Y-31352211D01*
X5626108Y-31466896D01*
X6332376Y-32173164D01*
X6211542Y-32225651D01*
X6094261Y-32321066D01*
X6007072Y-32444585D01*
X5975161Y-32534373D01*
X5266896Y-31826108D01*
X5152211Y-32013255D01*
X5152205Y-32013267D01*
X5061372Y-32232559D01*
X5005959Y-32463368D01*
X4987337Y-32700000D01*
X-39299500Y-32700000D01*
X-39299500Y-29835002D01*
X14159353Y-29835002D01*
X14179834Y-29977456D01*
X14187123Y-29993416D01*
X14239623Y-30108373D01*
X14307409Y-30186603D01*
X14333873Y-30217144D01*
X14448947Y-30291097D01*
X14454947Y-30294953D01*
X14536521Y-30318905D01*
X14593035Y-30335499D01*
X14593036Y-30335499D01*
X14593039Y-30335500D01*
X14593041Y-30335500D01*
X14699521Y-30335500D01*
X14757712Y-30354407D01*
X14769525Y-30364496D01*
X15430504Y-31025475D01*
X15458281Y-31079992D01*
X15459500Y-31095479D01*
X15459500Y-36296105D01*
X15440593Y-36354296D01*
X15433258Y-36362289D01*
X15433509Y-36362506D01*
X15428872Y-36367856D01*
X15428872Y-36367857D01*
X15411623Y-36387764D01*
X15334622Y-36476628D01*
X15274834Y-36607543D01*
X15254353Y-36749997D01*
X15254353Y-36750002D01*
X15274834Y-36892456D01*
X15320642Y-36992760D01*
X15334623Y-37023373D01*
X15423908Y-37126414D01*
X15428873Y-37132144D01*
X15549942Y-37209950D01*
X15549947Y-37209953D01*
X15656403Y-37241211D01*
X15688035Y-37250499D01*
X15688036Y-37250499D01*
X15688039Y-37250500D01*
X15688041Y-37250500D01*
X15831959Y-37250500D01*
X15831961Y-37250500D01*
X15970053Y-37209953D01*
X16091128Y-37132143D01*
X16185377Y-37023373D01*
X16245165Y-36892457D01*
X16260765Y-36783954D01*
X16265647Y-36750002D01*
X16265647Y-36749997D01*
X16245165Y-36607543D01*
X16201740Y-36512457D01*
X16185377Y-36476627D01*
X16091128Y-36367857D01*
X16091127Y-36367856D01*
X16086491Y-36362506D01*
X16088524Y-36360743D01*
X16063067Y-36318505D01*
X16060500Y-36296105D01*
X16060500Y-30995169D01*
X16062731Y-30981496D01*
X16061505Y-30981325D01*
X16062773Y-30972233D01*
X16060606Y-30925358D01*
X16060500Y-30920786D01*
X16060500Y-30902160D01*
X16060500Y-30902156D01*
X16060478Y-30902042D01*
X16060241Y-30900002D01*
X31894353Y-30900002D01*
X31914834Y-31042456D01*
X31954494Y-31129297D01*
X31974623Y-31173373D01*
X31986723Y-31187337D01*
X32068873Y-31282144D01*
X32189942Y-31359950D01*
X32189947Y-31359953D01*
X32296403Y-31391211D01*
X32328035Y-31400499D01*
X32328036Y-31400499D01*
X32328039Y-31400500D01*
X32328041Y-31400500D01*
X32471959Y-31400500D01*
X32471961Y-31400500D01*
X32610053Y-31359953D01*
X32703840Y-31299680D01*
X32763015Y-31284125D01*
X32820031Y-31306324D01*
X32853111Y-31357796D01*
X32855603Y-31370717D01*
X32859427Y-31401393D01*
X32861527Y-31408448D01*
X32863907Y-31415380D01*
X32887322Y-31458646D01*
X32889195Y-31462285D01*
X32910801Y-31506482D01*
X32915078Y-31512472D01*
X32919581Y-31518258D01*
X32955764Y-31551567D01*
X32958717Y-31554399D01*
X34520504Y-33116186D01*
X34548281Y-33170703D01*
X34549500Y-33186190D01*
X34549500Y-33353381D01*
X34547393Y-33373696D01*
X34544957Y-33385315D01*
X34547253Y-33403733D01*
X34548740Y-33415662D01*
X34549500Y-33427907D01*
X34549500Y-33429042D01*
X34552751Y-33448528D01*
X34553337Y-33452547D01*
X34559427Y-33501393D01*
X34561527Y-33508448D01*
X34563907Y-33515380D01*
X34587322Y-33558646D01*
X34589195Y-33562285D01*
X34610801Y-33606482D01*
X34615078Y-33612472D01*
X34619581Y-33618258D01*
X34655764Y-33651567D01*
X34658717Y-33654399D01*
X35169380Y-34165062D01*
X35197157Y-34219579D01*
X35197354Y-34220875D01*
X35197427Y-34221379D01*
X35187056Y-34281679D01*
X35169453Y-34305574D01*
X34169467Y-35305561D01*
X34114950Y-35333338D01*
X34113558Y-35333548D01*
X34108045Y-35334340D01*
X33969949Y-35374889D01*
X33969942Y-35374892D01*
X33848873Y-35452698D01*
X33754622Y-35561471D01*
X33694834Y-35692386D01*
X33674353Y-35834840D01*
X33674353Y-35834845D01*
X33694834Y-35977299D01*
X33735741Y-36066870D01*
X33754623Y-36108216D01*
X33811685Y-36174070D01*
X33853509Y-36222337D01*
X33851471Y-36224102D01*
X33876925Y-36266301D01*
X33879500Y-36288736D01*
X33879500Y-36955835D01*
X33860593Y-37014026D01*
X33855321Y-37020664D01*
X33854623Y-37021469D01*
X33794834Y-37152386D01*
X33774353Y-37294840D01*
X33774353Y-37294845D01*
X33794834Y-37437299D01*
X33851501Y-37561380D01*
X33854623Y-37568216D01*
X33944655Y-37672119D01*
X33948873Y-37676987D01*
X34069942Y-37754793D01*
X34069947Y-37754796D01*
X34176403Y-37786054D01*
X34208035Y-37795342D01*
X34208036Y-37795342D01*
X34208039Y-37795343D01*
X34208041Y-37795343D01*
X34351959Y-37795343D01*
X34351961Y-37795343D01*
X34490053Y-37754796D01*
X34611128Y-37676986D01*
X34705377Y-37568216D01*
X34765165Y-37437300D01*
X34771992Y-37389814D01*
X34785647Y-37294845D01*
X34785647Y-37294840D01*
X34765165Y-37152386D01*
X34705377Y-37021471D01*
X34705377Y-37021470D01*
X34611128Y-36912700D01*
X34525976Y-36857976D01*
X34487245Y-36810610D01*
X34480500Y-36774692D01*
X34480500Y-36370002D01*
X44044353Y-36370002D01*
X44064834Y-36512456D01*
X44088972Y-36565309D01*
X44124623Y-36643373D01*
X44217015Y-36750000D01*
X44218873Y-36752144D01*
X44339942Y-36829950D01*
X44339947Y-36829953D01*
X44435386Y-36857976D01*
X44478035Y-36870499D01*
X44478036Y-36870499D01*
X44478039Y-36870500D01*
X44478041Y-36870500D01*
X44621959Y-36870500D01*
X44621961Y-36870500D01*
X44760053Y-36829953D01*
X44881128Y-36752143D01*
X44922264Y-36704668D01*
X44974660Y-36673073D01*
X44997083Y-36670500D01*
X45059507Y-36670500D01*
X45095271Y-36677186D01*
X45103020Y-36680187D01*
X45103827Y-36680500D01*
X45113652Y-36680500D01*
X45136316Y-36683129D01*
X45145881Y-36685379D01*
X45170958Y-36681880D01*
X45174054Y-36681449D01*
X45187731Y-36680500D01*
X51919963Y-36680500D01*
X51978154Y-36699407D01*
X52014118Y-36748907D01*
X52014692Y-36750739D01*
X52015119Y-36752144D01*
X52024767Y-36783952D01*
X52024768Y-36783954D01*
X52122316Y-36966452D01*
X52169030Y-37023373D01*
X52253590Y-37126410D01*
X52253595Y-37126414D01*
X52413547Y-37257683D01*
X52413548Y-37257683D01*
X52413550Y-37257685D01*
X52596046Y-37355232D01*
X52734468Y-37397221D01*
X52784665Y-37432206D01*
X52804711Y-37490014D01*
X52786950Y-37548565D01*
X52738166Y-37585494D01*
X52722026Y-37589608D01*
X52665490Y-37599042D01*
X52452624Y-37672119D01*
X52254698Y-37779232D01*
X52254695Y-37779234D01*
X52077103Y-37917460D01*
X51924671Y-38083045D01*
X51801584Y-38271443D01*
X51801581Y-38271448D01*
X51711176Y-38477552D01*
X51663455Y-38665999D01*
X51663456Y-38666000D01*
X52568884Y-38666000D01*
X52540507Y-38710156D01*
X52500000Y-38848111D01*
X52500000Y-38991889D01*
X52540507Y-39129844D01*
X52568884Y-39174000D01*
X51663456Y-39174000D01*
X51711176Y-39362447D01*
X51801581Y-39568551D01*
X51801584Y-39568556D01*
X51924671Y-39756954D01*
X52077103Y-39922539D01*
X52254695Y-40060765D01*
X52254698Y-40060767D01*
X52452624Y-40167880D01*
X52665492Y-40240957D01*
X52722024Y-40250391D01*
X52776310Y-40278618D01*
X52803636Y-40333362D01*
X52793565Y-40393713D01*
X52749945Y-40436619D01*
X52734468Y-40442778D01*
X52596045Y-40484768D01*
X52413547Y-40582316D01*
X52253595Y-40713585D01*
X52253585Y-40713595D01*
X52122316Y-40873547D01*
X52024768Y-41056045D01*
X51964699Y-41254065D01*
X51964698Y-41254070D01*
X51944417Y-41459996D01*
X51944417Y-41460003D01*
X51964698Y-41665929D01*
X51964699Y-41665934D01*
X52024768Y-41863954D01*
X52122316Y-42046452D01*
X52224495Y-42170958D01*
X52253590Y-42206410D01*
X52253595Y-42206414D01*
X52413547Y-42337683D01*
X52413548Y-42337683D01*
X52413550Y-42337685D01*
X52596046Y-42435232D01*
X52733997Y-42477078D01*
X52794065Y-42495300D01*
X52794070Y-42495301D01*
X52999997Y-42515583D01*
X53000000Y-42515583D01*
X53000003Y-42515583D01*
X53205929Y-42495301D01*
X53205934Y-42495300D01*
X53403954Y-42435232D01*
X53586450Y-42337685D01*
X53746410Y-42206410D01*
X53877685Y-42046450D01*
X53975232Y-41863954D01*
X54035300Y-41665934D01*
X54035301Y-41665929D01*
X54055583Y-41460003D01*
X54055583Y-41459996D01*
X54035301Y-41254070D01*
X54035300Y-41254065D01*
X53993102Y-41114956D01*
X53975232Y-41056046D01*
X53877685Y-40873550D01*
X53746410Y-40713590D01*
X53746404Y-40713585D01*
X53586452Y-40582316D01*
X53403954Y-40484768D01*
X53265531Y-40442778D01*
X53215334Y-40407793D01*
X53195288Y-40349985D01*
X53213049Y-40291434D01*
X53261834Y-40254505D01*
X53277975Y-40250391D01*
X53334507Y-40240957D01*
X53547375Y-40167880D01*
X53745301Y-40060767D01*
X53745304Y-40060765D01*
X53922896Y-39922539D01*
X54075328Y-39756954D01*
X54198415Y-39568556D01*
X54198418Y-39568551D01*
X54288823Y-39362447D01*
X54336544Y-39174000D01*
X53431116Y-39174000D01*
X53459493Y-39129844D01*
X53500000Y-38991889D01*
X53500000Y-38848111D01*
X53459493Y-38710156D01*
X53431116Y-38666000D01*
X54336544Y-38666000D01*
X54336544Y-38665999D01*
X54288823Y-38477552D01*
X54198418Y-38271448D01*
X54198415Y-38271443D01*
X54075328Y-38083045D01*
X53922896Y-37917460D01*
X53745304Y-37779234D01*
X53745301Y-37779232D01*
X53547375Y-37672119D01*
X53334509Y-37599042D01*
X53277973Y-37589608D01*
X53223689Y-37561380D01*
X53196363Y-37506635D01*
X53206434Y-37446285D01*
X53250055Y-37403379D01*
X53265524Y-37397223D01*
X53403954Y-37355232D01*
X53586450Y-37257685D01*
X53746410Y-37126410D01*
X53877685Y-36966450D01*
X53975232Y-36783954D01*
X54035300Y-36585934D01*
X54035301Y-36585929D01*
X54055583Y-36380003D01*
X54055583Y-36379996D01*
X54035301Y-36174070D01*
X54035300Y-36174065D01*
X54003581Y-36069501D01*
X53975232Y-35976046D01*
X53877685Y-35793550D01*
X53868324Y-35782144D01*
X53746414Y-35633595D01*
X53746410Y-35633590D01*
X53740645Y-35628859D01*
X53586452Y-35502316D01*
X53403954Y-35404768D01*
X53205934Y-35344699D01*
X53205929Y-35344698D01*
X53000003Y-35324417D01*
X52999997Y-35324417D01*
X52794070Y-35344698D01*
X52794065Y-35344699D01*
X52596045Y-35404768D01*
X52413547Y-35502316D01*
X52253595Y-35633585D01*
X52253585Y-35633595D01*
X52122316Y-35793547D01*
X52024768Y-35976045D01*
X52024767Y-35976047D01*
X52014700Y-36009237D01*
X51979716Y-36059434D01*
X51921908Y-36079481D01*
X51919963Y-36079500D01*
X45250493Y-36079500D01*
X45214729Y-36072814D01*
X45206177Y-36069501D01*
X45206174Y-36069500D01*
X45206173Y-36069500D01*
X45206172Y-36069500D01*
X45196348Y-36069500D01*
X45173683Y-36066870D01*
X45164119Y-36064621D01*
X45164118Y-36064621D01*
X45135946Y-36068551D01*
X45122269Y-36069500D01*
X44997083Y-36069500D01*
X44938892Y-36050593D01*
X44922264Y-36035331D01*
X44881128Y-35987857D01*
X44848182Y-35966684D01*
X44760057Y-35910049D01*
X44760054Y-35910047D01*
X44760053Y-35910047D01*
X44760050Y-35910046D01*
X44621964Y-35869500D01*
X44621961Y-35869500D01*
X44478039Y-35869500D01*
X44478035Y-35869500D01*
X44339949Y-35910046D01*
X44339942Y-35910049D01*
X44218873Y-35987855D01*
X44124622Y-36096628D01*
X44064834Y-36227543D01*
X44044353Y-36369997D01*
X44044353Y-36370002D01*
X34480500Y-36370002D01*
X34480500Y-36288736D01*
X34499407Y-36230545D01*
X34506741Y-36222554D01*
X34506491Y-36222337D01*
X34511128Y-36216986D01*
X34605377Y-36108216D01*
X34665165Y-35977300D01*
X34685647Y-35834843D01*
X34668122Y-35712952D01*
X34678555Y-35652663D01*
X34696111Y-35628859D01*
X34924969Y-35400002D01*
X43154353Y-35400002D01*
X43174834Y-35542456D01*
X43216457Y-35633595D01*
X43234623Y-35673373D01*
X43328872Y-35782143D01*
X43328873Y-35782144D01*
X43410870Y-35834840D01*
X43449947Y-35859953D01*
X43556403Y-35891211D01*
X43588035Y-35900499D01*
X43588036Y-35900499D01*
X43588039Y-35900500D01*
X43588041Y-35900500D01*
X43731959Y-35900500D01*
X43731961Y-35900500D01*
X43870053Y-35859953D01*
X43991128Y-35782143D01*
X44085377Y-35673373D01*
X44145165Y-35542457D01*
X44158070Y-35452698D01*
X44165647Y-35400002D01*
X44165647Y-35400000D01*
X44162558Y-35378518D01*
X44172990Y-35318228D01*
X44190543Y-35294426D01*
X48605475Y-30879496D01*
X48659992Y-30851719D01*
X48675479Y-30850500D01*
X49544521Y-30850500D01*
X49602712Y-30869407D01*
X49614525Y-30879496D01*
X52023812Y-33288784D01*
X52051589Y-33343301D01*
X52042018Y-33403733D01*
X52041118Y-33405456D01*
X52024770Y-33436040D01*
X52024768Y-33436045D01*
X51964699Y-33634065D01*
X51964698Y-33634070D01*
X51944417Y-33839996D01*
X51944417Y-33840003D01*
X51964698Y-34045929D01*
X51964699Y-34045934D01*
X52024768Y-34243954D01*
X52122316Y-34426452D01*
X52160823Y-34473373D01*
X52253590Y-34586410D01*
X52253595Y-34586414D01*
X52413547Y-34717683D01*
X52413548Y-34717683D01*
X52413550Y-34717685D01*
X52596046Y-34815232D01*
X52733997Y-34857078D01*
X52794065Y-34875300D01*
X52794070Y-34875301D01*
X52999997Y-34895583D01*
X53000000Y-34895583D01*
X53000003Y-34895583D01*
X53205929Y-34875301D01*
X53205934Y-34875300D01*
X53221744Y-34870504D01*
X53403954Y-34815232D01*
X53586450Y-34717685D01*
X53746410Y-34586410D01*
X53877685Y-34426450D01*
X53975232Y-34243954D01*
X54035300Y-34045934D01*
X54035301Y-34045929D01*
X54055583Y-33840003D01*
X54055583Y-33839996D01*
X54035301Y-33634070D01*
X54035300Y-33634065D01*
X54012422Y-33558646D01*
X53975232Y-33436046D01*
X53877685Y-33253550D01*
X53857781Y-33229297D01*
X53746414Y-33093595D01*
X53746410Y-33093590D01*
X53689174Y-33046618D01*
X53586452Y-32962316D01*
X53403954Y-32864768D01*
X53205934Y-32804699D01*
X53205929Y-32804698D01*
X53000003Y-32784417D01*
X52999997Y-32784417D01*
X52794070Y-32804698D01*
X52794065Y-32804699D01*
X52596052Y-32864766D01*
X52596049Y-32864766D01*
X52596046Y-32864768D01*
X52596044Y-32864768D01*
X52596044Y-32864769D01*
X52565453Y-32881120D01*
X52505220Y-32891874D01*
X52450169Y-32865171D01*
X52448783Y-32863812D01*
X51284971Y-31700000D01*
X56994318Y-31700000D01*
X57014955Y-31856758D01*
X57014957Y-31856766D01*
X57075462Y-32002838D01*
X57075462Y-32002839D01*
X57171713Y-32128276D01*
X57171718Y-32128282D01*
X57297159Y-32224536D01*
X57297160Y-32224536D01*
X57297161Y-32224537D01*
X57443233Y-32285042D01*
X57443238Y-32285044D01*
X57560809Y-32300522D01*
X57599999Y-32305682D01*
X57600000Y-32305682D01*
X57600001Y-32305682D01*
X57631352Y-32301554D01*
X57756762Y-32285044D01*
X57902841Y-32224536D01*
X58028282Y-32128282D01*
X58124536Y-32002841D01*
X58185044Y-31856762D01*
X58205682Y-31700000D01*
X58185044Y-31543238D01*
X58132084Y-31415381D01*
X58124537Y-31397161D01*
X58124537Y-31397160D01*
X58070958Y-31327334D01*
X58050534Y-31269658D01*
X58050500Y-31267067D01*
X58050500Y-30227611D01*
X58069407Y-30169420D01*
X58079496Y-30157607D01*
X58544560Y-29692543D01*
X59012424Y-29224678D01*
X59066939Y-29196903D01*
X59069474Y-29196535D01*
X59156762Y-29185044D01*
X59302841Y-29124536D01*
X59428282Y-29028282D01*
X59524536Y-28902841D01*
X59585044Y-28756762D01*
X59605682Y-28600000D01*
X59585044Y-28443238D01*
X59524537Y-28297161D01*
X59524537Y-28297160D01*
X59428286Y-28171723D01*
X59428285Y-28171722D01*
X59428282Y-28171718D01*
X59428277Y-28171714D01*
X59428276Y-28171713D01*
X59302838Y-28075462D01*
X59156766Y-28014957D01*
X59156758Y-28014955D01*
X59000001Y-27994318D01*
X58999999Y-27994318D01*
X58843241Y-28014955D01*
X58843233Y-28014957D01*
X58697161Y-28075462D01*
X58697160Y-28075462D01*
X58571723Y-28171713D01*
X58571713Y-28171723D01*
X58475462Y-28297160D01*
X58475462Y-28297161D01*
X58414956Y-28443236D01*
X58403467Y-28530496D01*
X58377125Y-28585720D01*
X58375318Y-28587576D01*
X57303265Y-29659630D01*
X57294988Y-29667026D01*
X57266030Y-29690119D01*
X57266029Y-29690120D01*
X57233556Y-29737748D01*
X57231416Y-29740764D01*
X57197207Y-29787116D01*
X57193742Y-29793674D01*
X57193353Y-29793468D01*
X57192350Y-29795455D01*
X57192746Y-29795646D01*
X57189526Y-29802332D01*
X57172536Y-29857410D01*
X57171380Y-29860923D01*
X57152355Y-29915295D01*
X57150976Y-29922587D01*
X57150544Y-29922505D01*
X57150171Y-29924700D01*
X57150605Y-29924766D01*
X57149500Y-29932099D01*
X57149500Y-29989715D01*
X57149431Y-29993416D01*
X57147276Y-30051010D01*
X57148107Y-30058385D01*
X57147668Y-30058434D01*
X57149500Y-30072344D01*
X57149500Y-31267067D01*
X57130593Y-31325258D01*
X57129042Y-31327334D01*
X57075462Y-31397160D01*
X57075462Y-31397161D01*
X57014957Y-31543233D01*
X57014955Y-31543241D01*
X56994318Y-31699999D01*
X56994318Y-31700000D01*
X51284971Y-31700000D01*
X49968565Y-30383594D01*
X49960479Y-30372344D01*
X49959487Y-30373094D01*
X49953958Y-30365772D01*
X49919272Y-30334151D01*
X49915968Y-30330996D01*
X49902800Y-30317828D01*
X49902796Y-30317825D01*
X49902693Y-30317755D01*
X49891962Y-30309255D01*
X49870933Y-30290084D01*
X49861762Y-30286531D01*
X49841586Y-30275895D01*
X49833484Y-30270345D01*
X49833479Y-30270343D01*
X49805797Y-30263832D01*
X49792703Y-30259777D01*
X49766177Y-30249500D01*
X49766173Y-30249500D01*
X49756348Y-30249500D01*
X49733683Y-30246870D01*
X49724119Y-30244621D01*
X49724118Y-30244621D01*
X49695946Y-30248551D01*
X49682269Y-30249500D01*
X48575165Y-30249500D01*
X48561489Y-30247267D01*
X48561318Y-30248494D01*
X48552234Y-30247226D01*
X48505359Y-30249394D01*
X48500787Y-30249500D01*
X48482152Y-30249500D01*
X48482029Y-30249523D01*
X48468419Y-30251101D01*
X48440011Y-30252414D01*
X48440007Y-30252415D01*
X48431013Y-30256386D01*
X48409228Y-30263132D01*
X48399571Y-30264937D01*
X48399565Y-30264939D01*
X48375381Y-30279913D01*
X48363259Y-30286302D01*
X48337238Y-30297792D01*
X48337231Y-30297796D01*
X48330286Y-30304742D01*
X48312406Y-30318905D01*
X48304048Y-30324080D01*
X48286907Y-30346778D01*
X48277909Y-30357118D01*
X43764524Y-34870504D01*
X43710007Y-34898281D01*
X43694520Y-34899500D01*
X43588035Y-34899500D01*
X43449949Y-34940046D01*
X43449942Y-34940049D01*
X43328873Y-35017855D01*
X43234622Y-35126628D01*
X43174834Y-35257543D01*
X43154353Y-35399997D01*
X43154353Y-35400002D01*
X34924969Y-35400002D01*
X35595476Y-34729496D01*
X35649992Y-34701719D01*
X35665479Y-34700500D01*
X35771959Y-34700500D01*
X35771961Y-34700500D01*
X35910053Y-34659953D01*
X36031128Y-34582143D01*
X36125377Y-34473373D01*
X36185165Y-34342457D01*
X36191992Y-34294971D01*
X36205647Y-34200002D01*
X36205647Y-34199997D01*
X36185165Y-34057543D01*
X36125377Y-33926628D01*
X36125377Y-33926627D01*
X36031128Y-33817857D01*
X36031127Y-33817856D01*
X36031126Y-33817855D01*
X35910057Y-33740049D01*
X35910054Y-33740047D01*
X35910053Y-33740047D01*
X35910050Y-33740046D01*
X35771964Y-33699500D01*
X35771961Y-33699500D01*
X35736190Y-33699500D01*
X35677999Y-33680593D01*
X35666186Y-33670504D01*
X35279496Y-33283814D01*
X35251719Y-33229297D01*
X35250500Y-33213810D01*
X35250500Y-33046618D01*
X35252607Y-33026302D01*
X35252617Y-33026253D01*
X35255043Y-33014685D01*
X35251260Y-32984336D01*
X35250500Y-32972092D01*
X35250500Y-32970959D01*
X35247249Y-32951478D01*
X35246659Y-32947430D01*
X35239558Y-32890467D01*
X35242067Y-32890154D01*
X35243279Y-32841420D01*
X35280462Y-32792829D01*
X35336644Y-32775343D01*
X37022917Y-32775343D01*
X37081108Y-32794250D01*
X37097733Y-32809510D01*
X37138872Y-32856986D01*
X37259947Y-32934796D01*
X37330170Y-32955415D01*
X37398035Y-32975342D01*
X37398036Y-32975342D01*
X37398039Y-32975343D01*
X37398041Y-32975343D01*
X37541959Y-32975343D01*
X37541961Y-32975343D01*
X37680053Y-32934796D01*
X37801128Y-32856986D01*
X37895377Y-32748216D01*
X37955165Y-32617300D01*
X37975647Y-32474843D01*
X37973997Y-32463368D01*
X37955165Y-32332386D01*
X37949995Y-32321066D01*
X37895377Y-32201470D01*
X37801128Y-32092700D01*
X37801127Y-32092699D01*
X37801126Y-32092698D01*
X37680057Y-32014892D01*
X37680054Y-32014890D01*
X37680053Y-32014890D01*
X37674526Y-32013267D01*
X37541964Y-31974343D01*
X37541961Y-31974343D01*
X37398039Y-31974343D01*
X37398035Y-31974343D01*
X37259949Y-32014889D01*
X37259942Y-32014892D01*
X37138876Y-32092697D01*
X37138875Y-32092698D01*
X37138872Y-32092700D01*
X37108046Y-32128276D01*
X37097736Y-32140174D01*
X37045340Y-32171770D01*
X37022917Y-32174343D01*
X35140322Y-32174343D01*
X35082131Y-32155436D01*
X35070318Y-32145347D01*
X34929496Y-32004525D01*
X34901719Y-31950008D01*
X34900500Y-31934521D01*
X34900500Y-27465169D01*
X34902731Y-27451496D01*
X34901505Y-27451325D01*
X34902773Y-27442233D01*
X34900606Y-27395358D01*
X34900500Y-27390786D01*
X34900500Y-27372160D01*
X34900500Y-27372156D01*
X34900478Y-27372042D01*
X34898898Y-27358430D01*
X34897585Y-27330009D01*
X34897584Y-27330006D01*
X34897584Y-27330005D01*
X34895484Y-27321075D01*
X34898644Y-27320331D01*
X34893606Y-27283740D01*
X34905647Y-27200000D01*
X34885165Y-27057543D01*
X34825377Y-26926627D01*
X34731128Y-26817857D01*
X34731127Y-26817856D01*
X34731126Y-26817855D01*
X34610057Y-26740049D01*
X34610054Y-26740047D01*
X34610053Y-26740047D01*
X34610050Y-26740046D01*
X34471964Y-26699500D01*
X34471961Y-26699500D01*
X34328039Y-26699500D01*
X34328035Y-26699500D01*
X34189949Y-26740046D01*
X34189942Y-26740049D01*
X34068873Y-26817855D01*
X33974622Y-26926628D01*
X33914834Y-27057543D01*
X33894353Y-27199997D01*
X33894353Y-27200002D01*
X33914834Y-27342456D01*
X33960403Y-27442236D01*
X33974623Y-27473373D01*
X34068872Y-27582143D01*
X34068873Y-27582144D01*
X34189942Y-27659950D01*
X34189947Y-27659953D01*
X34228389Y-27671240D01*
X34278897Y-27705774D01*
X34299460Y-27763401D01*
X34299500Y-27766230D01*
X34299500Y-28534062D01*
X34280593Y-28592253D01*
X34231093Y-28628217D01*
X34172609Y-28629052D01*
X34071964Y-28599500D01*
X34071961Y-28599500D01*
X33928039Y-28599500D01*
X33928035Y-28599500D01*
X33789949Y-28640046D01*
X33789942Y-28640049D01*
X33668873Y-28717855D01*
X33574622Y-28826628D01*
X33514834Y-28957543D01*
X33494353Y-29099997D01*
X33494353Y-29100002D01*
X33514834Y-29242456D01*
X33556870Y-29334500D01*
X33574623Y-29373373D01*
X33625320Y-29431880D01*
X33649137Y-29488238D01*
X33649500Y-29496710D01*
X33649500Y-29851887D01*
X33630593Y-29910078D01*
X33620504Y-29921891D01*
X33269504Y-30272891D01*
X33214987Y-30300668D01*
X33154555Y-30291097D01*
X33111290Y-30247832D01*
X33100500Y-30202887D01*
X33100500Y-27882481D01*
X33119407Y-27824290D01*
X33145976Y-27799197D01*
X33186550Y-27773123D01*
X33280799Y-27664353D01*
X33340587Y-27533437D01*
X33360963Y-27391716D01*
X33361069Y-27390982D01*
X33361069Y-27390977D01*
X33340587Y-27248523D01*
X33280799Y-27117608D01*
X33280799Y-27117607D01*
X33186550Y-27008837D01*
X33186549Y-27008836D01*
X33186548Y-27008835D01*
X33065479Y-26931029D01*
X33065476Y-26931027D01*
X33065475Y-26931027D01*
X33065472Y-26931026D01*
X32927386Y-26890480D01*
X32927383Y-26890480D01*
X32783461Y-26890480D01*
X32783457Y-26890480D01*
X32645371Y-26931026D01*
X32645364Y-26931029D01*
X32524295Y-27008835D01*
X32430044Y-27117608D01*
X32370256Y-27248523D01*
X32349775Y-27390977D01*
X32349775Y-27390982D01*
X32370256Y-27533436D01*
X32392501Y-27582144D01*
X32430045Y-27664353D01*
X32475318Y-27716601D01*
X32499137Y-27772959D01*
X32499500Y-27781432D01*
X32499500Y-30300500D01*
X32480593Y-30358691D01*
X32431093Y-30394655D01*
X32400500Y-30399500D01*
X32328035Y-30399500D01*
X32189949Y-30440046D01*
X32189942Y-30440049D01*
X32068873Y-30517855D01*
X31974622Y-30626628D01*
X31914834Y-30757543D01*
X31894353Y-30899997D01*
X31894353Y-30900002D01*
X16060241Y-30900002D01*
X16058898Y-30888430D01*
X16057585Y-30860009D01*
X16053613Y-30851014D01*
X16046865Y-30829220D01*
X16045061Y-30819567D01*
X16030087Y-30795383D01*
X16023692Y-30783250D01*
X16012207Y-30757236D01*
X16005257Y-30750286D01*
X15991088Y-30732396D01*
X15985920Y-30724049D01*
X15985919Y-30724048D01*
X15963221Y-30706907D01*
X15952879Y-30697908D01*
X15195546Y-29940575D01*
X15167769Y-29886058D01*
X15167558Y-29856482D01*
X15170647Y-29835000D01*
X15165949Y-29802327D01*
X15150165Y-29692543D01*
X15090377Y-29561628D01*
X15090377Y-29561627D01*
X14996128Y-29452857D01*
X14996127Y-29452856D01*
X14996126Y-29452855D01*
X14875057Y-29375049D01*
X14875054Y-29375047D01*
X14875053Y-29375047D01*
X14869352Y-29373373D01*
X14736964Y-29334500D01*
X14736961Y-29334500D01*
X14593039Y-29334500D01*
X14593035Y-29334500D01*
X14454949Y-29375046D01*
X14454942Y-29375049D01*
X14333873Y-29452855D01*
X14239622Y-29561628D01*
X14179834Y-29692543D01*
X14159353Y-29834997D01*
X14159353Y-29835002D01*
X-39299500Y-29835002D01*
X-39299500Y-23024000D01*
X-6705500Y-23024000D01*
X-6698519Y-23088937D01*
X-6687133Y-23141279D01*
X-6676175Y-23179488D01*
X-6619496Y-23276401D01*
X-6573003Y-23330057D01*
X-6528267Y-23372238D01*
X-6428190Y-23423123D01*
X-6360069Y-23443125D01*
X-6323182Y-23448428D01*
X-6274004Y-23455500D01*
X-6274000Y-23455500D01*
X-5526004Y-23455500D01*
X-5526000Y-23455500D01*
X-5461063Y-23448519D01*
X-5408721Y-23437133D01*
X-5370512Y-23426175D01*
X-5273599Y-23369496D01*
X-5273596Y-23369493D01*
X-5273595Y-23369493D01*
X-5219943Y-23323003D01*
X-5219942Y-23323002D01*
X-5211534Y-23314085D01*
X-5177762Y-23278267D01*
X-5126877Y-23178190D01*
X-5120004Y-23154784D01*
X-5106874Y-23110066D01*
X-5106124Y-23106616D01*
X-5105161Y-23106825D01*
X-5079929Y-23055504D01*
X-5025815Y-23026950D01*
X-5008932Y-23025500D01*
X-3049500Y-23025500D01*
X-2991309Y-23044407D01*
X-2955345Y-23093907D01*
X-2950500Y-23124500D01*
X-2950500Y-28460102D01*
X-2959447Y-28501229D01*
X-2985165Y-28557543D01*
X-3003496Y-28685042D01*
X-3005647Y-28700000D01*
X-2985165Y-28842457D01*
X-2925377Y-28973373D01*
X-2831128Y-29082143D01*
X-2710053Y-29159953D01*
X-2571961Y-29200500D01*
X-2571959Y-29200500D01*
X-2428041Y-29200500D01*
X-2428039Y-29200500D01*
X-2428036Y-29200499D01*
X-2428035Y-29200499D01*
X-2375400Y-29185044D01*
X-2289947Y-29159953D01*
X-2289942Y-29159950D01*
X-2168873Y-29082144D01*
X-2122202Y-29028282D01*
X-2074623Y-28973373D01*
X-2074622Y-28973371D01*
X-2014834Y-28842456D01*
X-1994353Y-28700002D01*
X-1994353Y-28699997D01*
X-2014834Y-28557543D01*
X-2040553Y-28501229D01*
X-2049500Y-28460102D01*
X-2049500Y-24340002D01*
X9594353Y-24340002D01*
X9614834Y-24482456D01*
X9674622Y-24613371D01*
X9674623Y-24613373D01*
X9768872Y-24722143D01*
X9768873Y-24722144D01*
X9889942Y-24799950D01*
X9889947Y-24799953D01*
X9996403Y-24831211D01*
X10028035Y-24840499D01*
X10028036Y-24840499D01*
X10028039Y-24840500D01*
X10063810Y-24840500D01*
X10122001Y-24859407D01*
X10133814Y-24869496D01*
X11530504Y-26266186D01*
X11558281Y-26320703D01*
X11559500Y-26336190D01*
X11559500Y-27283211D01*
X11540593Y-27341402D01*
X11520768Y-27361752D01*
X11481721Y-27391714D01*
X11481718Y-27391716D01*
X11385462Y-27517160D01*
X11385462Y-27517161D01*
X11324957Y-27663233D01*
X11324955Y-27663241D01*
X11304318Y-27819999D01*
X11304318Y-27820000D01*
X11324955Y-27976758D01*
X11324957Y-27976766D01*
X11385462Y-28122838D01*
X11385462Y-28122839D01*
X11422972Y-28171723D01*
X11481718Y-28248282D01*
X11481722Y-28248285D01*
X11481723Y-28248286D01*
X11511082Y-28270813D01*
X11607159Y-28344536D01*
X11607160Y-28344536D01*
X11607161Y-28344537D01*
X11747919Y-28402841D01*
X11753238Y-28405044D01*
X11870809Y-28420522D01*
X11909999Y-28425682D01*
X11910000Y-28425682D01*
X11910001Y-28425682D01*
X11941352Y-28421554D01*
X12066762Y-28405044D01*
X12212841Y-28344536D01*
X12338282Y-28248282D01*
X12434536Y-28122841D01*
X12495044Y-27976762D01*
X12515682Y-27820000D01*
X12495044Y-27663238D01*
X12434537Y-27517161D01*
X12434537Y-27517160D01*
X12338281Y-27391716D01*
X12338278Y-27391714D01*
X12299232Y-27361752D01*
X12264577Y-27311328D01*
X12260500Y-27283211D01*
X12260500Y-26196619D01*
X12262607Y-26176303D01*
X12262617Y-26176254D01*
X12265043Y-26164686D01*
X12261260Y-26134337D01*
X12260500Y-26122093D01*
X12260500Y-26120956D01*
X12257250Y-26101490D01*
X12256662Y-26097458D01*
X12250573Y-26048608D01*
X12250571Y-26048605D01*
X12248476Y-26041566D01*
X12246092Y-26034622D01*
X12246092Y-26034619D01*
X12222683Y-25991363D01*
X12220810Y-25987723D01*
X12199200Y-25943518D01*
X12194951Y-25937567D01*
X12190419Y-25931743D01*
X12190418Y-25931742D01*
X12154221Y-25898420D01*
X12151294Y-25895612D01*
X11255682Y-25000000D01*
X46994318Y-25000000D01*
X47014955Y-25156758D01*
X47014957Y-25156766D01*
X47075462Y-25302838D01*
X47075462Y-25302839D01*
X47147665Y-25396936D01*
X47171718Y-25428282D01*
X47297159Y-25524536D01*
X47297160Y-25524536D01*
X47297161Y-25524537D01*
X47438219Y-25582965D01*
X47443238Y-25585044D01*
X47530496Y-25596531D01*
X47585720Y-25622872D01*
X47587576Y-25624680D01*
X47720503Y-25757606D01*
X47748281Y-25812123D01*
X47749500Y-25827610D01*
X47749500Y-27667067D01*
X47730593Y-27725258D01*
X47729042Y-27727334D01*
X47675462Y-27797160D01*
X47675462Y-27797161D01*
X47614957Y-27943233D01*
X47614955Y-27943241D01*
X47594318Y-28099999D01*
X47594318Y-28100000D01*
X47614955Y-28256758D01*
X47614957Y-28256766D01*
X47675462Y-28402838D01*
X47675462Y-28402839D01*
X47771713Y-28528276D01*
X47771718Y-28528282D01*
X47897159Y-28624536D01*
X47897160Y-28624536D01*
X47897161Y-28624537D01*
X48043233Y-28685042D01*
X48043238Y-28685044D01*
X48156818Y-28699997D01*
X48199999Y-28705682D01*
X48200000Y-28705682D01*
X48200001Y-28705682D01*
X48243182Y-28699997D01*
X48356762Y-28685044D01*
X48502841Y-28624536D01*
X48628282Y-28528282D01*
X48724536Y-28402841D01*
X48785044Y-28256762D01*
X48805682Y-28100000D01*
X48785044Y-27943238D01*
X48724537Y-27797161D01*
X48724537Y-27797160D01*
X48670958Y-27727334D01*
X48650534Y-27669658D01*
X48650500Y-27667067D01*
X48650500Y-25630862D01*
X48651122Y-25619779D01*
X48653741Y-25596531D01*
X48655270Y-25582965D01*
X48644553Y-25526326D01*
X48643933Y-25522675D01*
X48635348Y-25465715D01*
X48635348Y-25465713D01*
X48635346Y-25465709D01*
X48633160Y-25458622D01*
X48633582Y-25458491D01*
X48632890Y-25456388D01*
X48632474Y-25456534D01*
X48630023Y-25449528D01*
X48603081Y-25398554D01*
X48601425Y-25395274D01*
X48576425Y-25343358D01*
X48576424Y-25343357D01*
X48576424Y-25343356D01*
X48572244Y-25337225D01*
X48572607Y-25336977D01*
X48571324Y-25335169D01*
X48570970Y-25335431D01*
X48566565Y-25329461D01*
X48525811Y-25288707D01*
X48523242Y-25286040D01*
X48484056Y-25243806D01*
X48478258Y-25239183D01*
X48478532Y-25238839D01*
X48467397Y-25230294D01*
X48224680Y-24987577D01*
X48196903Y-24933060D01*
X48196531Y-24930495D01*
X48193264Y-24905682D01*
X48185044Y-24843238D01*
X48183910Y-24840500D01*
X48124537Y-24697161D01*
X48124537Y-24697160D01*
X48028286Y-24571723D01*
X48028285Y-24571722D01*
X48028282Y-24571718D01*
X48028277Y-24571714D01*
X48028276Y-24571713D01*
X47957104Y-24517101D01*
X47902841Y-24475464D01*
X47902840Y-24475463D01*
X47902838Y-24475462D01*
X47756766Y-24414957D01*
X47756758Y-24414955D01*
X47600001Y-24394318D01*
X47599999Y-24394318D01*
X47443241Y-24414955D01*
X47443233Y-24414957D01*
X47297161Y-24475462D01*
X47297160Y-24475462D01*
X47171723Y-24571713D01*
X47171713Y-24571723D01*
X47075462Y-24697160D01*
X47075462Y-24697161D01*
X47014957Y-24843233D01*
X47014955Y-24843241D01*
X46994318Y-24999999D01*
X46994318Y-25000000D01*
X11255682Y-25000000D01*
X10630619Y-24374937D01*
X10602842Y-24320420D01*
X10602631Y-24319022D01*
X10599896Y-24300000D01*
X40094318Y-24300000D01*
X40114955Y-24456758D01*
X40114957Y-24456766D01*
X40175462Y-24602838D01*
X40175462Y-24602839D01*
X40247837Y-24697160D01*
X40271718Y-24728282D01*
X40271722Y-24728285D01*
X40271723Y-24728286D01*
X40301082Y-24750813D01*
X40397159Y-24824536D01*
X40397160Y-24824536D01*
X40397161Y-24824537D01*
X40481345Y-24859407D01*
X40543238Y-24885044D01*
X40660809Y-24900522D01*
X40699999Y-24905682D01*
X40700000Y-24905682D01*
X40700001Y-24905682D01*
X40731352Y-24901554D01*
X40856762Y-24885044D01*
X41002841Y-24824536D01*
X41128282Y-24728282D01*
X41224536Y-24602841D01*
X41224537Y-24602838D01*
X41227781Y-24597220D01*
X41229044Y-24597949D01*
X41263952Y-24557068D01*
X41271258Y-24553238D01*
X41272762Y-24552208D01*
X41272763Y-24552206D01*
X41272765Y-24552206D01*
X41279709Y-24545260D01*
X41297601Y-24531089D01*
X41305952Y-24525919D01*
X41323089Y-24503223D01*
X41332082Y-24492887D01*
X42324969Y-23500000D01*
X57487337Y-23500000D01*
X57505959Y-23736631D01*
X57561372Y-23967440D01*
X57652205Y-24186732D01*
X57652208Y-24186738D01*
X57766896Y-24373890D01*
X58473096Y-23667689D01*
X58476884Y-23685915D01*
X58546442Y-23820156D01*
X58649638Y-23930652D01*
X58778819Y-24009209D01*
X58834421Y-24024788D01*
X58126108Y-24733102D01*
X58313262Y-24847791D01*
X58313267Y-24847794D01*
X58532559Y-24938627D01*
X58532558Y-24938627D01*
X58763368Y-24994040D01*
X59000000Y-25012662D01*
X59236631Y-24994040D01*
X59467440Y-24938627D01*
X59686732Y-24847794D01*
X59686737Y-24847791D01*
X59873890Y-24733102D01*
X59167623Y-24026835D01*
X59288458Y-23974349D01*
X59405739Y-23878934D01*
X59492928Y-23755415D01*
X59524838Y-23665626D01*
X60233102Y-24373890D01*
X60347791Y-24186737D01*
X60347794Y-24186732D01*
X60438627Y-23967440D01*
X60494040Y-23736631D01*
X60512662Y-23500000D01*
X62294357Y-23500000D01*
X62314885Y-23721536D01*
X62375771Y-23935528D01*
X62474942Y-24134689D01*
X62609019Y-24312236D01*
X62773438Y-24462124D01*
X62962599Y-24579247D01*
X63170060Y-24659618D01*
X63388757Y-24700500D01*
X63611243Y-24700500D01*
X63829940Y-24659618D01*
X64037401Y-24579247D01*
X64226562Y-24462124D01*
X64390981Y-24312236D01*
X64525058Y-24134689D01*
X64624229Y-23935528D01*
X64685115Y-23721536D01*
X64705643Y-23500000D01*
X64685115Y-23278464D01*
X64624229Y-23064472D01*
X64525058Y-22865311D01*
X64390981Y-22687764D01*
X64226562Y-22537876D01*
X64037401Y-22420753D01*
X63829940Y-22340382D01*
X63829939Y-22340381D01*
X63829937Y-22340381D01*
X63611243Y-22299500D01*
X63388757Y-22299500D01*
X63170062Y-22340381D01*
X63093797Y-22369926D01*
X62962599Y-22420753D01*
X62773438Y-22537876D01*
X62609020Y-22687763D01*
X62474943Y-22865309D01*
X62474938Y-22865318D01*
X62375772Y-23064469D01*
X62375771Y-23064472D01*
X62314885Y-23278464D01*
X62294357Y-23500000D01*
X60512662Y-23500000D01*
X60494040Y-23263368D01*
X60438627Y-23032559D01*
X60347794Y-22813267D01*
X60347791Y-22813262D01*
X60233102Y-22626108D01*
X59526902Y-23332307D01*
X59523116Y-23314085D01*
X59453558Y-23179844D01*
X59350362Y-23069348D01*
X59221181Y-22990791D01*
X59165575Y-22975210D01*
X59873890Y-22266896D01*
X59873891Y-22266896D01*
X59686738Y-22152208D01*
X59686732Y-22152205D01*
X59467440Y-22061372D01*
X59467441Y-22061372D01*
X59236631Y-22005959D01*
X59000000Y-21987337D01*
X58763368Y-22005959D01*
X58532559Y-22061372D01*
X58313267Y-22152205D01*
X58313255Y-22152211D01*
X58126108Y-22266896D01*
X58832376Y-22973164D01*
X58711542Y-23025651D01*
X58594261Y-23121066D01*
X58507072Y-23244585D01*
X58475161Y-23334373D01*
X57766896Y-22626108D01*
X57652211Y-22813255D01*
X57652205Y-22813267D01*
X57561372Y-23032559D01*
X57505959Y-23263368D01*
X57487337Y-23500000D01*
X42324969Y-23500000D01*
X42623412Y-23201557D01*
X42677927Y-23173782D01*
X42731299Y-23180099D01*
X42736406Y-23182214D01*
X42743237Y-23185043D01*
X42743237Y-23185044D01*
X42899999Y-23205682D01*
X42900000Y-23205682D01*
X42900001Y-23205682D01*
X42931352Y-23201554D01*
X43056762Y-23185044D01*
X43202841Y-23124536D01*
X43328282Y-23028282D01*
X43424536Y-22902841D01*
X43485044Y-22756762D01*
X43505682Y-22600000D01*
X43485044Y-22443238D01*
X43424537Y-22297161D01*
X43424537Y-22297160D01*
X43328286Y-22171723D01*
X43328285Y-22171722D01*
X43328282Y-22171718D01*
X43328277Y-22171714D01*
X43328276Y-22171713D01*
X43242106Y-22105593D01*
X43202841Y-22075464D01*
X43202840Y-22075463D01*
X43202838Y-22075462D01*
X43056766Y-22014957D01*
X43056758Y-22014955D01*
X42900001Y-21994318D01*
X42899999Y-21994318D01*
X42743241Y-22014955D01*
X42743233Y-22014957D01*
X42597161Y-22075462D01*
X42597160Y-22075462D01*
X42471723Y-22171713D01*
X42471713Y-22171723D01*
X42375462Y-22297160D01*
X42375462Y-22297161D01*
X42314957Y-22443233D01*
X42314955Y-22443241D01*
X42294318Y-22599999D01*
X42294318Y-22600004D01*
X42297334Y-22622918D01*
X42286183Y-22683078D01*
X42269185Y-22705841D01*
X41175543Y-23799484D01*
X41121026Y-23827261D01*
X41060594Y-23817690D01*
X41045271Y-23808022D01*
X41002838Y-23775462D01*
X40856766Y-23714957D01*
X40856758Y-23714955D01*
X40700001Y-23694318D01*
X40699999Y-23694318D01*
X40543241Y-23714955D01*
X40543233Y-23714957D01*
X40397161Y-23775462D01*
X40397160Y-23775462D01*
X40271723Y-23871713D01*
X40271713Y-23871723D01*
X40175462Y-23997160D01*
X40175462Y-23997161D01*
X40114957Y-24143233D01*
X40114955Y-24143241D01*
X40094318Y-24299999D01*
X40094318Y-24300000D01*
X10599896Y-24300000D01*
X10585165Y-24197543D01*
X10560362Y-24143233D01*
X10525377Y-24066627D01*
X10431128Y-23957857D01*
X10431127Y-23957856D01*
X10431126Y-23957855D01*
X10310057Y-23880049D01*
X10310054Y-23880047D01*
X10310053Y-23880047D01*
X10310050Y-23880046D01*
X10171964Y-23839500D01*
X10171961Y-23839500D01*
X10028039Y-23839500D01*
X10028035Y-23839500D01*
X9889949Y-23880046D01*
X9889942Y-23880049D01*
X9768873Y-23957855D01*
X9674622Y-24066628D01*
X9614834Y-24197543D01*
X9594353Y-24339997D01*
X9594353Y-24340002D01*
X-2049500Y-24340002D01*
X-2049500Y-23124500D01*
X-2030593Y-23066309D01*
X-1981093Y-23030345D01*
X-1950500Y-23025500D01*
X-1052611Y-23025500D01*
X-994420Y-23044407D01*
X-982607Y-23054496D01*
X-240363Y-23796738D01*
X-232982Y-23804998D01*
X-209879Y-23833970D01*
X-162227Y-23866457D01*
X-159266Y-23868559D01*
X-112882Y-23902793D01*
X-112876Y-23902795D01*
X-106316Y-23906263D01*
X-106523Y-23906655D01*
X-104550Y-23907651D01*
X-104358Y-23907252D01*
X-97675Y-23910470D01*
X-97673Y-23910472D01*
X-42538Y-23927477D01*
X-39138Y-23928595D01*
X15301Y-23947646D01*
X15304Y-23947646D01*
X22593Y-23949026D01*
X22510Y-23949460D01*
X24697Y-23949831D01*
X24763Y-23949394D01*
X32096Y-23950499D01*
X32098Y-23950500D01*
X89700Y-23950500D01*
X93402Y-23950569D01*
X94768Y-23950620D01*
X151010Y-23952725D01*
X151016Y-23952723D01*
X158384Y-23951894D01*
X158433Y-23952332D01*
X172347Y-23950500D01*
X3610192Y-23950500D01*
X3642888Y-23956055D01*
X3690300Y-23972646D01*
X3690301Y-23972646D01*
X3697592Y-23974026D01*
X3697509Y-23974460D01*
X3699697Y-23974831D01*
X3699763Y-23974394D01*
X3707096Y-23975499D01*
X3707098Y-23975500D01*
X3764715Y-23975500D01*
X3768416Y-23975569D01*
X3770580Y-23975649D01*
X3826010Y-23977724D01*
X3826016Y-23977722D01*
X3833385Y-23976893D01*
X3833434Y-23977331D01*
X3847344Y-23975500D01*
X5144136Y-23975500D01*
X5155219Y-23976122D01*
X5157595Y-23976389D01*
X5192035Y-23980270D01*
X5248684Y-23969550D01*
X5252267Y-23968941D01*
X5309287Y-23960348D01*
X5309296Y-23960343D01*
X5316381Y-23958159D01*
X5316512Y-23958584D01*
X5318613Y-23957892D01*
X5318467Y-23957473D01*
X5325463Y-23955024D01*
X5325472Y-23955023D01*
X5376444Y-23928082D01*
X5379740Y-23926419D01*
X5389677Y-23921633D01*
X5431642Y-23901425D01*
X5431646Y-23901421D01*
X5437778Y-23897242D01*
X5438028Y-23897609D01*
X5439832Y-23896329D01*
X5439568Y-23895971D01*
X5445525Y-23891572D01*
X5445538Y-23891566D01*
X5486316Y-23850786D01*
X5488927Y-23848271D01*
X5531194Y-23809055D01*
X5531197Y-23809048D01*
X5535820Y-23803253D01*
X5536166Y-23803529D01*
X5544703Y-23792399D01*
X6146743Y-23190358D01*
X6155003Y-23182978D01*
X6183970Y-23159879D01*
X6216457Y-23112227D01*
X6218559Y-23109266D01*
X6252793Y-23062882D01*
X6252795Y-23062876D01*
X6256263Y-23056316D01*
X6256655Y-23056523D01*
X6257651Y-23054550D01*
X6257252Y-23054358D01*
X6260472Y-23047672D01*
X6277477Y-22992538D01*
X6278595Y-22989138D01*
X6297646Y-22934699D01*
X6297646Y-22934694D01*
X6299026Y-22927407D01*
X6299460Y-22927489D01*
X6299832Y-22925303D01*
X6299394Y-22925237D01*
X6300500Y-22917900D01*
X6300500Y-22860283D01*
X6300569Y-22856582D01*
X6300570Y-22856553D01*
X6302724Y-22798990D01*
X6302722Y-22798982D01*
X6301893Y-22791618D01*
X6302331Y-22791568D01*
X6300500Y-22777657D01*
X6300500Y-19877611D01*
X6319407Y-19819420D01*
X6329496Y-19807607D01*
X6597607Y-19539496D01*
X6652124Y-19511719D01*
X6667611Y-19510500D01*
X6887068Y-19510500D01*
X6945259Y-19529407D01*
X6947315Y-19530943D01*
X7017159Y-19584536D01*
X7163238Y-19645044D01*
X7280809Y-19660522D01*
X7319999Y-19665682D01*
X7320000Y-19665682D01*
X7320001Y-19665682D01*
X7351352Y-19661554D01*
X7476762Y-19645044D01*
X7622841Y-19584536D01*
X7748282Y-19488282D01*
X7844536Y-19362841D01*
X7905044Y-19216762D01*
X7925682Y-19060000D01*
X7914769Y-18977109D01*
X7925919Y-18916950D01*
X7942914Y-18894188D01*
X9357608Y-17479496D01*
X9412125Y-17451719D01*
X9427612Y-17450500D01*
X10230500Y-17450500D01*
X10288691Y-17469407D01*
X10324655Y-17518907D01*
X10329500Y-17549500D01*
X10329500Y-17873810D01*
X10310593Y-17932001D01*
X10300503Y-17943814D01*
X10085120Y-18159196D01*
X10069269Y-18172069D01*
X10059332Y-18178561D01*
X10040548Y-18202695D01*
X10032437Y-18211880D01*
X10031627Y-18212689D01*
X10031619Y-18212698D01*
X10020133Y-18228786D01*
X10017690Y-18232063D01*
X9987482Y-18270874D01*
X9983981Y-18277343D01*
X9980759Y-18283934D01*
X9966718Y-18331096D01*
X9965470Y-18334990D01*
X9949500Y-18381510D01*
X9948293Y-18388743D01*
X9947383Y-18396047D01*
X9949415Y-18445175D01*
X9949500Y-18449266D01*
X9949500Y-21303287D01*
X9930593Y-21361478D01*
X9925320Y-21368117D01*
X9874623Y-21426626D01*
X9814834Y-21557543D01*
X9794353Y-21699997D01*
X9794353Y-21700002D01*
X9814834Y-21842456D01*
X9836004Y-21888810D01*
X9874623Y-21973373D01*
X9919791Y-22025500D01*
X9968873Y-22082144D01*
X10077900Y-22152211D01*
X10089947Y-22159953D01*
X10196403Y-22191211D01*
X10228035Y-22200499D01*
X10228036Y-22200499D01*
X10228039Y-22200500D01*
X10228041Y-22200500D01*
X10371959Y-22200500D01*
X10371961Y-22200500D01*
X10510053Y-22159953D01*
X10631128Y-22082143D01*
X10725377Y-21973373D01*
X10785165Y-21842457D01*
X10805647Y-21700000D01*
X10785165Y-21557543D01*
X10725377Y-21426627D01*
X10721019Y-21421597D01*
X10674680Y-21368117D01*
X10650863Y-21311757D01*
X10650500Y-21303287D01*
X10650500Y-18626188D01*
X10669407Y-18567997D01*
X10679490Y-18556191D01*
X10894881Y-18340799D01*
X10910732Y-18327928D01*
X10920669Y-18321437D01*
X10939451Y-18297303D01*
X10947577Y-18288104D01*
X10948375Y-18287307D01*
X10959886Y-18271182D01*
X10962288Y-18267962D01*
X10992517Y-18229126D01*
X10992517Y-18229123D01*
X10996023Y-18222645D01*
X10999237Y-18216071D01*
X10999237Y-18216069D01*
X10999240Y-18216066D01*
X11013287Y-18168881D01*
X11014512Y-18165054D01*
X11030500Y-18118488D01*
X11030500Y-18118483D01*
X11031707Y-18111254D01*
X11032617Y-18103954D01*
X11030585Y-18054824D01*
X11030500Y-18050733D01*
X11030500Y-17549500D01*
X11049407Y-17491309D01*
X11098907Y-17455345D01*
X11129500Y-17450500D01*
X11862388Y-17450500D01*
X11920579Y-17469407D01*
X11932392Y-17479496D01*
X13415318Y-18962421D01*
X13443095Y-19016938D01*
X13443467Y-19019502D01*
X13454956Y-19106762D01*
X13515462Y-19252838D01*
X13515462Y-19252839D01*
X13608235Y-19373743D01*
X13611718Y-19378282D01*
X13737159Y-19474536D01*
X13737160Y-19474536D01*
X13737161Y-19474537D01*
X13883233Y-19535042D01*
X13883238Y-19535044D01*
X14000809Y-19550522D01*
X14039999Y-19555682D01*
X14040000Y-19555682D01*
X14040001Y-19555682D01*
X14071352Y-19551554D01*
X14196762Y-19535044D01*
X14342841Y-19474536D01*
X14468282Y-19378282D01*
X14564536Y-19252841D01*
X14625044Y-19106762D01*
X14645682Y-18950000D01*
X14625044Y-18793238D01*
X14574826Y-18672001D01*
X14564537Y-18647161D01*
X14564537Y-18647160D01*
X14468286Y-18521723D01*
X14468285Y-18521722D01*
X14468282Y-18521718D01*
X14468277Y-18521714D01*
X14468276Y-18521713D01*
X14342838Y-18425462D01*
X14196762Y-18364956D01*
X14109502Y-18353467D01*
X14054277Y-18327125D01*
X14052421Y-18325318D01*
X12727103Y-17000000D01*
X57487337Y-17000000D01*
X57505959Y-17236631D01*
X57561372Y-17467440D01*
X57652205Y-17686732D01*
X57652208Y-17686738D01*
X57766896Y-17873890D01*
X58473096Y-17167689D01*
X58476884Y-17185915D01*
X58546442Y-17320156D01*
X58649638Y-17430652D01*
X58778819Y-17509209D01*
X58834421Y-17524788D01*
X58126108Y-18233102D01*
X58313262Y-18347791D01*
X58313267Y-18347794D01*
X58532559Y-18438627D01*
X58532558Y-18438627D01*
X58763368Y-18494040D01*
X59000000Y-18512662D01*
X59236631Y-18494040D01*
X59467440Y-18438627D01*
X59686732Y-18347794D01*
X59686737Y-18347791D01*
X59873890Y-18233102D01*
X59167623Y-17526835D01*
X59288458Y-17474349D01*
X59405739Y-17378934D01*
X59492928Y-17255415D01*
X59524838Y-17165626D01*
X60233102Y-17873890D01*
X60347791Y-17686737D01*
X60347794Y-17686732D01*
X60438627Y-17467440D01*
X60494040Y-17236631D01*
X60512662Y-17000000D01*
X62294357Y-17000000D01*
X62314885Y-17221536D01*
X62375771Y-17435528D01*
X62474942Y-17634689D01*
X62609019Y-17812236D01*
X62773438Y-17962124D01*
X62962599Y-18079247D01*
X63170060Y-18159618D01*
X63388757Y-18200500D01*
X63611243Y-18200500D01*
X63829940Y-18159618D01*
X64037401Y-18079247D01*
X64226562Y-17962124D01*
X64390981Y-17812236D01*
X64525058Y-17634689D01*
X64624229Y-17435528D01*
X64685115Y-17221536D01*
X64705643Y-17000000D01*
X64685115Y-16778464D01*
X64624229Y-16564472D01*
X64525058Y-16365311D01*
X64390981Y-16187764D01*
X64226562Y-16037876D01*
X64037401Y-15920753D01*
X63829940Y-15840382D01*
X63829939Y-15840381D01*
X63829937Y-15840381D01*
X63611243Y-15799500D01*
X63388757Y-15799500D01*
X63170062Y-15840381D01*
X63093797Y-15869926D01*
X62962599Y-15920753D01*
X62773438Y-16037876D01*
X62609020Y-16187763D01*
X62474943Y-16365309D01*
X62474938Y-16365318D01*
X62375772Y-16564469D01*
X62375771Y-16564472D01*
X62314885Y-16778464D01*
X62294357Y-17000000D01*
X60512662Y-17000000D01*
X60494040Y-16763368D01*
X60438627Y-16532559D01*
X60347794Y-16313267D01*
X60347791Y-16313262D01*
X60233102Y-16126108D01*
X59526902Y-16832307D01*
X59523116Y-16814085D01*
X59453558Y-16679844D01*
X59350362Y-16569348D01*
X59221181Y-16490791D01*
X59165575Y-16475210D01*
X59873890Y-15766896D01*
X59873891Y-15766896D01*
X59686738Y-15652208D01*
X59686732Y-15652205D01*
X59467440Y-15561372D01*
X59467441Y-15561372D01*
X59236631Y-15505959D01*
X59000000Y-15487337D01*
X58763368Y-15505959D01*
X58532559Y-15561372D01*
X58313267Y-15652205D01*
X58313255Y-15652211D01*
X58126108Y-15766896D01*
X58832376Y-16473164D01*
X58711542Y-16525651D01*
X58594261Y-16621066D01*
X58507072Y-16744585D01*
X58475161Y-16834373D01*
X57766896Y-16126108D01*
X57652211Y-16313255D01*
X57652205Y-16313267D01*
X57561372Y-16532559D01*
X57505959Y-16763368D01*
X57487337Y-17000000D01*
X12727103Y-17000000D01*
X12493858Y-16766755D01*
X12481281Y-16749027D01*
X12480605Y-16749489D01*
X12476426Y-16743361D01*
X12476425Y-16743358D01*
X12444228Y-16708658D01*
X12439398Y-16703046D01*
X12409879Y-16666030D01*
X12409876Y-16666027D01*
X12404928Y-16662653D01*
X12388136Y-16648203D01*
X12384058Y-16643809D01*
X12384057Y-16643808D01*
X12384055Y-16643806D01*
X12343058Y-16620136D01*
X12336790Y-16616198D01*
X12309766Y-16597773D01*
X12297673Y-16589528D01*
X12297672Y-16589527D01*
X12297671Y-16589527D01*
X12291943Y-16587760D01*
X12271632Y-16578898D01*
X12266448Y-16575905D01*
X12266439Y-16575902D01*
X12220286Y-16565367D01*
X12213138Y-16563452D01*
X12167907Y-16549500D01*
X12167902Y-16549500D01*
X12161916Y-16549500D01*
X12139887Y-16547018D01*
X12134044Y-16545684D01*
X12086836Y-16549223D01*
X12079437Y-16549500D01*
X9230864Y-16549500D01*
X9219781Y-16548878D01*
X9182966Y-16544730D01*
X9182965Y-16544730D01*
X9161042Y-16548878D01*
X9126337Y-16555444D01*
X9122690Y-16556063D01*
X9065713Y-16564651D01*
X9058628Y-16566837D01*
X9058498Y-16566418D01*
X9056381Y-16567115D01*
X9056526Y-16567529D01*
X9049529Y-16569976D01*
X9049528Y-16569977D01*
X9049526Y-16569977D01*
X9049523Y-16569979D01*
X8998583Y-16596902D01*
X8995279Y-16598570D01*
X8943360Y-16623573D01*
X8937229Y-16627754D01*
X8936982Y-16627392D01*
X8935169Y-16628678D01*
X8935430Y-16629031D01*
X8929458Y-16633438D01*
X8888732Y-16674163D01*
X8886069Y-16676729D01*
X8843802Y-16715947D01*
X8839181Y-16721743D01*
X8838837Y-16721469D01*
X8830295Y-16732600D01*
X7048619Y-18514276D01*
X7022493Y-18531734D01*
X7022775Y-18532221D01*
X7017159Y-18535462D01*
X6947334Y-18589042D01*
X6889658Y-18609466D01*
X6887067Y-18609500D01*
X6470864Y-18609500D01*
X6459781Y-18608878D01*
X6422966Y-18604730D01*
X6422960Y-18604730D01*
X6367903Y-18615147D01*
X6307212Y-18607387D01*
X6262673Y-18565435D01*
X6250500Y-18517873D01*
X6250500Y-17961787D01*
X6269407Y-17903596D01*
X6289233Y-17883245D01*
X6328282Y-17853282D01*
X6424536Y-17727841D01*
X6485044Y-17581762D01*
X6505682Y-17425000D01*
X6485044Y-17268238D01*
X6466057Y-17222399D01*
X6424537Y-17122161D01*
X6424537Y-17122160D01*
X6328286Y-16996723D01*
X6328285Y-16996722D01*
X6328282Y-16996718D01*
X6328277Y-16996714D01*
X6328276Y-16996713D01*
X6202838Y-16900462D01*
X6056766Y-16839957D01*
X6056758Y-16839955D01*
X5900001Y-16819318D01*
X5899999Y-16819318D01*
X5743241Y-16839955D01*
X5743233Y-16839957D01*
X5597161Y-16900462D01*
X5597160Y-16900462D01*
X5471723Y-16996713D01*
X5471713Y-16996723D01*
X5375462Y-17122160D01*
X5375462Y-17122161D01*
X5314957Y-17268233D01*
X5314955Y-17268241D01*
X5294318Y-17424999D01*
X5294318Y-17425000D01*
X5314955Y-17581758D01*
X5314957Y-17581766D01*
X5375462Y-17727838D01*
X5375462Y-17727839D01*
X5375464Y-17727841D01*
X5471718Y-17853282D01*
X5471722Y-17853285D01*
X5510767Y-17883245D01*
X5545423Y-17933669D01*
X5549500Y-17961787D01*
X5549500Y-18613810D01*
X5530593Y-18672001D01*
X5520504Y-18683814D01*
X5243516Y-18960802D01*
X5243515Y-18960802D01*
X5060120Y-19144196D01*
X5044269Y-19157069D01*
X5034332Y-19163561D01*
X5015548Y-19187695D01*
X5007437Y-19196880D01*
X5006627Y-19197689D01*
X5006619Y-19197698D01*
X4995133Y-19213786D01*
X4992690Y-19217063D01*
X4962482Y-19255874D01*
X4958981Y-19262343D01*
X4955759Y-19268934D01*
X4941718Y-19316096D01*
X4940470Y-19319990D01*
X4924500Y-19366510D01*
X4923293Y-19373743D01*
X4922383Y-19381047D01*
X4924415Y-19430175D01*
X4924500Y-19434266D01*
X4924500Y-21888810D01*
X4905593Y-21947001D01*
X4895506Y-21958811D01*
X4881723Y-21972593D01*
X4827208Y-22000370D01*
X4798800Y-22000742D01*
X4750001Y-21994318D01*
X4749999Y-21994318D01*
X4593241Y-22014955D01*
X4593233Y-22014957D01*
X4447161Y-22075462D01*
X4447160Y-22075462D01*
X4321723Y-22171713D01*
X4321713Y-22171723D01*
X4225462Y-22297160D01*
X4225462Y-22297161D01*
X4164957Y-22443233D01*
X4164955Y-22443241D01*
X4144318Y-22599999D01*
X4144318Y-22600000D01*
X4164955Y-22756758D01*
X4164957Y-22756766D01*
X4225461Y-22902836D01*
X4225463Y-22902838D01*
X4225464Y-22902841D01*
X4234973Y-22915234D01*
X4255397Y-22972908D01*
X4238020Y-23031574D01*
X4189478Y-23068821D01*
X4156431Y-23074500D01*
X3914811Y-23074500D01*
X3882114Y-23068945D01*
X3834700Y-23052354D01*
X3827414Y-23050976D01*
X3827495Y-23050544D01*
X3825302Y-23050171D01*
X3825237Y-23050605D01*
X3817903Y-23049500D01*
X3817902Y-23049500D01*
X3760284Y-23049500D01*
X3756583Y-23049431D01*
X3721198Y-23048107D01*
X3698990Y-23047276D01*
X3698989Y-23047276D01*
X3691615Y-23048107D01*
X3691565Y-23047668D01*
X3677656Y-23049500D01*
X327611Y-23049500D01*
X269420Y-23030593D01*
X257607Y-23020503D01*
X-484630Y-22278264D01*
X-492026Y-22269988D01*
X-515119Y-22241030D01*
X-515120Y-22241029D01*
X-562748Y-22208556D01*
X-565764Y-22206416D01*
X-612116Y-22172207D01*
X-618674Y-22168742D01*
X-618468Y-22168353D01*
X-620455Y-22167350D01*
X-620646Y-22167746D01*
X-627324Y-22164529D01*
X-627327Y-22164528D01*
X-627329Y-22164527D01*
X-627332Y-22164526D01*
X-682410Y-22147536D01*
X-685923Y-22146380D01*
X-740295Y-22127355D01*
X-747587Y-22125976D01*
X-747505Y-22125544D01*
X-749700Y-22125171D01*
X-749766Y-22125605D01*
X-757096Y-22124500D01*
X-757098Y-22124500D01*
X-757100Y-22124500D01*
X-814716Y-22124500D01*
X-818417Y-22124431D01*
X-876010Y-22122276D01*
X-883385Y-22123107D01*
X-883434Y-22122668D01*
X-897344Y-22124500D01*
X-2589716Y-22124500D01*
X-2593417Y-22124431D01*
X-2651010Y-22122276D01*
X-2658385Y-22123107D01*
X-2658434Y-22122668D01*
X-2672344Y-22124500D01*
X-4995500Y-22124500D01*
X-5053691Y-22105593D01*
X-5089655Y-22056093D01*
X-5094500Y-22025500D01*
X-5094500Y-21026003D01*
X-5094499Y-21026003D01*
X-5101481Y-20961061D01*
X-5112870Y-20908708D01*
X-5123823Y-20870515D01*
X-5123825Y-20870512D01*
X-5180506Y-20773595D01*
X-5226996Y-20719943D01*
X-5226997Y-20719942D01*
X-5271733Y-20677762D01*
X-5371809Y-20626877D01*
X-5439933Y-20606874D01*
X-5525996Y-20594500D01*
X-5526000Y-20594500D01*
X-6274000Y-20594500D01*
X-6325949Y-20600084D01*
X-6338938Y-20601481D01*
X-6357694Y-20605561D01*
X-6391279Y-20612867D01*
X-6391284Y-20612868D01*
X-6391291Y-20612870D01*
X-6429484Y-20623823D01*
X-6429486Y-20623824D01*
X-6429488Y-20623825D01*
X-6526401Y-20680504D01*
X-6526404Y-20680506D01*
X-6571915Y-20719942D01*
X-6580057Y-20726997D01*
X-6622238Y-20771733D01*
X-6673123Y-20871810D01*
X-6693125Y-20939931D01*
X-6693125Y-20939933D01*
X-6705500Y-21025995D01*
X-6705500Y-21026000D01*
X-6705500Y-23024000D01*
X-39299500Y-23024000D01*
X-39299500Y-16000003D01*
X-38300850Y-16000003D01*
X-38297537Y-16037876D01*
X-38281087Y-16225890D01*
X-38222399Y-16444917D01*
X-38126569Y-16650425D01*
X-37996509Y-16836170D01*
X-37836170Y-16996509D01*
X-37650425Y-17126569D01*
X-37444917Y-17222399D01*
X-37225890Y-17281087D01*
X-37225883Y-17281087D01*
X-37225882Y-17281088D01*
X-37000003Y-17300850D01*
X-37000000Y-17300850D01*
X-36999997Y-17300850D01*
X-36774117Y-17281088D01*
X-36774114Y-17281087D01*
X-36774110Y-17281087D01*
X-36555083Y-17222399D01*
X-36349575Y-17126569D01*
X-36204967Y-17025313D01*
X-36163834Y-16996512D01*
X-36163833Y-16996511D01*
X-36163830Y-16996509D01*
X-36003491Y-16836170D01*
X-35952514Y-16763368D01*
X-35910277Y-16703046D01*
X-35873431Y-16650425D01*
X-35870344Y-16643806D01*
X-35842678Y-16584474D01*
X-35777601Y-16444917D01*
X-35718913Y-16225890D01*
X-35718912Y-16225889D01*
X-35718911Y-16225882D01*
X-35699150Y-16000003D01*
X-35699150Y-15999996D01*
X-35718911Y-15774117D01*
X-35777601Y-15555083D01*
X-35873430Y-15349576D01*
X-36003487Y-15163834D01*
X-36163834Y-15003487D01*
X-36349576Y-14873430D01*
X-36555083Y-14777601D01*
X-36774117Y-14718911D01*
X-36999997Y-14699150D01*
X-37000003Y-14699150D01*
X-37225882Y-14718911D01*
X-37225889Y-14718912D01*
X-37225890Y-14718913D01*
X-37444917Y-14777601D01*
X-37650425Y-14873431D01*
X-37733117Y-14931333D01*
X-37836165Y-15003487D01*
X-37836166Y-15003488D01*
X-37836170Y-15003491D01*
X-37996509Y-15163830D01*
X-37996511Y-15163833D01*
X-37996512Y-15163834D01*
X-38004006Y-15174537D01*
X-38126569Y-15349575D01*
X-38222399Y-15555083D01*
X-38281087Y-15774110D01*
X-38281087Y-15774114D01*
X-38281088Y-15774117D01*
X-38300850Y-15999996D01*
X-38300850Y-16000003D01*
X-39299500Y-16000003D01*
X-39299500Y-14650000D01*
X16119318Y-14650000D01*
X16139955Y-14806758D01*
X16139957Y-14806766D01*
X16200462Y-14952838D01*
X16200462Y-14952839D01*
X16239329Y-15003491D01*
X16296718Y-15078282D01*
X16422159Y-15174536D01*
X16568238Y-15235044D01*
X16685809Y-15250522D01*
X16724999Y-15255682D01*
X16725000Y-15255682D01*
X16725001Y-15255682D01*
X16756352Y-15251554D01*
X16881762Y-15235044D01*
X17027841Y-15174536D01*
X17153282Y-15078282D01*
X17249536Y-14952841D01*
X17310044Y-14806762D01*
X17321531Y-14719502D01*
X17347871Y-14664278D01*
X17349648Y-14662453D01*
X17446738Y-14565363D01*
X17454998Y-14557982D01*
X17483970Y-14534879D01*
X17516457Y-14487227D01*
X17518559Y-14484266D01*
X17552793Y-14437882D01*
X17552795Y-14437876D01*
X17556263Y-14431316D01*
X17556655Y-14431523D01*
X17557651Y-14429550D01*
X17557252Y-14429358D01*
X17560472Y-14422672D01*
X17577477Y-14367538D01*
X17578595Y-14364138D01*
X17597646Y-14309699D01*
X17597646Y-14309696D01*
X17597647Y-14309694D01*
X17599026Y-14302407D01*
X17599460Y-14302489D01*
X17599831Y-14300307D01*
X17599394Y-14300242D01*
X17600500Y-14292904D01*
X17600500Y-14235300D01*
X17600569Y-14231598D01*
X17600618Y-14230280D01*
X17602725Y-14173990D01*
X17602723Y-14173984D01*
X17601894Y-14166616D01*
X17602331Y-14166566D01*
X17600500Y-14152652D01*
X17600500Y-11082932D01*
X17619407Y-11024741D01*
X17620936Y-11022693D01*
X17674536Y-10952841D01*
X17735044Y-10806762D01*
X17755682Y-10650000D01*
X17735044Y-10493238D01*
X17700359Y-10409500D01*
X17674537Y-10347161D01*
X17674537Y-10347160D01*
X17578286Y-10221723D01*
X17578285Y-10221722D01*
X17578282Y-10221718D01*
X17578277Y-10221714D01*
X17578276Y-10221713D01*
X17452838Y-10125462D01*
X17306766Y-10064957D01*
X17306758Y-10064955D01*
X17150001Y-10044318D01*
X17149999Y-10044318D01*
X16993241Y-10064955D01*
X16993233Y-10064957D01*
X16847161Y-10125462D01*
X16847160Y-10125462D01*
X16721723Y-10221713D01*
X16721713Y-10221723D01*
X16625462Y-10347160D01*
X16625462Y-10347161D01*
X16564957Y-10493233D01*
X16564955Y-10493241D01*
X16544318Y-10649999D01*
X16544318Y-10650000D01*
X16564955Y-10806758D01*
X16564957Y-10806766D01*
X16625462Y-10952838D01*
X16625463Y-10952840D01*
X16625464Y-10952841D01*
X16679042Y-11022665D01*
X16699466Y-11080340D01*
X16699500Y-11082932D01*
X16699500Y-13960854D01*
X16680593Y-14019045D01*
X16631093Y-14055009D01*
X16613423Y-14059007D01*
X16568237Y-14064956D01*
X16422161Y-14125462D01*
X16422160Y-14125462D01*
X16296723Y-14221713D01*
X16296713Y-14221723D01*
X16200462Y-14347160D01*
X16200462Y-14347161D01*
X16139957Y-14493233D01*
X16139955Y-14493241D01*
X16119318Y-14649999D01*
X16119318Y-14650000D01*
X-39299500Y-14650000D01*
X-39299500Y-13075000D01*
X6669318Y-13075000D01*
X6689955Y-13231758D01*
X6689957Y-13231766D01*
X6750462Y-13377838D01*
X6750462Y-13377839D01*
X6750464Y-13377841D01*
X6846718Y-13503282D01*
X6972159Y-13599536D01*
X7118238Y-13660044D01*
X7235809Y-13675522D01*
X7274999Y-13680682D01*
X7275000Y-13680682D01*
X7275001Y-13680682D01*
X7306352Y-13676554D01*
X7431762Y-13660044D01*
X7577841Y-13599536D01*
X7703282Y-13503282D01*
X7799536Y-13377841D01*
X7860044Y-13231762D01*
X7880682Y-13075000D01*
X7860044Y-12918238D01*
X7860042Y-12918232D01*
X7833036Y-12853033D01*
X7825500Y-12815148D01*
X7825500Y-11761787D01*
X7844407Y-11703596D01*
X7864233Y-11683245D01*
X7903282Y-11653282D01*
X7999536Y-11527841D01*
X8060044Y-11381762D01*
X8080682Y-11225000D01*
X8060044Y-11068238D01*
X8060042Y-11068233D01*
X7999537Y-10922161D01*
X7999537Y-10922160D01*
X7903286Y-10796723D01*
X7903285Y-10796722D01*
X7903282Y-10796718D01*
X7903277Y-10796714D01*
X7903276Y-10796713D01*
X7777838Y-10700462D01*
X7631766Y-10639957D01*
X7631758Y-10639955D01*
X7475001Y-10619318D01*
X7474999Y-10619318D01*
X7318241Y-10639955D01*
X7318233Y-10639957D01*
X7172161Y-10700462D01*
X7172160Y-10700462D01*
X7046723Y-10796713D01*
X7046713Y-10796723D01*
X6950462Y-10922160D01*
X6950462Y-10922161D01*
X6889957Y-11068233D01*
X6889955Y-11068241D01*
X6869318Y-11224999D01*
X6869318Y-11225000D01*
X6889955Y-11381758D01*
X6889957Y-11381766D01*
X6950462Y-11527838D01*
X6950462Y-11527839D01*
X6950464Y-11527841D01*
X7046718Y-11653282D01*
X7046722Y-11653285D01*
X7085767Y-11683245D01*
X7120423Y-11733669D01*
X7124500Y-11761787D01*
X7124500Y-12421212D01*
X7105593Y-12479403D01*
X7063386Y-12512676D01*
X6972160Y-12550463D01*
X6846723Y-12646713D01*
X6846713Y-12646723D01*
X6750462Y-12772160D01*
X6750462Y-12772161D01*
X6689957Y-12918233D01*
X6689955Y-12918241D01*
X6669318Y-13074999D01*
X6669318Y-13075000D01*
X-39299500Y-13075000D01*
X-39299500Y-12200000D01*
X-28505647Y-12200000D01*
X-28485165Y-12342457D01*
X-28425377Y-12473373D01*
X-28331128Y-12582143D01*
X-28210053Y-12659953D01*
X-28071961Y-12700500D01*
X-28071959Y-12700500D01*
X-27928041Y-12700500D01*
X-27928039Y-12700500D01*
X-27928036Y-12700499D01*
X-27928035Y-12700499D01*
X-27896403Y-12691211D01*
X-27789947Y-12659953D01*
X-27789942Y-12659950D01*
X-27668871Y-12582143D01*
X-27663520Y-12577506D01*
X-27662031Y-12579223D01*
X-27618659Y-12553072D01*
X-27596241Y-12550500D01*
X-27146619Y-12550500D01*
X-27126304Y-12552607D01*
X-27124739Y-12552934D01*
X-27114685Y-12555043D01*
X-27084337Y-12551259D01*
X-27072093Y-12550500D01*
X-27070960Y-12550500D01*
X-27051478Y-12547249D01*
X-27047433Y-12546659D01*
X-26998607Y-12540573D01*
X-26998605Y-12540572D01*
X-26998603Y-12540572D01*
X-26991575Y-12538479D01*
X-26984616Y-12536091D01*
X-26941371Y-12512687D01*
X-26937730Y-12510813D01*
X-26893517Y-12489199D01*
X-26887562Y-12484948D01*
X-26881743Y-12480419D01*
X-26875255Y-12473371D01*
X-26848420Y-12444221D01*
X-26845612Y-12441294D01*
X-25883815Y-11479496D01*
X-25829298Y-11451719D01*
X-25813811Y-11450500D01*
X-24946619Y-11450500D01*
X-24926304Y-11452607D01*
X-24924739Y-11452934D01*
X-24914685Y-11455043D01*
X-24884337Y-11451259D01*
X-24872093Y-11450500D01*
X-24870960Y-11450500D01*
X-24851478Y-11447249D01*
X-24847433Y-11446659D01*
X-24798607Y-11440573D01*
X-24798605Y-11440572D01*
X-24798603Y-11440572D01*
X-24791575Y-11438479D01*
X-24784616Y-11436091D01*
X-24741371Y-11412687D01*
X-24737730Y-11410813D01*
X-24693517Y-11389199D01*
X-24687562Y-11384948D01*
X-24681743Y-11380419D01*
X-24681742Y-11380418D01*
X-24648420Y-11344221D01*
X-24645612Y-11341294D01*
X-24285119Y-10980801D01*
X-24269262Y-10967925D01*
X-24259331Y-10961437D01*
X-24240548Y-10937304D01*
X-24232437Y-10928119D01*
X-24231625Y-10927307D01*
X-24220135Y-10911215D01*
X-24217702Y-10907952D01*
X-24187483Y-10869126D01*
X-24187482Y-10869124D01*
X-24183993Y-10862678D01*
X-24180761Y-10856066D01*
X-24166723Y-10808917D01*
X-24165475Y-10805023D01*
X-24149499Y-10758487D01*
X-24148292Y-10751252D01*
X-24147382Y-10743954D01*
X-24149415Y-10694824D01*
X-24149500Y-10690733D01*
X-24149500Y-10409500D01*
X-24130593Y-10351309D01*
X-24081093Y-10315345D01*
X-24050500Y-10310500D01*
X-23680253Y-10310500D01*
X-23680252Y-10310500D01*
X-23680246Y-10310498D01*
X-23680241Y-10310498D01*
X-23666231Y-10307711D01*
X-23621769Y-10298867D01*
X-23555448Y-10254552D01*
X-23545755Y-10240046D01*
X-23511134Y-10188233D01*
X-23511132Y-10188227D01*
X-23499501Y-10129758D01*
X-23499500Y-10129746D01*
X-23499500Y-8590253D01*
X-23499501Y-8590241D01*
X-23511132Y-8531772D01*
X-23511134Y-8531766D01*
X-23555445Y-8465451D01*
X-23555451Y-8465445D01*
X-23621766Y-8421134D01*
X-23621772Y-8421132D01*
X-23680241Y-8409501D01*
X-23680251Y-8409500D01*
X-23680252Y-8409500D01*
X-25319748Y-8409500D01*
X-25319758Y-8409501D01*
X-25378227Y-8421132D01*
X-25378228Y-8421132D01*
X-25378231Y-8421133D01*
X-25378233Y-8421134D01*
X-25444548Y-8465445D01*
X-25444552Y-8465448D01*
X-25488867Y-8531769D01*
X-25500500Y-8590252D01*
X-25500500Y-10129748D01*
X-25488867Y-10188231D01*
X-25444552Y-10254552D01*
X-25378231Y-10298867D01*
X-25319748Y-10310500D01*
X-24949500Y-10310500D01*
X-24891309Y-10329407D01*
X-24855345Y-10378907D01*
X-24850500Y-10409500D01*
X-24850500Y-10513810D01*
X-24869407Y-10572001D01*
X-24879496Y-10583814D01*
X-25016186Y-10720504D01*
X-25070703Y-10748281D01*
X-25086190Y-10749500D01*
X-25953381Y-10749500D01*
X-25973696Y-10747393D01*
X-25985313Y-10744957D01*
X-25985314Y-10744957D01*
X-25985315Y-10744957D01*
X-26011980Y-10748281D01*
X-26015662Y-10748740D01*
X-26027907Y-10749500D01*
X-26029042Y-10749500D01*
X-26048528Y-10752751D01*
X-26052547Y-10753337D01*
X-26093853Y-10758487D01*
X-26101393Y-10759427D01*
X-26108448Y-10761527D01*
X-26115380Y-10763907D01*
X-26158646Y-10787322D01*
X-26162284Y-10789194D01*
X-26206484Y-10810802D01*
X-26206485Y-10810803D01*
X-26212472Y-10815078D01*
X-26218258Y-10819581D01*
X-26251567Y-10855764D01*
X-26254399Y-10858717D01*
X-27216186Y-11820504D01*
X-27270703Y-11848281D01*
X-27286190Y-11849500D01*
X-27596241Y-11849500D01*
X-27654432Y-11830593D01*
X-27663403Y-11822359D01*
X-27663520Y-11822494D01*
X-27668871Y-11817856D01*
X-27789942Y-11740049D01*
X-27789949Y-11740046D01*
X-27928035Y-11699500D01*
X-27928039Y-11699500D01*
X-28071961Y-11699500D01*
X-28071964Y-11699500D01*
X-28210050Y-11740046D01*
X-28210053Y-11740047D01*
X-28210054Y-11740047D01*
X-28210057Y-11740049D01*
X-28331126Y-11817855D01*
X-28331127Y-11817856D01*
X-28331128Y-11817857D01*
X-28425377Y-11926627D01*
X-28485165Y-12057543D01*
X-28505647Y-12200000D01*
X-39299500Y-12200000D01*
X-39299500Y-5047265D01*
X-39280593Y-4989074D01*
X-39231093Y-4953110D01*
X-39227916Y-4952137D01*
X-39089937Y-4912386D01*
X-38990899Y-4883854D01*
X-38990897Y-4883853D01*
X-38990896Y-4883853D01*
X-38729869Y-4775732D01*
X-38674347Y-4752734D01*
X-38400009Y-4601112D01*
X-38374479Y-4587002D01*
X-38095047Y-4388735D01*
X-37895098Y-4210049D01*
X-37839578Y-4160434D01*
X-37839565Y-4160421D01*
X-37766280Y-4078415D01*
X-37611265Y-3904953D01*
X-37412998Y-3625521D01*
X-37412995Y-3625516D01*
X-37247265Y-3325652D01*
X-37116147Y-3009105D01*
X-37049041Y-2776175D01*
X-37047864Y-2772092D01*
X-37013587Y-2721411D01*
X-36956066Y-2700556D01*
X-36952734Y-2700500D01*
X-36904500Y-2700500D01*
X-36846309Y-2719407D01*
X-36810345Y-2768907D01*
X-36805500Y-2799500D01*
X-36805500Y-5505196D01*
X-36803263Y-5542095D01*
X-36799587Y-5572307D01*
X-36798012Y-5583515D01*
X-36760262Y-5689249D01*
X-36724510Y-5750587D01*
X-36688357Y-5800325D01*
X-36599434Y-5868863D01*
X-36536195Y-5901134D01*
X-36478896Y-5923428D01*
X-36367035Y-5933011D01*
X-36296389Y-5925970D01*
X-36278475Y-5922336D01*
X-36275029Y-5921637D01*
X-36214241Y-5928598D01*
X-36169154Y-5969960D01*
X-36156990Y-6029924D01*
X-36163190Y-6054827D01*
X-36199508Y-6147363D01*
X-36256222Y-6395843D01*
X-36275268Y-6650000D01*
X-36256222Y-6904157D01*
X-36199508Y-7152637D01*
X-36174851Y-7215462D01*
X-36164372Y-7242160D01*
X-36160712Y-7303236D01*
X-36193651Y-7354799D01*
X-36250606Y-7377153D01*
X-36280306Y-7373152D01*
X-36280411Y-7373710D01*
X-36287372Y-7372408D01*
X-36332242Y-7370522D01*
X-36399546Y-7367695D01*
X-36399549Y-7367695D01*
X-36453643Y-7375473D01*
X-36469820Y-7377799D01*
X-36499413Y-7385153D01*
X-36529487Y-7392627D01*
X-36541317Y-7399546D01*
X-36626401Y-7449307D01*
X-36626404Y-7449310D01*
X-36626406Y-7449311D01*
X-36643061Y-7463743D01*
X-36680057Y-7495800D01*
X-36722238Y-7540536D01*
X-36773123Y-7640613D01*
X-36793125Y-7708734D01*
X-36793125Y-7708736D01*
X-36805500Y-7794798D01*
X-36805500Y-7794803D01*
X-36805500Y-8374000D01*
X-36798519Y-8438937D01*
X-36787133Y-8491279D01*
X-36776175Y-8529488D01*
X-36719496Y-8626401D01*
X-36673003Y-8680057D01*
X-36628267Y-8722238D01*
X-36528190Y-8773123D01*
X-36460069Y-8793125D01*
X-36423182Y-8798428D01*
X-36374004Y-8805500D01*
X-36374000Y-8805500D01*
X-35832391Y-8805500D01*
X-35832381Y-8805500D01*
X-35805860Y-8804347D01*
X-35784068Y-8802448D01*
X-35783185Y-8802369D01*
X-35766686Y-8797720D01*
X-35675124Y-8771925D01*
X-35675123Y-8771924D01*
X-35675121Y-8771924D01*
X-35611486Y-8740442D01*
X-35559399Y-8707769D01*
X-35543398Y-8689708D01*
X-35487317Y-8626404D01*
X-35484950Y-8623732D01*
X-35448438Y-8562844D01*
X-35448435Y-8562838D01*
X-35448426Y-8562823D01*
X-35422287Y-8507206D01*
X-35415814Y-8465451D01*
X-35405089Y-8396256D01*
X-35405089Y-8396255D01*
X-35405088Y-8396253D01*
X-35407368Y-8322799D01*
X-35405954Y-8322755D01*
X-35392898Y-8268061D01*
X-35378424Y-8249677D01*
X-35366135Y-8237388D01*
X-35359529Y-8230782D01*
X-35305011Y-8203005D01*
X-35246574Y-8211590D01*
X-35193004Y-8237389D01*
X-34949458Y-8312513D01*
X-34697435Y-8350500D01*
X-34697430Y-8350500D01*
X-34442570Y-8350500D01*
X-34442565Y-8350500D01*
X-34190542Y-8312513D01*
X-33946996Y-8237389D01*
X-33916924Y-8222907D01*
X-33893423Y-8211590D01*
X-33832791Y-8203377D01*
X-33780467Y-8230780D01*
X-33760497Y-8250750D01*
X-33732722Y-8305265D01*
X-33731590Y-8324907D01*
X-33733651Y-8373974D01*
X-33734726Y-8399549D01*
X-33733295Y-8409500D01*
X-33724622Y-8469820D01*
X-33709793Y-8529488D01*
X-33653114Y-8626401D01*
X-33606621Y-8680057D01*
X-33561885Y-8722238D01*
X-33461808Y-8773123D01*
X-33393687Y-8793125D01*
X-33356800Y-8798428D01*
X-33307622Y-8805500D01*
X-33307618Y-8805500D01*
X-33126004Y-8805500D01*
X-33126000Y-8805500D01*
X-33061063Y-8798519D01*
X-33008721Y-8787133D01*
X-32970512Y-8776175D01*
X-32873599Y-8719496D01*
X-32873596Y-8719493D01*
X-32873595Y-8719493D01*
X-32839873Y-8690273D01*
X-32783514Y-8666455D01*
X-32723919Y-8680313D01*
X-32683851Y-8726554D01*
X-32678615Y-8787515D01*
X-32685318Y-8806931D01*
X-32733811Y-8910925D01*
X-32793050Y-9132008D01*
X-32812996Y-9359996D01*
X-32812996Y-9360003D01*
X-32793050Y-9587991D01*
X-32733812Y-9809069D01*
X-32637087Y-10016498D01*
X-32637087Y-10016499D01*
X-32587099Y-10087888D01*
X-31964219Y-9465008D01*
X-31936519Y-9559351D01*
X-31862673Y-9674258D01*
X-31759445Y-9763705D01*
X-31635199Y-9820446D01*
X-31605504Y-9824715D01*
X-32227888Y-10447099D01*
X-32156499Y-10497087D01*
X-31949069Y-10593812D01*
X-31727991Y-10653050D01*
X-31500003Y-10672996D01*
X-31499997Y-10672996D01*
X-31272008Y-10653050D01*
X-31050930Y-10593812D01*
X-30843503Y-10497088D01*
X-30772110Y-10447099D01*
X-31394493Y-9824715D01*
X-31364801Y-9820446D01*
X-31240555Y-9763705D01*
X-31137327Y-9674258D01*
X-31063481Y-9559351D01*
X-31035779Y-9465007D01*
X-30412899Y-10087888D01*
X-30362910Y-10016495D01*
X-30266187Y-9809069D01*
X-30206949Y-9587991D01*
X-30194337Y-9443826D01*
X-30170430Y-9387504D01*
X-30125278Y-9360373D01*
X-30067892Y-9360373D01*
X-30057032Y-9361324D01*
X-30010855Y-9401465D01*
X-29997191Y-9442751D01*
X-29986025Y-9556126D01*
X-29986024Y-9556127D01*
X-29986024Y-9556132D01*
X-29928814Y-9744727D01*
X-29835910Y-9918538D01*
X-29710883Y-10070883D01*
X-29558538Y-10195910D01*
X-29384727Y-10288814D01*
X-29196132Y-10346024D01*
X-29196127Y-10346024D01*
X-29196126Y-10346025D01*
X-29000003Y-10365341D01*
X-29000000Y-10365341D01*
X-28999997Y-10365341D01*
X-28803873Y-10346025D01*
X-28803870Y-10346024D01*
X-28803868Y-10346024D01*
X-28615273Y-10288814D01*
X-28441462Y-10195910D01*
X-28433143Y-10189083D01*
X-28289121Y-10070887D01*
X-28289112Y-10070878D01*
X-28164093Y-9918542D01*
X-28164092Y-9918540D01*
X-28164090Y-9918538D01*
X-28087310Y-9774893D01*
X-28043204Y-9732486D01*
X-27982596Y-9724103D01*
X-27928635Y-9752945D01*
X-27912689Y-9774893D01*
X-27835910Y-9918538D01*
X-27710883Y-10070883D01*
X-27558538Y-10195910D01*
X-27384727Y-10288814D01*
X-27196132Y-10346024D01*
X-27196127Y-10346024D01*
X-27196126Y-10346025D01*
X-27000003Y-10365341D01*
X-27000000Y-10365341D01*
X-26999997Y-10365341D01*
X-26803873Y-10346025D01*
X-26803870Y-10346024D01*
X-26803868Y-10346024D01*
X-26615273Y-10288814D01*
X-26441462Y-10195910D01*
X-26433143Y-10189083D01*
X-26289121Y-10070887D01*
X-26289112Y-10070878D01*
X-26164093Y-9918542D01*
X-26164092Y-9918540D01*
X-26164090Y-9918538D01*
X-26113457Y-9823810D01*
X-26071188Y-9744732D01*
X-26071187Y-9744730D01*
X-26063445Y-9719210D01*
X-26013976Y-9556132D01*
X-26013975Y-9556129D01*
X-26013974Y-9556126D01*
X-25994659Y-9360003D01*
X-25994659Y-9359996D01*
X-26013974Y-9163873D01*
X-26013975Y-9163870D01*
X-26071187Y-8975269D01*
X-26071188Y-8975267D01*
X-26164087Y-8801467D01*
X-26164093Y-8801457D01*
X-26289112Y-8649121D01*
X-26289121Y-8649112D01*
X-26441457Y-8524093D01*
X-26441467Y-8524087D01*
X-26615267Y-8431188D01*
X-26615269Y-8431187D01*
X-26803870Y-8373975D01*
X-26803873Y-8373974D01*
X-26999997Y-8354659D01*
X-27000003Y-8354659D01*
X-27196126Y-8373974D01*
X-27196129Y-8373975D01*
X-27250911Y-8390593D01*
X-27351583Y-8421132D01*
X-27384730Y-8431187D01*
X-27384732Y-8431188D01*
X-27517618Y-8502218D01*
X-27558538Y-8524090D01*
X-27558540Y-8524092D01*
X-27558542Y-8524093D01*
X-27710878Y-8649112D01*
X-27710887Y-8649121D01*
X-27824464Y-8787515D01*
X-27835910Y-8801462D01*
X-27880562Y-8885000D01*
X-27912690Y-8945107D01*
X-27956796Y-8987513D01*
X-28017404Y-8995896D01*
X-28071365Y-8967053D01*
X-28087310Y-8945107D01*
X-28164089Y-8801463D01*
X-28164093Y-8801457D01*
X-28289112Y-8649121D01*
X-28289121Y-8649112D01*
X-28441457Y-8524093D01*
X-28441467Y-8524087D01*
X-28615267Y-8431188D01*
X-28615269Y-8431187D01*
X-28803870Y-8373975D01*
X-28803873Y-8373974D01*
X-28999997Y-8354659D01*
X-29000003Y-8354659D01*
X-29196126Y-8373974D01*
X-29196129Y-8373975D01*
X-29250911Y-8390593D01*
X-29351583Y-8421132D01*
X-29384730Y-8431187D01*
X-29384732Y-8431188D01*
X-29517618Y-8502218D01*
X-29558538Y-8524090D01*
X-29558540Y-8524092D01*
X-29558542Y-8524093D01*
X-29710878Y-8649112D01*
X-29710887Y-8649121D01*
X-29824464Y-8787515D01*
X-29835910Y-8801462D01*
X-29880562Y-8885000D01*
X-29911273Y-8942457D01*
X-29928814Y-8975273D01*
X-29986024Y-9163868D01*
X-29986024Y-9163870D01*
X-29986025Y-9163873D01*
X-29997191Y-9277248D01*
X-30021710Y-9333306D01*
X-30067892Y-9360373D01*
X-30125278Y-9360373D01*
X-30123662Y-9359402D01*
X-30135388Y-9358248D01*
X-30181124Y-9317606D01*
X-30194337Y-9276173D01*
X-30206949Y-9132008D01*
X-30266188Y-8910925D01*
X-30362907Y-8703510D01*
X-30362917Y-8703493D01*
X-30412899Y-8632110D01*
X-31035780Y-9254991D01*
X-31063481Y-9160649D01*
X-31137327Y-9045742D01*
X-31240555Y-8956295D01*
X-31364801Y-8899554D01*
X-31394495Y-8895284D01*
X-30772110Y-8272899D01*
X-30843493Y-8222917D01*
X-30843510Y-8222907D01*
X-31050925Y-8126188D01*
X-31050924Y-8126188D01*
X-31272008Y-8066949D01*
X-31499997Y-8047004D01*
X-31500003Y-8047004D01*
X-31727991Y-8066949D01*
X-31949069Y-8126187D01*
X-32156495Y-8222910D01*
X-32227888Y-8272899D01*
X-31605502Y-8895284D01*
X-31635199Y-8899554D01*
X-31759445Y-8956295D01*
X-31862673Y-9045742D01*
X-31936519Y-9160649D01*
X-31964219Y-9254989D01*
X-32587100Y-8632109D01*
X-32617403Y-8634760D01*
X-32677021Y-8620996D01*
X-32717161Y-8574819D01*
X-32722493Y-8513866D01*
X-32721021Y-8508246D01*
X-32706875Y-8460070D01*
X-32706874Y-8460066D01*
X-32694500Y-8374004D01*
X-32694500Y-7900779D01*
X-32675593Y-7842588D01*
X-32626093Y-7806624D01*
X-32581410Y-7802787D01*
X-32562544Y-7805500D01*
X-32562543Y-7805500D01*
X-23437472Y-7805500D01*
X-23437456Y-7805500D01*
X-23409416Y-7804105D01*
X-23350361Y-7820098D01*
X-23311982Y-7867750D01*
X-23305500Y-7902983D01*
X-23305500Y-8374000D01*
X-23298519Y-8438937D01*
X-23287133Y-8491279D01*
X-23276175Y-8529488D01*
X-23219496Y-8626401D01*
X-23173003Y-8680057D01*
X-23128267Y-8722238D01*
X-23028190Y-8773123D01*
X-22960069Y-8793125D01*
X-22923182Y-8798428D01*
X-22874004Y-8805500D01*
X-22874000Y-8805500D01*
X-22692391Y-8805500D01*
X-22692381Y-8805500D01*
X-22665860Y-8804347D01*
X-22644068Y-8802448D01*
X-22643185Y-8802369D01*
X-22626686Y-8797720D01*
X-22535124Y-8771925D01*
X-22535123Y-8771924D01*
X-22535121Y-8771924D01*
X-22471486Y-8740442D01*
X-22419399Y-8707769D01*
X-22403398Y-8689708D01*
X-22347317Y-8626404D01*
X-22344950Y-8623732D01*
X-22308438Y-8562844D01*
X-22308435Y-8562838D01*
X-22308426Y-8562823D01*
X-22282287Y-8507206D01*
X-22275814Y-8465451D01*
X-22265089Y-8396256D01*
X-22265089Y-8396255D01*
X-22265088Y-8396253D01*
X-22267368Y-8322799D01*
X-22265954Y-8322755D01*
X-22252898Y-8268061D01*
X-22238424Y-8249677D01*
X-22226135Y-8237388D01*
X-22219529Y-8230782D01*
X-22165011Y-8203005D01*
X-22106574Y-8211590D01*
X-22053004Y-8237389D01*
X-21809458Y-8312513D01*
X-21557435Y-8350500D01*
X-21557430Y-8350500D01*
X-21302570Y-8350500D01*
X-21302565Y-8350500D01*
X-21050542Y-8312513D01*
X-20806996Y-8237389D01*
X-20776924Y-8222907D01*
X-20753423Y-8211590D01*
X-20692791Y-8203377D01*
X-20640467Y-8230780D01*
X-20620497Y-8250750D01*
X-20592722Y-8305265D01*
X-20591590Y-8324907D01*
X-20593651Y-8373974D01*
X-20594726Y-8399549D01*
X-20593295Y-8409500D01*
X-20584622Y-8469820D01*
X-20569793Y-8529488D01*
X-20513114Y-8626401D01*
X-20466621Y-8680057D01*
X-20421885Y-8722238D01*
X-20321808Y-8773123D01*
X-20253687Y-8793125D01*
X-20216800Y-8798428D01*
X-20167622Y-8805500D01*
X-20167618Y-8805500D01*
X-10626004Y-8805500D01*
X-10626000Y-8805500D01*
X-10561063Y-8798519D01*
X-10508721Y-8787133D01*
X-10470512Y-8776175D01*
X-10373599Y-8719496D01*
X-10373596Y-8719493D01*
X-10373595Y-8719493D01*
X-10319943Y-8673003D01*
X-10319942Y-8673002D01*
X-10305366Y-8657543D01*
X-10277762Y-8628267D01*
X-10226877Y-8528190D01*
X-10220714Y-8507202D01*
X-10206874Y-8460066D01*
X-10194500Y-8374004D01*
X-10194500Y-2904500D01*
X-10175593Y-2846309D01*
X-10126093Y-2810345D01*
X-10095500Y-2805500D01*
X-5454004Y-2805500D01*
X-5454000Y-2805500D01*
X-5389063Y-2798519D01*
X-5336721Y-2787133D01*
X-5298512Y-2776175D01*
X-5201599Y-2719496D01*
X-5184330Y-2704533D01*
X-5127975Y-2680715D01*
X-5068379Y-2694572D01*
G37*
%TD.AperFunction*%
%TA.AperFunction,Conductor*%
G36*
X-42520407Y-3719388D02*
G01*
X-42519785Y-3720254D01*
X-42388735Y-3904953D01*
X-42160428Y-4160428D01*
X-41904953Y-4388735D01*
X-41625521Y-4587002D01*
X-41325648Y-4752736D01*
X-41009104Y-4883853D01*
X-40772093Y-4952134D01*
X-40721411Y-4986412D01*
X-40700556Y-5043933D01*
X-40700500Y-5047265D01*
X-40700500Y-54952733D01*
X-40719407Y-55010924D01*
X-40768907Y-55046888D01*
X-40772093Y-55047864D01*
X-41009105Y-55116147D01*
X-41325652Y-55247265D01*
X-41625516Y-55412995D01*
X-41625521Y-55412998D01*
X-41904953Y-55611265D01*
X-42078415Y-55766280D01*
X-42160421Y-55839565D01*
X-42160434Y-55839578D01*
X-42280556Y-55973995D01*
X-42388735Y-56095047D01*
X-42388737Y-56095050D01*
X-42388738Y-56095051D01*
X-42519760Y-56279709D01*
X-42568853Y-56316225D01*
X-42630034Y-56316912D01*
X-42679935Y-56281506D01*
X-42699494Y-56223531D01*
X-42699500Y-56222420D01*
X-42699500Y-3777579D01*
X-42680593Y-3719388D01*
X-42631093Y-3683424D01*
X-42569907Y-3683424D01*
X-42520407Y-3719388D01*
G37*
%TD.AperFunction*%
%TA.AperFunction,Conductor*%
G36*
X-36843445Y2680593D02*
G01*
X-36807481Y2631093D01*
X-36803644Y2586408D01*
X-36804334Y2581613D01*
X-36805500Y2573501D01*
X-36805500Y-1200500D01*
X-36824407Y-1258691D01*
X-36873907Y-1294655D01*
X-36904500Y-1299500D01*
X-36952734Y-1299500D01*
X-37010925Y-1280593D01*
X-37046889Y-1231093D01*
X-37047865Y-1227907D01*
X-37116147Y-990894D01*
X-37247265Y-674347D01*
X-37412995Y-374483D01*
X-37523476Y-218773D01*
X-37611265Y-95047D01*
X-37720334Y27001D01*
X-37839565Y160421D01*
X-37839578Y160434D01*
X-37909868Y223249D01*
X-38095047Y388735D01*
X-38374479Y587002D01*
X-38527063Y671332D01*
X-38674348Y752734D01*
X-38674347Y752734D01*
X-38729886Y775739D01*
X-38990896Y883853D01*
X-39320130Y978704D01*
X-39320138Y978705D01*
X-39320141Y978706D01*
X-39543834Y1016713D01*
X-39657914Y1036096D01*
X-39657917Y1036096D01*
X-39657923Y1036097D01*
X-39999995Y1055307D01*
X-40000005Y1055307D01*
X-40342076Y1036097D01*
X-40342080Y1036096D01*
X-40342086Y1036096D01*
X-40679870Y978704D01*
X-41009104Y883853D01*
X-41325648Y752736D01*
X-41625521Y587002D01*
X-41904953Y388735D01*
X-42160428Y160428D01*
X-42388735Y-95047D01*
X-42388737Y-95050D01*
X-42388738Y-95051D01*
X-42519760Y-279709D01*
X-42568853Y-316225D01*
X-42630034Y-316912D01*
X-42679935Y-281506D01*
X-42699494Y-223531D01*
X-42699500Y-222420D01*
X-42699500Y1995138D01*
X-42699023Y2004842D01*
X-42687014Y2126762D01*
X-42683228Y2145795D01*
X-42649084Y2258356D01*
X-42641657Y2276288D01*
X-42586210Y2380021D01*
X-42575428Y2396157D01*
X-42500806Y2487083D01*
X-42487083Y2500806D01*
X-42396157Y2575428D01*
X-42380021Y2586210D01*
X-42328154Y2613933D01*
X-42276285Y2641658D01*
X-42258356Y2649084D01*
X-42145795Y2683228D01*
X-42126763Y2687014D01*
X-42020719Y2697459D01*
X-42004841Y2699023D01*
X-41995139Y2699500D01*
X-41952406Y2699500D01*
X-36901636Y2699500D01*
X-36843445Y2680593D01*
G37*
%TD.AperFunction*%
%TD*%
%TA.AperFunction,NonConductor*%
G36*
X34245445Y-30385055D02*
G01*
X34288710Y-30428320D01*
X34299500Y-30473265D01*
X34299500Y-31664810D01*
X34280593Y-31723001D01*
X34231093Y-31758965D01*
X34169907Y-31758965D01*
X34130496Y-31734814D01*
X33579496Y-31183814D01*
X33551719Y-31129297D01*
X33550500Y-31113810D01*
X33550500Y-31024265D01*
X33569407Y-30966074D01*
X33579490Y-30954267D01*
X34130496Y-30403260D01*
X34185013Y-30375484D01*
X34245445Y-30385055D01*
G37*
%TD.AperFunction*%
%TA.AperFunction,Conductor*%
%TO.N,GNDPWR*%
G36*
X27387906Y1729498D02*
G01*
X27408880Y1712595D01*
X30912595Y-1791120D01*
X30946621Y-1853432D01*
X30949500Y-1880215D01*
X30949500Y-7374000D01*
X30929498Y-7442121D01*
X30875842Y-7488614D01*
X30823500Y-7500000D01*
X23437456Y-7500000D01*
X23369335Y-7479998D01*
X23322842Y-7426342D01*
X23312738Y-7356068D01*
X23318731Y-7331805D01*
X23368054Y-7193019D01*
X23368057Y-7193011D01*
X23423946Y-6924054D01*
X23423947Y-6924048D01*
X23442692Y-6650004D01*
X23442692Y-6649995D01*
X23423947Y-6375951D01*
X23423946Y-6375945D01*
X23368057Y-6106988D01*
X23368055Y-6106980D01*
X23276061Y-5848134D01*
X23149685Y-5604243D01*
X23149681Y-5604237D01*
X23019457Y-5419750D01*
X22402723Y-6036484D01*
X22351652Y-5954001D01*
X22208069Y-5796499D01*
X22046387Y-5674401D01*
X22659283Y-5061504D01*
X22590680Y-5005691D01*
X22355969Y-4862961D01*
X22104010Y-4753519D01*
X21839490Y-4679404D01*
X21567364Y-4642000D01*
X21292635Y-4642000D01*
X21020509Y-4679404D01*
X20755989Y-4753519D01*
X20504030Y-4862961D01*
X20269325Y-5005687D01*
X20200715Y-5061505D01*
X20200714Y-5061505D01*
X20813611Y-5674402D01*
X20651931Y-5796499D01*
X20508348Y-5954001D01*
X20457276Y-6036485D01*
X19840541Y-5419750D01*
X19710317Y-5604236D01*
X19583938Y-5848134D01*
X19491944Y-6106980D01*
X19491942Y-6106988D01*
X19436053Y-6375945D01*
X19436052Y-6375951D01*
X19417308Y-6649995D01*
X19417308Y-6650004D01*
X19436052Y-6924048D01*
X19436053Y-6924054D01*
X19491942Y-7193011D01*
X19491944Y-7193019D01*
X19583938Y-7451865D01*
X19710314Y-7695756D01*
X19710316Y-7695759D01*
X19840541Y-7880248D01*
X20457275Y-7263513D01*
X20508348Y-7345999D01*
X20651931Y-7503501D01*
X20813610Y-7625597D01*
X20200715Y-8238492D01*
X20200715Y-8238494D01*
X20269313Y-8294304D01*
X20269318Y-8294307D01*
X20504030Y-8437038D01*
X20755989Y-8546480D01*
X21020509Y-8620595D01*
X21292635Y-8657999D01*
X21292649Y-8658000D01*
X21567351Y-8658000D01*
X21567364Y-8657999D01*
X21839490Y-8620595D01*
X22104010Y-8546480D01*
X22355969Y-8437038D01*
X22590679Y-8294309D01*
X22659283Y-8238493D01*
X22659283Y-8238492D01*
X22046388Y-7625597D01*
X22208069Y-7503501D01*
X22351652Y-7345999D01*
X22402724Y-7263514D01*
X22975545Y-7836335D01*
X23000000Y-7881120D01*
X23000000Y-7980550D01*
X23000000Y-8874000D01*
X22979998Y-8942121D01*
X22926342Y-8988614D01*
X22874000Y-9000000D01*
X10626000Y-9000000D01*
X10557879Y-8979998D01*
X10511386Y-8926342D01*
X10500000Y-8874000D01*
X10500000Y-4500000D01*
X4389293Y-4500000D01*
X4321172Y-4479998D01*
X4300198Y-4463095D01*
X4093156Y-4256053D01*
X4059130Y-4193741D01*
X4064195Y-4122926D01*
X4066000Y-4120514D01*
X4066000Y-3279650D01*
X4094457Y-3325610D01*
X4183962Y-3393201D01*
X4291840Y-3423895D01*
X4403521Y-3413546D01*
X4503922Y-3363552D01*
X4574000Y-3286681D01*
X4574000Y-4096305D01*
X4707611Y-4055775D01*
X4882724Y-3962175D01*
X5036211Y-3836211D01*
X5162175Y-3682724D01*
X5255774Y-3507614D01*
X5255780Y-3507599D01*
X5313414Y-3317606D01*
X5313416Y-3317594D01*
X5327999Y-3169526D01*
X5328000Y-3169508D01*
X5328000Y-2824000D01*
X4620000Y-2824000D01*
X4620000Y-2316000D01*
X5328000Y-2316000D01*
X5328000Y-2000002D01*
X11637068Y-2000002D01*
X11656782Y-2363597D01*
X11715689Y-2722926D01*
X11813106Y-3073787D01*
X11947881Y-3412046D01*
X11947885Y-3412055D01*
X12118445Y-3733768D01*
X12118447Y-3733772D01*
X12322792Y-4035158D01*
X12322791Y-4035158D01*
X12452695Y-4188093D01*
X13699994Y-2940794D01*
X13701570Y-2943365D01*
X13865130Y-3134870D01*
X14056635Y-3298430D01*
X14059203Y-3300004D01*
X12809134Y-4550073D01*
X12822892Y-4563105D01*
X13112761Y-4783458D01*
X13112767Y-4783462D01*
X13424772Y-4971189D01*
X13424779Y-4971193D01*
X13755239Y-5124081D01*
X13755251Y-5124086D01*
X14100310Y-5240349D01*
X14100327Y-5240354D01*
X14455920Y-5318626D01*
X14455949Y-5318631D01*
X14817927Y-5357999D01*
X14817943Y-5358000D01*
X15182057Y-5358000D01*
X15182072Y-5357999D01*
X15544050Y-5318631D01*
X15544079Y-5318626D01*
X15899672Y-5240354D01*
X15899689Y-5240349D01*
X16244748Y-5124086D01*
X16244760Y-5124081D01*
X16575220Y-4971193D01*
X16575227Y-4971189D01*
X16887232Y-4783462D01*
X16887238Y-4783458D01*
X17177113Y-4563101D01*
X17190865Y-4550074D01*
X15940795Y-3300004D01*
X15943365Y-3298430D01*
X16134870Y-3134870D01*
X16298430Y-2943365D01*
X16300004Y-2940795D01*
X17547302Y-4188093D01*
X17547303Y-4188093D01*
X17677203Y-4035165D01*
X17677205Y-4035161D01*
X17881552Y-3733772D01*
X17881554Y-3733768D01*
X18052114Y-3412055D01*
X18052118Y-3412046D01*
X18186893Y-3073787D01*
X18284310Y-2722926D01*
X18343217Y-2363597D01*
X18362932Y-2000002D01*
X18362932Y-1999997D01*
X18343217Y-1636402D01*
X18284310Y-1277073D01*
X18186893Y-926212D01*
X18052118Y-587953D01*
X18052114Y-587944D01*
X17881554Y-266231D01*
X17881552Y-266227D01*
X17677205Y35161D01*
X17677203Y35165D01*
X17547302Y188093D01*
X16300004Y-1059204D01*
X16298430Y-1056635D01*
X16134870Y-865130D01*
X15943365Y-701570D01*
X15940795Y-699995D01*
X17190865Y550074D01*
X17177113Y563101D01*
X16887238Y783458D01*
X16887232Y783462D01*
X16575227Y971189D01*
X16575220Y971193D01*
X16244760Y1124081D01*
X16244748Y1124086D01*
X15899689Y1240349D01*
X15899672Y1240354D01*
X15544079Y1318626D01*
X15544050Y1318631D01*
X15182072Y1357999D01*
X15182058Y1358000D01*
X14817942Y1358000D01*
X14817927Y1357999D01*
X14455949Y1318631D01*
X14455920Y1318626D01*
X14100327Y1240354D01*
X14100310Y1240349D01*
X13755251Y1124086D01*
X13755239Y1124081D01*
X13424779Y971193D01*
X13424772Y971189D01*
X13112767Y783462D01*
X13112761Y783458D01*
X12822892Y563105D01*
X12809134Y550073D01*
X14059203Y-699995D01*
X14056635Y-701570D01*
X13865130Y-865130D01*
X13701570Y-1056635D01*
X13699994Y-1059205D01*
X12452695Y188093D01*
X12322792Y35158D01*
X12118447Y-266227D01*
X12118445Y-266231D01*
X11947885Y-587944D01*
X11947881Y-587953D01*
X11813106Y-926212D01*
X11715689Y-1277073D01*
X11656782Y-1636402D01*
X11637068Y-1999997D01*
X11637068Y-2000002D01*
X5328000Y-2000002D01*
X5328000Y-1970491D01*
X5327999Y-1970473D01*
X5313416Y-1822405D01*
X5313414Y-1822393D01*
X5255780Y-1632400D01*
X5255774Y-1632385D01*
X5162175Y-1457275D01*
X5036211Y-1303788D01*
X4882724Y-1177824D01*
X4707612Y-1084224D01*
X4707610Y-1084223D01*
X4574000Y-1043692D01*
X4574000Y-1860349D01*
X4545543Y-1814390D01*
X4456038Y-1746799D01*
X4348160Y-1716105D01*
X4236479Y-1726454D01*
X4136078Y-1776448D01*
X4066000Y-1853318D01*
X4066000Y-1043693D01*
X4065999Y-1043692D01*
X3932389Y-1084223D01*
X3932387Y-1084224D01*
X3757275Y-1177824D01*
X3603788Y-1303788D01*
X3477825Y-1457273D01*
X3432852Y-1541412D01*
X3383099Y-1592060D01*
X3313862Y-1607769D01*
X3247123Y-1583552D01*
X3245026Y-1581978D01*
X3215574Y-1559379D01*
X3182250Y-1533808D01*
X3178062Y-1532073D01*
X3041278Y-1475415D01*
X2927982Y-1460500D01*
X2927980Y-1460500D01*
X2852020Y-1460500D01*
X2852017Y-1460500D01*
X2738721Y-1475415D01*
X2597751Y-1533807D01*
X2597748Y-1533809D01*
X2527432Y-1587765D01*
X2461211Y-1613365D01*
X2391662Y-1599100D01*
X2347033Y-1559379D01*
X2328185Y-1532073D01*
X2328181Y-1532069D01*
X2200857Y-1419270D01*
X2200851Y-1419265D01*
X2050225Y-1340210D01*
X2050221Y-1340208D01*
X1885059Y-1299500D01*
X1885056Y-1299500D01*
X1714944Y-1299500D01*
X1714940Y-1299500D01*
X1549778Y-1340208D01*
X1549770Y-1340212D01*
X1464307Y-1385067D01*
X1405752Y-1399500D01*
X-1405752Y-1399500D01*
X-1464307Y-1385067D01*
X-1549770Y-1340212D01*
X-1549778Y-1340208D01*
X-1714940Y-1299500D01*
X-1714944Y-1299500D01*
X-1885056Y-1299500D01*
X-1885059Y-1299500D01*
X-2050221Y-1340208D01*
X-2050225Y-1340210D01*
X-2200851Y-1419265D01*
X-2200857Y-1419270D01*
X-2328181Y-1532069D01*
X-2328185Y-1532073D01*
X-2347033Y-1559379D01*
X-2402191Y-1604078D01*
X-2472760Y-1611861D01*
X-2527432Y-1587765D01*
X-2597748Y-1533809D01*
X-2597751Y-1533807D01*
X-2738721Y-1475415D01*
X-2852017Y-1460500D01*
X-2852020Y-1460500D01*
X-2927980Y-1460500D01*
X-2927982Y-1460500D01*
X-3041278Y-1475415D01*
X-3178061Y-1532073D01*
X-3182250Y-1533808D01*
X-3215574Y-1559379D01*
X-3245026Y-1581978D01*
X-3311247Y-1607578D01*
X-3380795Y-1593313D01*
X-3431591Y-1543712D01*
X-3432852Y-1541412D01*
X-3477825Y-1457273D01*
X-3603788Y-1303788D01*
X-3757275Y-1177824D01*
X-3932387Y-1084224D01*
X-3932389Y-1084223D01*
X-4065999Y-1043692D01*
X-4066000Y-1043693D01*
X-4066000Y-1860349D01*
X-4094457Y-1814390D01*
X-4183962Y-1746799D01*
X-4291840Y-1716105D01*
X-4403521Y-1726454D01*
X-4503922Y-1776448D01*
X-4574000Y-1853318D01*
X-4574000Y-1043692D01*
X-4707610Y-1084223D01*
X-4707612Y-1084224D01*
X-4882727Y-1177825D01*
X-4882727Y-1177826D01*
X-4988567Y-1264686D01*
X-5053914Y-1292440D01*
X-5123892Y-1280458D01*
X-5176284Y-1232545D01*
X-5194500Y-1167287D01*
X-5194500Y-776500D01*
X-5174498Y-708379D01*
X-5120842Y-661886D01*
X-5068500Y-650500D01*
X6588439Y-650500D01*
X6592740Y-650573D01*
X6656826Y-652762D01*
X6696635Y-643059D01*
X6709311Y-640650D01*
X6749920Y-635070D01*
X6766225Y-627986D01*
X6786590Y-621138D01*
X6803852Y-616933D01*
X6839577Y-596845D01*
X6851133Y-591106D01*
X6858413Y-587944D01*
X6888720Y-574780D01*
X6902506Y-563563D01*
X6920264Y-551477D01*
X6935759Y-542766D01*
X6964750Y-513773D01*
X6974309Y-505147D01*
X7006108Y-479278D01*
X7016360Y-464752D01*
X7030197Y-448326D01*
X9191120Y1712595D01*
X9253432Y1746621D01*
X9280215Y1749500D01*
X27319785Y1749500D01*
X27387906Y1729498D01*
G37*
%TD.AperFunction*%
%TA.AperFunction,Conductor*%
G36*
X43000000Y-489643D02*
G01*
X42947885Y-587944D01*
X42947881Y-587953D01*
X42813106Y-926212D01*
X42715689Y-1277073D01*
X42656782Y-1636402D01*
X42637068Y-1999997D01*
X42637068Y-2000002D01*
X42656782Y-2363597D01*
X42715689Y-2722926D01*
X42813106Y-3073787D01*
X42947881Y-3412046D01*
X42947885Y-3412055D01*
X43000000Y-3510355D01*
X43000000Y-6000000D01*
X43000000Y-8874000D01*
X42979998Y-8942121D01*
X42926342Y-8988614D01*
X42874000Y-9000000D01*
X33126000Y-9000000D01*
X33057879Y-8979998D01*
X33011386Y-8926342D01*
X33000000Y-8874000D01*
X33000000Y-7980553D01*
X33000000Y-7882184D01*
X33021330Y-7839572D01*
X33024454Y-7836334D01*
X33597275Y-7263513D01*
X33648348Y-7345999D01*
X33791931Y-7503501D01*
X33953610Y-7625597D01*
X33340715Y-8238492D01*
X33340715Y-8238494D01*
X33409313Y-8294304D01*
X33409318Y-8294307D01*
X33644030Y-8437038D01*
X33895989Y-8546480D01*
X34160509Y-8620595D01*
X34432635Y-8657999D01*
X34432649Y-8658000D01*
X34707351Y-8658000D01*
X34707364Y-8657999D01*
X34979490Y-8620595D01*
X35244010Y-8546480D01*
X35495969Y-8437038D01*
X35730679Y-8294309D01*
X35799283Y-8238493D01*
X35799283Y-8238492D01*
X35186388Y-7625597D01*
X35348069Y-7503501D01*
X35491652Y-7345999D01*
X35542724Y-7263514D01*
X36159457Y-7880247D01*
X36289682Y-7695762D01*
X36289685Y-7695756D01*
X36416061Y-7451865D01*
X36508055Y-7193019D01*
X36508057Y-7193011D01*
X36563946Y-6924054D01*
X36563947Y-6924048D01*
X36582692Y-6650004D01*
X36582692Y-6649995D01*
X36563947Y-6375951D01*
X36563946Y-6375945D01*
X36508057Y-6106988D01*
X36508055Y-6106980D01*
X36416061Y-5848134D01*
X36289685Y-5604243D01*
X36289681Y-5604237D01*
X36159457Y-5419750D01*
X35542723Y-6036484D01*
X35491652Y-5954001D01*
X35348069Y-5796499D01*
X35186387Y-5674401D01*
X35799283Y-5061504D01*
X35730680Y-5005691D01*
X35495969Y-4862961D01*
X35244010Y-4753519D01*
X34979490Y-4679404D01*
X34707364Y-4642000D01*
X34432635Y-4642000D01*
X34160509Y-4679404D01*
X33895989Y-4753519D01*
X33644030Y-4862961D01*
X33409325Y-5005687D01*
X33340715Y-5061505D01*
X33340714Y-5061505D01*
X33953611Y-5674402D01*
X33791931Y-5796499D01*
X33648348Y-5954001D01*
X33597276Y-6036485D01*
X32980541Y-5419750D01*
X32850317Y-5604236D01*
X32723938Y-5848134D01*
X32631944Y-6106980D01*
X32631942Y-6106988D01*
X32576053Y-6375945D01*
X32576052Y-6375951D01*
X32557308Y-6649995D01*
X32557308Y-6650004D01*
X32576052Y-6924048D01*
X32576053Y-6924054D01*
X32631942Y-7193011D01*
X32631945Y-7193019D01*
X32681269Y-7331805D01*
X32685234Y-7402691D01*
X32650246Y-7464468D01*
X32587413Y-7497521D01*
X32562544Y-7500000D01*
X32176500Y-7500000D01*
X32108379Y-7479998D01*
X32061886Y-7426342D01*
X32050500Y-7374000D01*
X32050500Y-1611560D01*
X32050573Y-1607259D01*
X32051239Y-1587765D01*
X32052762Y-1543174D01*
X32043056Y-1503349D01*
X32040650Y-1490686D01*
X32035070Y-1450080D01*
X32027988Y-1433778D01*
X32021137Y-1413403D01*
X32016934Y-1396153D01*
X32016933Y-1396148D01*
X31996837Y-1360407D01*
X31991107Y-1348869D01*
X31974782Y-1311284D01*
X31974778Y-1311277D01*
X31963564Y-1297493D01*
X31951475Y-1279731D01*
X31949981Y-1277073D01*
X31942766Y-1264241D01*
X31942765Y-1264240D01*
X31942761Y-1264235D01*
X31913789Y-1235263D01*
X31905145Y-1225686D01*
X31879281Y-1193895D01*
X31879273Y-1193888D01*
X31864751Y-1183637D01*
X31848321Y-1169796D01*
X30678525Y0D01*
X37699150Y0D01*
X37718913Y-225890D01*
X37750363Y-343264D01*
X37777600Y-444915D01*
X37777602Y-444920D01*
X37873431Y-650425D01*
X37961709Y-776500D01*
X38003491Y-836170D01*
X38163830Y-996509D01*
X38349575Y-1126569D01*
X38555083Y-1222399D01*
X38774110Y-1281087D01*
X39000000Y-1300850D01*
X39225890Y-1281087D01*
X39444917Y-1222399D01*
X39650425Y-1126569D01*
X39836170Y-996509D01*
X39996509Y-836170D01*
X40126569Y-650425D01*
X40222399Y-444917D01*
X40281087Y-225890D01*
X40300850Y0D01*
X40281087Y225890D01*
X40222399Y444917D01*
X40126569Y650425D01*
X39996509Y836170D01*
X39836170Y996509D01*
X39650425Y1126569D01*
X39444917Y1222399D01*
X39225890Y1281087D01*
X39000000Y1300850D01*
X38774110Y1281087D01*
X38555083Y1222399D01*
X38349575Y1126569D01*
X38163830Y996509D01*
X38163827Y996506D01*
X38003493Y836172D01*
X38003488Y836166D01*
X37873431Y650425D01*
X37788699Y468716D01*
X37777601Y444917D01*
X37718913Y225890D01*
X37699150Y0D01*
X30678525Y0D01*
X30022091Y656434D01*
X28194118Y2484405D01*
X28160093Y2546717D01*
X28165158Y2617532D01*
X28207705Y2674368D01*
X28274225Y2699179D01*
X28283214Y2699500D01*
X43000000Y2699500D01*
X43000000Y-489643D01*
G37*
%TD.AperFunction*%
%TA.AperFunction,Conductor*%
G36*
X-35491652Y-7345999D02*
G01*
X-35348069Y-7503501D01*
X-35186388Y-7625597D01*
X-35799283Y-8238492D01*
X-35799283Y-8238494D01*
X-35752862Y-8276262D01*
X-35712644Y-8334768D01*
X-35710442Y-8405731D01*
X-35746954Y-8466619D01*
X-35810589Y-8498101D01*
X-35832381Y-8500000D01*
X-36374000Y-8500000D01*
X-36442121Y-8479998D01*
X-36488614Y-8426342D01*
X-36500000Y-8374000D01*
X-36500000Y-7794803D01*
X-36479998Y-7726682D01*
X-36426342Y-7680189D01*
X-36356068Y-7670085D01*
X-36291488Y-7699579D01*
X-36271062Y-7722141D01*
X-36159457Y-7880247D01*
X-35542724Y-7263514D01*
X-35491652Y-7345999D01*
G37*
%TD.AperFunction*%
%TA.AperFunction,Conductor*%
G36*
X-33024454Y-7836334D02*
G01*
X-33000000Y-7881118D01*
X-33000000Y-7980553D01*
X-33000000Y-8374000D01*
X-33020002Y-8442121D01*
X-33073658Y-8488614D01*
X-33126000Y-8500000D01*
X-33307618Y-8500000D01*
X-33375739Y-8479998D01*
X-33422232Y-8426342D01*
X-33432336Y-8356068D01*
X-33402842Y-8291488D01*
X-33387136Y-8276261D01*
X-33340715Y-8238494D01*
X-33340715Y-8238492D01*
X-33953610Y-7625597D01*
X-33791931Y-7503501D01*
X-33648348Y-7345999D01*
X-33597275Y-7263513D01*
X-33024454Y-7836334D01*
G37*
%TD.AperFunction*%
%TA.AperFunction,Conductor*%
G36*
X-22351652Y-7345999D02*
G01*
X-22208069Y-7503501D01*
X-22046388Y-7625597D01*
X-22659283Y-8238492D01*
X-22659283Y-8238494D01*
X-22612862Y-8276262D01*
X-22572644Y-8334768D01*
X-22570442Y-8405731D01*
X-22606954Y-8466619D01*
X-22670589Y-8498101D01*
X-22692381Y-8500000D01*
X-22874000Y-8500000D01*
X-22942121Y-8479998D01*
X-22988614Y-8426342D01*
X-23000000Y-8374000D01*
X-23000000Y-7980550D01*
X-23000000Y-7882185D01*
X-22978667Y-7839569D01*
X-22975545Y-7836335D01*
X-22402724Y-7263514D01*
X-22351652Y-7345999D01*
G37*
%TD.AperFunction*%
%TA.AperFunction,Conductor*%
G36*
X-5174349Y2679498D02*
G01*
X-5127856Y2625842D01*
X-5117752Y2555568D01*
X-5145072Y2493565D01*
X-5162175Y2472724D01*
X-5255774Y2297614D01*
X-5255780Y2297599D01*
X-5313414Y2107606D01*
X-5313416Y2107594D01*
X-5327999Y1959526D01*
X-5328000Y1959508D01*
X-5328000Y1864000D01*
X-4620000Y1864000D01*
X-4620000Y1356000D01*
X-5328000Y1356000D01*
X-5328000Y1260491D01*
X-5327999Y1260475D01*
X-5317949Y1158433D01*
X-5331178Y1088680D01*
X-5380018Y1037152D01*
X-5448963Y1020208D01*
X-5478837Y1025186D01*
X-5539931Y1043125D01*
X-5539939Y1043126D01*
X-5539943Y1043127D01*
X-5625993Y1055499D01*
X-5625998Y1055500D01*
X-5626000Y1055500D01*
X-6624000Y1055500D01*
X-6688937Y1048519D01*
X-6741279Y1037133D01*
X-6779488Y1026175D01*
X-6876401Y969496D01*
X-6930057Y923003D01*
X-6972238Y878267D01*
X-7023123Y778190D01*
X-7043125Y710069D01*
X-7055500Y624000D01*
X-7055500Y-1374000D01*
X-7048519Y-1438937D01*
X-7037133Y-1491279D01*
X-7026175Y-1529488D01*
X-6969496Y-1626401D01*
X-6923003Y-1680057D01*
X-6878267Y-1722238D01*
X-6778190Y-1773123D01*
X-6710069Y-1793125D01*
X-6710057Y-1793126D01*
X-6710056Y-1793127D01*
X-6672560Y-1798518D01*
X-6624004Y-1805499D01*
X-6624002Y-1805500D01*
X-6624000Y-1805500D01*
X-5626006Y-1805500D01*
X-5626000Y-1805500D01*
X-5625991Y-1805499D01*
X-5625990Y-1805499D01*
X-5619515Y-1804802D01*
X-5561063Y-1798519D01*
X-5508721Y-1787133D01*
X-5502537Y-1785359D01*
X-5482474Y-1779606D01*
X-5411478Y-1780053D01*
X-5351995Y-1818812D01*
X-5322910Y-1883578D01*
X-5322345Y-1913074D01*
X-5327999Y-1970478D01*
X-5328000Y-1970491D01*
X-5328000Y-2374000D01*
X-5348002Y-2442121D01*
X-5401658Y-2488614D01*
X-5454000Y-2500000D01*
X-10500000Y-2500000D01*
X-10500000Y-8374000D01*
X-10520002Y-8442121D01*
X-10573658Y-8488614D01*
X-10626000Y-8500000D01*
X-20167618Y-8500000D01*
X-20235739Y-8479998D01*
X-20282232Y-8426342D01*
X-20292336Y-8356068D01*
X-20262842Y-8291488D01*
X-20247136Y-8276261D01*
X-20200715Y-8238494D01*
X-20200715Y-8238492D01*
X-20813610Y-7625597D01*
X-20651931Y-7503501D01*
X-20508348Y-7345999D01*
X-20457275Y-7263513D01*
X-19840541Y-7880248D01*
X-19710316Y-7695759D01*
X-19710314Y-7695756D01*
X-19583938Y-7451865D01*
X-19491944Y-7193019D01*
X-19491942Y-7193011D01*
X-19436053Y-6924054D01*
X-19436052Y-6924048D01*
X-19417308Y-6650004D01*
X-19417308Y-6649995D01*
X-19436052Y-6375951D01*
X-19436053Y-6375945D01*
X-19491942Y-6106988D01*
X-19491944Y-6106980D01*
X-19583938Y-5848134D01*
X-19710317Y-5604236D01*
X-19840541Y-5419750D01*
X-20457276Y-6036485D01*
X-20508348Y-5954001D01*
X-20651931Y-5796499D01*
X-20813611Y-5674402D01*
X-20200714Y-5061505D01*
X-20269325Y-5005687D01*
X-20504030Y-4862961D01*
X-20755989Y-4753519D01*
X-21020509Y-4679404D01*
X-21292635Y-4642000D01*
X-21567364Y-4642000D01*
X-21839490Y-4679404D01*
X-22104010Y-4753519D01*
X-22355969Y-4862961D01*
X-22590680Y-5005691D01*
X-22659283Y-5061504D01*
X-22046387Y-5674401D01*
X-22208069Y-5796499D01*
X-22351652Y-5954001D01*
X-22402723Y-6036484D01*
X-23019457Y-5419750D01*
X-23149681Y-5604237D01*
X-23149685Y-5604243D01*
X-23276061Y-5848134D01*
X-23368055Y-6106980D01*
X-23368057Y-6106988D01*
X-23423946Y-6375945D01*
X-23423947Y-6375951D01*
X-23442692Y-6649995D01*
X-23442692Y-6650004D01*
X-23423947Y-6924048D01*
X-23423946Y-6924054D01*
X-23368057Y-7193011D01*
X-23368054Y-7193019D01*
X-23318731Y-7331805D01*
X-23314766Y-7402691D01*
X-23349754Y-7464468D01*
X-23412587Y-7497521D01*
X-23437456Y-7500000D01*
X-32562544Y-7500000D01*
X-32630665Y-7479998D01*
X-32677158Y-7426342D01*
X-32687262Y-7356068D01*
X-32681269Y-7331805D01*
X-32631945Y-7193019D01*
X-32631942Y-7193011D01*
X-32576053Y-6924054D01*
X-32576052Y-6924048D01*
X-32557308Y-6650004D01*
X-32557308Y-6649995D01*
X-32576052Y-6375951D01*
X-32576053Y-6375945D01*
X-32631942Y-6106988D01*
X-32631944Y-6106980D01*
X-32723938Y-5848134D01*
X-32850317Y-5604236D01*
X-32980541Y-5419750D01*
X-33597276Y-6036485D01*
X-33648348Y-5954001D01*
X-33791931Y-5796499D01*
X-33953611Y-5674402D01*
X-33340714Y-5061505D01*
X-33409325Y-5005687D01*
X-33644030Y-4862961D01*
X-33895989Y-4753519D01*
X-34160509Y-4679404D01*
X-34432635Y-4642000D01*
X-34707364Y-4642000D01*
X-34979490Y-4679404D01*
X-35244010Y-4753519D01*
X-35495969Y-4862961D01*
X-35730680Y-5005691D01*
X-35799283Y-5061504D01*
X-35186387Y-5674401D01*
X-35348069Y-5796499D01*
X-35491652Y-5954001D01*
X-35542723Y-6036484D01*
X-36159457Y-5419750D01*
X-36271062Y-5577858D01*
X-36326687Y-5621976D01*
X-36397333Y-5629017D01*
X-36460572Y-5596746D01*
X-36496324Y-5535408D01*
X-36500000Y-5505196D01*
X-36500000Y-2000002D01*
X-19362932Y-2000002D01*
X-19343217Y-2363597D01*
X-19284310Y-2722926D01*
X-19186893Y-3073787D01*
X-19052118Y-3412046D01*
X-19052114Y-3412055D01*
X-18881554Y-3733768D01*
X-18881552Y-3733772D01*
X-18677205Y-4035161D01*
X-18677203Y-4035165D01*
X-18547302Y-4188093D01*
X-17300004Y-2940795D01*
X-17298430Y-2943365D01*
X-17134870Y-3134870D01*
X-16943365Y-3298430D01*
X-16940795Y-3300004D01*
X-18190865Y-4550074D01*
X-18177113Y-4563101D01*
X-17887238Y-4783458D01*
X-17887232Y-4783462D01*
X-17575227Y-4971189D01*
X-17575220Y-4971193D01*
X-17244760Y-5124081D01*
X-17244748Y-5124086D01*
X-16899689Y-5240349D01*
X-16899672Y-5240354D01*
X-16544079Y-5318626D01*
X-16544050Y-5318631D01*
X-16182072Y-5357999D01*
X-16182057Y-5358000D01*
X-15817943Y-5358000D01*
X-15817927Y-5357999D01*
X-15455949Y-5318631D01*
X-15455920Y-5318626D01*
X-15100327Y-5240354D01*
X-15100310Y-5240349D01*
X-14755251Y-5124086D01*
X-14755239Y-5124081D01*
X-14424779Y-4971193D01*
X-14424772Y-4971189D01*
X-14112767Y-4783462D01*
X-14112761Y-4783458D01*
X-13822892Y-4563105D01*
X-13809134Y-4550073D01*
X-15059203Y-3300004D01*
X-15056635Y-3298430D01*
X-14865130Y-3134870D01*
X-14701570Y-2943365D01*
X-14699994Y-2940794D01*
X-13452695Y-4188093D01*
X-13322792Y-4035158D01*
X-13118447Y-3733772D01*
X-13118445Y-3733768D01*
X-12947885Y-3412055D01*
X-12947881Y-3412046D01*
X-12813106Y-3073787D01*
X-12715689Y-2722926D01*
X-12656782Y-2363597D01*
X-12637068Y-2000002D01*
X-12637068Y-1999997D01*
X-12656782Y-1636402D01*
X-12715689Y-1277073D01*
X-12813106Y-926212D01*
X-12947881Y-587953D01*
X-12947885Y-587944D01*
X-13118445Y-266231D01*
X-13118447Y-266227D01*
X-13322792Y35158D01*
X-13322791Y35158D01*
X-13452695Y188093D01*
X-14699994Y-1059205D01*
X-14701570Y-1056635D01*
X-14865130Y-865130D01*
X-15056635Y-701570D01*
X-15059203Y-699995D01*
X-13809134Y550073D01*
X-13822892Y563105D01*
X-14112761Y783458D01*
X-14112767Y783462D01*
X-14424772Y971189D01*
X-14424779Y971193D01*
X-14755239Y1124081D01*
X-14755251Y1124086D01*
X-15100310Y1240349D01*
X-15100327Y1240354D01*
X-15455920Y1318626D01*
X-15455949Y1318631D01*
X-15817927Y1357999D01*
X-15817942Y1358000D01*
X-16182058Y1358000D01*
X-16182072Y1357999D01*
X-16544050Y1318631D01*
X-16544079Y1318626D01*
X-16899672Y1240354D01*
X-16899689Y1240349D01*
X-17244748Y1124086D01*
X-17244760Y1124081D01*
X-17575220Y971193D01*
X-17575227Y971189D01*
X-17887232Y783462D01*
X-17887238Y783458D01*
X-18177113Y563101D01*
X-18190865Y550074D01*
X-16940795Y-699995D01*
X-16943365Y-701570D01*
X-17134870Y-865130D01*
X-17298430Y-1056635D01*
X-17300004Y-1059204D01*
X-18547302Y188093D01*
X-18547303Y188093D01*
X-18677203Y35165D01*
X-18677205Y35161D01*
X-18881552Y-266227D01*
X-18881554Y-266231D01*
X-19052114Y-587944D01*
X-19052118Y-587953D01*
X-19186893Y-926212D01*
X-19284310Y-1277073D01*
X-19343217Y-1636402D01*
X-19362932Y-1999997D01*
X-19362932Y-2000002D01*
X-36500000Y-2000002D01*
X-36500000Y2573500D01*
X-36479998Y2641621D01*
X-36426342Y2688114D01*
X-36374000Y2699500D01*
X-5242470Y2699500D01*
X-5174349Y2679498D01*
G37*
%TD.AperFunction*%
%TA.AperFunction,Conductor*%
G36*
X-2352648Y-2450962D02*
G01*
X-2328170Y-2467939D01*
X-2200852Y-2580734D01*
X-2050225Y-2659790D01*
X-1885056Y-2700500D01*
X-1885053Y-2700500D01*
X-1714947Y-2700500D01*
X-1714944Y-2700500D01*
X-1706461Y-2698409D01*
X-1549778Y-2659791D01*
X-1549776Y-2659790D01*
X-1549775Y-2659790D01*
X-1399148Y-2580734D01*
X-1344348Y-2532186D01*
X-1280096Y-2501987D01*
X-1260797Y-2500500D01*
X1260797Y-2500500D01*
X1328918Y-2520502D01*
X1344346Y-2532184D01*
X1399148Y-2580734D01*
X1549775Y-2659790D01*
X1549776Y-2659790D01*
X1549778Y-2659791D01*
X1706461Y-2698409D01*
X1714944Y-2700500D01*
X1714948Y-2700500D01*
X1722508Y-2701418D01*
X1722226Y-2703735D01*
X1779327Y-2720502D01*
X1800301Y-2737405D01*
X2012595Y-2949699D01*
X2046621Y-3012011D01*
X2049500Y-3038794D01*
X2049500Y-3267621D01*
X2048708Y-3281728D01*
X2044730Y-3317036D01*
X2044730Y-3317038D01*
X2055345Y-3373139D01*
X2056134Y-3377782D01*
X2064651Y-3434287D01*
X2067160Y-3442421D01*
X2069976Y-3450468D01*
X2069977Y-3450472D01*
X2069978Y-3450475D01*
X2069979Y-3450476D01*
X2096673Y-3500983D01*
X2098796Y-3505189D01*
X2123575Y-3556642D01*
X2123576Y-3556643D01*
X2128386Y-3563699D01*
X2133432Y-3570536D01*
X2133433Y-3570537D01*
X2133434Y-3570538D01*
X2173847Y-3610951D01*
X2177065Y-3614291D01*
X2215945Y-3656194D01*
X2215947Y-3656195D01*
X2223329Y-3662082D01*
X2222788Y-3662760D01*
X2235117Y-3672221D01*
X2847801Y-4284905D01*
X2881827Y-4347217D01*
X2876762Y-4418032D01*
X2834215Y-4474868D01*
X2767695Y-4499679D01*
X2758706Y-4500000D01*
X-4874000Y-4500000D01*
X-4942121Y-4479998D01*
X-4988614Y-4426342D01*
X-5000000Y-4374000D01*
X-5000000Y-4109708D01*
X-4979998Y-4041587D01*
X-4926342Y-3995094D01*
X-4856068Y-3984990D01*
X-4814603Y-3998586D01*
X-4707608Y-4055776D01*
X-4574000Y-4096305D01*
X-4574000Y-3279650D01*
X-4545543Y-3325610D01*
X-4456038Y-3393201D01*
X-4348160Y-3423895D01*
X-4236479Y-3413546D01*
X-4136078Y-3363552D01*
X-4066000Y-3286681D01*
X-4066000Y-4096305D01*
X-3932388Y-4055775D01*
X-3757275Y-3962175D01*
X-3603788Y-3836211D01*
X-3477824Y-3682724D01*
X-3384225Y-3507614D01*
X-3384219Y-3507599D01*
X-3326585Y-3317606D01*
X-3326583Y-3317594D01*
X-3312000Y-3169526D01*
X-3312000Y-2681019D01*
X-3291998Y-2612898D01*
X-3238342Y-2566405D01*
X-3168068Y-2556301D01*
X-3137786Y-2564609D01*
X-3041280Y-2604584D01*
X-2927980Y-2619500D01*
X-2927973Y-2619500D01*
X-2852027Y-2619500D01*
X-2852020Y-2619500D01*
X-2738720Y-2604584D01*
X-2597750Y-2546192D01*
X-2495755Y-2467929D01*
X-2488417Y-2462298D01*
X-2422197Y-2436697D01*
X-2352648Y-2450962D01*
G37*
%TD.AperFunction*%
%TA.AperFunction,Conductor*%
G36*
X3465651Y2679498D02*
G01*
X3512144Y2625842D01*
X3522248Y2555568D01*
X3494928Y2493565D01*
X3477824Y2472724D01*
X3384225Y2297614D01*
X3384219Y2297599D01*
X3326585Y2107606D01*
X3326583Y2107594D01*
X3312000Y1959526D01*
X3312000Y1864000D01*
X4020000Y1864000D01*
X4020000Y1356000D01*
X3312000Y1356000D01*
X3312000Y1260473D01*
X3326583Y1112405D01*
X3326585Y1112393D01*
X3384219Y922400D01*
X3384225Y922385D01*
X3477824Y747275D01*
X3552376Y656434D01*
X3580130Y591086D01*
X3568148Y521108D01*
X3520236Y468716D01*
X3454977Y450500D01*
X-3454977Y450500D01*
X-3523098Y470502D01*
X-3569591Y524158D01*
X-3579695Y594432D01*
X-3552376Y656434D01*
X-3477824Y747275D01*
X-3384225Y922385D01*
X-3384219Y922400D01*
X-3326585Y1112393D01*
X-3326583Y1112405D01*
X-3312000Y1260473D01*
X-3312000Y1356000D01*
X-4020000Y1356000D01*
X-4020000Y1864000D01*
X-3312000Y1864000D01*
X-3312000Y1959526D01*
X-3326583Y2107594D01*
X-3326585Y2107606D01*
X-3384219Y2297599D01*
X-3384225Y2297614D01*
X-3477824Y2472724D01*
X-3494928Y2493565D01*
X-3522683Y2558912D01*
X-3510702Y2628891D01*
X-3462790Y2681283D01*
X-3397530Y2699500D01*
X3397530Y2699500D01*
X3465651Y2679498D01*
G37*
%TD.AperFunction*%
%TA.AperFunction,Conductor*%
G36*
X8384906Y2679498D02*
G01*
X8431399Y2625842D01*
X8441503Y2555568D01*
X8412009Y2490988D01*
X8405880Y2484405D01*
X6408880Y487405D01*
X6346568Y453379D01*
X6319785Y450500D01*
X5185023Y450500D01*
X5116902Y470502D01*
X5070409Y524158D01*
X5060305Y594432D01*
X5087624Y656434D01*
X5162175Y747275D01*
X5255774Y922385D01*
X5255780Y922400D01*
X5313414Y1112393D01*
X5313416Y1112405D01*
X5327999Y1260473D01*
X5328000Y1260491D01*
X5328000Y1356000D01*
X4620000Y1356000D01*
X4620000Y1864000D01*
X5328000Y1864000D01*
X5328000Y1959508D01*
X5327999Y1959526D01*
X5313416Y2107594D01*
X5313414Y2107606D01*
X5255780Y2297599D01*
X5255774Y2297614D01*
X5162175Y2472724D01*
X5145072Y2493565D01*
X5117317Y2558912D01*
X5129298Y2628891D01*
X5177210Y2681283D01*
X5242470Y2699500D01*
X8316785Y2699500D01*
X8384906Y2679498D01*
G37*
%TD.AperFunction*%
%TD*%
%TA.AperFunction,Conductor*%
%TO.N,GNDPWR*%
G36*
X50840784Y2679815D02*
G01*
X50886539Y2627011D01*
X50896483Y2557853D01*
X50875519Y2504662D01*
X50801144Y2397805D01*
X50720940Y2210907D01*
X50680000Y2011690D01*
X50680000Y1860000D01*
X51380000Y1860000D01*
X51380000Y1360000D01*
X50680000Y1360000D01*
X50680000Y1259286D01*
X50695418Y1107661D01*
X50756299Y913618D01*
X50756304Y913608D01*
X50855005Y735784D01*
X50855005Y735783D01*
X50987478Y581469D01*
X50987479Y581468D01*
X51148304Y456981D01*
X51330906Y367411D01*
X51430000Y341753D01*
X51430000Y1143889D01*
X51454457Y1104390D01*
X51543962Y1036799D01*
X51651840Y1006105D01*
X51763521Y1016454D01*
X51863922Y1066448D01*
X51930000Y1138930D01*
X51930000Y336633D01*
X51931946Y336931D01*
X51931952Y336933D01*
X52122657Y407562D01*
X52122664Y407565D01*
X52295267Y515149D01*
X52442668Y655264D01*
X52442669Y655266D01*
X52558856Y822195D01*
X52639059Y1009092D01*
X52680000Y1208309D01*
X52680000Y1360000D01*
X51980000Y1360000D01*
X51980000Y1860000D01*
X52680000Y1860000D01*
X52680000Y1960713D01*
X52664581Y2112338D01*
X52603700Y2306381D01*
X52603695Y2306391D01*
X52504994Y2484215D01*
X52504994Y2484216D01*
X52495968Y2494731D01*
X52467237Y2558421D01*
X52477500Y2627532D01*
X52523499Y2680124D01*
X52590055Y2699500D01*
X59413745Y2699500D01*
X59480784Y2679815D01*
X59526539Y2627011D01*
X59536483Y2557853D01*
X59515519Y2504662D01*
X59441144Y2397805D01*
X59360940Y2210907D01*
X59320000Y2011690D01*
X59320000Y1860000D01*
X60020000Y1860000D01*
X60020000Y1360000D01*
X59320000Y1360000D01*
X59320000Y1259286D01*
X59335418Y1107661D01*
X59396299Y913618D01*
X59396304Y913608D01*
X59495005Y735784D01*
X59495005Y735783D01*
X59627478Y581469D01*
X59627479Y581468D01*
X59788304Y456981D01*
X59970906Y367411D01*
X60070000Y341753D01*
X60070000Y1143889D01*
X60094457Y1104390D01*
X60183962Y1036799D01*
X60291840Y1006105D01*
X60403521Y1016454D01*
X60503922Y1066448D01*
X60570000Y1138930D01*
X60570000Y336633D01*
X60571946Y336931D01*
X60571952Y336933D01*
X60762657Y407562D01*
X60762664Y407565D01*
X60935267Y515149D01*
X61082668Y655264D01*
X61082669Y655266D01*
X61198856Y822195D01*
X61279059Y1009092D01*
X61320000Y1208309D01*
X61320000Y1360000D01*
X60620000Y1360000D01*
X60620000Y1860000D01*
X61320000Y1860000D01*
X61320000Y1960713D01*
X61304581Y2112338D01*
X61243700Y2306381D01*
X61243695Y2306391D01*
X61144994Y2484215D01*
X61144994Y2484216D01*
X61135968Y2494731D01*
X61107237Y2558421D01*
X61117500Y2627532D01*
X61163499Y2680124D01*
X61230055Y2699500D01*
X66952405Y2699500D01*
X66993907Y2699500D01*
X67006060Y2698903D01*
X67037215Y2695834D01*
X67124311Y2687256D01*
X67148151Y2682514D01*
X67256002Y2649798D01*
X67278461Y2640495D01*
X67377849Y2587370D01*
X67398059Y2573866D01*
X67485179Y2502369D01*
X67502369Y2485179D01*
X67573866Y2398059D01*
X67587370Y2377849D01*
X67640495Y2278461D01*
X67649798Y2256002D01*
X67682514Y2148151D01*
X67687256Y2124311D01*
X67698903Y2006062D01*
X67699500Y1993907D01*
X67699500Y308095D01*
X67679815Y241056D01*
X67627011Y195301D01*
X67570463Y184197D01*
X67539027Y185474D01*
X66297733Y-1055819D01*
X66134870Y-865130D01*
X65944180Y-702266D01*
X67188110Y541663D01*
X67188110Y541664D01*
X67171929Y556992D01*
X66882733Y776832D01*
X66882717Y776843D01*
X66571477Y964109D01*
X66571464Y964116D01*
X66241794Y1116639D01*
X66241789Y1116640D01*
X65897538Y1232632D01*
X65542764Y1310724D01*
X65181633Y1349999D01*
X65181626Y1350000D01*
X64818374Y1350000D01*
X64818366Y1349999D01*
X64457235Y1310724D01*
X64102461Y1232632D01*
X63758210Y1116640D01*
X63758205Y1116639D01*
X63428535Y964116D01*
X63428522Y964109D01*
X63117282Y776843D01*
X63117266Y776832D01*
X62828071Y556993D01*
X62828070Y556992D01*
X62811888Y541664D01*
X62811888Y541662D01*
X64055818Y-702267D01*
X63865130Y-865130D01*
X63702265Y-1055820D01*
X62460970Y185475D01*
X62460969Y185475D01*
X62329177Y30319D01*
X62329170Y30309D01*
X62125318Y-270348D01*
X62125316Y-270352D01*
X61955161Y-591297D01*
X61955152Y-591315D01*
X61820697Y-928772D01*
X61820695Y-928779D01*
X61723519Y-1278777D01*
X61723517Y-1278785D01*
X61664746Y-1637271D01*
X61645080Y-1999997D01*
X61645080Y-2000002D01*
X61664746Y-2362728D01*
X61723517Y-2721214D01*
X61723518Y-2721217D01*
X61757283Y-2842826D01*
X61756251Y-2912688D01*
X61717613Y-2970902D01*
X61653635Y-2998985D01*
X61637803Y-3000000D01*
X61444000Y-3000000D01*
X61376961Y-2980315D01*
X61331206Y-2927511D01*
X61320000Y-2876000D01*
X61320000Y-2820000D01*
X60620000Y-2820000D01*
X60620000Y-2320000D01*
X61320000Y-2320000D01*
X61320000Y-1969286D01*
X61304581Y-1817661D01*
X61243700Y-1623618D01*
X61243695Y-1623608D01*
X61144994Y-1445784D01*
X61144994Y-1445783D01*
X61012521Y-1291469D01*
X61012520Y-1291468D01*
X60851695Y-1166981D01*
X60669093Y-1077411D01*
X60570000Y-1051753D01*
X60570000Y-1853889D01*
X60545543Y-1814390D01*
X60456038Y-1746799D01*
X60348160Y-1716105D01*
X60236479Y-1726454D01*
X60136078Y-1776448D01*
X60070000Y-1848930D01*
X60070000Y-1046633D01*
X60068053Y-1046931D01*
X60068047Y-1046933D01*
X59877342Y-1117562D01*
X59877335Y-1117565D01*
X59704732Y-1225149D01*
X59557331Y-1365264D01*
X59557330Y-1365266D01*
X59441142Y-1532197D01*
X59441140Y-1532201D01*
X59439384Y-1536293D01*
X59394852Y-1590133D01*
X59328281Y-1611349D01*
X59260808Y-1593207D01*
X59249965Y-1585768D01*
X59182250Y-1533808D01*
X59182246Y-1533806D01*
X59041280Y-1475416D01*
X59041278Y-1475415D01*
X58927981Y-1460500D01*
X58927980Y-1460500D01*
X58852020Y-1460500D01*
X58852019Y-1460500D01*
X58738721Y-1475415D01*
X58738719Y-1475416D01*
X58597752Y-1533806D01*
X58524346Y-1590133D01*
X58480708Y-1623618D01*
X58476695Y-1626697D01*
X58441294Y-1672832D01*
X58384865Y-1714034D01*
X58315119Y-1718188D01*
X58267433Y-1695720D01*
X58162842Y-1615464D01*
X58016761Y-1554955D01*
X57937916Y-1544575D01*
X57874019Y-1516308D01*
X57866421Y-1509317D01*
X57531368Y-1174265D01*
X57522102Y-1163897D01*
X57508668Y-1147051D01*
X57499879Y-1136030D01*
X57499878Y-1136029D01*
X57499877Y-1136028D01*
X57472792Y-1117562D01*
X57452633Y-1103818D01*
X57448869Y-1101147D01*
X57402886Y-1067209D01*
X57395297Y-1063198D01*
X57387675Y-1059528D01*
X57333049Y-1042679D01*
X57328644Y-1041230D01*
X57325060Y-1039976D01*
X57317056Y-1037175D01*
X57274695Y-1022352D01*
X57266326Y-1020768D01*
X57257904Y-1019500D01*
X57257902Y-1019500D01*
X57200738Y-1019500D01*
X57196101Y-1019413D01*
X57194085Y-1019337D01*
X57138989Y-1017275D01*
X57129756Y-1018316D01*
X57129662Y-1017486D01*
X57114364Y-1019500D01*
X54802262Y-1019500D01*
X54788379Y-1018720D01*
X54783370Y-1018155D01*
X54752963Y-1014729D01*
X54696810Y-1025354D01*
X54692241Y-1026131D01*
X54635715Y-1034651D01*
X54627532Y-1037175D01*
X54619529Y-1039976D01*
X54568985Y-1066689D01*
X54564848Y-1068777D01*
X54513358Y-1093573D01*
X54506338Y-1098359D01*
X54499460Y-1103435D01*
X54459058Y-1143837D01*
X54455722Y-1147051D01*
X54413804Y-1185946D01*
X54408013Y-1193208D01*
X54407362Y-1192688D01*
X54397967Y-1204928D01*
X54063578Y-1539317D01*
X54002255Y-1572802D01*
X53992084Y-1574575D01*
X53913238Y-1584956D01*
X53767158Y-1645464D01*
X53721112Y-1680796D01*
X53655943Y-1705989D01*
X53587498Y-1691950D01*
X53547252Y-1657906D01*
X53523304Y-1626696D01*
X53402250Y-1533808D01*
X53402249Y-1533807D01*
X53402247Y-1533806D01*
X53261280Y-1475416D01*
X53261278Y-1475415D01*
X53147981Y-1460500D01*
X53147980Y-1460500D01*
X53072020Y-1460500D01*
X53072019Y-1460500D01*
X52958721Y-1475415D01*
X52958719Y-1475416D01*
X52817752Y-1533806D01*
X52817749Y-1533808D01*
X52746781Y-1588264D01*
X52681612Y-1613458D01*
X52613167Y-1599419D01*
X52563177Y-1550605D01*
X52562876Y-1550066D01*
X52504994Y-1445784D01*
X52504994Y-1445783D01*
X52372521Y-1291469D01*
X52372520Y-1291468D01*
X52211695Y-1166981D01*
X52029093Y-1077411D01*
X51930000Y-1051753D01*
X51930000Y-1853889D01*
X51905543Y-1814390D01*
X51816038Y-1746799D01*
X51708160Y-1716105D01*
X51596479Y-1726454D01*
X51496078Y-1776448D01*
X51430000Y-1848930D01*
X51430000Y-1046633D01*
X51428053Y-1046931D01*
X51428047Y-1046933D01*
X51237342Y-1117562D01*
X51237335Y-1117565D01*
X51064732Y-1225149D01*
X50917331Y-1365264D01*
X50917330Y-1365266D01*
X50801143Y-1532195D01*
X50720940Y-1719092D01*
X50680000Y-1918309D01*
X50680000Y-2320000D01*
X51380000Y-2320000D01*
X51380000Y-2820000D01*
X50680000Y-2820000D01*
X50680000Y-2876000D01*
X50660315Y-2943039D01*
X50607511Y-2988794D01*
X50556000Y-3000000D01*
X49362197Y-3000000D01*
X49295158Y-2980315D01*
X49249403Y-2927511D01*
X49239459Y-2858353D01*
X49242717Y-2842826D01*
X49276481Y-2721217D01*
X49276482Y-2721214D01*
X49335253Y-2362728D01*
X49354920Y-2000002D01*
X49354920Y-1999997D01*
X49335253Y-1637271D01*
X49276482Y-1278785D01*
X49276480Y-1278777D01*
X49179304Y-928779D01*
X49179302Y-928772D01*
X49044847Y-591315D01*
X49044838Y-591297D01*
X48874683Y-270352D01*
X48874681Y-270348D01*
X48670838Y30297D01*
X48670827Y30311D01*
X48539028Y185475D01*
X47297733Y-1055819D01*
X47134870Y-865130D01*
X46944180Y-702266D01*
X48188110Y541663D01*
X48188110Y541664D01*
X48171929Y556992D01*
X47882733Y776832D01*
X47882717Y776843D01*
X47571477Y964109D01*
X47571464Y964116D01*
X47241794Y1116639D01*
X47241789Y1116640D01*
X46897538Y1232632D01*
X46542764Y1310724D01*
X46181633Y1349999D01*
X46181626Y1350000D01*
X45818374Y1350000D01*
X45818366Y1349999D01*
X45457235Y1310724D01*
X45102461Y1232632D01*
X44758210Y1116640D01*
X44758205Y1116639D01*
X44428535Y964116D01*
X44428522Y964109D01*
X44117282Y776843D01*
X44117266Y776832D01*
X43828071Y556993D01*
X43828070Y556992D01*
X43811888Y541664D01*
X43811888Y541662D01*
X45055818Y-702267D01*
X44865130Y-865130D01*
X44702265Y-1055820D01*
X43460970Y185475D01*
X43460969Y185475D01*
X43329177Y30319D01*
X43329170Y30309D01*
X43125318Y-270348D01*
X43125316Y-270352D01*
X42955161Y-591297D01*
X42955152Y-591315D01*
X42820697Y-928772D01*
X42820695Y-928779D01*
X42723519Y-1278777D01*
X42723517Y-1278785D01*
X42664746Y-1637271D01*
X42645080Y-1999997D01*
X42645080Y-2000002D01*
X42664746Y-2362728D01*
X42723517Y-2721214D01*
X42723519Y-2721222D01*
X42820695Y-3071220D01*
X42820697Y-3071227D01*
X42955152Y-3408684D01*
X42955161Y-3408702D01*
X43125316Y-3729647D01*
X43125318Y-3729651D01*
X43329170Y-4030309D01*
X43329177Y-4030319D01*
X43460969Y-4185475D01*
X43460970Y-4185475D01*
X44702265Y-2944179D01*
X44865130Y-3134870D01*
X45055818Y-3297732D01*
X43811888Y-4541662D01*
X43811888Y-4541664D01*
X43828070Y-4556992D01*
X43828071Y-4556993D01*
X44117266Y-4776832D01*
X44117282Y-4776843D01*
X44428522Y-4964109D01*
X44428535Y-4964116D01*
X44758205Y-5116639D01*
X44758210Y-5116640D01*
X45102461Y-5232632D01*
X45457235Y-5310724D01*
X45818366Y-5349999D01*
X45818374Y-5350000D01*
X46181626Y-5350000D01*
X46181633Y-5349999D01*
X46542764Y-5310724D01*
X46897538Y-5232632D01*
X47241789Y-5116640D01*
X47241794Y-5116639D01*
X47571464Y-4964116D01*
X47571477Y-4964109D01*
X47882717Y-4776843D01*
X47882733Y-4776832D01*
X48171929Y-4556992D01*
X48188110Y-4541664D01*
X48188110Y-4541663D01*
X46944180Y-3297733D01*
X47134870Y-3134870D01*
X47297733Y-2944180D01*
X48539028Y-4185475D01*
X48539029Y-4185475D01*
X48670827Y-4030311D01*
X48670829Y-4030309D01*
X48773366Y-3879079D01*
X48827281Y-3834638D01*
X48896663Y-3826400D01*
X48959485Y-3856980D01*
X48995801Y-3916671D01*
X49000000Y-3948666D01*
X49000000Y-5046008D01*
X48999096Y-5060954D01*
X48994564Y-5098282D01*
X48994355Y-5100000D01*
X48998328Y-5132724D01*
X48999096Y-5139044D01*
X49000000Y-5153991D01*
X49000000Y-5876000D01*
X48980315Y-5943039D01*
X48927511Y-5988794D01*
X48876000Y-6000000D01*
X48096675Y-6000000D01*
X48088403Y-5999500D01*
X48085056Y-5999500D01*
X47914944Y-5999500D01*
X47911597Y-5999500D01*
X47903325Y-6000000D01*
X42000000Y-6000000D01*
X42000000Y2699500D01*
X50773745Y2699500D01*
X50840784Y2679815D01*
G37*
%TD.AperFunction*%
%TA.AperFunction,Conductor*%
G36*
X63865130Y-3134870D02*
G01*
X64055818Y-3297732D01*
X62811888Y-4541662D01*
X62811888Y-4541664D01*
X62828070Y-4556992D01*
X62828071Y-4556993D01*
X63117860Y-4777284D01*
X63159318Y-4833526D01*
X63163787Y-4903252D01*
X63129850Y-4964326D01*
X63068282Y-4997358D01*
X63042819Y-5000000D01*
X62124000Y-5000000D01*
X62056961Y-4980315D01*
X62011206Y-4927511D01*
X62000000Y-4876000D01*
X62000000Y-3948666D01*
X62019685Y-3881627D01*
X62072489Y-3835872D01*
X62141647Y-3825928D01*
X62205203Y-3854953D01*
X62226633Y-3879079D01*
X62329170Y-4030309D01*
X62329177Y-4030319D01*
X62460969Y-4185475D01*
X62460970Y-4185475D01*
X63702265Y-2944179D01*
X63865130Y-3134870D01*
G37*
%TD.AperFunction*%
%TA.AperFunction,Conductor*%
G36*
X67539027Y-4185474D02*
G01*
X67570463Y-4184197D01*
X67638247Y-4201143D01*
X67686109Y-4252045D01*
X67699500Y-4308095D01*
X67699500Y-4876000D01*
X67679815Y-4943039D01*
X67627011Y-4988794D01*
X67575500Y-5000000D01*
X66957181Y-5000000D01*
X66890142Y-4980315D01*
X66844387Y-4927511D01*
X66834443Y-4858353D01*
X66863468Y-4794797D01*
X66882139Y-4777284D01*
X67171933Y-4556988D01*
X67188110Y-4541664D01*
X67188110Y-4541663D01*
X65944180Y-3297733D01*
X66134870Y-3134870D01*
X66297733Y-2944180D01*
X67539027Y-4185474D01*
G37*
%TD.AperFunction*%
%TD*%
M02*
