%TF.GenerationSoftware,KiCad,Pcbnew,7.0.10*%
%TF.CreationDate,2024-01-15T00:01:57-05:00*%
%TF.ProjectId,Thinkpad-USB-keyboard-PCB,5468696e-6b70-4616-942d-5553422d6b65,rev?*%
%TF.SameCoordinates,Original*%
%TF.FileFunction,Paste,Top*%
%TF.FilePolarity,Positive*%
%FSLAX46Y46*%
G04 Gerber Fmt 4.6, Leading zero omitted, Abs format (unit mm)*
G04 Created by KiCad (PCBNEW 7.0.10) date 2024-01-15 00:01:57*
%MOMM*%
%LPD*%
G01*
G04 APERTURE LIST*
G04 Aperture macros list*
%AMRoundRect*
0 Rectangle with rounded corners*
0 $1 Rounding radius*
0 $2 $3 $4 $5 $6 $7 $8 $9 X,Y pos of 4 corners*
0 Add a 4 corners polygon primitive as box body*
4,1,4,$2,$3,$4,$5,$6,$7,$8,$9,$2,$3,0*
0 Add four circle primitives for the rounded corners*
1,1,$1+$1,$2,$3*
1,1,$1+$1,$4,$5*
1,1,$1+$1,$6,$7*
1,1,$1+$1,$8,$9*
0 Add four rect primitives between the rounded corners*
20,1,$1+$1,$2,$3,$4,$5,0*
20,1,$1+$1,$4,$5,$6,$7,0*
20,1,$1+$1,$6,$7,$8,$9,0*
20,1,$1+$1,$8,$9,$2,$3,0*%
%AMRotRect*
0 Rectangle, with rotation*
0 The origin of the aperture is its center*
0 $1 length*
0 $2 width*
0 $3 Rotation angle, in degrees counterclockwise*
0 Add horizontal line*
21,1,$1,$2,0,0,$3*%
G04 Aperture macros list end*
%ADD10RoundRect,0.250000X0.450000X-0.350000X0.450000X0.350000X-0.450000X0.350000X-0.450000X-0.350000X0*%
%ADD11RoundRect,0.250000X0.167938X-0.751301X0.751301X-0.167938X-0.167938X0.751301X-0.751301X0.167938X0*%
%ADD12RoundRect,0.155000X0.259862X-0.040659X-0.040659X0.259862X-0.259862X0.040659X0.040659X-0.259862X0*%
%ADD13RoundRect,0.250000X0.751301X0.167938X0.167938X0.751301X-0.751301X-0.167938X-0.167938X-0.751301X0*%
%ADD14RoundRect,0.250000X0.412500X0.650000X-0.412500X0.650000X-0.412500X-0.650000X0.412500X-0.650000X0*%
%ADD15RoundRect,0.150000X0.150000X-0.512500X0.150000X0.512500X-0.150000X0.512500X-0.150000X-0.512500X0*%
%ADD16RoundRect,0.155000X0.155000X-0.212500X0.155000X0.212500X-0.155000X0.212500X-0.155000X-0.212500X0*%
%ADD17RoundRect,0.250000X0.700000X-0.275000X0.700000X0.275000X-0.700000X0.275000X-0.700000X-0.275000X0*%
%ADD18RoundRect,0.150000X-0.150000X0.587500X-0.150000X-0.587500X0.150000X-0.587500X0.150000X0.587500X0*%
%ADD19RoundRect,0.237500X-0.344715X0.008839X0.008839X-0.344715X0.344715X-0.008839X-0.008839X0.344715X0*%
%ADD20RoundRect,0.237500X-0.250000X-0.237500X0.250000X-0.237500X0.250000X0.237500X-0.250000X0.237500X0*%
%ADD21RoundRect,0.250000X0.565685X0.070711X0.070711X0.565685X-0.565685X-0.070711X-0.070711X-0.565685X0*%
%ADD22RoundRect,0.250000X-0.350000X-0.450000X0.350000X-0.450000X0.350000X0.450000X-0.350000X0.450000X0*%
%ADD23RoundRect,0.250000X-0.650000X0.412500X-0.650000X-0.412500X0.650000X-0.412500X0.650000X0.412500X0*%
%ADD24R,0.600000X1.450000*%
%ADD25R,0.300000X1.450000*%
%ADD26RoundRect,0.250000X-0.412500X-0.650000X0.412500X-0.650000X0.412500X0.650000X-0.412500X0.650000X0*%
%ADD27RoundRect,0.150000X-0.150000X0.512500X-0.150000X-0.512500X0.150000X-0.512500X0.150000X0.512500X0*%
%ADD28RoundRect,0.155000X-0.259862X0.040659X0.040659X-0.259862X0.259862X-0.040659X-0.040659X0.259862X0*%
%ADD29RoundRect,0.155000X-0.040659X-0.259862X0.259862X0.040659X0.040659X0.259862X-0.259862X-0.040659X0*%
%ADD30RoundRect,0.250000X0.350000X0.450000X-0.350000X0.450000X-0.350000X-0.450000X0.350000X-0.450000X0*%
%ADD31RoundRect,0.225000X-0.225000X-0.375000X0.225000X-0.375000X0.225000X0.375000X-0.225000X0.375000X0*%
%ADD32RoundRect,0.225000X-0.375000X0.225000X-0.375000X-0.225000X0.375000X-0.225000X0.375000X0.225000X0*%
%ADD33R,2.000000X1.500000*%
%ADD34R,2.000000X3.800000*%
%ADD35RoundRect,0.237500X0.380070X-0.044194X-0.044194X0.380070X-0.380070X0.044194X0.044194X-0.380070X0*%
%ADD36RoundRect,0.247500X0.247500X-0.247500X0.247500X0.247500X-0.247500X0.247500X-0.247500X-0.247500X0*%
%ADD37RoundRect,0.062500X0.062500X-0.350000X0.062500X0.350000X-0.062500X0.350000X-0.062500X-0.350000X0*%
%ADD38RoundRect,0.062500X0.350000X-0.062500X0.350000X0.062500X-0.350000X0.062500X-0.350000X-0.062500X0*%
%ADD39R,2.100000X1.800000*%
%ADD40RoundRect,0.155000X-0.212500X-0.155000X0.212500X-0.155000X0.212500X0.155000X-0.212500X0.155000X0*%
%ADD41RoundRect,0.155000X-0.155000X0.212500X-0.155000X-0.212500X0.155000X-0.212500X0.155000X0.212500X0*%
%ADD42RoundRect,0.250000X0.375000X0.625000X-0.375000X0.625000X-0.375000X-0.625000X0.375000X-0.625000X0*%
%ADD43RoundRect,0.150000X0.309359X0.521491X-0.521491X-0.309359X-0.309359X-0.521491X0.521491X0.309359X0*%
%ADD44RoundRect,0.155000X0.040659X0.259862X-0.259862X-0.040659X-0.040659X-0.259862X0.259862X0.040659X0*%
%ADD45RotRect,2.100000X1.800000X135.000000*%
%ADD46RoundRect,0.250000X-0.475000X0.337500X-0.475000X-0.337500X0.475000X-0.337500X0.475000X0.337500X0*%
%ADD47RoundRect,0.150000X0.150000X-0.650000X0.150000X0.650000X-0.150000X0.650000X-0.150000X-0.650000X0*%
%ADD48RoundRect,0.237500X0.250000X0.237500X-0.250000X0.237500X-0.250000X-0.237500X0.250000X-0.237500X0*%
%ADD49RoundRect,0.249999X0.000000X-0.558616X0.558616X0.000000X0.000000X0.558616X-0.558616X0.000000X0*%
%ADD50RoundRect,0.050000X-0.238649X-0.309359X0.309359X0.238649X0.238649X0.309359X-0.309359X-0.238649X0*%
%ADD51RoundRect,0.050000X0.238649X-0.309359X0.309359X-0.238649X-0.238649X0.309359X-0.309359X0.238649X0*%
%ADD52RoundRect,0.075000X-0.825000X-0.075000X0.825000X-0.075000X0.825000X0.075000X-0.825000X0.075000X0*%
%ADD53RoundRect,0.200000X-1.000000X-0.450000X1.000000X-0.450000X1.000000X0.450000X-1.000000X0.450000X0*%
%ADD54RoundRect,0.250000X-0.450000X0.350000X-0.450000X-0.350000X0.450000X-0.350000X0.450000X0.350000X0*%
G04 APERTURE END LIST*
D10*
%TO.C,R19*%
X3900000Y-19000000D03*
X3900000Y-17000000D03*
%TD*%
D11*
%TO.C,C34*%
X41985146Y-44284854D03*
X44194854Y-42075146D03*
%TD*%
D10*
%TO.C,R18*%
X19390000Y-49820000D03*
X19390000Y-47820000D03*
%TD*%
D12*
%TO.C,C31*%
X28791283Y-33646126D03*
X27988717Y-32843560D03*
%TD*%
D13*
%TO.C,C25*%
X35604854Y-24104854D03*
X33395146Y-21895146D03*
%TD*%
D14*
%TO.C,C18*%
X-21142500Y-13670000D03*
X-24267500Y-13670000D03*
%TD*%
D15*
%TO.C,U4*%
X55420000Y-9235000D03*
X56370000Y-9235000D03*
X57320000Y-9235000D03*
X57320000Y-6960000D03*
X56370000Y-6960000D03*
X55420000Y-6960000D03*
%TD*%
D16*
%TO.C,C7*%
X14710000Y-15297500D03*
X14710000Y-14162500D03*
%TD*%
D17*
%TO.C,L1*%
X8000000Y-5575000D03*
X8000000Y-2425000D03*
%TD*%
D18*
%TO.C,Q3*%
X62210000Y-46922500D03*
X60310000Y-46922500D03*
X61260000Y-48797500D03*
%TD*%
D19*
%TO.C,R4*%
X33044765Y-38354765D03*
X34335235Y-39645235D03*
%TD*%
D20*
%TO.C,R21*%
X34067500Y-43484843D03*
X35892500Y-43484843D03*
%TD*%
D10*
%TO.C,R12*%
X-15400000Y-11100000D03*
X-15400000Y-9100000D03*
%TD*%
D21*
%TO.C,R10*%
X28707107Y-50607107D03*
X27292893Y-49192893D03*
%TD*%
D12*
%TO.C,C11*%
X30190000Y-28554843D03*
X29387434Y-27752277D03*
%TD*%
D22*
%TO.C,R6*%
X5475000Y-9825000D03*
X7475000Y-9825000D03*
%TD*%
D23*
%TO.C,C15*%
X-7810000Y-18337500D03*
X-7810000Y-21462500D03*
%TD*%
D24*
%TO.C,J7*%
X59250000Y-3485000D03*
X58450000Y-3485000D03*
D25*
X57250000Y-3485000D03*
X56250000Y-3485000D03*
X55750000Y-3485000D03*
X54750000Y-3485000D03*
D24*
X53550000Y-3485000D03*
X52750000Y-3485000D03*
X52750000Y-3485000D03*
X53550000Y-3485000D03*
D25*
X54250000Y-3485000D03*
X55250000Y-3485000D03*
X56750000Y-3485000D03*
X57750000Y-3485000D03*
D24*
X58450000Y-3485000D03*
X59250000Y-3485000D03*
%TD*%
D26*
%TO.C,C14*%
X-7592500Y-13310000D03*
X-4467500Y-13310000D03*
%TD*%
D27*
%TO.C,U10*%
X1450000Y-7662500D03*
X500000Y-7662500D03*
X-450000Y-7662500D03*
X-450000Y-9937500D03*
X500000Y-9937500D03*
X1450000Y-9937500D03*
%TD*%
D28*
%TO.C,C28*%
X40940290Y-34271987D03*
X41742856Y-35074553D03*
%TD*%
D14*
%TO.C,C17*%
X-20887500Y-16390000D03*
X-24012500Y-16390000D03*
%TD*%
D29*
%TO.C,C9*%
X41880290Y-42044553D03*
X42682856Y-41241987D03*
%TD*%
D14*
%TO.C,C33*%
X65157500Y-11975000D03*
X62032500Y-11975000D03*
%TD*%
D30*
%TO.C,R9*%
X53500000Y-5960000D03*
X51500000Y-5960000D03*
%TD*%
D31*
%TO.C,D1*%
X-9450000Y-6900000D03*
X-6150000Y-6900000D03*
%TD*%
D10*
%TO.C,R16*%
X56000000Y-43800000D03*
X56000000Y-41800000D03*
%TD*%
D23*
%TO.C,C19*%
X-12630000Y-8007500D03*
X-12630000Y-11132500D03*
%TD*%
D22*
%TO.C,R8*%
X58740000Y-5810000D03*
X60740000Y-5810000D03*
%TD*%
D32*
%TO.C,D4*%
X-9820000Y-12902500D03*
X-9820000Y-16202500D03*
%TD*%
D33*
%TO.C,U8*%
X-12340000Y-18030000D03*
X-12340000Y-15730000D03*
D34*
X-18640000Y-15730000D03*
D33*
X-12340000Y-13430000D03*
%TD*%
D35*
%TO.C,C29*%
X33873566Y-25318307D03*
X32653806Y-24098547D03*
%TD*%
D16*
%TO.C,C10*%
X5725000Y-13192500D03*
X5725000Y-12057500D03*
%TD*%
D28*
%TO.C,R13*%
X31198717Y-26673560D03*
X32001283Y-27476126D03*
%TD*%
D36*
%TO.C,U3*%
X9020000Y-17230000D03*
X10250000Y-17230000D03*
X11480000Y-17230000D03*
X9020000Y-16000000D03*
X10250000Y-16000000D03*
X11480000Y-16000000D03*
X9020000Y-14770000D03*
X10250000Y-14770000D03*
X11480000Y-14770000D03*
D37*
X8250000Y-18937500D03*
X8750000Y-18937500D03*
X9250000Y-18937500D03*
X9750000Y-18937500D03*
X10250000Y-18937500D03*
X10750000Y-18937500D03*
X11250000Y-18937500D03*
X11750000Y-18937500D03*
X12250000Y-18937500D03*
D38*
X13187500Y-18000000D03*
X13187500Y-17500000D03*
X13187500Y-17000000D03*
X13187500Y-16500000D03*
X13187500Y-16000000D03*
X13187500Y-15500000D03*
X13187500Y-15000000D03*
X13187500Y-14500000D03*
X13187500Y-14000000D03*
D37*
X12250000Y-13062500D03*
X11750000Y-13062500D03*
X11250000Y-13062500D03*
X10750000Y-13062500D03*
X10250000Y-13062500D03*
X9750000Y-13062500D03*
X9250000Y-13062500D03*
X8750000Y-13062500D03*
X8250000Y-13062500D03*
D38*
X7312500Y-14000000D03*
X7312500Y-14500000D03*
X7312500Y-15000000D03*
X7312500Y-15500000D03*
X7312500Y-16000000D03*
X7312500Y-16500000D03*
X7312500Y-17000000D03*
X7312500Y-17500000D03*
X7312500Y-18000000D03*
%TD*%
D39*
%TO.C,Y1*%
X-1450000Y-20150000D03*
X1450000Y-20150000D03*
X1450000Y-17850000D03*
X-1450000Y-17850000D03*
%TD*%
D40*
%TO.C,C8*%
X15062500Y-17250000D03*
X16197500Y-17250000D03*
%TD*%
D28*
%TO.C,C13*%
X10768717Y-22268717D03*
X11571283Y-23071283D03*
%TD*%
D41*
%TO.C,C6*%
X5775000Y-19382500D03*
X5775000Y-20517500D03*
%TD*%
D42*
%TO.C,F1*%
X-4700000Y-9460000D03*
X-7500000Y-9460000D03*
%TD*%
D22*
%TO.C,R5*%
X1400000Y-23100000D03*
X3400000Y-23100000D03*
%TD*%
D43*
%TO.C,Q2*%
X28940000Y-44634843D03*
X27596497Y-43291340D03*
X26942423Y-45288917D03*
%TD*%
D44*
%TO.C,C23*%
X31381283Y-36898717D03*
X30578717Y-37701283D03*
%TD*%
D45*
%TO.C,Y2*%
X41790051Y-39445402D03*
X39739441Y-37394792D03*
X38113095Y-39021138D03*
X40163705Y-41071748D03*
%TD*%
D46*
%TO.C,R17*%
X19100000Y-37115000D03*
X19100000Y-39190000D03*
%TD*%
D28*
%TO.C,C24*%
X40220290Y-34991987D03*
X41022856Y-35794553D03*
%TD*%
D22*
%TO.C,R15*%
X17200000Y-35190000D03*
X19200000Y-35190000D03*
%TD*%
D32*
%TO.C,D3*%
X-9100000Y-1450000D03*
X-9100000Y-4750000D03*
%TD*%
D21*
%TO.C,R14*%
X43668680Y-38150377D03*
X42254466Y-36736163D03*
%TD*%
D47*
%TO.C,U6*%
X21475000Y-35214843D03*
X22745000Y-35214843D03*
X24015000Y-35214843D03*
X25285000Y-35214843D03*
X25285000Y-28014843D03*
X24015000Y-28014843D03*
X22745000Y-28014843D03*
X21475000Y-28014843D03*
%TD*%
D26*
%TO.C,C16*%
X-7552500Y-16140000D03*
X-4427500Y-16140000D03*
%TD*%
D23*
%TO.C,C1*%
X15200000Y-9362500D03*
X15200000Y-12487500D03*
%TD*%
D40*
%TO.C,C12*%
X11657500Y-11475000D03*
X12792500Y-11475000D03*
%TD*%
D48*
%TO.C,R23*%
X61180000Y-51130000D03*
X59355000Y-51130000D03*
%TD*%
D40*
%TO.C,C30*%
X38912500Y-29824843D03*
X40047500Y-29824843D03*
%TD*%
D24*
%TO.C,J1*%
X3250000Y-3485000D03*
X2450000Y-3485000D03*
D25*
X1250000Y-3485000D03*
X250000Y-3485000D03*
X-250000Y-3485000D03*
X-1250000Y-3485000D03*
D24*
X-2450000Y-3485000D03*
X-3250000Y-3485000D03*
X-3250000Y-3485000D03*
X-2450000Y-3485000D03*
D25*
X-1750000Y-3485000D03*
X-750000Y-3485000D03*
X750000Y-3485000D03*
X1750000Y-3485000D03*
D24*
X2450000Y-3485000D03*
X3250000Y-3485000D03*
%TD*%
D30*
%TO.C,R2*%
X-2080000Y-5750000D03*
X-4080000Y-5750000D03*
%TD*%
D12*
%TO.C,C27*%
X29240000Y-29004843D03*
X28437434Y-28202277D03*
%TD*%
D49*
%TO.C,U2*%
X33082315Y-32389798D03*
X34213686Y-33521169D03*
X34213686Y-31258427D03*
X35345057Y-32389798D03*
D50*
X29944529Y-32982000D03*
X30227372Y-33264843D03*
X30510214Y-33547685D03*
X30793057Y-33830528D03*
X31075900Y-34113371D03*
X31358742Y-34396213D03*
X31641585Y-34679056D03*
X31924428Y-34961899D03*
X32207271Y-35244742D03*
X32490113Y-35527584D03*
X32772956Y-35810427D03*
X33055799Y-36093270D03*
X33338641Y-36376112D03*
X33621484Y-36658955D03*
D51*
X34805888Y-36658955D03*
X35088731Y-36376112D03*
X35371573Y-36093270D03*
X35654416Y-35810427D03*
X35937259Y-35527584D03*
X36220101Y-35244742D03*
X36502944Y-34961899D03*
X36785787Y-34679056D03*
X37068630Y-34396213D03*
X37351472Y-34113371D03*
X37634315Y-33830528D03*
X37917158Y-33547685D03*
X38200000Y-33264843D03*
X38482843Y-32982000D03*
D50*
X38482843Y-31797596D03*
X38200000Y-31514753D03*
X37917158Y-31231911D03*
X37634315Y-30949068D03*
X37351472Y-30666225D03*
X37068630Y-30383383D03*
X36785787Y-30100540D03*
X36502944Y-29817697D03*
X36220101Y-29534854D03*
X35937259Y-29252012D03*
X35654416Y-28969169D03*
X35371573Y-28686326D03*
X35088731Y-28403484D03*
X34805888Y-28120641D03*
D51*
X33621484Y-28120641D03*
X33338641Y-28403484D03*
X33055799Y-28686326D03*
X32772956Y-28969169D03*
X32490113Y-29252012D03*
X32207271Y-29534854D03*
X31924428Y-29817697D03*
X31641585Y-30100540D03*
X31358742Y-30383383D03*
X31075900Y-30666225D03*
X30793057Y-30949068D03*
X30510214Y-31231911D03*
X30227372Y-31514753D03*
X29944529Y-31797596D03*
%TD*%
D20*
%TO.C,R22*%
X60320000Y-44730000D03*
X62145000Y-44730000D03*
%TD*%
D40*
%TO.C,C4*%
X-1192500Y-15725000D03*
X-57500Y-15725000D03*
%TD*%
D23*
%TO.C,C32*%
X18120000Y-28425000D03*
X18120000Y-31550000D03*
%TD*%
D41*
%TO.C,C26*%
X19930000Y-28017343D03*
X19930000Y-29152343D03*
%TD*%
%TO.C,C3*%
X-3380000Y-18482500D03*
X-3380000Y-19617500D03*
%TD*%
D15*
%TO.C,U5*%
X26950000Y-16075000D03*
X27900000Y-16075000D03*
X28850000Y-16075000D03*
X28850000Y-13800000D03*
X27900000Y-13800000D03*
X26950000Y-13800000D03*
%TD*%
D19*
%TO.C,R20*%
X31650000Y-39084843D03*
X32940470Y-40375313D03*
%TD*%
D14*
%TO.C,C20*%
X36637500Y-13350000D03*
X33512500Y-13350000D03*
%TD*%
D52*
%TO.C,J6*%
X31500000Y-57750000D03*
X37700000Y-57750000D03*
X31500000Y-57250000D03*
X37700000Y-57250000D03*
X31500000Y-56750000D03*
X37700000Y-56750000D03*
X31500000Y-56250000D03*
X37700000Y-56250000D03*
X31500000Y-55750000D03*
X37700000Y-55750000D03*
X31500000Y-55250000D03*
X37700000Y-55250000D03*
X31500000Y-54750000D03*
X37700000Y-54750000D03*
X31500000Y-54250000D03*
X37700000Y-54250000D03*
X31500000Y-53750000D03*
X37700000Y-53750000D03*
X31500000Y-53250000D03*
X37700000Y-53250000D03*
X31500000Y-52750000D03*
X37700000Y-52750000D03*
X31500000Y-52250000D03*
X37700000Y-52250000D03*
X31500000Y-51750000D03*
X37700000Y-51750000D03*
X31500000Y-51250000D03*
X37700000Y-51250000D03*
X31500000Y-50750000D03*
X37700000Y-50750000D03*
X31500000Y-50250000D03*
X37700000Y-50250000D03*
X31500000Y-49750000D03*
X37700000Y-49750000D03*
X31500000Y-49250000D03*
X37700000Y-49250000D03*
X31500000Y-48750000D03*
X37700000Y-48750000D03*
X31500000Y-48250000D03*
X37700000Y-48250000D03*
D53*
X31800000Y-47050000D03*
X31800000Y-58950000D03*
X37400000Y-47050000D03*
X37400000Y-58950000D03*
%TD*%
D20*
%TO.C,R11*%
X32937500Y-45084843D03*
X34762500Y-45084843D03*
%TD*%
D29*
%TO.C,C22*%
X35578717Y-26996126D03*
X36381283Y-26193560D03*
%TD*%
D35*
%TO.C,C21*%
X32723566Y-26418307D03*
X31503806Y-25198547D03*
%TD*%
D22*
%TO.C,R1*%
X2700000Y-5750000D03*
X4700000Y-5750000D03*
%TD*%
D15*
%TO.C,U1*%
X-28850000Y-15737500D03*
X-27900000Y-15737500D03*
X-26950000Y-15737500D03*
X-26950000Y-13462500D03*
X-27900000Y-13462500D03*
X-28850000Y-13462500D03*
%TD*%
D28*
%TO.C,R3*%
X30488717Y-27393560D03*
X31291283Y-28196126D03*
%TD*%
D43*
%TO.C,Q1*%
X32404664Y-42513682D03*
X31061161Y-41170179D03*
X30407087Y-43167756D03*
%TD*%
D12*
%TO.C,C5*%
X38344139Y-41695836D03*
X37541573Y-40893270D03*
%TD*%
D23*
%TO.C,C2*%
X18430000Y-13477500D03*
X18430000Y-16602500D03*
%TD*%
D54*
%TO.C,R7*%
X9450000Y-9350000D03*
X9450000Y-11350000D03*
%TD*%
M02*
