%TF.GenerationSoftware,KiCad,Pcbnew,7.0.10*%
%TF.CreationDate,2024-01-15T01:50:30-05:00*%
%TF.ProjectId,Keyboard-connector-breakout,4b657962-6f61-4726-942d-636f6e6e6563,rev?*%
%TF.SameCoordinates,Original*%
%TF.FileFunction,Soldermask,Top*%
%TF.FilePolarity,Negative*%
%FSLAX46Y46*%
G04 Gerber Fmt 4.6, Leading zero omitted, Abs format (unit mm)*
G04 Created by KiCad (PCBNEW 7.0.10) date 2024-01-15 01:50:30*
%MOMM*%
%LPD*%
G01*
G04 APERTURE LIST*
G04 Aperture macros list*
%AMRoundRect*
0 Rectangle with rounded corners*
0 $1 Rounding radius*
0 $2 $3 $4 $5 $6 $7 $8 $9 X,Y pos of 4 corners*
0 Add a 4 corners polygon primitive as box body*
4,1,4,$2,$3,$4,$5,$6,$7,$8,$9,$2,$3,0*
0 Add four circle primitives for the rounded corners*
1,1,$1+$1,$2,$3*
1,1,$1+$1,$4,$5*
1,1,$1+$1,$6,$7*
1,1,$1+$1,$8,$9*
0 Add four rect primitives between the rounded corners*
20,1,$1+$1,$2,$3,$4,$5,0*
20,1,$1+$1,$4,$5,$6,$7,0*
20,1,$1+$1,$6,$7,$8,$9,0*
20,1,$1+$1,$8,$9,$2,$3,0*%
G04 Aperture macros list end*
%ADD10C,3.200000*%
%ADD11RoundRect,0.075000X-0.825000X-0.075000X0.825000X-0.075000X0.825000X0.075000X-0.825000X0.075000X0*%
%ADD12RoundRect,0.200000X-1.000000X-0.450000X1.000000X-0.450000X1.000000X0.450000X-1.000000X0.450000X0*%
%ADD13R,1.700000X1.700000*%
%ADD14O,1.700000X1.700000*%
G04 APERTURE END LIST*
D10*
%TO.C,H3*%
X157900000Y-73540000D03*
%TD*%
D11*
%TO.C,J1*%
X-3100000Y-4750000D03*
X3100000Y-4750000D03*
X-3100000Y-4250000D03*
X3100000Y-4250000D03*
X-3100000Y-3750000D03*
X3100000Y-3750000D03*
X-3100000Y-3250000D03*
X3100000Y-3250000D03*
X-3100000Y-2750000D03*
X3100000Y-2750000D03*
X-3100000Y-2250000D03*
X3100000Y-2250000D03*
X-3100000Y-1750000D03*
X3100000Y-1750000D03*
X-3100000Y-1250000D03*
X3100000Y-1250000D03*
X-3100000Y-750000D03*
X3100000Y-750000D03*
X-3100000Y-250000D03*
X3100000Y-250000D03*
X-3100000Y250000D03*
X3100000Y250000D03*
X-3100000Y750000D03*
X3100000Y750000D03*
X-3100000Y1250000D03*
X3100000Y1250000D03*
X-3100000Y1750000D03*
X3100000Y1750000D03*
X-3100000Y2250000D03*
X3100000Y2250000D03*
X-3100000Y2750000D03*
X3100000Y2750000D03*
X-3100000Y3250000D03*
X3100000Y3250000D03*
X-3100000Y3750000D03*
X3100000Y3750000D03*
X-3100000Y4250000D03*
X3100000Y4250000D03*
X-3100000Y4750000D03*
X3100000Y4750000D03*
D12*
X-2800000Y5950000D03*
X-2800000Y-5950000D03*
X2800000Y5950000D03*
X2800000Y-5950000D03*
%TD*%
D13*
%TO.C,J4*%
X5080000Y24130000D03*
%TD*%
D10*
%TO.C,H2*%
X157900000Y-66290000D03*
%TD*%
%TO.C,H1*%
X157900000Y-59040000D03*
%TD*%
D13*
%TO.C,J3*%
X10160000Y-24130000D03*
D14*
X10160000Y-21590000D03*
X10160000Y-19050000D03*
X10160000Y-16510000D03*
X10160000Y-13970000D03*
X10160000Y-11430000D03*
X10160000Y-8890000D03*
X10160000Y-6350000D03*
X10160000Y-3810000D03*
X10160000Y-1270000D03*
X10160000Y1270000D03*
X10160000Y3810000D03*
X10160000Y6350000D03*
X10160000Y8890000D03*
X10160000Y11430000D03*
X10160000Y13970000D03*
X10160000Y16510000D03*
X10160000Y19050000D03*
X10160000Y21590000D03*
X10160000Y24130000D03*
%TD*%
D10*
%TO.C,H4*%
X157900000Y-80790000D03*
%TD*%
D13*
%TO.C,J2*%
X-10160000Y24130000D03*
D14*
X-10160000Y21590000D03*
X-10160000Y19050000D03*
X-10160000Y16510000D03*
X-10160000Y13970000D03*
X-10160000Y11430000D03*
X-10160000Y8890000D03*
X-10160000Y6350000D03*
X-10160000Y3810000D03*
X-10160000Y1270000D03*
X-10160000Y-1270000D03*
X-10160000Y-3810000D03*
X-10160000Y-6350000D03*
X-10160000Y-8890000D03*
X-10160000Y-11430000D03*
X-10160000Y-13970000D03*
X-10160000Y-16510000D03*
X-10160000Y-19050000D03*
X-10160000Y-21590000D03*
X-10160000Y-24130000D03*
%TD*%
M02*
