%TF.GenerationSoftware,KiCad,Pcbnew,7.0.10*%
%TF.CreationDate,2024-01-15T01:50:30-05:00*%
%TF.ProjectId,Keyboard-connector-breakout,4b657962-6f61-4726-942d-636f6e6e6563,rev?*%
%TF.SameCoordinates,Original*%
%TF.FileFunction,Copper,L2,Bot*%
%TF.FilePolarity,Positive*%
%FSLAX46Y46*%
G04 Gerber Fmt 4.6, Leading zero omitted, Abs format (unit mm)*
G04 Created by KiCad (PCBNEW 7.0.10) date 2024-01-15 01:50:30*
%MOMM*%
%LPD*%
G01*
G04 APERTURE LIST*
%TA.AperFunction,ComponentPad*%
%ADD10R,1.700000X1.700000*%
%TD*%
%TA.AperFunction,ComponentPad*%
%ADD11O,1.700000X1.700000*%
%TD*%
%TA.AperFunction,ViaPad*%
%ADD12C,0.800000*%
%TD*%
G04 APERTURE END LIST*
D10*
%TO.P,J4,1,Pin_1*%
%TO.N,GND*%
X5080000Y24130000D03*
%TD*%
%TO.P,J3,1,Pin_1*%
%TO.N,Net-(J1-Pin_2)*%
X10160000Y-24130000D03*
D11*
%TO.P,J3,2,Pin_2*%
%TO.N,Net-(J1-Pin_4)*%
X10160000Y-21590000D03*
%TO.P,J3,3,Pin_3*%
%TO.N,Net-(J1-Pin_6)*%
X10160000Y-19050000D03*
%TO.P,J3,4,Pin_4*%
%TO.N,Net-(J1-Pin_8)*%
X10160000Y-16510000D03*
%TO.P,J3,5,Pin_5*%
%TO.N,Net-(J1-Pin_10)*%
X10160000Y-13970000D03*
%TO.P,J3,6,Pin_6*%
%TO.N,Net-(J1-Pin_12)*%
X10160000Y-11430000D03*
%TO.P,J3,7,Pin_7*%
%TO.N,Net-(J1-Pin_14)*%
X10160000Y-8890000D03*
%TO.P,J3,8,Pin_8*%
%TO.N,Net-(J1-Pin_16)*%
X10160000Y-6350000D03*
%TO.P,J3,9,Pin_9*%
%TO.N,Net-(J1-Pin_18)*%
X10160000Y-3810000D03*
%TO.P,J3,10,Pin_10*%
%TO.N,Net-(J1-Pin_20)*%
X10160000Y-1270000D03*
%TO.P,J3,11,Pin_11*%
%TO.N,Net-(J1-Pin_22)*%
X10160000Y1270000D03*
%TO.P,J3,12,Pin_12*%
%TO.N,Net-(J1-Pin_24)*%
X10160000Y3810000D03*
%TO.P,J3,13,Pin_13*%
%TO.N,Net-(J1-Pin_26)*%
X10160000Y6350000D03*
%TO.P,J3,14,Pin_14*%
%TO.N,Net-(J1-Pin_28)*%
X10160000Y8890000D03*
%TO.P,J3,15,Pin_15*%
%TO.N,Net-(J1-Pin_30)*%
X10160000Y11430000D03*
%TO.P,J3,16,Pin_16*%
%TO.N,Net-(J1-Pin_32)*%
X10160000Y13970000D03*
%TO.P,J3,17,Pin_17*%
%TO.N,Net-(J1-Pin_34)*%
X10160000Y16510000D03*
%TO.P,J3,18,Pin_18*%
%TO.N,Net-(J1-Pin_36)*%
X10160000Y19050000D03*
%TO.P,J3,19,Pin_19*%
%TO.N,Net-(J1-Pin_38)*%
X10160000Y21590000D03*
%TO.P,J3,20,Pin_20*%
%TO.N,Net-(J1-Pin_40)*%
X10160000Y24130000D03*
%TD*%
D10*
%TO.P,J2,1,Pin_1*%
%TO.N,Net-(J1-Pin_39)*%
X-10160000Y24130000D03*
D11*
%TO.P,J2,2,Pin_2*%
%TO.N,Net-(J1-Pin_37)*%
X-10160000Y21590000D03*
%TO.P,J2,3,Pin_3*%
%TO.N,Net-(J1-Pin_35)*%
X-10160000Y19050000D03*
%TO.P,J2,4,Pin_4*%
%TO.N,Net-(J1-Pin_33)*%
X-10160000Y16510000D03*
%TO.P,J2,5,Pin_5*%
%TO.N,Net-(J1-Pin_31)*%
X-10160000Y13970000D03*
%TO.P,J2,6,Pin_6*%
%TO.N,Net-(J1-Pin_29)*%
X-10160000Y11430000D03*
%TO.P,J2,7,Pin_7*%
%TO.N,Net-(J1-Pin_27)*%
X-10160000Y8890000D03*
%TO.P,J2,8,Pin_8*%
%TO.N,Net-(J1-Pin_25)*%
X-10160000Y6350000D03*
%TO.P,J2,9,Pin_9*%
%TO.N,Net-(J1-Pin_23)*%
X-10160000Y3810000D03*
%TO.P,J2,10,Pin_10*%
%TO.N,Net-(J1-Pin_21)*%
X-10160000Y1270000D03*
%TO.P,J2,11,Pin_11*%
%TO.N,Net-(J1-Pin_19)*%
X-10160000Y-1270000D03*
%TO.P,J2,12,Pin_12*%
%TO.N,Net-(J1-Pin_17)*%
X-10160000Y-3810000D03*
%TO.P,J2,13,Pin_13*%
%TO.N,Net-(J1-Pin_15)*%
X-10160000Y-6350000D03*
%TO.P,J2,14,Pin_14*%
%TO.N,Net-(J1-Pin_13)*%
X-10160000Y-8890000D03*
%TO.P,J2,15,Pin_15*%
%TO.N,Net-(J1-Pin_11)*%
X-10160000Y-11430000D03*
%TO.P,J2,16,Pin_16*%
%TO.N,Net-(J1-Pin_9)*%
X-10160000Y-13970000D03*
%TO.P,J2,17,Pin_17*%
%TO.N,Net-(J1-Pin_7)*%
X-10160000Y-16510000D03*
%TO.P,J2,18,Pin_18*%
%TO.N,Net-(J1-Pin_5)*%
X-10160000Y-19050000D03*
%TO.P,J2,19,Pin_19*%
%TO.N,Net-(J1-Pin_3)*%
X-10160000Y-21590000D03*
%TO.P,J2,20,Pin_20*%
%TO.N,Net-(J1-Pin_1)*%
X-10160000Y-24130000D03*
%TD*%
D12*
%TO.N,GND*%
X0Y0D03*
%TD*%
%TA.AperFunction,Conductor*%
%TO.N,GND*%
G36*
X12005392Y26999028D02*
G01*
X12009760Y26998646D01*
X12044776Y26995581D01*
X12046116Y26995456D01*
X12171760Y26983082D01*
X12191700Y26979454D01*
X12256382Y26962123D01*
X12260285Y26961008D01*
X12351562Y26933319D01*
X12367971Y26927041D01*
X12433835Y26896328D01*
X12439884Y26893304D01*
X12519046Y26850990D01*
X12531715Y26843207D01*
X12592889Y26800373D01*
X12600430Y26794652D01*
X12668455Y26738826D01*
X12677472Y26730653D01*
X12730653Y26677472D01*
X12738826Y26668455D01*
X12794652Y26600430D01*
X12800373Y26592889D01*
X12843207Y26531715D01*
X12850990Y26519046D01*
X12893304Y26439884D01*
X12896328Y26433835D01*
X12927041Y26367971D01*
X12933319Y26351562D01*
X12961008Y26260285D01*
X12962123Y26256382D01*
X12979454Y26191700D01*
X12983082Y26171760D01*
X12995456Y26046116D01*
X12995581Y26044776D01*
X12999028Y26005396D01*
X12999500Y25994583D01*
X12999500Y-25994583D01*
X12999028Y-26005396D01*
X12995581Y-26044776D01*
X12995456Y-26046116D01*
X12983082Y-26171760D01*
X12979454Y-26191700D01*
X12962123Y-26256382D01*
X12961008Y-26260285D01*
X12933319Y-26351562D01*
X12927041Y-26367971D01*
X12896328Y-26433835D01*
X12893304Y-26439884D01*
X12850990Y-26519046D01*
X12843207Y-26531715D01*
X12800373Y-26592889D01*
X12794652Y-26600430D01*
X12738826Y-26668455D01*
X12730653Y-26677472D01*
X12677472Y-26730653D01*
X12668455Y-26738826D01*
X12600430Y-26794652D01*
X12592889Y-26800373D01*
X12531715Y-26843207D01*
X12519046Y-26850990D01*
X12439884Y-26893304D01*
X12433835Y-26896328D01*
X12367971Y-26927041D01*
X12351562Y-26933319D01*
X12260285Y-26961008D01*
X12256382Y-26962123D01*
X12191700Y-26979454D01*
X12171760Y-26983082D01*
X12046116Y-26995456D01*
X12044776Y-26995581D01*
X12009760Y-26998646D01*
X12005392Y-26999028D01*
X11994584Y-26999500D01*
X-11994584Y-26999500D01*
X-12005392Y-26999028D01*
X-12009760Y-26998646D01*
X-12044776Y-26995581D01*
X-12046116Y-26995456D01*
X-12171759Y-26983082D01*
X-12191699Y-26979454D01*
X-12256366Y-26962127D01*
X-12260269Y-26961013D01*
X-12351563Y-26933319D01*
X-12367972Y-26927040D01*
X-12433832Y-26896329D01*
X-12439880Y-26893305D01*
X-12519056Y-26850985D01*
X-12531727Y-26843201D01*
X-12592881Y-26800380D01*
X-12600422Y-26794659D01*
X-12668461Y-26738821D01*
X-12677477Y-26730649D01*
X-12730649Y-26677477D01*
X-12738821Y-26668461D01*
X-12794659Y-26600422D01*
X-12800380Y-26592881D01*
X-12843201Y-26531727D01*
X-12850985Y-26519056D01*
X-12893305Y-26439880D01*
X-12896329Y-26433832D01*
X-12927040Y-26367972D01*
X-12933319Y-26351563D01*
X-12961013Y-26260269D01*
X-12962127Y-26256366D01*
X-12979454Y-26191699D01*
X-12983082Y-26171759D01*
X-12995456Y-26046116D01*
X-12995581Y-26044776D01*
X-12999028Y-26005396D01*
X-12999500Y-25994583D01*
X-12999500Y-24130000D01*
X-11415277Y-24130000D01*
X-11396207Y-24347977D01*
X-11339575Y-24559330D01*
X-11247102Y-24757639D01*
X-11121598Y-24936877D01*
X-10966877Y-25091598D01*
X-10787639Y-25217102D01*
X-10589330Y-25309575D01*
X-10377977Y-25366207D01*
X-10192462Y-25382437D01*
X-10160002Y-25385277D01*
X-10160000Y-25385277D01*
X-10159998Y-25385277D01*
X-10129787Y-25382633D01*
X-9942023Y-25366207D01*
X-9730670Y-25309575D01*
X-9532361Y-25217102D01*
X-9353123Y-25091598D01*
X-9198402Y-24936877D01*
X-9072898Y-24757639D01*
X-9072897Y-24757638D01*
X-9026661Y-24658484D01*
X-8980425Y-24559330D01*
X-8980424Y-24559326D01*
X-8980422Y-24559322D01*
X-8923793Y-24347979D01*
X-8923793Y-24347975D01*
X-8904723Y-24130002D01*
X-8904723Y-24129997D01*
X-8923793Y-23912024D01*
X-8923793Y-23912020D01*
X-8980422Y-23700677D01*
X-8980426Y-23700668D01*
X-9072898Y-23502361D01*
X-9072900Y-23502357D01*
X-9198400Y-23323124D01*
X-9353122Y-23168403D01*
X-9372695Y-23154698D01*
X-9394462Y-23139455D01*
X-9532361Y-23042897D01*
X-9683583Y-22972382D01*
X-9736022Y-22926210D01*
X-9755174Y-22859016D01*
X-9734958Y-22792135D01*
X-9683583Y-22747618D01*
X-9532361Y-22677102D01*
X-9499261Y-22653925D01*
X-9353123Y-22551598D01*
X-9198402Y-22396877D01*
X-9072898Y-22217639D01*
X-9072897Y-22217638D01*
X-9026661Y-22118484D01*
X-8980425Y-22019330D01*
X-8980424Y-22019326D01*
X-8980422Y-22019322D01*
X-8923793Y-21807979D01*
X-8923793Y-21807975D01*
X-8904723Y-21590002D01*
X8904723Y-21590002D01*
X8923793Y-21807975D01*
X8923793Y-21807979D01*
X8980422Y-22019322D01*
X8980424Y-22019326D01*
X8980425Y-22019330D01*
X9026661Y-22118484D01*
X9072897Y-22217638D01*
X9072898Y-22217639D01*
X9198402Y-22396877D01*
X9353123Y-22551598D01*
X9499263Y-22653926D01*
X9542887Y-22708502D01*
X9550081Y-22778000D01*
X9518558Y-22840355D01*
X9458328Y-22875769D01*
X9428140Y-22879500D01*
X9278482Y-22879500D01*
X9197519Y-22892323D01*
X9184696Y-22894354D01*
X9071658Y-22951950D01*
X9071657Y-22951951D01*
X9071652Y-22951954D01*
X8981954Y-23041652D01*
X8981951Y-23041657D01*
X8981950Y-23041658D01*
X8962751Y-23079337D01*
X8924352Y-23154698D01*
X8909500Y-23248475D01*
X8909500Y-25011517D01*
X8920292Y-25079657D01*
X8924354Y-25105304D01*
X8981950Y-25218342D01*
X8981952Y-25218344D01*
X8981954Y-25218347D01*
X9071652Y-25308045D01*
X9071654Y-25308046D01*
X9071658Y-25308050D01*
X9184694Y-25365645D01*
X9184698Y-25365647D01*
X9278475Y-25380499D01*
X9278481Y-25380500D01*
X11041518Y-25380499D01*
X11135304Y-25365646D01*
X11248342Y-25308050D01*
X11338050Y-25218342D01*
X11395646Y-25105304D01*
X11395646Y-25105302D01*
X11395647Y-25105301D01*
X11410499Y-25011524D01*
X11410500Y-25011519D01*
X11410499Y-23248482D01*
X11395646Y-23154696D01*
X11338050Y-23041658D01*
X11338046Y-23041654D01*
X11338045Y-23041652D01*
X11248347Y-22951954D01*
X11248344Y-22951952D01*
X11248342Y-22951950D01*
X11171517Y-22912805D01*
X11135301Y-22894352D01*
X11041524Y-22879500D01*
X10891862Y-22879500D01*
X10824823Y-22859815D01*
X10779068Y-22807011D01*
X10769124Y-22737853D01*
X10798149Y-22674297D01*
X10820734Y-22653928D01*
X10966877Y-22551598D01*
X11121598Y-22396877D01*
X11247102Y-22217639D01*
X11339575Y-22019330D01*
X11396207Y-21807977D01*
X11415277Y-21590000D01*
X11396207Y-21372023D01*
X11339575Y-21160670D01*
X11247102Y-20962362D01*
X11247100Y-20962359D01*
X11247099Y-20962357D01*
X11121599Y-20783124D01*
X11121596Y-20783121D01*
X10966877Y-20628402D01*
X10787639Y-20502898D01*
X10636414Y-20432381D01*
X10583977Y-20386210D01*
X10564825Y-20319016D01*
X10585041Y-20252135D01*
X10636414Y-20207618D01*
X10787639Y-20137102D01*
X10966877Y-20011598D01*
X11121598Y-19856877D01*
X11247102Y-19677639D01*
X11339575Y-19479330D01*
X11396207Y-19267977D01*
X11415277Y-19050000D01*
X11396207Y-18832023D01*
X11339575Y-18620670D01*
X11247102Y-18422362D01*
X11247100Y-18422359D01*
X11247099Y-18422357D01*
X11121599Y-18243124D01*
X11121596Y-18243121D01*
X10966877Y-18088402D01*
X10787639Y-17962898D01*
X10636414Y-17892381D01*
X10583977Y-17846210D01*
X10564825Y-17779016D01*
X10585041Y-17712135D01*
X10636414Y-17667618D01*
X10787639Y-17597102D01*
X10966877Y-17471598D01*
X11121598Y-17316877D01*
X11247102Y-17137639D01*
X11339575Y-16939330D01*
X11396207Y-16727977D01*
X11415277Y-16510000D01*
X11396207Y-16292023D01*
X11339575Y-16080670D01*
X11247102Y-15882362D01*
X11247100Y-15882359D01*
X11247099Y-15882357D01*
X11121599Y-15703124D01*
X11121596Y-15703121D01*
X10966877Y-15548402D01*
X10787639Y-15422898D01*
X10636414Y-15352381D01*
X10583977Y-15306210D01*
X10564825Y-15239016D01*
X10585041Y-15172135D01*
X10636414Y-15127618D01*
X10787639Y-15057102D01*
X10966877Y-14931598D01*
X11121598Y-14776877D01*
X11247102Y-14597639D01*
X11339575Y-14399330D01*
X11396207Y-14187977D01*
X11415277Y-13970000D01*
X11396207Y-13752023D01*
X11339575Y-13540670D01*
X11247102Y-13342362D01*
X11247100Y-13342359D01*
X11247099Y-13342357D01*
X11121599Y-13163124D01*
X11121596Y-13163121D01*
X10966877Y-13008402D01*
X10787639Y-12882898D01*
X10636414Y-12812381D01*
X10583977Y-12766210D01*
X10564825Y-12699016D01*
X10585041Y-12632135D01*
X10636414Y-12587618D01*
X10787639Y-12517102D01*
X10966877Y-12391598D01*
X11121598Y-12236877D01*
X11247102Y-12057639D01*
X11339575Y-11859330D01*
X11396207Y-11647977D01*
X11415277Y-11430000D01*
X11396207Y-11212023D01*
X11339575Y-11000670D01*
X11247102Y-10802362D01*
X11247100Y-10802359D01*
X11247099Y-10802357D01*
X11121599Y-10623124D01*
X11121596Y-10623121D01*
X10966877Y-10468402D01*
X10787639Y-10342898D01*
X10636414Y-10272381D01*
X10583977Y-10226210D01*
X10564825Y-10159016D01*
X10585041Y-10092135D01*
X10636414Y-10047618D01*
X10787639Y-9977102D01*
X10966877Y-9851598D01*
X11121598Y-9696877D01*
X11247102Y-9517639D01*
X11339575Y-9319330D01*
X11396207Y-9107977D01*
X11415277Y-8890000D01*
X11396207Y-8672023D01*
X11339575Y-8460670D01*
X11247102Y-8262362D01*
X11247100Y-8262359D01*
X11247099Y-8262357D01*
X11121599Y-8083124D01*
X11121596Y-8083121D01*
X10966877Y-7928402D01*
X10787639Y-7802898D01*
X10636414Y-7732381D01*
X10583977Y-7686210D01*
X10564825Y-7619016D01*
X10585041Y-7552135D01*
X10636414Y-7507618D01*
X10787639Y-7437102D01*
X10966877Y-7311598D01*
X11121598Y-7156877D01*
X11247102Y-6977639D01*
X11339575Y-6779330D01*
X11396207Y-6567977D01*
X11415277Y-6350000D01*
X11396207Y-6132023D01*
X11339575Y-5920670D01*
X11247102Y-5722362D01*
X11247100Y-5722359D01*
X11247099Y-5722357D01*
X11121599Y-5543124D01*
X11121596Y-5543121D01*
X10966877Y-5388402D01*
X10787639Y-5262898D01*
X10636414Y-5192381D01*
X10583977Y-5146210D01*
X10564825Y-5079016D01*
X10585041Y-5012135D01*
X10636414Y-4967618D01*
X10787639Y-4897102D01*
X10966877Y-4771598D01*
X11121598Y-4616877D01*
X11247102Y-4437639D01*
X11339575Y-4239330D01*
X11396207Y-4027977D01*
X11415277Y-3810000D01*
X11396207Y-3592023D01*
X11339575Y-3380670D01*
X11247102Y-3182362D01*
X11247100Y-3182359D01*
X11247099Y-3182357D01*
X11121599Y-3003124D01*
X11121596Y-3003121D01*
X10966877Y-2848402D01*
X10787639Y-2722898D01*
X10636414Y-2652381D01*
X10583977Y-2606210D01*
X10564825Y-2539016D01*
X10585041Y-2472135D01*
X10636414Y-2427618D01*
X10787639Y-2357102D01*
X10966877Y-2231598D01*
X11121598Y-2076877D01*
X11247102Y-1897639D01*
X11339575Y-1699330D01*
X11396207Y-1487977D01*
X11415277Y-1270000D01*
X11396207Y-1052023D01*
X11339575Y-840670D01*
X11247102Y-642362D01*
X11247100Y-642359D01*
X11247099Y-642357D01*
X11121599Y-463124D01*
X11121596Y-463121D01*
X10966877Y-308402D01*
X10787639Y-182898D01*
X10636414Y-112381D01*
X10583977Y-66210D01*
X10564825Y984D01*
X10585041Y67865D01*
X10636414Y112381D01*
X10787639Y182898D01*
X10966877Y308402D01*
X11121598Y463123D01*
X11247102Y642361D01*
X11339575Y840670D01*
X11396207Y1052023D01*
X11415277Y1270000D01*
X11396207Y1487977D01*
X11339575Y1699330D01*
X11247102Y1897638D01*
X11121598Y2076877D01*
X10966877Y2231598D01*
X10787639Y2357102D01*
X10636414Y2427618D01*
X10583977Y2473790D01*
X10564825Y2540984D01*
X10585041Y2607865D01*
X10636414Y2652381D01*
X10787639Y2722898D01*
X10966877Y2848402D01*
X11121598Y3003123D01*
X11247102Y3182361D01*
X11339575Y3380670D01*
X11396207Y3592023D01*
X11415277Y3810000D01*
X11396207Y4027977D01*
X11339575Y4239330D01*
X11247102Y4437638D01*
X11121598Y4616877D01*
X10966877Y4771598D01*
X10787639Y4897102D01*
X10636414Y4967618D01*
X10583977Y5013790D01*
X10564825Y5080984D01*
X10585041Y5147865D01*
X10636414Y5192381D01*
X10787639Y5262898D01*
X10966877Y5388402D01*
X11121598Y5543123D01*
X11247102Y5722361D01*
X11339575Y5920670D01*
X11396207Y6132023D01*
X11415277Y6350000D01*
X11396207Y6567977D01*
X11339575Y6779330D01*
X11247102Y6977638D01*
X11121598Y7156877D01*
X10966877Y7311598D01*
X10787639Y7437102D01*
X10636414Y7507618D01*
X10583977Y7553790D01*
X10564825Y7620984D01*
X10585041Y7687865D01*
X10636414Y7732381D01*
X10787639Y7802898D01*
X10966877Y7928402D01*
X11121598Y8083123D01*
X11247102Y8262361D01*
X11339575Y8460670D01*
X11396207Y8672023D01*
X11415277Y8890000D01*
X11396207Y9107977D01*
X11339575Y9319330D01*
X11247102Y9517638D01*
X11121598Y9696877D01*
X10966877Y9851598D01*
X10787639Y9977102D01*
X10636414Y10047618D01*
X10583977Y10093790D01*
X10564825Y10160984D01*
X10585041Y10227865D01*
X10636414Y10272381D01*
X10787639Y10342898D01*
X10966877Y10468402D01*
X11121598Y10623123D01*
X11247102Y10802361D01*
X11339575Y11000670D01*
X11396207Y11212023D01*
X11415277Y11430000D01*
X11396207Y11647977D01*
X11339575Y11859330D01*
X11247102Y12057638D01*
X11121598Y12236877D01*
X10966877Y12391598D01*
X10787639Y12517102D01*
X10636414Y12587618D01*
X10583977Y12633790D01*
X10564825Y12700984D01*
X10585041Y12767865D01*
X10636414Y12812381D01*
X10787639Y12882898D01*
X10966877Y13008402D01*
X11121598Y13163123D01*
X11247102Y13342361D01*
X11339575Y13540670D01*
X11396207Y13752023D01*
X11415277Y13970000D01*
X11396207Y14187977D01*
X11339575Y14399330D01*
X11247102Y14597638D01*
X11121598Y14776877D01*
X10966877Y14931598D01*
X10787639Y15057102D01*
X10636414Y15127618D01*
X10583977Y15173790D01*
X10564825Y15240984D01*
X10585041Y15307865D01*
X10636414Y15352381D01*
X10787639Y15422898D01*
X10966877Y15548402D01*
X11121598Y15703123D01*
X11247102Y15882361D01*
X11339575Y16080670D01*
X11396207Y16292023D01*
X11415277Y16510000D01*
X11396207Y16727977D01*
X11339575Y16939330D01*
X11247102Y17137638D01*
X11121598Y17316877D01*
X10966877Y17471598D01*
X10787639Y17597102D01*
X10636414Y17667618D01*
X10583977Y17713790D01*
X10564825Y17780984D01*
X10585041Y17847865D01*
X10636414Y17892381D01*
X10787639Y17962898D01*
X10966877Y18088402D01*
X11121598Y18243123D01*
X11247102Y18422361D01*
X11339575Y18620670D01*
X11396207Y18832023D01*
X11415277Y19050000D01*
X11396207Y19267977D01*
X11339575Y19479330D01*
X11247102Y19677638D01*
X11121598Y19856877D01*
X10966877Y20011598D01*
X10787639Y20137102D01*
X10636414Y20207618D01*
X10583977Y20253790D01*
X10564825Y20320984D01*
X10585041Y20387865D01*
X10636414Y20432381D01*
X10787639Y20502898D01*
X10966877Y20628402D01*
X11121598Y20783123D01*
X11247102Y20962361D01*
X11339575Y21160670D01*
X11396207Y21372023D01*
X11415277Y21590000D01*
X11396207Y21807977D01*
X11339575Y22019330D01*
X11247102Y22217638D01*
X11121598Y22396877D01*
X10966877Y22551598D01*
X10787639Y22677102D01*
X10636414Y22747618D01*
X10583977Y22793790D01*
X10564825Y22860984D01*
X10585041Y22927865D01*
X10636414Y22972381D01*
X10787639Y23042898D01*
X10966877Y23168402D01*
X11121598Y23323123D01*
X11247102Y23502361D01*
X11339575Y23700670D01*
X11396207Y23912023D01*
X11415277Y24130000D01*
X11396207Y24347977D01*
X11339575Y24559330D01*
X11247102Y24757638D01*
X11121598Y24936877D01*
X10966877Y25091598D01*
X10787639Y25217102D01*
X10589330Y25309575D01*
X10377977Y25366207D01*
X10192462Y25382437D01*
X10160002Y25385277D01*
X10159998Y25385277D01*
X10129787Y25382633D01*
X9942023Y25366207D01*
X9730670Y25309575D01*
X9532362Y25217102D01*
X9532361Y25217101D01*
X9532357Y25217099D01*
X9353121Y25091597D01*
X9198402Y24936878D01*
X9072900Y24757642D01*
X9072898Y24757638D01*
X8980425Y24559330D01*
X8980424Y24559326D01*
X8980422Y24559322D01*
X8923793Y24347979D01*
X8923793Y24347977D01*
X8904723Y24130000D01*
X8923081Y23920156D01*
X8923793Y23912024D01*
X8923793Y23912020D01*
X8980422Y23700677D01*
X8980426Y23700668D01*
X9072897Y23502361D01*
X9198406Y23323118D01*
X9353118Y23168406D01*
X9353121Y23168403D01*
X9353123Y23168402D01*
X9412782Y23126627D01*
X9532361Y23042897D01*
X9683583Y22972381D01*
X9736022Y22926208D01*
X9755174Y22859014D01*
X9734958Y22792133D01*
X9683585Y22747618D01*
X9532362Y22677102D01*
X9532361Y22677101D01*
X9532357Y22677099D01*
X9353121Y22551597D01*
X9198402Y22396878D01*
X9072900Y22217642D01*
X9072898Y22217638D01*
X8980425Y22019330D01*
X8980424Y22019326D01*
X8980422Y22019322D01*
X8923793Y21807979D01*
X8923793Y21807975D01*
X8904723Y21590002D01*
X8904723Y21589997D01*
X8923793Y21372024D01*
X8923793Y21372020D01*
X8980422Y21160677D01*
X8980426Y21160668D01*
X9072897Y20962361D01*
X9198406Y20783118D01*
X9353118Y20628406D01*
X9353121Y20628403D01*
X9353123Y20628402D01*
X9412782Y20586627D01*
X9532361Y20502897D01*
X9683583Y20432381D01*
X9736022Y20386208D01*
X9755174Y20319014D01*
X9734958Y20252133D01*
X9683585Y20207618D01*
X9532362Y20137102D01*
X9532361Y20137101D01*
X9532357Y20137099D01*
X9353121Y20011597D01*
X9198402Y19856878D01*
X9072900Y19677642D01*
X9072898Y19677638D01*
X8980425Y19479330D01*
X8980424Y19479326D01*
X8980422Y19479322D01*
X8923793Y19267979D01*
X8923793Y19267975D01*
X8904723Y19050002D01*
X8904723Y19049997D01*
X8923793Y18832024D01*
X8923793Y18832020D01*
X8980422Y18620677D01*
X8980426Y18620668D01*
X9072897Y18422361D01*
X9198406Y18243118D01*
X9353118Y18088406D01*
X9353121Y18088403D01*
X9353123Y18088402D01*
X9412782Y18046627D01*
X9532361Y17962897D01*
X9683583Y17892381D01*
X9736022Y17846208D01*
X9755174Y17779014D01*
X9734958Y17712133D01*
X9683585Y17667618D01*
X9532362Y17597102D01*
X9532361Y17597101D01*
X9532357Y17597099D01*
X9353121Y17471597D01*
X9198402Y17316878D01*
X9072900Y17137642D01*
X9072898Y17137638D01*
X8980425Y16939330D01*
X8980424Y16939326D01*
X8980422Y16939322D01*
X8923793Y16727979D01*
X8923793Y16727975D01*
X8904723Y16510002D01*
X8904723Y16509997D01*
X8923793Y16292024D01*
X8923793Y16292020D01*
X8980422Y16080677D01*
X8980426Y16080668D01*
X9072897Y15882361D01*
X9198406Y15703118D01*
X9353118Y15548406D01*
X9353121Y15548403D01*
X9353123Y15548402D01*
X9412782Y15506627D01*
X9532361Y15422897D01*
X9683583Y15352381D01*
X9736022Y15306208D01*
X9755174Y15239014D01*
X9734958Y15172133D01*
X9683585Y15127618D01*
X9532362Y15057102D01*
X9532361Y15057101D01*
X9532357Y15057099D01*
X9353121Y14931597D01*
X9198402Y14776878D01*
X9072900Y14597642D01*
X9072898Y14597638D01*
X8980425Y14399330D01*
X8980424Y14399326D01*
X8980422Y14399322D01*
X8923793Y14187979D01*
X8923793Y14187975D01*
X8904723Y13970002D01*
X8904723Y13969997D01*
X8923793Y13752024D01*
X8923793Y13752020D01*
X8980422Y13540677D01*
X8980426Y13540668D01*
X9072897Y13342361D01*
X9198406Y13163118D01*
X9353118Y13008406D01*
X9353121Y13008403D01*
X9353123Y13008402D01*
X9412782Y12966627D01*
X9532361Y12882897D01*
X9683583Y12812381D01*
X9736022Y12766208D01*
X9755174Y12699014D01*
X9734958Y12632133D01*
X9683585Y12587618D01*
X9532362Y12517102D01*
X9532361Y12517101D01*
X9532357Y12517099D01*
X9353121Y12391597D01*
X9198402Y12236878D01*
X9072900Y12057642D01*
X9072898Y12057638D01*
X8980425Y11859330D01*
X8980424Y11859326D01*
X8980422Y11859322D01*
X8923793Y11647979D01*
X8923793Y11647975D01*
X8904723Y11430002D01*
X8904723Y11429997D01*
X8923793Y11212024D01*
X8923793Y11212020D01*
X8980422Y11000677D01*
X8980426Y11000668D01*
X9072897Y10802361D01*
X9198406Y10623118D01*
X9353118Y10468406D01*
X9353121Y10468403D01*
X9353123Y10468402D01*
X9412782Y10426627D01*
X9532361Y10342897D01*
X9683583Y10272381D01*
X9736022Y10226208D01*
X9755174Y10159014D01*
X9734958Y10092133D01*
X9683585Y10047618D01*
X9532362Y9977102D01*
X9532361Y9977101D01*
X9532357Y9977099D01*
X9353121Y9851597D01*
X9198402Y9696878D01*
X9072900Y9517642D01*
X9072898Y9517638D01*
X8980425Y9319330D01*
X8980424Y9319326D01*
X8980422Y9319322D01*
X8923793Y9107979D01*
X8923793Y9107975D01*
X8904723Y8890002D01*
X8904723Y8889997D01*
X8923793Y8672024D01*
X8923793Y8672020D01*
X8980422Y8460677D01*
X8980426Y8460668D01*
X9072897Y8262361D01*
X9198406Y8083118D01*
X9353118Y7928406D01*
X9353121Y7928403D01*
X9353123Y7928402D01*
X9412782Y7886627D01*
X9532361Y7802897D01*
X9683583Y7732381D01*
X9736022Y7686208D01*
X9755174Y7619014D01*
X9734958Y7552133D01*
X9683585Y7507618D01*
X9532362Y7437102D01*
X9532361Y7437101D01*
X9532357Y7437099D01*
X9353121Y7311597D01*
X9198402Y7156878D01*
X9072900Y6977642D01*
X9072898Y6977638D01*
X8980425Y6779330D01*
X8980424Y6779326D01*
X8980422Y6779322D01*
X8923793Y6567979D01*
X8923793Y6567975D01*
X8904723Y6350002D01*
X8904723Y6349997D01*
X8923793Y6132024D01*
X8923793Y6132020D01*
X8980422Y5920677D01*
X8980426Y5920668D01*
X9072897Y5722361D01*
X9198406Y5543118D01*
X9353118Y5388406D01*
X9353121Y5388403D01*
X9353123Y5388402D01*
X9412782Y5346627D01*
X9532361Y5262897D01*
X9683583Y5192381D01*
X9736022Y5146208D01*
X9755174Y5079014D01*
X9734958Y5012133D01*
X9683585Y4967618D01*
X9532362Y4897102D01*
X9532361Y4897101D01*
X9532357Y4897099D01*
X9353121Y4771597D01*
X9198402Y4616878D01*
X9072900Y4437642D01*
X9072898Y4437638D01*
X8980425Y4239330D01*
X8980424Y4239326D01*
X8980422Y4239322D01*
X8923793Y4027979D01*
X8923793Y4027975D01*
X8904723Y3810002D01*
X8904723Y3809997D01*
X8923793Y3592024D01*
X8923793Y3592020D01*
X8980422Y3380677D01*
X8980426Y3380668D01*
X9072897Y3182361D01*
X9198406Y3003118D01*
X9353118Y2848406D01*
X9353121Y2848403D01*
X9353123Y2848402D01*
X9412782Y2806627D01*
X9532361Y2722897D01*
X9683583Y2652381D01*
X9736022Y2606208D01*
X9755174Y2539014D01*
X9734958Y2472133D01*
X9683585Y2427618D01*
X9532362Y2357102D01*
X9532361Y2357101D01*
X9532357Y2357099D01*
X9353121Y2231597D01*
X9198402Y2076878D01*
X9072900Y1897642D01*
X9072898Y1897638D01*
X8980425Y1699330D01*
X8980424Y1699326D01*
X8980422Y1699322D01*
X8923793Y1487979D01*
X8923793Y1487975D01*
X8904723Y1270002D01*
X8904723Y1269997D01*
X8923793Y1052024D01*
X8923793Y1052020D01*
X8980422Y840677D01*
X8980426Y840668D01*
X9072897Y642361D01*
X9198406Y463118D01*
X9353118Y308406D01*
X9353121Y308403D01*
X9353123Y308402D01*
X9412782Y266627D01*
X9532361Y182897D01*
X9683583Y112382D01*
X9736022Y66210D01*
X9755174Y-984D01*
X9734958Y-67865D01*
X9683583Y-112382D01*
X9532361Y-182898D01*
X9532357Y-182900D01*
X9353121Y-308402D01*
X9198402Y-463121D01*
X9072900Y-642357D01*
X9072898Y-642361D01*
X8980426Y-840668D01*
X8980422Y-840677D01*
X8923793Y-1052020D01*
X8923793Y-1052024D01*
X8904723Y-1269997D01*
X8904723Y-1270002D01*
X8923793Y-1487975D01*
X8923793Y-1487979D01*
X8980422Y-1699322D01*
X8980424Y-1699326D01*
X8980425Y-1699330D01*
X9026661Y-1798484D01*
X9072897Y-1897638D01*
X9072898Y-1897639D01*
X9198402Y-2076877D01*
X9353123Y-2231598D01*
X9532360Y-2357101D01*
X9532361Y-2357102D01*
X9683583Y-2427618D01*
X9736022Y-2473790D01*
X9755174Y-2540984D01*
X9734958Y-2607865D01*
X9683583Y-2652382D01*
X9532361Y-2722898D01*
X9532357Y-2722900D01*
X9353121Y-2848402D01*
X9198402Y-3003121D01*
X9072900Y-3182357D01*
X9072898Y-3182361D01*
X8980426Y-3380668D01*
X8980422Y-3380677D01*
X8923793Y-3592020D01*
X8923793Y-3592024D01*
X8904723Y-3809997D01*
X8904723Y-3810002D01*
X8923793Y-4027975D01*
X8923793Y-4027979D01*
X8980422Y-4239322D01*
X8980424Y-4239326D01*
X8980425Y-4239330D01*
X9026661Y-4338484D01*
X9072897Y-4437638D01*
X9072898Y-4437639D01*
X9198402Y-4616877D01*
X9353123Y-4771598D01*
X9532360Y-4897101D01*
X9532361Y-4897102D01*
X9683583Y-4967618D01*
X9736022Y-5013790D01*
X9755174Y-5080984D01*
X9734958Y-5147865D01*
X9683583Y-5192382D01*
X9532361Y-5262898D01*
X9532357Y-5262900D01*
X9353121Y-5388402D01*
X9198402Y-5543121D01*
X9072900Y-5722357D01*
X9072898Y-5722361D01*
X8980426Y-5920668D01*
X8980422Y-5920677D01*
X8923793Y-6132020D01*
X8923793Y-6132024D01*
X8904723Y-6349997D01*
X8904723Y-6350002D01*
X8923793Y-6567975D01*
X8923793Y-6567979D01*
X8980422Y-6779322D01*
X8980424Y-6779326D01*
X8980425Y-6779330D01*
X9026661Y-6878484D01*
X9072897Y-6977638D01*
X9072898Y-6977639D01*
X9198402Y-7156877D01*
X9353123Y-7311598D01*
X9532360Y-7437101D01*
X9532361Y-7437102D01*
X9683583Y-7507618D01*
X9736022Y-7553790D01*
X9755174Y-7620984D01*
X9734958Y-7687865D01*
X9683583Y-7732382D01*
X9532361Y-7802898D01*
X9532357Y-7802900D01*
X9353121Y-7928402D01*
X9198402Y-8083121D01*
X9072900Y-8262357D01*
X9072898Y-8262361D01*
X8980426Y-8460668D01*
X8980422Y-8460677D01*
X8923793Y-8672020D01*
X8923793Y-8672024D01*
X8904723Y-8889997D01*
X8904723Y-8890002D01*
X8923793Y-9107975D01*
X8923793Y-9107979D01*
X8980422Y-9319322D01*
X8980424Y-9319326D01*
X8980425Y-9319330D01*
X9026661Y-9418484D01*
X9072897Y-9517638D01*
X9072898Y-9517639D01*
X9198402Y-9696877D01*
X9353123Y-9851598D01*
X9532360Y-9977101D01*
X9532361Y-9977102D01*
X9683583Y-10047618D01*
X9736022Y-10093790D01*
X9755174Y-10160984D01*
X9734958Y-10227865D01*
X9683583Y-10272382D01*
X9532361Y-10342898D01*
X9532357Y-10342900D01*
X9353121Y-10468402D01*
X9198402Y-10623121D01*
X9072900Y-10802357D01*
X9072898Y-10802361D01*
X8980426Y-11000668D01*
X8980422Y-11000677D01*
X8923793Y-11212020D01*
X8923793Y-11212024D01*
X8904723Y-11429997D01*
X8904723Y-11430002D01*
X8923793Y-11647975D01*
X8923793Y-11647979D01*
X8980422Y-11859322D01*
X8980424Y-11859326D01*
X8980425Y-11859330D01*
X9026661Y-11958484D01*
X9072897Y-12057638D01*
X9072898Y-12057639D01*
X9198402Y-12236877D01*
X9353123Y-12391598D01*
X9532360Y-12517101D01*
X9532361Y-12517102D01*
X9683583Y-12587618D01*
X9736022Y-12633790D01*
X9755174Y-12700984D01*
X9734958Y-12767865D01*
X9683583Y-12812382D01*
X9532361Y-12882898D01*
X9532357Y-12882900D01*
X9353121Y-13008402D01*
X9198402Y-13163121D01*
X9072900Y-13342357D01*
X9072898Y-13342361D01*
X8980426Y-13540668D01*
X8980422Y-13540677D01*
X8923793Y-13752020D01*
X8923793Y-13752024D01*
X8904723Y-13969997D01*
X8904723Y-13970002D01*
X8923793Y-14187975D01*
X8923793Y-14187979D01*
X8980422Y-14399322D01*
X8980424Y-14399326D01*
X8980425Y-14399330D01*
X9026661Y-14498484D01*
X9072897Y-14597638D01*
X9072898Y-14597639D01*
X9198402Y-14776877D01*
X9353123Y-14931598D01*
X9532360Y-15057101D01*
X9532361Y-15057102D01*
X9683583Y-15127618D01*
X9736022Y-15173790D01*
X9755174Y-15240984D01*
X9734958Y-15307865D01*
X9683583Y-15352382D01*
X9532361Y-15422898D01*
X9532357Y-15422900D01*
X9353121Y-15548402D01*
X9198402Y-15703121D01*
X9072900Y-15882357D01*
X9072898Y-15882361D01*
X8980426Y-16080668D01*
X8980422Y-16080677D01*
X8923793Y-16292020D01*
X8923793Y-16292024D01*
X8904723Y-16509997D01*
X8904723Y-16510002D01*
X8923793Y-16727975D01*
X8923793Y-16727979D01*
X8980422Y-16939322D01*
X8980424Y-16939326D01*
X8980425Y-16939330D01*
X9026661Y-17038484D01*
X9072897Y-17137638D01*
X9072898Y-17137639D01*
X9198402Y-17316877D01*
X9353123Y-17471598D01*
X9532360Y-17597101D01*
X9532361Y-17597102D01*
X9683583Y-17667618D01*
X9736022Y-17713790D01*
X9755174Y-17780984D01*
X9734958Y-17847865D01*
X9683583Y-17892382D01*
X9532361Y-17962898D01*
X9532357Y-17962900D01*
X9353121Y-18088402D01*
X9198402Y-18243121D01*
X9072900Y-18422357D01*
X9072898Y-18422361D01*
X8980426Y-18620668D01*
X8980422Y-18620677D01*
X8923793Y-18832020D01*
X8923793Y-18832024D01*
X8904723Y-19049997D01*
X8904723Y-19050002D01*
X8923793Y-19267975D01*
X8923793Y-19267979D01*
X8980422Y-19479322D01*
X8980424Y-19479326D01*
X8980425Y-19479330D01*
X9026661Y-19578484D01*
X9072897Y-19677638D01*
X9072898Y-19677639D01*
X9198402Y-19856877D01*
X9353123Y-20011598D01*
X9532360Y-20137101D01*
X9532361Y-20137102D01*
X9683583Y-20207618D01*
X9736022Y-20253790D01*
X9755174Y-20320984D01*
X9734958Y-20387865D01*
X9683583Y-20432382D01*
X9532361Y-20502898D01*
X9532357Y-20502900D01*
X9353121Y-20628402D01*
X9198402Y-20783121D01*
X9072900Y-20962357D01*
X9072898Y-20962361D01*
X8980426Y-21160668D01*
X8980422Y-21160677D01*
X8923793Y-21372020D01*
X8923793Y-21372024D01*
X8904723Y-21589997D01*
X8904723Y-21590002D01*
X-8904723Y-21590002D01*
X-8904723Y-21589997D01*
X-8923793Y-21372024D01*
X-8923793Y-21372020D01*
X-8980422Y-21160677D01*
X-8980426Y-21160668D01*
X-9072898Y-20962361D01*
X-9072900Y-20962357D01*
X-9198400Y-20783124D01*
X-9353122Y-20628403D01*
X-9532361Y-20502897D01*
X-9683583Y-20432382D01*
X-9736022Y-20386210D01*
X-9755174Y-20319016D01*
X-9734958Y-20252135D01*
X-9683583Y-20207618D01*
X-9532361Y-20137102D01*
X-9532360Y-20137101D01*
X-9353123Y-20011598D01*
X-9198402Y-19856877D01*
X-9072898Y-19677639D01*
X-9072897Y-19677638D01*
X-9026661Y-19578484D01*
X-8980425Y-19479330D01*
X-8980424Y-19479326D01*
X-8980422Y-19479322D01*
X-8923793Y-19267979D01*
X-8923793Y-19267975D01*
X-8904723Y-19050002D01*
X-8904723Y-19049997D01*
X-8923793Y-18832024D01*
X-8923793Y-18832020D01*
X-8980422Y-18620677D01*
X-8980426Y-18620668D01*
X-9072898Y-18422361D01*
X-9072900Y-18422357D01*
X-9198400Y-18243124D01*
X-9353122Y-18088403D01*
X-9532361Y-17962897D01*
X-9683583Y-17892382D01*
X-9736022Y-17846210D01*
X-9755174Y-17779016D01*
X-9734958Y-17712135D01*
X-9683583Y-17667618D01*
X-9532361Y-17597102D01*
X-9532360Y-17597101D01*
X-9353123Y-17471598D01*
X-9198402Y-17316877D01*
X-9072898Y-17137639D01*
X-9072897Y-17137638D01*
X-9026661Y-17038484D01*
X-8980425Y-16939330D01*
X-8980424Y-16939326D01*
X-8980422Y-16939322D01*
X-8923793Y-16727979D01*
X-8923793Y-16727975D01*
X-8904723Y-16510002D01*
X-8904723Y-16509997D01*
X-8923793Y-16292024D01*
X-8923793Y-16292020D01*
X-8980422Y-16080677D01*
X-8980426Y-16080668D01*
X-9072898Y-15882361D01*
X-9072900Y-15882357D01*
X-9198400Y-15703124D01*
X-9353122Y-15548403D01*
X-9532361Y-15422897D01*
X-9683583Y-15352382D01*
X-9736022Y-15306210D01*
X-9755174Y-15239016D01*
X-9734958Y-15172135D01*
X-9683583Y-15127618D01*
X-9532361Y-15057102D01*
X-9532360Y-15057101D01*
X-9353123Y-14931598D01*
X-9198402Y-14776877D01*
X-9072898Y-14597639D01*
X-9072897Y-14597638D01*
X-9026661Y-14498484D01*
X-8980425Y-14399330D01*
X-8980424Y-14399326D01*
X-8980422Y-14399322D01*
X-8923793Y-14187979D01*
X-8923793Y-14187975D01*
X-8904723Y-13970002D01*
X-8904723Y-13969997D01*
X-8923793Y-13752024D01*
X-8923793Y-13752020D01*
X-8980422Y-13540677D01*
X-8980426Y-13540668D01*
X-9072898Y-13342361D01*
X-9072900Y-13342357D01*
X-9198400Y-13163124D01*
X-9353122Y-13008403D01*
X-9532361Y-12882897D01*
X-9683583Y-12812382D01*
X-9736022Y-12766210D01*
X-9755174Y-12699016D01*
X-9734958Y-12632135D01*
X-9683583Y-12587618D01*
X-9532361Y-12517102D01*
X-9532360Y-12517101D01*
X-9353123Y-12391598D01*
X-9198402Y-12236877D01*
X-9072898Y-12057639D01*
X-9072897Y-12057638D01*
X-9026661Y-11958484D01*
X-8980425Y-11859330D01*
X-8980424Y-11859326D01*
X-8980422Y-11859322D01*
X-8923793Y-11647979D01*
X-8923793Y-11647975D01*
X-8904723Y-11430002D01*
X-8904723Y-11429997D01*
X-8923793Y-11212024D01*
X-8923793Y-11212020D01*
X-8980422Y-11000677D01*
X-8980426Y-11000668D01*
X-9072898Y-10802361D01*
X-9072900Y-10802357D01*
X-9198400Y-10623124D01*
X-9353122Y-10468403D01*
X-9532361Y-10342897D01*
X-9683583Y-10272382D01*
X-9736022Y-10226210D01*
X-9755174Y-10159016D01*
X-9734958Y-10092135D01*
X-9683583Y-10047618D01*
X-9532361Y-9977102D01*
X-9532360Y-9977101D01*
X-9353123Y-9851598D01*
X-9198402Y-9696877D01*
X-9072898Y-9517639D01*
X-9072897Y-9517638D01*
X-9026661Y-9418484D01*
X-8980425Y-9319330D01*
X-8980424Y-9319326D01*
X-8980422Y-9319322D01*
X-8923793Y-9107979D01*
X-8923793Y-9107975D01*
X-8904723Y-8890002D01*
X-8904723Y-8889997D01*
X-8923793Y-8672024D01*
X-8923793Y-8672020D01*
X-8980422Y-8460677D01*
X-8980426Y-8460668D01*
X-9072898Y-8262361D01*
X-9072900Y-8262357D01*
X-9198400Y-8083124D01*
X-9353122Y-7928403D01*
X-9532361Y-7802897D01*
X-9683583Y-7732382D01*
X-9736022Y-7686210D01*
X-9755174Y-7619016D01*
X-9734958Y-7552135D01*
X-9683583Y-7507618D01*
X-9532361Y-7437102D01*
X-9532360Y-7437101D01*
X-9353123Y-7311598D01*
X-9198402Y-7156877D01*
X-9072898Y-6977639D01*
X-9072897Y-6977638D01*
X-9026661Y-6878484D01*
X-8980425Y-6779330D01*
X-8980424Y-6779326D01*
X-8980422Y-6779322D01*
X-8923793Y-6567979D01*
X-8923793Y-6567975D01*
X-8904723Y-6350002D01*
X-8904723Y-6349997D01*
X-8923793Y-6132024D01*
X-8923793Y-6132020D01*
X-8980422Y-5920677D01*
X-8980426Y-5920668D01*
X-9072898Y-5722361D01*
X-9072900Y-5722357D01*
X-9198400Y-5543124D01*
X-9353122Y-5388403D01*
X-9532361Y-5262897D01*
X-9683583Y-5192382D01*
X-9736022Y-5146210D01*
X-9755174Y-5079016D01*
X-9734958Y-5012135D01*
X-9683583Y-4967618D01*
X-9532361Y-4897102D01*
X-9532360Y-4897101D01*
X-9353123Y-4771598D01*
X-9198402Y-4616877D01*
X-9072898Y-4437639D01*
X-9072897Y-4437638D01*
X-9026661Y-4338484D01*
X-8980425Y-4239330D01*
X-8980424Y-4239326D01*
X-8980422Y-4239322D01*
X-8923793Y-4027979D01*
X-8923793Y-4027975D01*
X-8904723Y-3810002D01*
X-8904723Y-3809997D01*
X-8923793Y-3592024D01*
X-8923793Y-3592020D01*
X-8980422Y-3380677D01*
X-8980426Y-3380668D01*
X-9072898Y-3182361D01*
X-9072900Y-3182357D01*
X-9198400Y-3003124D01*
X-9353122Y-2848403D01*
X-9532361Y-2722897D01*
X-9683583Y-2652382D01*
X-9736022Y-2606210D01*
X-9755174Y-2539016D01*
X-9734958Y-2472135D01*
X-9683583Y-2427618D01*
X-9532361Y-2357102D01*
X-9532360Y-2357101D01*
X-9353123Y-2231598D01*
X-9198402Y-2076877D01*
X-9072898Y-1897639D01*
X-9072897Y-1897638D01*
X-9026661Y-1798484D01*
X-8980425Y-1699330D01*
X-8980424Y-1699326D01*
X-8980422Y-1699322D01*
X-8923793Y-1487979D01*
X-8923793Y-1487975D01*
X-8904723Y-1270002D01*
X-8904723Y-1269997D01*
X-8923793Y-1052024D01*
X-8923793Y-1052020D01*
X-8980422Y-840677D01*
X-8980426Y-840668D01*
X-9072898Y-642361D01*
X-9072900Y-642357D01*
X-9198400Y-463124D01*
X-9353122Y-308403D01*
X-9532361Y-182897D01*
X-9683583Y-112382D01*
X-9736022Y-66210D01*
X-9755174Y984D01*
X-9734958Y67865D01*
X-9683583Y112382D01*
X-9532361Y182897D01*
X-9412782Y266627D01*
X-9353123Y308402D01*
X-9353121Y308403D01*
X-9353118Y308406D01*
X-9198406Y463118D01*
X-9072897Y642361D01*
X-8980426Y840668D01*
X-8980422Y840677D01*
X-8923793Y1052020D01*
X-8923793Y1052024D01*
X-8904723Y1269997D01*
X-8904723Y1270002D01*
X-8923793Y1487975D01*
X-8923793Y1487979D01*
X-8980422Y1699322D01*
X-8980424Y1699326D01*
X-8980425Y1699330D01*
X-9072898Y1897638D01*
X-9072900Y1897642D01*
X-9198400Y2076875D01*
X-9198403Y2076878D01*
X-9353123Y2231598D01*
X-9532361Y2357102D01*
X-9683583Y2427618D01*
X-9736022Y2473790D01*
X-9755174Y2540984D01*
X-9734958Y2607865D01*
X-9683583Y2652382D01*
X-9532361Y2722897D01*
X-9412782Y2806627D01*
X-9353123Y2848402D01*
X-9353121Y2848403D01*
X-9353118Y2848406D01*
X-9198406Y3003118D01*
X-9072897Y3182361D01*
X-8980426Y3380668D01*
X-8980422Y3380677D01*
X-8923793Y3592020D01*
X-8923793Y3592024D01*
X-8904723Y3809997D01*
X-8904723Y3810002D01*
X-8923793Y4027975D01*
X-8923793Y4027979D01*
X-8980422Y4239322D01*
X-8980424Y4239326D01*
X-8980425Y4239330D01*
X-9072898Y4437638D01*
X-9072900Y4437642D01*
X-9198400Y4616875D01*
X-9198403Y4616878D01*
X-9353123Y4771598D01*
X-9532361Y4897102D01*
X-9683583Y4967618D01*
X-9736022Y5013790D01*
X-9755174Y5080984D01*
X-9734958Y5147865D01*
X-9683583Y5192382D01*
X-9532361Y5262897D01*
X-9412782Y5346627D01*
X-9353123Y5388402D01*
X-9353121Y5388403D01*
X-9353118Y5388406D01*
X-9198406Y5543118D01*
X-9072897Y5722361D01*
X-8980426Y5920668D01*
X-8980422Y5920677D01*
X-8923793Y6132020D01*
X-8923793Y6132024D01*
X-8904723Y6349997D01*
X-8904723Y6350002D01*
X-8923793Y6567975D01*
X-8923793Y6567979D01*
X-8980422Y6779322D01*
X-8980424Y6779326D01*
X-8980425Y6779330D01*
X-9072898Y6977638D01*
X-9072900Y6977642D01*
X-9198400Y7156875D01*
X-9198403Y7156878D01*
X-9353123Y7311598D01*
X-9532361Y7437102D01*
X-9683583Y7507618D01*
X-9736022Y7553790D01*
X-9755174Y7620984D01*
X-9734958Y7687865D01*
X-9683583Y7732382D01*
X-9532361Y7802897D01*
X-9412782Y7886627D01*
X-9353123Y7928402D01*
X-9353121Y7928403D01*
X-9353118Y7928406D01*
X-9198406Y8083118D01*
X-9072897Y8262361D01*
X-8980426Y8460668D01*
X-8980422Y8460677D01*
X-8923793Y8672020D01*
X-8923793Y8672024D01*
X-8904723Y8889997D01*
X-8904723Y8890002D01*
X-8923793Y9107975D01*
X-8923793Y9107979D01*
X-8980422Y9319322D01*
X-8980424Y9319326D01*
X-8980425Y9319330D01*
X-9072898Y9517638D01*
X-9072900Y9517642D01*
X-9198400Y9696875D01*
X-9198403Y9696878D01*
X-9353123Y9851598D01*
X-9532361Y9977102D01*
X-9683583Y10047618D01*
X-9736022Y10093790D01*
X-9755174Y10160984D01*
X-9734958Y10227865D01*
X-9683583Y10272382D01*
X-9532361Y10342897D01*
X-9412782Y10426627D01*
X-9353123Y10468402D01*
X-9353121Y10468403D01*
X-9353118Y10468406D01*
X-9198406Y10623118D01*
X-9072897Y10802361D01*
X-8980426Y11000668D01*
X-8980422Y11000677D01*
X-8923793Y11212020D01*
X-8923793Y11212024D01*
X-8904723Y11429997D01*
X-8904723Y11430002D01*
X-8923793Y11647975D01*
X-8923793Y11647979D01*
X-8980422Y11859322D01*
X-8980424Y11859326D01*
X-8980425Y11859330D01*
X-9072898Y12057638D01*
X-9072900Y12057642D01*
X-9198400Y12236875D01*
X-9198403Y12236878D01*
X-9353123Y12391598D01*
X-9532361Y12517102D01*
X-9683583Y12587618D01*
X-9736022Y12633790D01*
X-9755174Y12700984D01*
X-9734958Y12767865D01*
X-9683583Y12812382D01*
X-9532361Y12882897D01*
X-9412782Y12966627D01*
X-9353123Y13008402D01*
X-9353121Y13008403D01*
X-9353118Y13008406D01*
X-9198406Y13163118D01*
X-9072897Y13342361D01*
X-8980426Y13540668D01*
X-8980422Y13540677D01*
X-8923793Y13752020D01*
X-8923793Y13752024D01*
X-8904723Y13969997D01*
X-8904723Y13970002D01*
X-8923793Y14187975D01*
X-8923793Y14187979D01*
X-8980422Y14399322D01*
X-8980424Y14399326D01*
X-8980425Y14399330D01*
X-9072898Y14597638D01*
X-9072900Y14597642D01*
X-9198400Y14776875D01*
X-9198403Y14776878D01*
X-9353123Y14931598D01*
X-9532361Y15057102D01*
X-9683583Y15127618D01*
X-9736022Y15173790D01*
X-9755174Y15240984D01*
X-9734958Y15307865D01*
X-9683583Y15352382D01*
X-9532361Y15422897D01*
X-9412782Y15506627D01*
X-9353123Y15548402D01*
X-9353121Y15548403D01*
X-9353118Y15548406D01*
X-9198406Y15703118D01*
X-9072897Y15882361D01*
X-8980426Y16080668D01*
X-8980422Y16080677D01*
X-8923793Y16292020D01*
X-8923793Y16292024D01*
X-8904723Y16509997D01*
X-8904723Y16510002D01*
X-8923793Y16727975D01*
X-8923793Y16727979D01*
X-8980422Y16939322D01*
X-8980424Y16939326D01*
X-8980425Y16939330D01*
X-9072898Y17137638D01*
X-9072900Y17137642D01*
X-9198400Y17316875D01*
X-9198403Y17316878D01*
X-9353123Y17471598D01*
X-9532361Y17597102D01*
X-9683583Y17667618D01*
X-9736022Y17713790D01*
X-9755174Y17780984D01*
X-9734958Y17847865D01*
X-9683583Y17892382D01*
X-9532361Y17962897D01*
X-9412782Y18046627D01*
X-9353123Y18088402D01*
X-9353121Y18088403D01*
X-9353118Y18088406D01*
X-9198406Y18243118D01*
X-9072897Y18422361D01*
X-8980426Y18620668D01*
X-8980422Y18620677D01*
X-8923793Y18832020D01*
X-8923793Y18832024D01*
X-8904723Y19049997D01*
X-8904723Y19050002D01*
X-8923793Y19267975D01*
X-8923793Y19267979D01*
X-8980422Y19479322D01*
X-8980424Y19479326D01*
X-8980425Y19479330D01*
X-9072898Y19677638D01*
X-9072900Y19677642D01*
X-9198400Y19856875D01*
X-9198403Y19856878D01*
X-9353123Y20011598D01*
X-9532361Y20137102D01*
X-9683583Y20207618D01*
X-9736022Y20253790D01*
X-9755174Y20320984D01*
X-9734958Y20387865D01*
X-9683583Y20432382D01*
X-9532361Y20502897D01*
X-9412782Y20586627D01*
X-9353123Y20628402D01*
X-9353121Y20628403D01*
X-9353118Y20628406D01*
X-9198406Y20783118D01*
X-9072897Y20962361D01*
X-8980426Y21160668D01*
X-8980422Y21160677D01*
X-8923793Y21372020D01*
X-8923793Y21372024D01*
X-8904723Y21589997D01*
X-8904723Y21590002D01*
X-8923793Y21807975D01*
X-8923793Y21807979D01*
X-8980422Y22019322D01*
X-8980424Y22019326D01*
X-8980425Y22019330D01*
X-9072898Y22217638D01*
X-9072900Y22217642D01*
X-9198400Y22396875D01*
X-9198403Y22396878D01*
X-9353123Y22551598D01*
X-9499263Y22653926D01*
X-9542887Y22708502D01*
X-9550081Y22778000D01*
X-9518558Y22840355D01*
X-9458328Y22875769D01*
X-9428140Y22879500D01*
X-9278482Y22879500D01*
X-9197519Y22892323D01*
X-9184696Y22894354D01*
X-9071658Y22951950D01*
X-9071657Y22951951D01*
X-9071652Y22951954D01*
X-8981954Y23041652D01*
X-8981951Y23041657D01*
X-8981318Y23042898D01*
X-8962751Y23079337D01*
X-8924352Y23154698D01*
X-8912085Y23232155D01*
X3730000Y23232155D01*
X3736401Y23172627D01*
X3736403Y23172620D01*
X3786645Y23037913D01*
X3786649Y23037906D01*
X3872809Y22922812D01*
X3872812Y22922809D01*
X3987906Y22836649D01*
X3987913Y22836645D01*
X4122620Y22786403D01*
X4122627Y22786401D01*
X4182155Y22780000D01*
X4830000Y22780000D01*
X4830000Y23694498D01*
X4937685Y23645320D01*
X5044237Y23630000D01*
X5115763Y23630000D01*
X5222315Y23645320D01*
X5330000Y23694498D01*
X5330000Y22780000D01*
X5977844Y22780000D01*
X6037372Y22786401D01*
X6037379Y22786403D01*
X6172086Y22836645D01*
X6172093Y22836649D01*
X6287187Y22922809D01*
X6287190Y22922812D01*
X6373350Y23037906D01*
X6373354Y23037913D01*
X6423596Y23172620D01*
X6423598Y23172627D01*
X6429999Y23232155D01*
X6430000Y23232172D01*
X6430000Y23880000D01*
X5513686Y23880000D01*
X5539493Y23920156D01*
X5580000Y24058111D01*
X5580000Y24201889D01*
X5539493Y24339844D01*
X5513686Y24380000D01*
X6430000Y24380000D01*
X6430000Y25027827D01*
X6429999Y25027844D01*
X6423598Y25087372D01*
X6423596Y25087379D01*
X6373354Y25222086D01*
X6373350Y25222093D01*
X6287190Y25337187D01*
X6287187Y25337190D01*
X6172093Y25423350D01*
X6172086Y25423354D01*
X6037379Y25473596D01*
X6037372Y25473598D01*
X5977844Y25479999D01*
X5977828Y25480000D01*
X5330000Y25480000D01*
X5330000Y24565501D01*
X5222315Y24614680D01*
X5115763Y24630000D01*
X5044237Y24630000D01*
X4937685Y24614680D01*
X4830000Y24565501D01*
X4830000Y25480000D01*
X4182172Y25480000D01*
X4182155Y25479999D01*
X4122627Y25473598D01*
X4122620Y25473596D01*
X3987913Y25423354D01*
X3987906Y25423350D01*
X3872812Y25337190D01*
X3872809Y25337187D01*
X3786649Y25222093D01*
X3786645Y25222086D01*
X3736403Y25087379D01*
X3736401Y25087372D01*
X3730000Y25027844D01*
X3730000Y24380000D01*
X4646314Y24380000D01*
X4620507Y24339844D01*
X4580000Y24201889D01*
X4580000Y24058111D01*
X4620507Y23920156D01*
X4646314Y23880000D01*
X3730000Y23880000D01*
X3730000Y23232155D01*
X-8912085Y23232155D01*
X-8909500Y23248475D01*
X-8909500Y25011517D01*
X-8922183Y25091597D01*
X-8924354Y25105304D01*
X-8981950Y25218342D01*
X-8981952Y25218344D01*
X-8981954Y25218347D01*
X-9071652Y25308045D01*
X-9071654Y25308046D01*
X-9071658Y25308050D01*
X-9184696Y25365646D01*
X-9184698Y25365647D01*
X-9278475Y25380499D01*
X-9278481Y25380500D01*
X-11041518Y25380499D01*
X-11135304Y25365646D01*
X-11248342Y25308050D01*
X-11338050Y25218342D01*
X-11395646Y25105304D01*
X-11395646Y25105302D01*
X-11395647Y25105301D01*
X-11406282Y25038147D01*
X-11410500Y25011519D01*
X-11410499Y23248482D01*
X-11395646Y23154696D01*
X-11338050Y23041658D01*
X-11338046Y23041654D01*
X-11338045Y23041652D01*
X-11248347Y22951954D01*
X-11248344Y22951952D01*
X-11248342Y22951950D01*
X-11171517Y22912805D01*
X-11135301Y22894352D01*
X-11041524Y22879500D01*
X-10891861Y22879500D01*
X-10824822Y22859815D01*
X-10779067Y22807011D01*
X-10769123Y22737853D01*
X-10798148Y22674297D01*
X-10820736Y22653925D01*
X-10966877Y22551598D01*
X-11121598Y22396877D01*
X-11247102Y22217638D01*
X-11339575Y22019330D01*
X-11396207Y21807977D01*
X-11415277Y21590000D01*
X-11396207Y21372023D01*
X-11339575Y21160670D01*
X-11247102Y20962361D01*
X-11121598Y20783123D01*
X-10966877Y20628402D01*
X-10823486Y20527998D01*
X-10787638Y20502897D01*
X-10636416Y20432381D01*
X-10583977Y20386208D01*
X-10564825Y20319015D01*
X-10585041Y20252134D01*
X-10636414Y20207618D01*
X-10787638Y20137102D01*
X-10966877Y20011598D01*
X-11121598Y19856877D01*
X-11247102Y19677638D01*
X-11339575Y19479330D01*
X-11396207Y19267977D01*
X-11415277Y19050000D01*
X-11396207Y18832023D01*
X-11339575Y18620670D01*
X-11247102Y18422361D01*
X-11121598Y18243123D01*
X-10966877Y18088402D01*
X-10823486Y17987998D01*
X-10787638Y17962897D01*
X-10636416Y17892381D01*
X-10583977Y17846208D01*
X-10564825Y17779015D01*
X-10585041Y17712134D01*
X-10636414Y17667618D01*
X-10787638Y17597102D01*
X-10966877Y17471598D01*
X-11121598Y17316877D01*
X-11247102Y17137638D01*
X-11339575Y16939330D01*
X-11396207Y16727977D01*
X-11415277Y16510000D01*
X-11396207Y16292023D01*
X-11339575Y16080670D01*
X-11247102Y15882361D01*
X-11121598Y15703123D01*
X-10966877Y15548402D01*
X-10823486Y15447998D01*
X-10787638Y15422897D01*
X-10636416Y15352381D01*
X-10583977Y15306208D01*
X-10564825Y15239015D01*
X-10585041Y15172134D01*
X-10636414Y15127618D01*
X-10787638Y15057102D01*
X-10966877Y14931598D01*
X-11121598Y14776877D01*
X-11247102Y14597638D01*
X-11339575Y14399330D01*
X-11396207Y14187977D01*
X-11415277Y13970000D01*
X-11396207Y13752023D01*
X-11339575Y13540670D01*
X-11247102Y13342361D01*
X-11121598Y13163123D01*
X-10966877Y13008402D01*
X-10823486Y12907998D01*
X-10787638Y12882897D01*
X-10636416Y12812381D01*
X-10583977Y12766208D01*
X-10564825Y12699015D01*
X-10585041Y12632134D01*
X-10636414Y12587618D01*
X-10787638Y12517102D01*
X-10966877Y12391598D01*
X-11121598Y12236877D01*
X-11247102Y12057638D01*
X-11339575Y11859330D01*
X-11396207Y11647977D01*
X-11415277Y11430000D01*
X-11396207Y11212023D01*
X-11339575Y11000670D01*
X-11247102Y10802361D01*
X-11121598Y10623123D01*
X-10966877Y10468402D01*
X-10823486Y10367998D01*
X-10787638Y10342897D01*
X-10636416Y10272381D01*
X-10583977Y10226208D01*
X-10564825Y10159015D01*
X-10585041Y10092134D01*
X-10636414Y10047618D01*
X-10787638Y9977102D01*
X-10966877Y9851598D01*
X-11121598Y9696877D01*
X-11247102Y9517638D01*
X-11339575Y9319330D01*
X-11396207Y9107977D01*
X-11415277Y8890000D01*
X-11396207Y8672023D01*
X-11339575Y8460670D01*
X-11247102Y8262361D01*
X-11121598Y8083123D01*
X-10966877Y7928402D01*
X-10823486Y7827998D01*
X-10787638Y7802897D01*
X-10636416Y7732381D01*
X-10583977Y7686208D01*
X-10564825Y7619015D01*
X-10585041Y7552134D01*
X-10636414Y7507618D01*
X-10787638Y7437102D01*
X-10966877Y7311598D01*
X-11121598Y7156877D01*
X-11247102Y6977638D01*
X-11339575Y6779330D01*
X-11396207Y6567977D01*
X-11415277Y6350000D01*
X-11396207Y6132023D01*
X-11339575Y5920670D01*
X-11247102Y5722361D01*
X-11121598Y5543123D01*
X-10966877Y5388402D01*
X-10823486Y5287998D01*
X-10787638Y5262897D01*
X-10636416Y5192381D01*
X-10583977Y5146208D01*
X-10564825Y5079015D01*
X-10585041Y5012134D01*
X-10636414Y4967618D01*
X-10787638Y4897102D01*
X-10966877Y4771598D01*
X-11121598Y4616877D01*
X-11247102Y4437638D01*
X-11339575Y4239330D01*
X-11396207Y4027977D01*
X-11415277Y3810000D01*
X-11396207Y3592023D01*
X-11339575Y3380670D01*
X-11247102Y3182361D01*
X-11121598Y3003123D01*
X-10966877Y2848402D01*
X-10823486Y2747998D01*
X-10787638Y2722897D01*
X-10636416Y2652381D01*
X-10583977Y2606208D01*
X-10564825Y2539015D01*
X-10585041Y2472134D01*
X-10636414Y2427618D01*
X-10787638Y2357102D01*
X-10966877Y2231598D01*
X-11121598Y2076877D01*
X-11247102Y1897638D01*
X-11339575Y1699330D01*
X-11396207Y1487977D01*
X-11415277Y1270000D01*
X-11396207Y1052023D01*
X-11339575Y840670D01*
X-11247102Y642361D01*
X-11121598Y463123D01*
X-10966877Y308402D01*
X-10787639Y182898D01*
X-10636414Y112381D01*
X-10583977Y66210D01*
X-10564825Y-984D01*
X-10585041Y-67865D01*
X-10636415Y-112381D01*
X-10787636Y-182897D01*
X-10787638Y-182898D01*
X-10787642Y-182900D01*
X-10966878Y-308402D01*
X-11121597Y-463121D01*
X-11247099Y-642357D01*
X-11247100Y-642359D01*
X-11247102Y-642362D01*
X-11339575Y-840670D01*
X-11396207Y-1052023D01*
X-11415277Y-1270000D01*
X-11396207Y-1487977D01*
X-11339575Y-1699330D01*
X-11247102Y-1897639D01*
X-11121598Y-2076877D01*
X-10966877Y-2231598D01*
X-10787639Y-2357102D01*
X-10636414Y-2427618D01*
X-10583977Y-2473790D01*
X-10564825Y-2540984D01*
X-10585041Y-2607865D01*
X-10636415Y-2652381D01*
X-10787636Y-2722897D01*
X-10787638Y-2722898D01*
X-10787642Y-2722900D01*
X-10966878Y-2848402D01*
X-11121597Y-3003121D01*
X-11247099Y-3182357D01*
X-11247100Y-3182359D01*
X-11247102Y-3182362D01*
X-11339575Y-3380670D01*
X-11396207Y-3592023D01*
X-11415277Y-3810000D01*
X-11396207Y-4027977D01*
X-11339575Y-4239330D01*
X-11247102Y-4437639D01*
X-11121598Y-4616877D01*
X-10966877Y-4771598D01*
X-10787639Y-4897102D01*
X-10636414Y-4967618D01*
X-10583977Y-5013790D01*
X-10564825Y-5080984D01*
X-10585041Y-5147865D01*
X-10636415Y-5192381D01*
X-10787636Y-5262897D01*
X-10787638Y-5262898D01*
X-10787642Y-5262900D01*
X-10966878Y-5388402D01*
X-11121597Y-5543121D01*
X-11247099Y-5722357D01*
X-11247100Y-5722359D01*
X-11247102Y-5722362D01*
X-11339575Y-5920670D01*
X-11396207Y-6132023D01*
X-11415277Y-6350000D01*
X-11396207Y-6567977D01*
X-11339575Y-6779330D01*
X-11247102Y-6977639D01*
X-11121598Y-7156877D01*
X-10966877Y-7311598D01*
X-10787639Y-7437102D01*
X-10636414Y-7507618D01*
X-10583977Y-7553790D01*
X-10564825Y-7620984D01*
X-10585041Y-7687865D01*
X-10636415Y-7732381D01*
X-10787636Y-7802897D01*
X-10787638Y-7802898D01*
X-10787642Y-7802900D01*
X-10966878Y-7928402D01*
X-11121597Y-8083121D01*
X-11247099Y-8262357D01*
X-11247100Y-8262359D01*
X-11247102Y-8262362D01*
X-11339575Y-8460670D01*
X-11396207Y-8672023D01*
X-11415277Y-8890000D01*
X-11396207Y-9107977D01*
X-11339575Y-9319330D01*
X-11247102Y-9517639D01*
X-11121598Y-9696877D01*
X-10966877Y-9851598D01*
X-10787639Y-9977102D01*
X-10636414Y-10047618D01*
X-10583977Y-10093790D01*
X-10564825Y-10160984D01*
X-10585041Y-10227865D01*
X-10636415Y-10272381D01*
X-10787636Y-10342897D01*
X-10787638Y-10342898D01*
X-10787642Y-10342900D01*
X-10966878Y-10468402D01*
X-11121597Y-10623121D01*
X-11247099Y-10802357D01*
X-11247100Y-10802359D01*
X-11247102Y-10802362D01*
X-11339575Y-11000670D01*
X-11396207Y-11212023D01*
X-11415277Y-11430000D01*
X-11396207Y-11647977D01*
X-11339575Y-11859330D01*
X-11247102Y-12057639D01*
X-11121598Y-12236877D01*
X-10966877Y-12391598D01*
X-10787639Y-12517102D01*
X-10636414Y-12587618D01*
X-10583977Y-12633790D01*
X-10564825Y-12700984D01*
X-10585041Y-12767865D01*
X-10636415Y-12812381D01*
X-10787636Y-12882897D01*
X-10787638Y-12882898D01*
X-10787642Y-12882900D01*
X-10966878Y-13008402D01*
X-11121597Y-13163121D01*
X-11247099Y-13342357D01*
X-11247100Y-13342359D01*
X-11247102Y-13342362D01*
X-11339575Y-13540670D01*
X-11396207Y-13752023D01*
X-11415277Y-13970000D01*
X-11396207Y-14187977D01*
X-11339575Y-14399330D01*
X-11247102Y-14597639D01*
X-11121598Y-14776877D01*
X-10966877Y-14931598D01*
X-10787639Y-15057102D01*
X-10636414Y-15127618D01*
X-10583977Y-15173790D01*
X-10564825Y-15240984D01*
X-10585041Y-15307865D01*
X-10636415Y-15352381D01*
X-10787636Y-15422897D01*
X-10787638Y-15422898D01*
X-10787642Y-15422900D01*
X-10966878Y-15548402D01*
X-11121597Y-15703121D01*
X-11247099Y-15882357D01*
X-11247100Y-15882359D01*
X-11247102Y-15882362D01*
X-11339575Y-16080670D01*
X-11396207Y-16292023D01*
X-11415277Y-16510000D01*
X-11396207Y-16727977D01*
X-11339575Y-16939330D01*
X-11247102Y-17137639D01*
X-11121598Y-17316877D01*
X-10966877Y-17471598D01*
X-10787639Y-17597102D01*
X-10636414Y-17667618D01*
X-10583977Y-17713790D01*
X-10564825Y-17780984D01*
X-10585041Y-17847865D01*
X-10636415Y-17892381D01*
X-10787636Y-17962897D01*
X-10787638Y-17962898D01*
X-10787642Y-17962900D01*
X-10966878Y-18088402D01*
X-11121597Y-18243121D01*
X-11247099Y-18422357D01*
X-11247100Y-18422359D01*
X-11247102Y-18422362D01*
X-11339575Y-18620670D01*
X-11396207Y-18832023D01*
X-11415277Y-19050000D01*
X-11396207Y-19267977D01*
X-11339575Y-19479330D01*
X-11247102Y-19677639D01*
X-11121598Y-19856877D01*
X-10966877Y-20011598D01*
X-10787639Y-20137102D01*
X-10636414Y-20207618D01*
X-10583977Y-20253790D01*
X-10564825Y-20320984D01*
X-10585041Y-20387865D01*
X-10636415Y-20432381D01*
X-10787636Y-20502897D01*
X-10787638Y-20502898D01*
X-10787642Y-20502900D01*
X-10966878Y-20628402D01*
X-11121597Y-20783121D01*
X-11247099Y-20962357D01*
X-11247100Y-20962359D01*
X-11247102Y-20962362D01*
X-11339575Y-21160670D01*
X-11396207Y-21372023D01*
X-11415277Y-21590000D01*
X-11396207Y-21807977D01*
X-11339575Y-22019330D01*
X-11247102Y-22217639D01*
X-11121598Y-22396877D01*
X-10966877Y-22551598D01*
X-10787639Y-22677102D01*
X-10636414Y-22747618D01*
X-10583977Y-22793790D01*
X-10564825Y-22860984D01*
X-10585041Y-22927865D01*
X-10636415Y-22972381D01*
X-10784966Y-23041652D01*
X-10787638Y-23042898D01*
X-10787642Y-23042900D01*
X-10966878Y-23168402D01*
X-11121597Y-23323121D01*
X-11247099Y-23502357D01*
X-11247100Y-23502359D01*
X-11247102Y-23502362D01*
X-11339575Y-23700670D01*
X-11396207Y-23912023D01*
X-11415277Y-24130000D01*
X-12999500Y-24130000D01*
X-12999500Y25994583D01*
X-12999028Y26005396D01*
X-12995581Y26044776D01*
X-12995456Y26046116D01*
X-12983082Y26171759D01*
X-12979454Y26191699D01*
X-12962127Y26256366D01*
X-12961013Y26260269D01*
X-12933319Y26351563D01*
X-12927040Y26367972D01*
X-12896329Y26433832D01*
X-12893305Y26439880D01*
X-12850985Y26519056D01*
X-12843201Y26531727D01*
X-12800380Y26592881D01*
X-12794659Y26600422D01*
X-12738821Y26668461D01*
X-12730649Y26677477D01*
X-12677477Y26730649D01*
X-12668461Y26738821D01*
X-12600422Y26794659D01*
X-12592881Y26800380D01*
X-12531727Y26843201D01*
X-12519056Y26850985D01*
X-12439880Y26893305D01*
X-12433832Y26896329D01*
X-12367972Y26927040D01*
X-12351563Y26933319D01*
X-12260269Y26961013D01*
X-12256366Y26962127D01*
X-12191699Y26979454D01*
X-12171759Y26983082D01*
X-12046116Y26995456D01*
X-12044776Y26995581D01*
X-12009760Y26998646D01*
X-12005392Y26999028D01*
X-11994584Y26999500D01*
X11994584Y26999500D01*
X12005392Y26999028D01*
G37*
%TD.AperFunction*%
%TD*%
M02*
