M48
; DRILL file {KiCad 7.0.10} date Mon Jan 15 01:50:35 2024
; FORMAT={-:-/ absolute / metric / decimal}
; #@! TF.CreationDate,2024-01-15T01:50:35-05:00
; #@! TF.GenerationSoftware,Kicad,Pcbnew,7.0.10
; #@! TF.FileFunction,Plated,1,2,PTH
FMAT,2
METRIC
; #@! TA.AperFunction,Plated,PTH,ViaDrill
T1C0.400
; #@! TA.AperFunction,Plated,PTH,ComponentDrill
T2C1.000
%
G90
G05
T1
X0.0Y0.0
T2
X-10.16Y24.13
X-10.16Y21.59
X-10.16Y19.05
X-10.16Y16.51
X-10.16Y13.97
X-10.16Y11.43
X-10.16Y8.89
X-10.16Y6.35
X-10.16Y3.81
X-10.16Y1.27
X-10.16Y-1.27
X-10.16Y-3.81
X-10.16Y-6.35
X-10.16Y-8.89
X-10.16Y-11.43
X-10.16Y-13.97
X-10.16Y-16.51
X-10.16Y-19.05
X-10.16Y-21.59
X-10.16Y-24.13
X5.08Y24.13
X10.16Y24.13
X10.16Y21.59
X10.16Y19.05
X10.16Y16.51
X10.16Y13.97
X10.16Y11.43
X10.16Y8.89
X10.16Y6.35
X10.16Y3.81
X10.16Y1.27
X10.16Y-1.27
X10.16Y-3.81
X10.16Y-6.35
X10.16Y-8.89
X10.16Y-11.43
X10.16Y-13.97
X10.16Y-16.51
X10.16Y-19.05
X10.16Y-21.59
X10.16Y-24.13
M30
