%TF.GenerationSoftware,KiCad,Pcbnew,7.0.10*%
%TF.CreationDate,2024-01-15T01:50:30-05:00*%
%TF.ProjectId,Keyboard-connector-breakout,4b657962-6f61-4726-942d-636f6e6e6563,rev?*%
%TF.SameCoordinates,Original*%
%TF.FileFunction,Copper,L1,Top*%
%TF.FilePolarity,Positive*%
%FSLAX46Y46*%
G04 Gerber Fmt 4.6, Leading zero omitted, Abs format (unit mm)*
G04 Created by KiCad (PCBNEW 7.0.10) date 2024-01-15 01:50:30*
%MOMM*%
%LPD*%
G01*
G04 APERTURE LIST*
G04 Aperture macros list*
%AMRoundRect*
0 Rectangle with rounded corners*
0 $1 Rounding radius*
0 $2 $3 $4 $5 $6 $7 $8 $9 X,Y pos of 4 corners*
0 Add a 4 corners polygon primitive as box body*
4,1,4,$2,$3,$4,$5,$6,$7,$8,$9,$2,$3,0*
0 Add four circle primitives for the rounded corners*
1,1,$1+$1,$2,$3*
1,1,$1+$1,$4,$5*
1,1,$1+$1,$6,$7*
1,1,$1+$1,$8,$9*
0 Add four rect primitives between the rounded corners*
20,1,$1+$1,$2,$3,$4,$5,0*
20,1,$1+$1,$4,$5,$6,$7,0*
20,1,$1+$1,$6,$7,$8,$9,0*
20,1,$1+$1,$8,$9,$2,$3,0*%
G04 Aperture macros list end*
%TA.AperFunction,SMDPad,CuDef*%
%ADD10RoundRect,0.075000X-0.825000X-0.075000X0.825000X-0.075000X0.825000X0.075000X-0.825000X0.075000X0*%
%TD*%
%TA.AperFunction,SMDPad,CuDef*%
%ADD11RoundRect,0.200000X-1.000000X-0.450000X1.000000X-0.450000X1.000000X0.450000X-1.000000X0.450000X0*%
%TD*%
%TA.AperFunction,ComponentPad*%
%ADD12R,1.700000X1.700000*%
%TD*%
%TA.AperFunction,ComponentPad*%
%ADD13O,1.700000X1.700000*%
%TD*%
%TA.AperFunction,ViaPad*%
%ADD14C,0.800000*%
%TD*%
%TA.AperFunction,Conductor*%
%ADD15C,0.250000*%
%TD*%
G04 APERTURE END LIST*
D10*
%TO.P,J1,1,Pin_1*%
%TO.N,Net-(J1-Pin_1)*%
X-3100000Y-4750000D03*
%TO.P,J1,2,Pin_2*%
%TO.N,Net-(J1-Pin_2)*%
X3100000Y-4750000D03*
%TO.P,J1,3,Pin_3*%
%TO.N,Net-(J1-Pin_3)*%
X-3100000Y-4250000D03*
%TO.P,J1,4,Pin_4*%
%TO.N,Net-(J1-Pin_4)*%
X3100000Y-4250000D03*
%TO.P,J1,5,Pin_5*%
%TO.N,Net-(J1-Pin_5)*%
X-3100000Y-3750000D03*
%TO.P,J1,6,Pin_6*%
%TO.N,Net-(J1-Pin_6)*%
X3100000Y-3750000D03*
%TO.P,J1,7,Pin_7*%
%TO.N,Net-(J1-Pin_7)*%
X-3100000Y-3250000D03*
%TO.P,J1,8,Pin_8*%
%TO.N,Net-(J1-Pin_8)*%
X3100000Y-3250000D03*
%TO.P,J1,9,Pin_9*%
%TO.N,Net-(J1-Pin_9)*%
X-3100000Y-2750000D03*
%TO.P,J1,10,Pin_10*%
%TO.N,Net-(J1-Pin_10)*%
X3100000Y-2750000D03*
%TO.P,J1,11,Pin_11*%
%TO.N,Net-(J1-Pin_11)*%
X-3100000Y-2250000D03*
%TO.P,J1,12,Pin_12*%
%TO.N,Net-(J1-Pin_12)*%
X3100000Y-2250000D03*
%TO.P,J1,13,Pin_13*%
%TO.N,Net-(J1-Pin_13)*%
X-3100000Y-1750000D03*
%TO.P,J1,14,Pin_14*%
%TO.N,Net-(J1-Pin_14)*%
X3100000Y-1750000D03*
%TO.P,J1,15,Pin_15*%
%TO.N,Net-(J1-Pin_15)*%
X-3100000Y-1250000D03*
%TO.P,J1,16,Pin_16*%
%TO.N,Net-(J1-Pin_16)*%
X3100000Y-1250000D03*
%TO.P,J1,17,Pin_17*%
%TO.N,Net-(J1-Pin_17)*%
X-3100000Y-750000D03*
%TO.P,J1,18,Pin_18*%
%TO.N,Net-(J1-Pin_18)*%
X3100000Y-750000D03*
%TO.P,J1,19,Pin_19*%
%TO.N,Net-(J1-Pin_19)*%
X-3100000Y-250000D03*
%TO.P,J1,20,Pin_20*%
%TO.N,Net-(J1-Pin_20)*%
X3100000Y-250000D03*
%TO.P,J1,21,Pin_21*%
%TO.N,Net-(J1-Pin_21)*%
X-3100000Y250000D03*
%TO.P,J1,22,Pin_22*%
%TO.N,Net-(J1-Pin_22)*%
X3100000Y250000D03*
%TO.P,J1,23,Pin_23*%
%TO.N,Net-(J1-Pin_23)*%
X-3100000Y750000D03*
%TO.P,J1,24,Pin_24*%
%TO.N,Net-(J1-Pin_24)*%
X3100000Y750000D03*
%TO.P,J1,25,Pin_25*%
%TO.N,Net-(J1-Pin_25)*%
X-3100000Y1250000D03*
%TO.P,J1,26,Pin_26*%
%TO.N,Net-(J1-Pin_26)*%
X3100000Y1250000D03*
%TO.P,J1,27,Pin_27*%
%TO.N,Net-(J1-Pin_27)*%
X-3100000Y1750000D03*
%TO.P,J1,28,Pin_28*%
%TO.N,Net-(J1-Pin_28)*%
X3100000Y1750000D03*
%TO.P,J1,29,Pin_29*%
%TO.N,Net-(J1-Pin_29)*%
X-3100000Y2250000D03*
%TO.P,J1,30,Pin_30*%
%TO.N,Net-(J1-Pin_30)*%
X3100000Y2250000D03*
%TO.P,J1,31,Pin_31*%
%TO.N,Net-(J1-Pin_31)*%
X-3100000Y2750000D03*
%TO.P,J1,32,Pin_32*%
%TO.N,Net-(J1-Pin_32)*%
X3100000Y2750000D03*
%TO.P,J1,33,Pin_33*%
%TO.N,Net-(J1-Pin_33)*%
X-3100000Y3250000D03*
%TO.P,J1,34,Pin_34*%
%TO.N,Net-(J1-Pin_34)*%
X3100000Y3250000D03*
%TO.P,J1,35,Pin_35*%
%TO.N,Net-(J1-Pin_35)*%
X-3100000Y3750000D03*
%TO.P,J1,36,Pin_36*%
%TO.N,Net-(J1-Pin_36)*%
X3100000Y3750000D03*
%TO.P,J1,37,Pin_37*%
%TO.N,Net-(J1-Pin_37)*%
X-3100000Y4250000D03*
%TO.P,J1,38,Pin_38*%
%TO.N,Net-(J1-Pin_38)*%
X3100000Y4250000D03*
%TO.P,J1,39,Pin_39*%
%TO.N,Net-(J1-Pin_39)*%
X-3100000Y4750000D03*
%TO.P,J1,40,Pin_40*%
%TO.N,Net-(J1-Pin_40)*%
X3100000Y4750000D03*
D11*
%TO.P,J1,MP,MountPin*%
%TO.N,GND*%
X-2800000Y5950000D03*
X-2800000Y-5950000D03*
X2800000Y5950000D03*
X2800000Y-5950000D03*
%TD*%
D12*
%TO.P,J4,1,Pin_1*%
%TO.N,GND*%
X5080000Y24130000D03*
%TD*%
%TO.P,J3,1,Pin_1*%
%TO.N,Net-(J1-Pin_2)*%
X10160000Y-24130000D03*
D13*
%TO.P,J3,2,Pin_2*%
%TO.N,Net-(J1-Pin_4)*%
X10160000Y-21590000D03*
%TO.P,J3,3,Pin_3*%
%TO.N,Net-(J1-Pin_6)*%
X10160000Y-19050000D03*
%TO.P,J3,4,Pin_4*%
%TO.N,Net-(J1-Pin_8)*%
X10160000Y-16510000D03*
%TO.P,J3,5,Pin_5*%
%TO.N,Net-(J1-Pin_10)*%
X10160000Y-13970000D03*
%TO.P,J3,6,Pin_6*%
%TO.N,Net-(J1-Pin_12)*%
X10160000Y-11430000D03*
%TO.P,J3,7,Pin_7*%
%TO.N,Net-(J1-Pin_14)*%
X10160000Y-8890000D03*
%TO.P,J3,8,Pin_8*%
%TO.N,Net-(J1-Pin_16)*%
X10160000Y-6350000D03*
%TO.P,J3,9,Pin_9*%
%TO.N,Net-(J1-Pin_18)*%
X10160000Y-3810000D03*
%TO.P,J3,10,Pin_10*%
%TO.N,Net-(J1-Pin_20)*%
X10160000Y-1270000D03*
%TO.P,J3,11,Pin_11*%
%TO.N,Net-(J1-Pin_22)*%
X10160000Y1270000D03*
%TO.P,J3,12,Pin_12*%
%TO.N,Net-(J1-Pin_24)*%
X10160000Y3810000D03*
%TO.P,J3,13,Pin_13*%
%TO.N,Net-(J1-Pin_26)*%
X10160000Y6350000D03*
%TO.P,J3,14,Pin_14*%
%TO.N,Net-(J1-Pin_28)*%
X10160000Y8890000D03*
%TO.P,J3,15,Pin_15*%
%TO.N,Net-(J1-Pin_30)*%
X10160000Y11430000D03*
%TO.P,J3,16,Pin_16*%
%TO.N,Net-(J1-Pin_32)*%
X10160000Y13970000D03*
%TO.P,J3,17,Pin_17*%
%TO.N,Net-(J1-Pin_34)*%
X10160000Y16510000D03*
%TO.P,J3,18,Pin_18*%
%TO.N,Net-(J1-Pin_36)*%
X10160000Y19050000D03*
%TO.P,J3,19,Pin_19*%
%TO.N,Net-(J1-Pin_38)*%
X10160000Y21590000D03*
%TO.P,J3,20,Pin_20*%
%TO.N,Net-(J1-Pin_40)*%
X10160000Y24130000D03*
%TD*%
D12*
%TO.P,J2,1,Pin_1*%
%TO.N,Net-(J1-Pin_39)*%
X-10160000Y24130000D03*
D13*
%TO.P,J2,2,Pin_2*%
%TO.N,Net-(J1-Pin_37)*%
X-10160000Y21590000D03*
%TO.P,J2,3,Pin_3*%
%TO.N,Net-(J1-Pin_35)*%
X-10160000Y19050000D03*
%TO.P,J2,4,Pin_4*%
%TO.N,Net-(J1-Pin_33)*%
X-10160000Y16510000D03*
%TO.P,J2,5,Pin_5*%
%TO.N,Net-(J1-Pin_31)*%
X-10160000Y13970000D03*
%TO.P,J2,6,Pin_6*%
%TO.N,Net-(J1-Pin_29)*%
X-10160000Y11430000D03*
%TO.P,J2,7,Pin_7*%
%TO.N,Net-(J1-Pin_27)*%
X-10160000Y8890000D03*
%TO.P,J2,8,Pin_8*%
%TO.N,Net-(J1-Pin_25)*%
X-10160000Y6350000D03*
%TO.P,J2,9,Pin_9*%
%TO.N,Net-(J1-Pin_23)*%
X-10160000Y3810000D03*
%TO.P,J2,10,Pin_10*%
%TO.N,Net-(J1-Pin_21)*%
X-10160000Y1270000D03*
%TO.P,J2,11,Pin_11*%
%TO.N,Net-(J1-Pin_19)*%
X-10160000Y-1270000D03*
%TO.P,J2,12,Pin_12*%
%TO.N,Net-(J1-Pin_17)*%
X-10160000Y-3810000D03*
%TO.P,J2,13,Pin_13*%
%TO.N,Net-(J1-Pin_15)*%
X-10160000Y-6350000D03*
%TO.P,J2,14,Pin_14*%
%TO.N,Net-(J1-Pin_13)*%
X-10160000Y-8890000D03*
%TO.P,J2,15,Pin_15*%
%TO.N,Net-(J1-Pin_11)*%
X-10160000Y-11430000D03*
%TO.P,J2,16,Pin_16*%
%TO.N,Net-(J1-Pin_9)*%
X-10160000Y-13970000D03*
%TO.P,J2,17,Pin_17*%
%TO.N,Net-(J1-Pin_7)*%
X-10160000Y-16510000D03*
%TO.P,J2,18,Pin_18*%
%TO.N,Net-(J1-Pin_5)*%
X-10160000Y-19050000D03*
%TO.P,J2,19,Pin_19*%
%TO.N,Net-(J1-Pin_3)*%
X-10160000Y-21590000D03*
%TO.P,J2,20,Pin_20*%
%TO.N,Net-(J1-Pin_1)*%
X-10160000Y-24130000D03*
%TD*%
D14*
%TO.N,GND*%
X0Y0D03*
%TD*%
D15*
%TO.N,Net-(J1-Pin_39)*%
X-4325000Y18295000D02*
X-4325000Y5075001D01*
X-3999999Y4750000D02*
X-3100000Y4750000D01*
X-10160000Y24130000D02*
X-4325000Y18295000D01*
X-4325000Y5075001D02*
X-3999999Y4750000D01*
%TO.N,Net-(J1-Pin_37)*%
X-4775000Y16205000D02*
X-10160000Y21590000D01*
X-3100000Y4250000D02*
X-4136395Y4250000D01*
X-4136395Y4250000D02*
X-4775000Y4888605D01*
X-4775000Y4888605D02*
X-4775000Y16205000D01*
%TO.N,Net-(J1-Pin_35)*%
X-3100000Y3750000D02*
X-4272791Y3750000D01*
X-4272791Y3750000D02*
X-5225000Y4702209D01*
X-5225000Y14115000D02*
X-10160000Y19050000D01*
X-5225000Y4702209D02*
X-5225000Y14115000D01*
%TO.N,Net-(J1-Pin_33)*%
X-5675000Y12025000D02*
X-10160000Y16510000D01*
X-5675000Y4515813D02*
X-5675000Y12025000D01*
X-4409187Y3250000D02*
X-5675000Y4515813D01*
X-3100000Y3250000D02*
X-4409187Y3250000D01*
%TO.N,Net-(J1-Pin_31)*%
X-6125000Y4329417D02*
X-6125000Y9935000D01*
X-4545583Y2750000D02*
X-6125000Y4329417D01*
X-3100000Y2750000D02*
X-4545583Y2750000D01*
X-6125000Y9935000D02*
X-10160000Y13970000D01*
%TO.N,Net-(J1-Pin_29)*%
X-6575000Y4143021D02*
X-6575000Y7845000D01*
X-3100000Y2250000D02*
X-4681979Y2250000D01*
X-6575000Y7845000D02*
X-10160000Y11430000D01*
X-4681979Y2250000D02*
X-6575000Y4143021D01*
%TO.N,Net-(J1-Pin_27)*%
X-4818375Y1750000D02*
X-3100000Y1750000D01*
X-7025000Y3956625D02*
X-4818375Y1750000D01*
X-10160000Y8890000D02*
X-7025000Y5755000D01*
X-7025000Y5755000D02*
X-7025000Y3956625D01*
%TO.N,Net-(J1-Pin_25)*%
X-10160000Y6350000D02*
X-5060000Y1250000D01*
X-5060000Y1250000D02*
X-3100000Y1250000D01*
%TO.N,Net-(J1-Pin_23)*%
X-7100000Y750000D02*
X-10160000Y3810000D01*
X-3100000Y750000D02*
X-7100000Y750000D01*
%TO.N,Net-(J1-Pin_21)*%
X-3100000Y250000D02*
X-9140000Y250000D01*
X-9140000Y250000D02*
X-10160000Y1270000D01*
%TO.N,Net-(J1-Pin_19)*%
X-10160000Y-1270000D02*
X-9140000Y-250000D01*
X-9140000Y-250000D02*
X-3100000Y-250000D01*
%TO.N,Net-(J1-Pin_17)*%
X-10160000Y-3810000D02*
X-7100000Y-750000D01*
X-7100000Y-750000D02*
X-3100000Y-750000D01*
%TO.N,Net-(J1-Pin_15)*%
X-10160000Y-6350000D02*
X-5060000Y-1250000D01*
X-5060000Y-1250000D02*
X-3100000Y-1250000D01*
%TO.N,Net-(J1-Pin_13)*%
X-4818375Y-1750000D02*
X-3100000Y-1750000D01*
X-7025000Y-3956625D02*
X-4818375Y-1750000D01*
X-10160000Y-8890000D02*
X-7025000Y-5755000D01*
X-7025000Y-5755000D02*
X-7025000Y-3956625D01*
%TO.N,Net-(J1-Pin_11)*%
X-10160000Y-11430000D02*
X-6575000Y-7845000D01*
X-6575000Y-7845000D02*
X-6575000Y-4143021D01*
X-6575000Y-4143021D02*
X-4681979Y-2250000D01*
X-4681979Y-2250000D02*
X-3100000Y-2250000D01*
%TO.N,Net-(J1-Pin_9)*%
X-6125000Y-4329417D02*
X-4545583Y-2750000D01*
X-10160000Y-13970000D02*
X-6125000Y-9935000D01*
X-4545583Y-2750000D02*
X-3100000Y-2750000D01*
X-6125000Y-9935000D02*
X-6125000Y-4329417D01*
%TO.N,Net-(J1-Pin_7)*%
X-3100000Y-3250000D02*
X-4409187Y-3250000D01*
X-4409187Y-3250000D02*
X-5675000Y-4515813D01*
X-5675000Y-12025000D02*
X-10160000Y-16510000D01*
X-5675000Y-4515813D02*
X-5675000Y-12025000D01*
%TO.N,Net-(J1-Pin_5)*%
X-4272791Y-3750000D02*
X-5225000Y-4702209D01*
X-5225000Y-4702209D02*
X-5225000Y-14115000D01*
X-3100000Y-3750000D02*
X-4272791Y-3750000D01*
X-5225000Y-14115000D02*
X-10160000Y-19050000D01*
%TO.N,Net-(J1-Pin_3)*%
X-4136395Y-4250000D02*
X-3100000Y-4250000D01*
X-4775000Y-16205000D02*
X-4775000Y-4888605D01*
X-10160000Y-21590000D02*
X-4775000Y-16205000D01*
X-4775000Y-4888605D02*
X-4136395Y-4250000D01*
%TO.N,Net-(J1-Pin_1)*%
X-4300000Y-7400000D02*
X-4300000Y-18270000D01*
X-4325000Y-5075001D02*
X-4325000Y-7375000D01*
X-4325000Y-7375000D02*
X-4300000Y-7400000D01*
X-3999999Y-4750000D02*
X-4325000Y-5075001D01*
X-4300000Y-18270000D02*
X-10160000Y-24130000D01*
X-3100000Y-4750000D02*
X-3999999Y-4750000D01*
%TO.N,Net-(J1-Pin_2)*%
X3850000Y-4750000D02*
X4400000Y-5300000D01*
X3100000Y-4750000D02*
X3850000Y-4750000D01*
X4400000Y-18370000D02*
X10160000Y-24130000D01*
X4400000Y-5300000D02*
X4400000Y-18370000D01*
%TO.N,Net-(J1-Pin_4)*%
X4850000Y-16280000D02*
X10160000Y-21590000D01*
X4067764Y-4250000D02*
X4850000Y-5032236D01*
X4850000Y-5032236D02*
X4850000Y-16280000D01*
X3100000Y-4250000D02*
X4067764Y-4250000D01*
%TO.N,Net-(J1-Pin_6)*%
X5300000Y-4845840D02*
X5300000Y-14190000D01*
X4204160Y-3750000D02*
X5300000Y-4845840D01*
X3100000Y-3750000D02*
X4204160Y-3750000D01*
X5300000Y-14190000D02*
X10160000Y-19050000D01*
%TO.N,Net-(J1-Pin_8)*%
X5750000Y-12100000D02*
X10160000Y-16510000D01*
X3100000Y-3250000D02*
X4340556Y-3250000D01*
X4340556Y-3250000D02*
X5750000Y-4659444D01*
X5750000Y-4659444D02*
X5750000Y-12100000D01*
%TO.N,Net-(J1-Pin_10)*%
X6200000Y-10010000D02*
X10160000Y-13970000D01*
X4476952Y-2750000D02*
X6200000Y-4473048D01*
X3100000Y-2750000D02*
X4476952Y-2750000D01*
X6200000Y-4473048D02*
X6200000Y-10010000D01*
%TO.N,Net-(J1-Pin_12)*%
X6700000Y-4336652D02*
X6700000Y-7970000D01*
X6700000Y-7970000D02*
X10160000Y-11430000D01*
X3100000Y-2250000D02*
X4613348Y-2250000D01*
X4613348Y-2250000D02*
X6700000Y-4336652D01*
%TO.N,Net-(J1-Pin_14)*%
X7200000Y-4200000D02*
X4750000Y-1750000D01*
X4750000Y-1750000D02*
X3100000Y-1750000D01*
X10160000Y-8890000D02*
X7200000Y-5930000D01*
X7200000Y-5930000D02*
X7200000Y-4200000D01*
%TO.N,Net-(J1-Pin_16)*%
X3100000Y-1250000D02*
X5060000Y-1250000D01*
X5060000Y-1250000D02*
X10160000Y-6350000D01*
%TO.N,Net-(J1-Pin_18)*%
X3100000Y-750000D02*
X6940000Y-750000D01*
X6940000Y-750000D02*
X10000000Y-3810000D01*
%TO.N,Net-(J1-Pin_20)*%
X8980000Y-250000D02*
X10000000Y-1270000D01*
X3100000Y-250000D02*
X8980000Y-250000D01*
%TO.N,Net-(J1-Pin_22)*%
X8980000Y250000D02*
X3100000Y250000D01*
X10000000Y1270000D02*
X8980000Y250000D01*
%TO.N,Net-(J1-Pin_24)*%
X10000000Y3810000D02*
X6940000Y750000D01*
X6940000Y750000D02*
X3100000Y750000D01*
%TO.N,Net-(J1-Pin_26)*%
X10000000Y6295229D02*
X4954771Y1250000D01*
X4954771Y1250000D02*
X3100000Y1250000D01*
X10000000Y6350000D02*
X10000000Y6295229D01*
%TO.N,Net-(J1-Pin_28)*%
X7100000Y5990000D02*
X7100000Y4031625D01*
X10000000Y8890000D02*
X7100000Y5990000D01*
X7100000Y4031625D02*
X4818375Y1750000D01*
X4818375Y1750000D02*
X3100000Y1750000D01*
%TO.N,Net-(J1-Pin_30)*%
X6650000Y8080000D02*
X6650000Y4218021D01*
X10000000Y11430000D02*
X6650000Y8080000D01*
X6650000Y4218021D02*
X4681979Y2250000D01*
X4681979Y2250000D02*
X3100000Y2250000D01*
%TO.N,Net-(J1-Pin_32)*%
X4545583Y2750000D02*
X3100000Y2750000D01*
X6200000Y10170000D02*
X6200000Y4404417D01*
X6200000Y4404417D02*
X4545583Y2750000D01*
X10000000Y13970000D02*
X6200000Y10170000D01*
%TO.N,Net-(J1-Pin_34)*%
X5750000Y4590813D02*
X4409187Y3250000D01*
X10000000Y16510000D02*
X5750000Y12260000D01*
X4409187Y3250000D02*
X3100000Y3250000D01*
X5750000Y12260000D02*
X5750000Y4590813D01*
%TO.N,Net-(J1-Pin_36)*%
X4272791Y3750000D02*
X3100000Y3750000D01*
X5300000Y4777209D02*
X4272791Y3750000D01*
X10000000Y19050000D02*
X5300000Y14350000D01*
X5300000Y14350000D02*
X5300000Y4777209D01*
%TO.N,Net-(J1-Pin_38)*%
X4850000Y4963605D02*
X4136395Y4250000D01*
X4850000Y16440000D02*
X4850000Y4963605D01*
X10000000Y21590000D02*
X4850000Y16440000D01*
X4136395Y4250000D02*
X3100000Y4250000D01*
%TO.N,Net-(J1-Pin_40)*%
X4400000Y5150001D02*
X3999999Y4750000D01*
X10000000Y24130000D02*
X4400000Y18530000D01*
X3999999Y4750000D02*
X3100000Y4750000D01*
X4400000Y18530000D02*
X4400000Y5150001D01*
%TD*%
%TA.AperFunction,Conductor*%
%TO.N,GND*%
G36*
X12005392Y26999028D02*
G01*
X12009760Y26998646D01*
X12044776Y26995581D01*
X12046116Y26995456D01*
X12171760Y26983082D01*
X12191700Y26979454D01*
X12256382Y26962123D01*
X12260285Y26961008D01*
X12351562Y26933319D01*
X12367971Y26927041D01*
X12433835Y26896328D01*
X12439884Y26893304D01*
X12519046Y26850990D01*
X12531715Y26843207D01*
X12592889Y26800373D01*
X12600430Y26794652D01*
X12668455Y26738826D01*
X12677472Y26730653D01*
X12730653Y26677472D01*
X12738826Y26668455D01*
X12794652Y26600430D01*
X12800373Y26592889D01*
X12843207Y26531715D01*
X12850990Y26519046D01*
X12893304Y26439884D01*
X12896328Y26433835D01*
X12927041Y26367971D01*
X12933319Y26351562D01*
X12961008Y26260285D01*
X12962123Y26256382D01*
X12979454Y26191700D01*
X12983082Y26171760D01*
X12995456Y26046116D01*
X12995581Y26044776D01*
X12999028Y26005396D01*
X12999500Y25994583D01*
X12999500Y-25994583D01*
X12999028Y-26005396D01*
X12995581Y-26044776D01*
X12995456Y-26046116D01*
X12983082Y-26171760D01*
X12979454Y-26191700D01*
X12962123Y-26256382D01*
X12961008Y-26260285D01*
X12933319Y-26351562D01*
X12927041Y-26367971D01*
X12896328Y-26433835D01*
X12893304Y-26439884D01*
X12850990Y-26519046D01*
X12843207Y-26531715D01*
X12800373Y-26592889D01*
X12794652Y-26600430D01*
X12738826Y-26668455D01*
X12730653Y-26677472D01*
X12677472Y-26730653D01*
X12668455Y-26738826D01*
X12600430Y-26794652D01*
X12592889Y-26800373D01*
X12531715Y-26843207D01*
X12519046Y-26850990D01*
X12439884Y-26893304D01*
X12433835Y-26896328D01*
X12367971Y-26927041D01*
X12351562Y-26933319D01*
X12260285Y-26961008D01*
X12256382Y-26962123D01*
X12191700Y-26979454D01*
X12171760Y-26983082D01*
X12046116Y-26995456D01*
X12044776Y-26995581D01*
X12009760Y-26998646D01*
X12005392Y-26999028D01*
X11994584Y-26999500D01*
X-11994584Y-26999500D01*
X-12005392Y-26999028D01*
X-12009760Y-26998646D01*
X-12044776Y-26995581D01*
X-12046116Y-26995456D01*
X-12171759Y-26983082D01*
X-12191699Y-26979454D01*
X-12256366Y-26962127D01*
X-12260269Y-26961013D01*
X-12351563Y-26933319D01*
X-12367972Y-26927040D01*
X-12433832Y-26896329D01*
X-12439880Y-26893305D01*
X-12519056Y-26850985D01*
X-12531727Y-26843201D01*
X-12592881Y-26800380D01*
X-12600422Y-26794659D01*
X-12668461Y-26738821D01*
X-12677477Y-26730649D01*
X-12730649Y-26677477D01*
X-12738821Y-26668461D01*
X-12794659Y-26600422D01*
X-12800380Y-26592881D01*
X-12843201Y-26531727D01*
X-12850985Y-26519056D01*
X-12893305Y-26439880D01*
X-12896329Y-26433832D01*
X-12927040Y-26367972D01*
X-12933319Y-26351563D01*
X-12961013Y-26260269D01*
X-12962127Y-26256366D01*
X-12979454Y-26191699D01*
X-12983082Y-26171759D01*
X-12995456Y-26046116D01*
X-12995581Y-26044776D01*
X-12999028Y-26005396D01*
X-12999500Y-25994583D01*
X-12999500Y-24130000D01*
X-11415277Y-24130000D01*
X-11396207Y-24347977D01*
X-11339575Y-24559330D01*
X-11247102Y-24757639D01*
X-11121598Y-24936877D01*
X-10966877Y-25091598D01*
X-10787639Y-25217102D01*
X-10589330Y-25309575D01*
X-10377977Y-25366207D01*
X-10192462Y-25382437D01*
X-10160002Y-25385277D01*
X-10160000Y-25385277D01*
X-10159998Y-25385277D01*
X-10129787Y-25382633D01*
X-9942023Y-25366207D01*
X-9730670Y-25309575D01*
X-9532361Y-25217102D01*
X-9353123Y-25091598D01*
X-9198402Y-24936877D01*
X-9072898Y-24757639D01*
X-9072897Y-24757638D01*
X-9026661Y-24658484D01*
X-8980425Y-24559330D01*
X-8980424Y-24559326D01*
X-8980422Y-24559322D01*
X-8923793Y-24347979D01*
X-8923793Y-24347975D01*
X-8904723Y-24130002D01*
X-8904723Y-24129997D01*
X-8923793Y-23912024D01*
X-8923793Y-23912020D01*
X-8963391Y-23764240D01*
X-8961728Y-23694390D01*
X-8931297Y-23644466D01*
X-3936271Y-18649440D01*
X-3933227Y-18646498D01*
X-3905570Y-18620668D01*
X-3888531Y-18604755D01*
X-3888530Y-18604754D01*
X-3888529Y-18604753D01*
X-3888528Y-18604751D01*
X-3868301Y-18571489D01*
X-3861156Y-18560991D01*
X-3837636Y-18529975D01*
X-3831528Y-18514486D01*
X-3822120Y-18495546D01*
X-3813476Y-18481332D01*
X-3813472Y-18481322D01*
X-3802971Y-18443845D01*
X-3798925Y-18431812D01*
X-3795196Y-18422357D01*
X-3784641Y-18395590D01*
X-3784640Y-18395583D01*
X-3782937Y-18379023D01*
X-3778990Y-18358256D01*
X-3774500Y-18342232D01*
X-3774500Y-18303296D01*
X-3773850Y-18290616D01*
X-3769869Y-18251892D01*
X-3769869Y-18251886D01*
X-3772697Y-18235487D01*
X-3774500Y-18214420D01*
X-3774500Y-7411108D01*
X-3774428Y-7406875D01*
X-3772340Y-7345751D01*
X-3781556Y-7307931D01*
X-3783926Y-7295463D01*
X-3790384Y-7248488D01*
X-3788956Y-7248291D01*
X-3788204Y-7187594D01*
X-3749705Y-7129288D01*
X-3685795Y-7101052D01*
X-3669669Y-7099999D01*
X-2003553Y-7099999D01*
X-2003552Y-7099998D01*
X-3065871Y-6037680D01*
X-3099356Y-5976357D01*
X-3094372Y-5906665D01*
X-3065871Y-5862318D01*
X-2540371Y-5336818D01*
X-2479048Y-5303333D01*
X-2452690Y-5300499D01*
X-2229519Y-5300499D01*
X-2229516Y-5300499D01*
X-2190025Y-5296254D01*
X-2172885Y-5294412D01*
X-2142869Y-5283216D01*
X-2097687Y-5266363D01*
X-2027998Y-5261378D01*
X-1966674Y-5294862D01*
X-1933188Y-5356185D01*
X-1938172Y-5425877D01*
X-1966673Y-5470226D01*
X-2446447Y-5950000D01*
X-1412645Y-6983800D01*
X-1412643Y-6983801D01*
X-1365131Y-6955079D01*
X-1365130Y-6955078D01*
X-1244926Y-6834875D01*
X-1156980Y-6689395D01*
X-1106409Y-6527106D01*
X-1100001Y-6456582D01*
X1100000Y-6456582D01*
X1106408Y-6527102D01*
X1106409Y-6527107D01*
X1156981Y-6689396D01*
X1244926Y-6834875D01*
X1365130Y-6955078D01*
X1365131Y-6955079D01*
X1412643Y-6983801D01*
X1412645Y-6983800D01*
X2446447Y-5950000D01*
X1966673Y-5470226D01*
X1933188Y-5408903D01*
X1938172Y-5339211D01*
X1980044Y-5283278D01*
X2045508Y-5258861D01*
X2097686Y-5266363D01*
X2172886Y-5294412D01*
X2229515Y-5300500D01*
X2452691Y-5300499D01*
X2519729Y-5320183D01*
X2540371Y-5336818D01*
X3065871Y-5862318D01*
X3099356Y-5923641D01*
X3094372Y-5993333D01*
X3065871Y-6037680D01*
X2003552Y-7099998D01*
X2003553Y-7099999D01*
X3750500Y-7099999D01*
X3817539Y-7119684D01*
X3863294Y-7172488D01*
X3874500Y-7223999D01*
X3874500Y-18358890D01*
X3874428Y-18363123D01*
X3872405Y-18422361D01*
X3872340Y-18424250D01*
X3881556Y-18462068D01*
X3883927Y-18474540D01*
X3889228Y-18513109D01*
X3895864Y-18528387D01*
X3902602Y-18548424D01*
X3906542Y-18564593D01*
X3906543Y-18564594D01*
X3925618Y-18598520D01*
X3931266Y-18609890D01*
X3946782Y-18645612D01*
X3957283Y-18658518D01*
X3969182Y-18676000D01*
X3977342Y-18690512D01*
X4004878Y-18718048D01*
X4013377Y-18727466D01*
X4037943Y-18757662D01*
X4037944Y-18757663D01*
X4037946Y-18757665D01*
X4051544Y-18767264D01*
X4067715Y-18780885D01*
X8873181Y-23586350D01*
X8906666Y-23647673D01*
X8909500Y-23674031D01*
X8909500Y-25011517D01*
X8920292Y-25079657D01*
X8924354Y-25105304D01*
X8981950Y-25218342D01*
X8981952Y-25218344D01*
X8981954Y-25218347D01*
X9071652Y-25308045D01*
X9071654Y-25308046D01*
X9071658Y-25308050D01*
X9184694Y-25365645D01*
X9184698Y-25365647D01*
X9278475Y-25380499D01*
X9278481Y-25380500D01*
X11041518Y-25380499D01*
X11135304Y-25365646D01*
X11248342Y-25308050D01*
X11338050Y-25218342D01*
X11395646Y-25105304D01*
X11395646Y-25105302D01*
X11395647Y-25105301D01*
X11410499Y-25011524D01*
X11410500Y-25011519D01*
X11410499Y-23248482D01*
X11395646Y-23154696D01*
X11338050Y-23041658D01*
X11338046Y-23041654D01*
X11338045Y-23041652D01*
X11248347Y-22951954D01*
X11248344Y-22951952D01*
X11248342Y-22951950D01*
X11171517Y-22912805D01*
X11135301Y-22894352D01*
X11041524Y-22879500D01*
X11041519Y-22879500D01*
X10891862Y-22879500D01*
X10824823Y-22859815D01*
X10779068Y-22807011D01*
X10769124Y-22737853D01*
X10798149Y-22674297D01*
X10820734Y-22653928D01*
X10966877Y-22551598D01*
X11121598Y-22396877D01*
X11247102Y-22217639D01*
X11339575Y-22019330D01*
X11396207Y-21807977D01*
X11415277Y-21590000D01*
X11396207Y-21372023D01*
X11339575Y-21160670D01*
X11247102Y-20962362D01*
X11247100Y-20962359D01*
X11247099Y-20962357D01*
X11121599Y-20783124D01*
X11121596Y-20783121D01*
X10966877Y-20628402D01*
X10787639Y-20502898D01*
X10636414Y-20432381D01*
X10583977Y-20386210D01*
X10564825Y-20319016D01*
X10585041Y-20252135D01*
X10636414Y-20207618D01*
X10787639Y-20137102D01*
X10966877Y-20011598D01*
X11121598Y-19856877D01*
X11247102Y-19677639D01*
X11339575Y-19479330D01*
X11396207Y-19267977D01*
X11415277Y-19050000D01*
X11396207Y-18832023D01*
X11339575Y-18620670D01*
X11247102Y-18422362D01*
X11247100Y-18422359D01*
X11247099Y-18422357D01*
X11121599Y-18243124D01*
X11067125Y-18188650D01*
X10966877Y-18088402D01*
X10787639Y-17962898D01*
X10636414Y-17892381D01*
X10583977Y-17846210D01*
X10564825Y-17779016D01*
X10585041Y-17712135D01*
X10636414Y-17667618D01*
X10787639Y-17597102D01*
X10966877Y-17471598D01*
X11121598Y-17316877D01*
X11247102Y-17137639D01*
X11339575Y-16939330D01*
X11396207Y-16727977D01*
X11415277Y-16510000D01*
X11396207Y-16292023D01*
X11356609Y-16144241D01*
X11339577Y-16080677D01*
X11339576Y-16080676D01*
X11339575Y-16080670D01*
X11247102Y-15882362D01*
X11247100Y-15882359D01*
X11247099Y-15882357D01*
X11121599Y-15703124D01*
X11121596Y-15703121D01*
X10966877Y-15548402D01*
X10787639Y-15422898D01*
X10636414Y-15352381D01*
X10583977Y-15306210D01*
X10564825Y-15239016D01*
X10585041Y-15172135D01*
X10636414Y-15127618D01*
X10787639Y-15057102D01*
X10966877Y-14931598D01*
X11121598Y-14776877D01*
X11247102Y-14597639D01*
X11339575Y-14399330D01*
X11396207Y-14187977D01*
X11415277Y-13970000D01*
X11396207Y-13752023D01*
X11339575Y-13540670D01*
X11247102Y-13342362D01*
X11247100Y-13342359D01*
X11247099Y-13342357D01*
X11121599Y-13163124D01*
X11053769Y-13095294D01*
X10966877Y-13008402D01*
X10787639Y-12882898D01*
X10636414Y-12812381D01*
X10583977Y-12766210D01*
X10564825Y-12699016D01*
X10585041Y-12632135D01*
X10636414Y-12587618D01*
X10787639Y-12517102D01*
X10966877Y-12391598D01*
X11121598Y-12236877D01*
X11247102Y-12057639D01*
X11339575Y-11859330D01*
X11396207Y-11647977D01*
X11415277Y-11430000D01*
X11396207Y-11212023D01*
X11348591Y-11034319D01*
X11339577Y-11000677D01*
X11339576Y-11000676D01*
X11339575Y-11000670D01*
X11247102Y-10802362D01*
X11247100Y-10802359D01*
X11247099Y-10802357D01*
X11121599Y-10623124D01*
X11121596Y-10623121D01*
X10966877Y-10468402D01*
X10787639Y-10342898D01*
X10636414Y-10272381D01*
X10583977Y-10226210D01*
X10564825Y-10159016D01*
X10585041Y-10092135D01*
X10636414Y-10047618D01*
X10787639Y-9977102D01*
X10966877Y-9851598D01*
X11121598Y-9696877D01*
X11247102Y-9517639D01*
X11339575Y-9319330D01*
X11396207Y-9107977D01*
X11415277Y-8890000D01*
X11413995Y-8875351D01*
X11411066Y-8841866D01*
X11396207Y-8672023D01*
X11339575Y-8460670D01*
X11247102Y-8262362D01*
X11247100Y-8262359D01*
X11247099Y-8262357D01*
X11121599Y-8083124D01*
X11121596Y-8083121D01*
X10966877Y-7928402D01*
X10787639Y-7802898D01*
X10636414Y-7732381D01*
X10583977Y-7686210D01*
X10564825Y-7619016D01*
X10585041Y-7552135D01*
X10636414Y-7507618D01*
X10787639Y-7437102D01*
X10966877Y-7311598D01*
X11121598Y-7156877D01*
X11247102Y-6977639D01*
X11339575Y-6779330D01*
X11396207Y-6567977D01*
X11415277Y-6350000D01*
X11396207Y-6132023D01*
X11339575Y-5920670D01*
X11247102Y-5722362D01*
X11247100Y-5722359D01*
X11247099Y-5722357D01*
X11121599Y-5543124D01*
X11048701Y-5470226D01*
X10966877Y-5388402D01*
X10787639Y-5262898D01*
X10636414Y-5192381D01*
X10583977Y-5146210D01*
X10564825Y-5079016D01*
X10585041Y-5012135D01*
X10636414Y-4967618D01*
X10787639Y-4897102D01*
X10966877Y-4771598D01*
X11121598Y-4616877D01*
X11247102Y-4437639D01*
X11339575Y-4239330D01*
X11396207Y-4027977D01*
X11415277Y-3810000D01*
X11396207Y-3592023D01*
X11339575Y-3380670D01*
X11247102Y-3182362D01*
X11247100Y-3182359D01*
X11247099Y-3182357D01*
X11121599Y-3003124D01*
X11045585Y-2927110D01*
X10966877Y-2848402D01*
X10787639Y-2722898D01*
X10636414Y-2652381D01*
X10583977Y-2606210D01*
X10564825Y-2539016D01*
X10585041Y-2472135D01*
X10636414Y-2427618D01*
X10787639Y-2357102D01*
X10966877Y-2231598D01*
X11121598Y-2076877D01*
X11247102Y-1897639D01*
X11339575Y-1699330D01*
X11396207Y-1487977D01*
X11415277Y-1270000D01*
X11396207Y-1052023D01*
X11339575Y-840670D01*
X11247102Y-642362D01*
X11247100Y-642359D01*
X11247099Y-642357D01*
X11121599Y-463124D01*
X11085585Y-427110D01*
X10966877Y-308402D01*
X10787639Y-182898D01*
X10636414Y-112381D01*
X10583977Y-66210D01*
X10564825Y984D01*
X10585041Y67865D01*
X10636414Y112381D01*
X10787639Y182898D01*
X10966877Y308402D01*
X11121598Y463123D01*
X11247102Y642361D01*
X11339575Y840670D01*
X11396207Y1052023D01*
X11415277Y1270000D01*
X11396207Y1487977D01*
X11339575Y1699330D01*
X11247102Y1897638D01*
X11121598Y2076877D01*
X10966877Y2231598D01*
X10787639Y2357102D01*
X10636414Y2427618D01*
X10583977Y2473790D01*
X10564825Y2540984D01*
X10585041Y2607865D01*
X10636414Y2652381D01*
X10787639Y2722898D01*
X10966877Y2848402D01*
X11121598Y3003123D01*
X11247102Y3182361D01*
X11339575Y3380670D01*
X11396207Y3592023D01*
X11415277Y3810000D01*
X11396207Y4027977D01*
X11339575Y4239330D01*
X11247102Y4437638D01*
X11121598Y4616877D01*
X10966877Y4771598D01*
X10787639Y4897102D01*
X10636414Y4967618D01*
X10583977Y5013790D01*
X10564825Y5080984D01*
X10585041Y5147865D01*
X10636414Y5192381D01*
X10787639Y5262898D01*
X10966877Y5388402D01*
X11121598Y5543123D01*
X11247102Y5722361D01*
X11339575Y5920670D01*
X11396207Y6132023D01*
X11415277Y6350000D01*
X11396207Y6567977D01*
X11339575Y6779330D01*
X11247102Y6977638D01*
X11121598Y7156877D01*
X10966877Y7311598D01*
X10787639Y7437102D01*
X10636414Y7507618D01*
X10583977Y7553790D01*
X10564825Y7620984D01*
X10585041Y7687865D01*
X10636414Y7732381D01*
X10787639Y7802898D01*
X10966877Y7928402D01*
X11121598Y8083123D01*
X11247102Y8262361D01*
X11339575Y8460670D01*
X11396207Y8672023D01*
X11415277Y8890000D01*
X11396207Y9107977D01*
X11339575Y9319330D01*
X11247102Y9517638D01*
X11121598Y9696877D01*
X10966877Y9851598D01*
X10787639Y9977102D01*
X10636414Y10047618D01*
X10583977Y10093790D01*
X10564825Y10160984D01*
X10585041Y10227865D01*
X10636414Y10272381D01*
X10787639Y10342898D01*
X10966877Y10468402D01*
X11121598Y10623123D01*
X11247102Y10802361D01*
X11339575Y11000670D01*
X11396207Y11212023D01*
X11415277Y11430000D01*
X11396207Y11647977D01*
X11339575Y11859330D01*
X11247102Y12057638D01*
X11121598Y12236877D01*
X10966877Y12391598D01*
X10787639Y12517102D01*
X10636414Y12587618D01*
X10583977Y12633790D01*
X10564825Y12700984D01*
X10585041Y12767865D01*
X10636414Y12812381D01*
X10787639Y12882898D01*
X10966877Y13008402D01*
X11121598Y13163123D01*
X11247102Y13342361D01*
X11339575Y13540670D01*
X11396207Y13752023D01*
X11415277Y13970000D01*
X11396207Y14187977D01*
X11339575Y14399330D01*
X11247102Y14597638D01*
X11121598Y14776877D01*
X10966877Y14931598D01*
X10787639Y15057102D01*
X10636414Y15127618D01*
X10583977Y15173790D01*
X10564825Y15240984D01*
X10585041Y15307865D01*
X10636414Y15352381D01*
X10787639Y15422898D01*
X10966877Y15548402D01*
X11121598Y15703123D01*
X11247102Y15882361D01*
X11339575Y16080670D01*
X11396207Y16292023D01*
X11415277Y16510000D01*
X11396207Y16727977D01*
X11339575Y16939330D01*
X11247102Y17137638D01*
X11121598Y17316877D01*
X10966877Y17471598D01*
X10787639Y17597102D01*
X10636414Y17667618D01*
X10583977Y17713790D01*
X10564825Y17780984D01*
X10585041Y17847865D01*
X10636414Y17892381D01*
X10787639Y17962898D01*
X10966877Y18088402D01*
X11121598Y18243123D01*
X11247102Y18422361D01*
X11339575Y18620670D01*
X11344493Y18639022D01*
X11371905Y18741328D01*
X11396207Y18832023D01*
X11415277Y19050000D01*
X11396207Y19267977D01*
X11339575Y19479330D01*
X11247102Y19677638D01*
X11121598Y19856877D01*
X10966877Y20011598D01*
X10787639Y20137102D01*
X10636414Y20207618D01*
X10583977Y20253790D01*
X10564825Y20320984D01*
X10585041Y20387865D01*
X10636414Y20432381D01*
X10787639Y20502898D01*
X10966877Y20628402D01*
X11121598Y20783123D01*
X11247102Y20962361D01*
X11339575Y21160670D01*
X11396207Y21372023D01*
X11415277Y21590000D01*
X11396207Y21807977D01*
X11339575Y22019330D01*
X11247102Y22217638D01*
X11121598Y22396877D01*
X10966877Y22551598D01*
X10787639Y22677102D01*
X10636414Y22747618D01*
X10583977Y22793790D01*
X10564825Y22860984D01*
X10585041Y22927865D01*
X10636414Y22972381D01*
X10787639Y23042898D01*
X10966877Y23168402D01*
X11121598Y23323123D01*
X11247102Y23502361D01*
X11339575Y23700670D01*
X11396207Y23912023D01*
X11415277Y24130000D01*
X11396207Y24347977D01*
X11339575Y24559330D01*
X11247102Y24757638D01*
X11121598Y24936877D01*
X10966877Y25091598D01*
X10787639Y25217102D01*
X10589330Y25309575D01*
X10377977Y25366207D01*
X10192462Y25382437D01*
X10160002Y25385277D01*
X10159998Y25385277D01*
X10129787Y25382633D01*
X9942023Y25366207D01*
X9730670Y25309575D01*
X9532362Y25217102D01*
X9532361Y25217101D01*
X9532357Y25217099D01*
X9353121Y25091597D01*
X9198402Y24936878D01*
X9072900Y24757642D01*
X9072898Y24757638D01*
X8980425Y24559330D01*
X8980424Y24559326D01*
X8980422Y24559322D01*
X8923793Y24347979D01*
X8923793Y24347977D01*
X8904723Y24130000D01*
X8923081Y23920156D01*
X8923793Y23912024D01*
X8923794Y23912017D01*
X8929579Y23890427D01*
X8927915Y23820577D01*
X8897485Y23770654D01*
X4036271Y18909440D01*
X4033227Y18906498D01*
X3988529Y18864753D01*
X3988528Y18864751D01*
X3968301Y18831489D01*
X3961156Y18820991D01*
X3937636Y18789976D01*
X3931529Y18774489D01*
X3922124Y18755553D01*
X3913474Y18741329D01*
X3902970Y18703842D01*
X3898925Y18691813D01*
X3884641Y18655591D01*
X3884640Y18655583D01*
X3882937Y18639022D01*
X3878990Y18618255D01*
X3874500Y18602231D01*
X3874500Y18563295D01*
X3873850Y18550616D01*
X3871867Y18531330D01*
X3869869Y18511891D01*
X3869869Y18511885D01*
X3872697Y18495486D01*
X3874500Y18474419D01*
X3874500Y7223999D01*
X3854815Y7156960D01*
X3802011Y7111205D01*
X3750500Y7099999D01*
X2003553Y7099999D01*
X2003552Y7099998D01*
X2800000Y6303553D01*
X3065872Y6037681D01*
X3099357Y5976358D01*
X3094373Y5906666D01*
X3065872Y5862319D01*
X2540371Y5336818D01*
X2479048Y5303333D01*
X2452690Y5300499D01*
X2229516Y5300499D01*
X2190025Y5296254D01*
X2172885Y5294412D01*
X2143035Y5283278D01*
X2097687Y5266363D01*
X2027998Y5261378D01*
X1966674Y5294862D01*
X1933188Y5356185D01*
X1938172Y5425877D01*
X1966673Y5470226D01*
X2446447Y5950000D01*
X1412645Y6983800D01*
X1412643Y6983801D01*
X1365131Y6955079D01*
X1365130Y6955078D01*
X1244926Y6834875D01*
X1156980Y6689395D01*
X1106409Y6527106D01*
X1100000Y6456572D01*
X1100000Y5443417D01*
X1106408Y5372897D01*
X1106409Y5372892D01*
X1156981Y5210603D01*
X1244927Y5065122D01*
X1365122Y4944927D01*
X1365127Y4944923D01*
X1412644Y4916198D01*
X1412645Y4916198D01*
X1629773Y5133326D01*
X1691096Y5166811D01*
X1760788Y5161827D01*
X1816721Y5119955D01*
X1841138Y5054491D01*
X1833636Y5002313D01*
X1812231Y4944923D01*
X1805587Y4927110D01*
X1799500Y4870500D01*
X1799500Y4629519D01*
X1799501Y4629509D01*
X1805587Y4572886D01*
X1805589Y4572881D01*
X1816610Y4543332D01*
X1821594Y4473640D01*
X1816610Y4456668D01*
X1805589Y4427121D01*
X1805587Y4427110D01*
X1799500Y4370500D01*
X1799500Y4129519D01*
X1799501Y4129509D01*
X1805587Y4072886D01*
X1805589Y4072881D01*
X1816610Y4043332D01*
X1821594Y3973640D01*
X1816610Y3956668D01*
X1805589Y3927121D01*
X1805587Y3927110D01*
X1799500Y3870500D01*
X1799500Y3629519D01*
X1799501Y3629509D01*
X1805587Y3572886D01*
X1805589Y3572881D01*
X1816610Y3543332D01*
X1821594Y3473640D01*
X1816610Y3456668D01*
X1805589Y3427121D01*
X1805587Y3427110D01*
X1799500Y3370500D01*
X1799500Y3129519D01*
X1799501Y3129509D01*
X1805587Y3072886D01*
X1805589Y3072881D01*
X1816610Y3043332D01*
X1821594Y2973640D01*
X1816610Y2956668D01*
X1805589Y2927121D01*
X1805587Y2927110D01*
X1799500Y2870500D01*
X1799500Y2629519D01*
X1799501Y2629509D01*
X1805587Y2572886D01*
X1805589Y2572881D01*
X1816610Y2543332D01*
X1821594Y2473640D01*
X1816610Y2456668D01*
X1805589Y2427121D01*
X1805587Y2427110D01*
X1799500Y2370500D01*
X1799500Y2129519D01*
X1799501Y2129509D01*
X1805587Y2072886D01*
X1805589Y2072881D01*
X1816610Y2043332D01*
X1821594Y1973640D01*
X1816610Y1956668D01*
X1805589Y1927121D01*
X1805587Y1927110D01*
X1799500Y1870500D01*
X1799500Y1629519D01*
X1799501Y1629509D01*
X1805587Y1572886D01*
X1805589Y1572881D01*
X1816610Y1543332D01*
X1821594Y1473640D01*
X1816610Y1456668D01*
X1805589Y1427121D01*
X1805587Y1427110D01*
X1799500Y1370500D01*
X1799500Y1129519D01*
X1799501Y1129509D01*
X1805587Y1072886D01*
X1805589Y1072881D01*
X1816610Y1043332D01*
X1821594Y973640D01*
X1816610Y956668D01*
X1805589Y927121D01*
X1805587Y927110D01*
X1799500Y870500D01*
X1799500Y629519D01*
X1799501Y629509D01*
X1805587Y572886D01*
X1805589Y572881D01*
X1816610Y543332D01*
X1821594Y473640D01*
X1816610Y456668D01*
X1805589Y427121D01*
X1805587Y427110D01*
X1799500Y370500D01*
X1799500Y129519D01*
X1799501Y129509D01*
X1805587Y72886D01*
X1805589Y72881D01*
X1816610Y43332D01*
X1821594Y-26360D01*
X1816610Y-43332D01*
X1805589Y-72878D01*
X1805587Y-72889D01*
X1799500Y-129499D01*
X1799500Y-370480D01*
X1799501Y-370490D01*
X1805587Y-427113D01*
X1805589Y-427118D01*
X1816610Y-456668D01*
X1821594Y-526360D01*
X1816610Y-543332D01*
X1805589Y-572878D01*
X1805587Y-572889D01*
X1799500Y-629499D01*
X1799500Y-870480D01*
X1799501Y-870490D01*
X1805587Y-927113D01*
X1805589Y-927118D01*
X1816610Y-956668D01*
X1821594Y-1026360D01*
X1816610Y-1043332D01*
X1805589Y-1072878D01*
X1805587Y-1072889D01*
X1799500Y-1129499D01*
X1799500Y-1370480D01*
X1799501Y-1370490D01*
X1805587Y-1427113D01*
X1805589Y-1427118D01*
X1816610Y-1456668D01*
X1821594Y-1526360D01*
X1816610Y-1543332D01*
X1805589Y-1572878D01*
X1805587Y-1572889D01*
X1799500Y-1629499D01*
X1799500Y-1870480D01*
X1799501Y-1870490D01*
X1805587Y-1927113D01*
X1805589Y-1927118D01*
X1816610Y-1956668D01*
X1821594Y-2026360D01*
X1816610Y-2043332D01*
X1805589Y-2072878D01*
X1805587Y-2072889D01*
X1799500Y-2129499D01*
X1799500Y-2370480D01*
X1799501Y-2370490D01*
X1805587Y-2427113D01*
X1805589Y-2427118D01*
X1816610Y-2456668D01*
X1821594Y-2526360D01*
X1816610Y-2543332D01*
X1805589Y-2572878D01*
X1805587Y-2572889D01*
X1799500Y-2629499D01*
X1799500Y-2870480D01*
X1799501Y-2870490D01*
X1805587Y-2927113D01*
X1805589Y-2927118D01*
X1816610Y-2956668D01*
X1821594Y-3026360D01*
X1816610Y-3043332D01*
X1805589Y-3072878D01*
X1805587Y-3072889D01*
X1799500Y-3129499D01*
X1799500Y-3370480D01*
X1799501Y-3370490D01*
X1805587Y-3427113D01*
X1805589Y-3427118D01*
X1816610Y-3456668D01*
X1821594Y-3526360D01*
X1816610Y-3543332D01*
X1805589Y-3572878D01*
X1805587Y-3572889D01*
X1799500Y-3629499D01*
X1799500Y-3870480D01*
X1799501Y-3870490D01*
X1805587Y-3927113D01*
X1805589Y-3927118D01*
X1816610Y-3956668D01*
X1821594Y-4026360D01*
X1816610Y-4043332D01*
X1805589Y-4072878D01*
X1805587Y-4072889D01*
X1799500Y-4129499D01*
X1799500Y-4370480D01*
X1799501Y-4370490D01*
X1805587Y-4427113D01*
X1805589Y-4427118D01*
X1816610Y-4456668D01*
X1821594Y-4526360D01*
X1816610Y-4543332D01*
X1805589Y-4572878D01*
X1805587Y-4572889D01*
X1799500Y-4629499D01*
X1799500Y-4870480D01*
X1799501Y-4870490D01*
X1805587Y-4927114D01*
X1833635Y-5002310D01*
X1838620Y-5072002D01*
X1805136Y-5133326D01*
X1743813Y-5166811D01*
X1674121Y-5161827D01*
X1629773Y-5133326D01*
X1412645Y-4916198D01*
X1412644Y-4916198D01*
X1365127Y-4944923D01*
X1365122Y-4944927D01*
X1244927Y-5065122D01*
X1156980Y-5210604D01*
X1106409Y-5372893D01*
X1100000Y-5443427D01*
X1100000Y-6456582D01*
X-1100001Y-6456582D01*
X-1100000Y-6456572D01*
X-1100000Y-5443417D01*
X-1106408Y-5372897D01*
X-1106409Y-5372892D01*
X-1156981Y-5210603D01*
X-1244927Y-5065122D01*
X-1365122Y-4944927D01*
X-1365127Y-4944923D01*
X-1412644Y-4916198D01*
X-1412645Y-4916198D01*
X-1629773Y-5133326D01*
X-1691096Y-5166811D01*
X-1760788Y-5161827D01*
X-1816721Y-5119955D01*
X-1841138Y-5054491D01*
X-1833636Y-5002313D01*
X-1805588Y-4927114D01*
X-1805587Y-4927112D01*
X-1805587Y-4927110D01*
X-1799500Y-4870500D01*
X-1799500Y-4629519D01*
X-1799501Y-4629509D01*
X-1805587Y-4572886D01*
X-1805589Y-4572881D01*
X-1816610Y-4543332D01*
X-1821594Y-4473640D01*
X-1816610Y-4456668D01*
X-1805589Y-4427121D01*
X-1805587Y-4427110D01*
X-1799500Y-4370500D01*
X-1799500Y-4129519D01*
X-1799501Y-4129509D01*
X-1805587Y-4072886D01*
X-1805589Y-4072881D01*
X-1816610Y-4043332D01*
X-1821594Y-3973640D01*
X-1816610Y-3956668D01*
X-1805589Y-3927121D01*
X-1805587Y-3927110D01*
X-1799500Y-3870500D01*
X-1799500Y-3629519D01*
X-1799501Y-3629509D01*
X-1805587Y-3572886D01*
X-1805589Y-3572881D01*
X-1816610Y-3543332D01*
X-1821594Y-3473640D01*
X-1816610Y-3456668D01*
X-1805589Y-3427121D01*
X-1805587Y-3427110D01*
X-1799500Y-3370500D01*
X-1799500Y-3129519D01*
X-1799501Y-3129509D01*
X-1805587Y-3072886D01*
X-1805589Y-3072881D01*
X-1816610Y-3043332D01*
X-1821594Y-2973640D01*
X-1816610Y-2956668D01*
X-1805589Y-2927121D01*
X-1805587Y-2927110D01*
X-1799500Y-2870500D01*
X-1799500Y-2629519D01*
X-1799501Y-2629509D01*
X-1805587Y-2572886D01*
X-1805589Y-2572881D01*
X-1816610Y-2543332D01*
X-1821594Y-2473640D01*
X-1816610Y-2456668D01*
X-1805589Y-2427121D01*
X-1805587Y-2427110D01*
X-1799500Y-2370500D01*
X-1799500Y-2129519D01*
X-1799501Y-2129509D01*
X-1805587Y-2072886D01*
X-1805589Y-2072881D01*
X-1816610Y-2043332D01*
X-1821594Y-1973640D01*
X-1816610Y-1956668D01*
X-1805589Y-1927121D01*
X-1805587Y-1927110D01*
X-1799500Y-1870500D01*
X-1799500Y-1629519D01*
X-1799501Y-1629509D01*
X-1805587Y-1572886D01*
X-1805589Y-1572881D01*
X-1816610Y-1543332D01*
X-1821594Y-1473640D01*
X-1816610Y-1456668D01*
X-1805589Y-1427121D01*
X-1805587Y-1427110D01*
X-1799500Y-1370500D01*
X-1799500Y-1129519D01*
X-1799501Y-1129509D01*
X-1805587Y-1072886D01*
X-1805589Y-1072881D01*
X-1816610Y-1043332D01*
X-1821594Y-973640D01*
X-1816610Y-956668D01*
X-1805589Y-927121D01*
X-1805587Y-927110D01*
X-1799500Y-870500D01*
X-1799500Y-629519D01*
X-1799501Y-629509D01*
X-1805587Y-572886D01*
X-1805589Y-572881D01*
X-1816610Y-543332D01*
X-1821594Y-473640D01*
X-1816610Y-456668D01*
X-1805589Y-427121D01*
X-1805587Y-427110D01*
X-1799500Y-370500D01*
X-1799500Y-129519D01*
X-1799501Y-129509D01*
X-1805587Y-72886D01*
X-1805589Y-72881D01*
X-1816610Y-43332D01*
X-1821594Y26360D01*
X-1816610Y43332D01*
X-1805589Y72878D01*
X-1805587Y72889D01*
X-1799500Y129499D01*
X-1799500Y370480D01*
X-1799501Y370490D01*
X-1805587Y427113D01*
X-1805589Y427118D01*
X-1816610Y456668D01*
X-1821594Y526360D01*
X-1816610Y543332D01*
X-1805589Y572878D01*
X-1805587Y572889D01*
X-1799500Y629499D01*
X-1799500Y870480D01*
X-1799501Y870490D01*
X-1805587Y927113D01*
X-1805589Y927118D01*
X-1816610Y956668D01*
X-1821594Y1026360D01*
X-1816610Y1043332D01*
X-1805589Y1072878D01*
X-1805587Y1072889D01*
X-1799500Y1129499D01*
X-1799500Y1370480D01*
X-1799501Y1370490D01*
X-1805587Y1427113D01*
X-1805589Y1427118D01*
X-1816610Y1456668D01*
X-1821594Y1526360D01*
X-1816610Y1543332D01*
X-1805589Y1572878D01*
X-1805587Y1572889D01*
X-1799500Y1629499D01*
X-1799500Y1870480D01*
X-1799501Y1870490D01*
X-1805587Y1927113D01*
X-1805589Y1927118D01*
X-1816610Y1956668D01*
X-1821594Y2026360D01*
X-1816610Y2043332D01*
X-1805589Y2072878D01*
X-1805587Y2072889D01*
X-1799500Y2129499D01*
X-1799500Y2370480D01*
X-1799501Y2370490D01*
X-1805587Y2427113D01*
X-1805589Y2427118D01*
X-1816610Y2456668D01*
X-1821594Y2526360D01*
X-1816610Y2543332D01*
X-1805589Y2572878D01*
X-1805587Y2572889D01*
X-1799500Y2629499D01*
X-1799500Y2870480D01*
X-1799501Y2870490D01*
X-1805587Y2927113D01*
X-1805589Y2927118D01*
X-1816610Y2956668D01*
X-1821594Y3026360D01*
X-1816610Y3043332D01*
X-1805589Y3072878D01*
X-1805587Y3072889D01*
X-1799500Y3129499D01*
X-1799500Y3370480D01*
X-1799501Y3370490D01*
X-1805587Y3427113D01*
X-1805589Y3427118D01*
X-1816610Y3456668D01*
X-1821594Y3526360D01*
X-1816610Y3543332D01*
X-1805589Y3572878D01*
X-1805587Y3572889D01*
X-1799500Y3629499D01*
X-1799500Y3870480D01*
X-1799501Y3870490D01*
X-1805587Y3927113D01*
X-1805589Y3927118D01*
X-1816610Y3956668D01*
X-1821594Y4026360D01*
X-1816610Y4043332D01*
X-1805589Y4072878D01*
X-1805587Y4072889D01*
X-1799500Y4129499D01*
X-1799500Y4370480D01*
X-1799501Y4370490D01*
X-1805587Y4427113D01*
X-1805589Y4427118D01*
X-1816610Y4456668D01*
X-1821594Y4526360D01*
X-1816610Y4543332D01*
X-1805589Y4572878D01*
X-1805587Y4572889D01*
X-1799500Y4629499D01*
X-1799500Y4870480D01*
X-1799501Y4870490D01*
X-1805587Y4927114D01*
X-1833635Y5002310D01*
X-1838620Y5072002D01*
X-1805136Y5133326D01*
X-1743813Y5166811D01*
X-1674121Y5161827D01*
X-1629773Y5133326D01*
X-1412645Y4916198D01*
X-1412644Y4916198D01*
X-1365127Y4944923D01*
X-1365122Y4944927D01*
X-1244927Y5065122D01*
X-1156980Y5210604D01*
X-1106409Y5372893D01*
X-1100000Y5443427D01*
X-1100000Y6456582D01*
X-1106408Y6527102D01*
X-1106409Y6527107D01*
X-1156981Y6689396D01*
X-1244926Y6834875D01*
X-1365130Y6955078D01*
X-1365131Y6955079D01*
X-1412643Y6983801D01*
X-1412645Y6983800D01*
X-2446447Y5950000D01*
X-1966673Y5470226D01*
X-1933188Y5408903D01*
X-1938172Y5339211D01*
X-1980044Y5283278D01*
X-2045508Y5258861D01*
X-2097686Y5266363D01*
X-2172886Y5294412D01*
X-2229515Y5300500D01*
X-2452691Y5300499D01*
X-2519729Y5320183D01*
X-2540371Y5336818D01*
X-3065872Y5862319D01*
X-3099357Y5923642D01*
X-3094373Y5993334D01*
X-3065872Y6037681D01*
X-2800000Y6303553D01*
X-2003552Y7099998D01*
X-2003553Y7099999D01*
X-3675500Y7099999D01*
X-3742539Y7119684D01*
X-3788294Y7172488D01*
X-3799500Y7223999D01*
X-3799500Y18283890D01*
X-3799428Y18288123D01*
X-3798066Y18328007D01*
X-3797340Y18349245D01*
X-3797340Y18349250D01*
X-3806556Y18387068D01*
X-3808927Y18399540D01*
X-3814228Y18438109D01*
X-3820864Y18453387D01*
X-3827602Y18473424D01*
X-3831543Y18489594D01*
X-3834856Y18495486D01*
X-3850618Y18523520D01*
X-3856266Y18534891D01*
X-3871777Y18570602D01*
X-3871781Y18570608D01*
X-3871781Y18570609D01*
X-3882289Y18583525D01*
X-3894184Y18601002D01*
X-3902341Y18615509D01*
X-3902345Y18615514D01*
X-3929861Y18643030D01*
X-3938367Y18652455D01*
X-3962942Y18682661D01*
X-3962948Y18682667D01*
X-3976548Y18692267D01*
X-3992720Y18705889D01*
X-8518986Y23232155D01*
X3730000Y23232155D01*
X3736401Y23172627D01*
X3736403Y23172620D01*
X3786645Y23037913D01*
X3786649Y23037906D01*
X3872809Y22922812D01*
X3872812Y22922809D01*
X3987906Y22836649D01*
X3987913Y22836645D01*
X4122620Y22786403D01*
X4122627Y22786401D01*
X4182155Y22780000D01*
X4830000Y22780000D01*
X4830000Y23694498D01*
X4937685Y23645320D01*
X5044237Y23630000D01*
X5115763Y23630000D01*
X5222315Y23645320D01*
X5330000Y23694498D01*
X5330000Y22780000D01*
X5977844Y22780000D01*
X6037372Y22786401D01*
X6037379Y22786403D01*
X6172086Y22836645D01*
X6172093Y22836649D01*
X6287187Y22922809D01*
X6287190Y22922812D01*
X6373350Y23037906D01*
X6373354Y23037913D01*
X6423596Y23172620D01*
X6423598Y23172627D01*
X6429999Y23232155D01*
X6430000Y23232172D01*
X6430000Y23880000D01*
X5513686Y23880000D01*
X5539493Y23920156D01*
X5580000Y24058111D01*
X5580000Y24201889D01*
X5539493Y24339844D01*
X5513686Y24380000D01*
X6430000Y24380000D01*
X6430000Y25027827D01*
X6429999Y25027844D01*
X6423598Y25087372D01*
X6423596Y25087379D01*
X6373354Y25222086D01*
X6373350Y25222093D01*
X6287190Y25337187D01*
X6287187Y25337190D01*
X6172093Y25423350D01*
X6172086Y25423354D01*
X6037379Y25473596D01*
X6037372Y25473598D01*
X5977844Y25479999D01*
X5977828Y25480000D01*
X5330000Y25480000D01*
X5330000Y24565501D01*
X5222315Y24614680D01*
X5115763Y24630000D01*
X5044237Y24630000D01*
X4937685Y24614680D01*
X4830000Y24565501D01*
X4830000Y25480000D01*
X4182172Y25480000D01*
X4182155Y25479999D01*
X4122627Y25473598D01*
X4122620Y25473596D01*
X3987913Y25423354D01*
X3987906Y25423350D01*
X3872812Y25337190D01*
X3872809Y25337187D01*
X3786649Y25222093D01*
X3786645Y25222086D01*
X3736403Y25087379D01*
X3736401Y25087372D01*
X3730000Y25027844D01*
X3730000Y24380000D01*
X4646314Y24380000D01*
X4620507Y24339844D01*
X4580000Y24201889D01*
X4580000Y24058111D01*
X4620507Y23920156D01*
X4646314Y23880000D01*
X3730000Y23880000D01*
X3730000Y23232155D01*
X-8518986Y23232155D01*
X-8873181Y23586350D01*
X-8906666Y23647673D01*
X-8909500Y23674031D01*
X-8909500Y25011517D01*
X-8922183Y25091597D01*
X-8924354Y25105304D01*
X-8981950Y25218342D01*
X-8981952Y25218344D01*
X-8981954Y25218347D01*
X-9071652Y25308045D01*
X-9071654Y25308046D01*
X-9071658Y25308050D01*
X-9184696Y25365646D01*
X-9184698Y25365647D01*
X-9278475Y25380499D01*
X-9278481Y25380500D01*
X-11041518Y25380499D01*
X-11135304Y25365646D01*
X-11248342Y25308050D01*
X-11338050Y25218342D01*
X-11395646Y25105304D01*
X-11395646Y25105302D01*
X-11395647Y25105301D01*
X-11406282Y25038147D01*
X-11410500Y25011519D01*
X-11410499Y23248482D01*
X-11395646Y23154696D01*
X-11338050Y23041658D01*
X-11338046Y23041654D01*
X-11338045Y23041652D01*
X-11248347Y22951954D01*
X-11248344Y22951952D01*
X-11248342Y22951950D01*
X-11171517Y22912805D01*
X-11135301Y22894352D01*
X-11041524Y22879500D01*
X-11041519Y22879500D01*
X-10891862Y22879500D01*
X-10824823Y22859815D01*
X-10779068Y22807011D01*
X-10769124Y22737853D01*
X-10798149Y22674297D01*
X-10820739Y22653925D01*
X-10910519Y22591059D01*
X-10966877Y22551598D01*
X-11121598Y22396877D01*
X-11247102Y22217638D01*
X-11339575Y22019330D01*
X-11396207Y21807977D01*
X-11415277Y21590000D01*
X-11396207Y21372023D01*
X-11339575Y21160670D01*
X-11247102Y20962361D01*
X-11121598Y20783123D01*
X-10966877Y20628402D01*
X-10823486Y20527998D01*
X-10787638Y20502897D01*
X-10636416Y20432381D01*
X-10583977Y20386208D01*
X-10564825Y20319015D01*
X-10585041Y20252134D01*
X-10636414Y20207618D01*
X-10787638Y20137102D01*
X-10966877Y20011598D01*
X-11121598Y19856877D01*
X-11247102Y19677638D01*
X-11339575Y19479330D01*
X-11396207Y19267977D01*
X-11415277Y19050000D01*
X-11396207Y18832023D01*
X-11371905Y18741328D01*
X-11344493Y18639022D01*
X-11339575Y18620670D01*
X-11247102Y18422361D01*
X-11121598Y18243123D01*
X-10966877Y18088402D01*
X-10877712Y18025968D01*
X-10787638Y17962897D01*
X-10636416Y17892381D01*
X-10583977Y17846208D01*
X-10564825Y17779015D01*
X-10585041Y17712134D01*
X-10636414Y17667618D01*
X-10787638Y17597102D01*
X-10966877Y17471598D01*
X-11121598Y17316877D01*
X-11247102Y17137638D01*
X-11339575Y16939330D01*
X-11396207Y16727977D01*
X-11415277Y16510000D01*
X-11396207Y16292023D01*
X-11339575Y16080670D01*
X-11247102Y15882361D01*
X-11121598Y15703123D01*
X-10966877Y15548402D01*
X-10839462Y15459185D01*
X-10787638Y15422897D01*
X-10636416Y15352381D01*
X-10583977Y15306208D01*
X-10564825Y15239015D01*
X-10585041Y15172134D01*
X-10636414Y15127618D01*
X-10787638Y15057102D01*
X-10966877Y14931598D01*
X-11121598Y14776877D01*
X-11247102Y14597638D01*
X-11339575Y14399330D01*
X-11396207Y14187977D01*
X-11415277Y13970000D01*
X-11396207Y13752023D01*
X-11339575Y13540670D01*
X-11247102Y13342361D01*
X-11121598Y13163123D01*
X-10966877Y13008402D01*
X-10823486Y12907998D01*
X-10787638Y12882897D01*
X-10636416Y12812381D01*
X-10583977Y12766208D01*
X-10564825Y12699015D01*
X-10585041Y12632134D01*
X-10636414Y12587618D01*
X-10787638Y12517102D01*
X-10966877Y12391598D01*
X-11121598Y12236877D01*
X-11247102Y12057638D01*
X-11339575Y11859330D01*
X-11396207Y11647977D01*
X-11415277Y11430000D01*
X-11396207Y11212023D01*
X-11339575Y11000670D01*
X-11247102Y10802361D01*
X-11121598Y10623123D01*
X-10966877Y10468402D01*
X-10823486Y10367998D01*
X-10787638Y10342897D01*
X-10636416Y10272381D01*
X-10583977Y10226208D01*
X-10564825Y10159015D01*
X-10585041Y10092134D01*
X-10636414Y10047618D01*
X-10787638Y9977102D01*
X-10966877Y9851598D01*
X-11121598Y9696877D01*
X-11247102Y9517638D01*
X-11339575Y9319330D01*
X-11396207Y9107977D01*
X-11415277Y8890000D01*
X-11396207Y8672023D01*
X-11339575Y8460670D01*
X-11247102Y8262361D01*
X-11121598Y8083123D01*
X-10966877Y7928402D01*
X-10823486Y7827998D01*
X-10787638Y7802897D01*
X-10636416Y7732381D01*
X-10583977Y7686208D01*
X-10564825Y7619015D01*
X-10585041Y7552134D01*
X-10636414Y7507618D01*
X-10787638Y7437102D01*
X-10966877Y7311598D01*
X-11121598Y7156877D01*
X-11247102Y6977638D01*
X-11339575Y6779330D01*
X-11396207Y6567977D01*
X-11415277Y6350000D01*
X-11396207Y6132023D01*
X-11339575Y5920670D01*
X-11247102Y5722361D01*
X-11121598Y5543123D01*
X-10966877Y5388402D01*
X-10823486Y5287998D01*
X-10787638Y5262897D01*
X-10636416Y5192381D01*
X-10583977Y5146208D01*
X-10564825Y5079015D01*
X-10585041Y5012134D01*
X-10636414Y4967618D01*
X-10787638Y4897102D01*
X-10966877Y4771598D01*
X-11121598Y4616877D01*
X-11247102Y4437638D01*
X-11339575Y4239330D01*
X-11396207Y4027977D01*
X-11415277Y3810000D01*
X-11396207Y3592023D01*
X-11339575Y3380670D01*
X-11247102Y3182361D01*
X-11121598Y3003123D01*
X-10966877Y2848402D01*
X-10823486Y2747998D01*
X-10787638Y2722897D01*
X-10636416Y2652381D01*
X-10583977Y2606208D01*
X-10564825Y2539015D01*
X-10585041Y2472134D01*
X-10636414Y2427618D01*
X-10787638Y2357102D01*
X-10966877Y2231598D01*
X-11121598Y2076877D01*
X-11247102Y1897638D01*
X-11339575Y1699330D01*
X-11396207Y1487977D01*
X-11415277Y1270000D01*
X-11396207Y1052023D01*
X-11339575Y840670D01*
X-11247102Y642361D01*
X-11121598Y463123D01*
X-10966877Y308402D01*
X-10787639Y182898D01*
X-10636414Y112381D01*
X-10583977Y66210D01*
X-10564825Y-984D01*
X-10585041Y-67865D01*
X-10636415Y-112381D01*
X-10703271Y-143557D01*
X-10787638Y-182898D01*
X-10787642Y-182900D01*
X-10966878Y-308402D01*
X-11121597Y-463121D01*
X-11247099Y-642357D01*
X-11247100Y-642359D01*
X-11247102Y-642362D01*
X-11339575Y-840670D01*
X-11396207Y-1052023D01*
X-11415277Y-1270000D01*
X-11396207Y-1487977D01*
X-11339575Y-1699330D01*
X-11247102Y-1897639D01*
X-11121598Y-2076877D01*
X-10966877Y-2231598D01*
X-10787639Y-2357102D01*
X-10636414Y-2427618D01*
X-10583977Y-2473790D01*
X-10564825Y-2540984D01*
X-10585041Y-2607865D01*
X-10636415Y-2652381D01*
X-10703271Y-2683557D01*
X-10787638Y-2722898D01*
X-10787642Y-2722900D01*
X-10966878Y-2848402D01*
X-11121597Y-3003121D01*
X-11247099Y-3182357D01*
X-11247100Y-3182359D01*
X-11247102Y-3182362D01*
X-11339575Y-3380670D01*
X-11396207Y-3592023D01*
X-11415277Y-3810000D01*
X-11396207Y-4027977D01*
X-11339575Y-4239330D01*
X-11247102Y-4437639D01*
X-11121598Y-4616877D01*
X-10966877Y-4771598D01*
X-10787639Y-4897102D01*
X-10636414Y-4967618D01*
X-10583977Y-5013790D01*
X-10564825Y-5080984D01*
X-10585041Y-5147865D01*
X-10636415Y-5192381D01*
X-10752747Y-5246628D01*
X-10787638Y-5262898D01*
X-10787642Y-5262900D01*
X-10966878Y-5388402D01*
X-11121597Y-5543121D01*
X-11247099Y-5722357D01*
X-11247100Y-5722359D01*
X-11247102Y-5722362D01*
X-11339575Y-5920670D01*
X-11396207Y-6132023D01*
X-11415277Y-6350000D01*
X-11396207Y-6567977D01*
X-11339575Y-6779330D01*
X-11247102Y-6977639D01*
X-11121598Y-7156877D01*
X-10966877Y-7311598D01*
X-10787639Y-7437102D01*
X-10636414Y-7507618D01*
X-10583977Y-7553790D01*
X-10564825Y-7620984D01*
X-10585041Y-7687865D01*
X-10636415Y-7732381D01*
X-10679195Y-7752330D01*
X-10787638Y-7802898D01*
X-10787642Y-7802900D01*
X-10966878Y-7928402D01*
X-11121597Y-8083121D01*
X-11247099Y-8262357D01*
X-11247100Y-8262359D01*
X-11247102Y-8262362D01*
X-11339575Y-8460670D01*
X-11396207Y-8672023D01*
X-11411066Y-8841866D01*
X-11413995Y-8875351D01*
X-11415277Y-8890000D01*
X-11396207Y-9107977D01*
X-11339575Y-9319330D01*
X-11247102Y-9517639D01*
X-11121598Y-9696877D01*
X-10966877Y-9851598D01*
X-10787639Y-9977102D01*
X-10636414Y-10047618D01*
X-10583977Y-10093790D01*
X-10564825Y-10160984D01*
X-10585041Y-10227865D01*
X-10636415Y-10272381D01*
X-10787638Y-10342898D01*
X-10787642Y-10342900D01*
X-10966878Y-10468402D01*
X-11121597Y-10623121D01*
X-11247099Y-10802357D01*
X-11247100Y-10802359D01*
X-11247102Y-10802362D01*
X-11339575Y-11000670D01*
X-11339576Y-11000676D01*
X-11339577Y-11000677D01*
X-11348591Y-11034319D01*
X-11396207Y-11212023D01*
X-11415277Y-11430000D01*
X-11396207Y-11647977D01*
X-11339575Y-11859330D01*
X-11247102Y-12057639D01*
X-11121598Y-12236877D01*
X-10966877Y-12391598D01*
X-10787639Y-12517102D01*
X-10636414Y-12587618D01*
X-10583977Y-12633790D01*
X-10564825Y-12700984D01*
X-10585041Y-12767865D01*
X-10636415Y-12812381D01*
X-10787638Y-12882898D01*
X-10787642Y-12882900D01*
X-10966878Y-13008402D01*
X-11121597Y-13163121D01*
X-11247099Y-13342357D01*
X-11247100Y-13342359D01*
X-11247102Y-13342362D01*
X-11339575Y-13540670D01*
X-11396207Y-13752023D01*
X-11415277Y-13970000D01*
X-11396207Y-14187977D01*
X-11339575Y-14399330D01*
X-11247102Y-14597639D01*
X-11121598Y-14776877D01*
X-10966877Y-14931598D01*
X-10787639Y-15057102D01*
X-10636414Y-15127618D01*
X-10583977Y-15173790D01*
X-10564825Y-15240984D01*
X-10585041Y-15307865D01*
X-10636415Y-15352381D01*
X-10787638Y-15422898D01*
X-10787642Y-15422900D01*
X-10966878Y-15548402D01*
X-11121597Y-15703121D01*
X-11247099Y-15882357D01*
X-11247100Y-15882359D01*
X-11247102Y-15882362D01*
X-11339575Y-16080670D01*
X-11339576Y-16080676D01*
X-11339577Y-16080677D01*
X-11356609Y-16144241D01*
X-11396207Y-16292023D01*
X-11415277Y-16510000D01*
X-11396207Y-16727977D01*
X-11339575Y-16939330D01*
X-11247102Y-17137639D01*
X-11121598Y-17316877D01*
X-10966877Y-17471598D01*
X-10787639Y-17597102D01*
X-10636414Y-17667618D01*
X-10583977Y-17713790D01*
X-10564825Y-17780984D01*
X-10585041Y-17847865D01*
X-10636415Y-17892381D01*
X-10787638Y-17962898D01*
X-10787642Y-17962900D01*
X-10966878Y-18088402D01*
X-11121597Y-18243121D01*
X-11247099Y-18422357D01*
X-11247100Y-18422359D01*
X-11247102Y-18422362D01*
X-11339575Y-18620670D01*
X-11396207Y-18832023D01*
X-11415277Y-19050000D01*
X-11396207Y-19267977D01*
X-11339575Y-19479330D01*
X-11247102Y-19677639D01*
X-11121598Y-19856877D01*
X-10966877Y-20011598D01*
X-10787639Y-20137102D01*
X-10636414Y-20207618D01*
X-10583977Y-20253790D01*
X-10564825Y-20320984D01*
X-10585041Y-20387865D01*
X-10636415Y-20432381D01*
X-10787638Y-20502898D01*
X-10787642Y-20502900D01*
X-10966878Y-20628402D01*
X-11121597Y-20783121D01*
X-11247099Y-20962357D01*
X-11247100Y-20962359D01*
X-11247102Y-20962362D01*
X-11339575Y-21160670D01*
X-11396207Y-21372023D01*
X-11415277Y-21590000D01*
X-11396207Y-21807977D01*
X-11339575Y-22019330D01*
X-11247102Y-22217639D01*
X-11121598Y-22396877D01*
X-10966877Y-22551598D01*
X-10787639Y-22677102D01*
X-10636414Y-22747618D01*
X-10583977Y-22793790D01*
X-10564825Y-22860984D01*
X-10585041Y-22927865D01*
X-10636415Y-22972381D01*
X-10784966Y-23041652D01*
X-10787638Y-23042898D01*
X-10787642Y-23042900D01*
X-10966878Y-23168402D01*
X-11121597Y-23323121D01*
X-11247099Y-23502357D01*
X-11247100Y-23502359D01*
X-11247102Y-23502362D01*
X-11339575Y-23700670D01*
X-11396207Y-23912023D01*
X-11415277Y-24130000D01*
X-12999500Y-24130000D01*
X-12999500Y25994583D01*
X-12999028Y26005396D01*
X-12995581Y26044776D01*
X-12995456Y26046116D01*
X-12983082Y26171759D01*
X-12979454Y26191699D01*
X-12962127Y26256366D01*
X-12961013Y26260269D01*
X-12933319Y26351563D01*
X-12927040Y26367972D01*
X-12896329Y26433832D01*
X-12893305Y26439880D01*
X-12850985Y26519056D01*
X-12843201Y26531727D01*
X-12800380Y26592881D01*
X-12794659Y26600422D01*
X-12738821Y26668461D01*
X-12730649Y26677477D01*
X-12677477Y26730649D01*
X-12668461Y26738821D01*
X-12600422Y26794659D01*
X-12592881Y26800380D01*
X-12531727Y26843201D01*
X-12519056Y26850985D01*
X-12439880Y26893305D01*
X-12433832Y26896329D01*
X-12367972Y26927040D01*
X-12351563Y26933319D01*
X-12260269Y26961013D01*
X-12256366Y26962127D01*
X-12191699Y26979454D01*
X-12171759Y26983082D01*
X-12046116Y26995456D01*
X-12044776Y26995581D01*
X-12009760Y26998646D01*
X-12005392Y26999028D01*
X-11994584Y26999500D01*
X11994584Y26999500D01*
X12005392Y26999028D01*
G37*
%TD.AperFunction*%
%TD*%
M02*
