%TF.GenerationSoftware,KiCad,Pcbnew,7.0.10*%
%TF.CreationDate,2024-01-15T01:50:30-05:00*%
%TF.ProjectId,Keyboard-connector-breakout,4b657962-6f61-4726-942d-636f6e6e6563,rev?*%
%TF.SameCoordinates,Original*%
%TF.FileFunction,Soldermask,Bot*%
%TF.FilePolarity,Negative*%
%FSLAX46Y46*%
G04 Gerber Fmt 4.6, Leading zero omitted, Abs format (unit mm)*
G04 Created by KiCad (PCBNEW 7.0.10) date 2024-01-15 01:50:30*
%MOMM*%
%LPD*%
G01*
G04 APERTURE LIST*
%ADD10C,3.200000*%
%ADD11R,1.700000X1.700000*%
%ADD12O,1.700000X1.700000*%
G04 APERTURE END LIST*
D10*
%TO.C,H3*%
X157900000Y-73540000D03*
%TD*%
D11*
%TO.C,J4*%
X5080000Y24130000D03*
%TD*%
D10*
%TO.C,H2*%
X157900000Y-66290000D03*
%TD*%
%TO.C,H1*%
X157900000Y-59040000D03*
%TD*%
D11*
%TO.C,J3*%
X10160000Y-24130000D03*
D12*
X10160000Y-21590000D03*
X10160000Y-19050000D03*
X10160000Y-16510000D03*
X10160000Y-13970000D03*
X10160000Y-11430000D03*
X10160000Y-8890000D03*
X10160000Y-6350000D03*
X10160000Y-3810000D03*
X10160000Y-1270000D03*
X10160000Y1270000D03*
X10160000Y3810000D03*
X10160000Y6350000D03*
X10160000Y8890000D03*
X10160000Y11430000D03*
X10160000Y13970000D03*
X10160000Y16510000D03*
X10160000Y19050000D03*
X10160000Y21590000D03*
X10160000Y24130000D03*
%TD*%
D10*
%TO.C,H4*%
X157900000Y-80790000D03*
%TD*%
D11*
%TO.C,J2*%
X-10160000Y24130000D03*
D12*
X-10160000Y21590000D03*
X-10160000Y19050000D03*
X-10160000Y16510000D03*
X-10160000Y13970000D03*
X-10160000Y11430000D03*
X-10160000Y8890000D03*
X-10160000Y6350000D03*
X-10160000Y3810000D03*
X-10160000Y1270000D03*
X-10160000Y-1270000D03*
X-10160000Y-3810000D03*
X-10160000Y-6350000D03*
X-10160000Y-8890000D03*
X-10160000Y-11430000D03*
X-10160000Y-13970000D03*
X-10160000Y-16510000D03*
X-10160000Y-19050000D03*
X-10160000Y-21590000D03*
X-10160000Y-24130000D03*
%TD*%
M02*
