%TF.GenerationSoftware,KiCad,Pcbnew,7.0.10*%
%TF.CreationDate,2024-01-15T01:50:30-05:00*%
%TF.ProjectId,Keyboard-connector-breakout,4b657962-6f61-4726-942d-636f6e6e6563,rev?*%
%TF.SameCoordinates,Original*%
%TF.FileFunction,Legend,Top*%
%TF.FilePolarity,Positive*%
%FSLAX46Y46*%
G04 Gerber Fmt 4.6, Leading zero omitted, Abs format (unit mm)*
G04 Created by KiCad (PCBNEW 7.0.10) date 2024-01-15 01:50:30*
%MOMM*%
%LPD*%
G01*
G04 APERTURE LIST*
%ADD10C,0.300000*%
%ADD11C,0.150000*%
%ADD12C,0.100000*%
%ADD13C,0.180000*%
%ADD14C,0.120000*%
G04 APERTURE END LIST*
D10*
X-7699171Y-24659774D02*
X-7699171Y-23802632D01*
X-6199171Y-24231203D02*
X-7699171Y-24231203D01*
X-6199171Y-23302632D02*
X-7699171Y-23302632D01*
X-6199171Y-22659775D02*
X-6984885Y-22659775D01*
X-6984885Y-22659775D02*
X-7127742Y-22731203D01*
X-7127742Y-22731203D02*
X-7199171Y-22874060D01*
X-7199171Y-22874060D02*
X-7199171Y-23088346D01*
X-7199171Y-23088346D02*
X-7127742Y-23231203D01*
X-7127742Y-23231203D02*
X-7056314Y-23302632D01*
X-6199171Y-21945489D02*
X-7199171Y-21945489D01*
X-7699171Y-21945489D02*
X-7627742Y-22016917D01*
X-7627742Y-22016917D02*
X-7556314Y-21945489D01*
X-7556314Y-21945489D02*
X-7627742Y-21874060D01*
X-7627742Y-21874060D02*
X-7699171Y-21945489D01*
X-7699171Y-21945489D02*
X-7556314Y-21945489D01*
X-7199171Y-21231203D02*
X-6199171Y-21231203D01*
X-7056314Y-21231203D02*
X-7127742Y-21159774D01*
X-7127742Y-21159774D02*
X-7199171Y-21016917D01*
X-7199171Y-21016917D02*
X-7199171Y-20802631D01*
X-7199171Y-20802631D02*
X-7127742Y-20659774D01*
X-7127742Y-20659774D02*
X-6984885Y-20588346D01*
X-6984885Y-20588346D02*
X-6199171Y-20588346D01*
X-6199171Y-19874060D02*
X-7699171Y-19874060D01*
X-6770600Y-19731203D02*
X-6199171Y-19302631D01*
X-7199171Y-19302631D02*
X-6627742Y-19874060D01*
X-7199171Y-18659774D02*
X-5699171Y-18659774D01*
X-7127742Y-18659774D02*
X-7199171Y-18516917D01*
X-7199171Y-18516917D02*
X-7199171Y-18231202D01*
X-7199171Y-18231202D02*
X-7127742Y-18088345D01*
X-7127742Y-18088345D02*
X-7056314Y-18016917D01*
X-7056314Y-18016917D02*
X-6913457Y-17945488D01*
X-6913457Y-17945488D02*
X-6484885Y-17945488D01*
X-6484885Y-17945488D02*
X-6342028Y-18016917D01*
X-6342028Y-18016917D02*
X-6270600Y-18088345D01*
X-6270600Y-18088345D02*
X-6199171Y-18231202D01*
X-6199171Y-18231202D02*
X-6199171Y-18516917D01*
X-6199171Y-18516917D02*
X-6270600Y-18659774D01*
X-6199171Y-16659774D02*
X-6984885Y-16659774D01*
X-6984885Y-16659774D02*
X-7127742Y-16731202D01*
X-7127742Y-16731202D02*
X-7199171Y-16874059D01*
X-7199171Y-16874059D02*
X-7199171Y-17159774D01*
X-7199171Y-17159774D02*
X-7127742Y-17302631D01*
X-6270600Y-16659774D02*
X-6199171Y-16802631D01*
X-6199171Y-16802631D02*
X-6199171Y-17159774D01*
X-6199171Y-17159774D02*
X-6270600Y-17302631D01*
X-6270600Y-17302631D02*
X-6413457Y-17374059D01*
X-6413457Y-17374059D02*
X-6556314Y-17374059D01*
X-6556314Y-17374059D02*
X-6699171Y-17302631D01*
X-6699171Y-17302631D02*
X-6770600Y-17159774D01*
X-6770600Y-17159774D02*
X-6770600Y-16802631D01*
X-6770600Y-16802631D02*
X-6842028Y-16659774D01*
X-6199171Y-15302631D02*
X-7699171Y-15302631D01*
X-6270600Y-15302631D02*
X-6199171Y-15445488D01*
X-6199171Y-15445488D02*
X-6199171Y-15731202D01*
X-6199171Y-15731202D02*
X-6270600Y-15874059D01*
X-6270600Y-15874059D02*
X-6342028Y-15945488D01*
X-6342028Y-15945488D02*
X-6484885Y-16016916D01*
X-6484885Y-16016916D02*
X-6913457Y-16016916D01*
X-6913457Y-16016916D02*
X-7056314Y-15945488D01*
X-7056314Y-15945488D02*
X-7127742Y-15874059D01*
X-7127742Y-15874059D02*
X-7199171Y-15731202D01*
X-7199171Y-15731202D02*
X-7199171Y-15445488D01*
X-7199171Y-15445488D02*
X-7127742Y-15302631D01*
X-6199171Y-13445488D02*
X-7699171Y-13445488D01*
X-7127742Y-13445488D02*
X-7199171Y-13302631D01*
X-7199171Y-13302631D02*
X-7199171Y-13016916D01*
X-7199171Y-13016916D02*
X-7127742Y-12874059D01*
X-7127742Y-12874059D02*
X-7056314Y-12802631D01*
X-7056314Y-12802631D02*
X-6913457Y-12731202D01*
X-6913457Y-12731202D02*
X-6484885Y-12731202D01*
X-6484885Y-12731202D02*
X-6342028Y-12802631D01*
X-6342028Y-12802631D02*
X-6270600Y-12874059D01*
X-6270600Y-12874059D02*
X-6199171Y-13016916D01*
X-6199171Y-13016916D02*
X-6199171Y-13302631D01*
X-6199171Y-13302631D02*
X-6270600Y-13445488D01*
X-6199171Y-12088345D02*
X-7199171Y-12088345D01*
X-6913457Y-12088345D02*
X-7056314Y-12016916D01*
X-7056314Y-12016916D02*
X-7127742Y-11945488D01*
X-7127742Y-11945488D02*
X-7199171Y-11802630D01*
X-7199171Y-11802630D02*
X-7199171Y-11659773D01*
X-6270600Y-10588345D02*
X-6199171Y-10731202D01*
X-6199171Y-10731202D02*
X-6199171Y-11016917D01*
X-6199171Y-11016917D02*
X-6270600Y-11159774D01*
X-6270600Y-11159774D02*
X-6413457Y-11231202D01*
X-6413457Y-11231202D02*
X-6984885Y-11231202D01*
X-6984885Y-11231202D02*
X-7127742Y-11159774D01*
X-7127742Y-11159774D02*
X-7199171Y-11016917D01*
X-7199171Y-11016917D02*
X-7199171Y-10731202D01*
X-7199171Y-10731202D02*
X-7127742Y-10588345D01*
X-7127742Y-10588345D02*
X-6984885Y-10516917D01*
X-6984885Y-10516917D02*
X-6842028Y-10516917D01*
X-6842028Y-10516917D02*
X-6699171Y-11231202D01*
X-6199171Y-9231203D02*
X-6984885Y-9231203D01*
X-6984885Y-9231203D02*
X-7127742Y-9302631D01*
X-7127742Y-9302631D02*
X-7199171Y-9445488D01*
X-7199171Y-9445488D02*
X-7199171Y-9731203D01*
X-7199171Y-9731203D02*
X-7127742Y-9874060D01*
X-6270600Y-9231203D02*
X-6199171Y-9374060D01*
X-6199171Y-9374060D02*
X-6199171Y-9731203D01*
X-6199171Y-9731203D02*
X-6270600Y-9874060D01*
X-6270600Y-9874060D02*
X-6413457Y-9945488D01*
X-6413457Y-9945488D02*
X-6556314Y-9945488D01*
X-6556314Y-9945488D02*
X-6699171Y-9874060D01*
X-6699171Y-9874060D02*
X-6770600Y-9731203D01*
X-6770600Y-9731203D02*
X-6770600Y-9374060D01*
X-6770600Y-9374060D02*
X-6842028Y-9231203D01*
X-6199171Y-8516917D02*
X-7699171Y-8516917D01*
X-6770600Y-8374060D02*
X-6199171Y-7945488D01*
X-7199171Y-7945488D02*
X-6627742Y-8516917D01*
X-6199171Y-7088345D02*
X-6270600Y-7231202D01*
X-6270600Y-7231202D02*
X-6342028Y-7302631D01*
X-6342028Y-7302631D02*
X-6484885Y-7374059D01*
X-6484885Y-7374059D02*
X-6913457Y-7374059D01*
X-6913457Y-7374059D02*
X-7056314Y-7302631D01*
X-7056314Y-7302631D02*
X-7127742Y-7231202D01*
X-7127742Y-7231202D02*
X-7199171Y-7088345D01*
X-7199171Y-7088345D02*
X-7199171Y-6874059D01*
X-7199171Y-6874059D02*
X-7127742Y-6731202D01*
X-7127742Y-6731202D02*
X-7056314Y-6659774D01*
X-7056314Y-6659774D02*
X-6913457Y-6588345D01*
X-6913457Y-6588345D02*
X-6484885Y-6588345D01*
X-6484885Y-6588345D02*
X-6342028Y-6659774D01*
X-6342028Y-6659774D02*
X-6270600Y-6731202D01*
X-6270600Y-6731202D02*
X-6199171Y-6874059D01*
X-6199171Y-6874059D02*
X-6199171Y-7088345D01*
X-7199171Y-5302631D02*
X-6199171Y-5302631D01*
X-7199171Y-5945488D02*
X-6413457Y-5945488D01*
X-6413457Y-5945488D02*
X-6270600Y-5874059D01*
X-6270600Y-5874059D02*
X-6199171Y-5731202D01*
X-6199171Y-5731202D02*
X-6199171Y-5516916D01*
X-6199171Y-5516916D02*
X-6270600Y-5374059D01*
X-6270600Y-5374059D02*
X-6342028Y-5302631D01*
X-7199171Y-4802630D02*
X-7199171Y-4231202D01*
X-7699171Y-4588345D02*
X-6413457Y-4588345D01*
X-6413457Y-4588345D02*
X-6270600Y-4516916D01*
X-6270600Y-4516916D02*
X-6199171Y-4374059D01*
X-6199171Y-4374059D02*
X-6199171Y-4231202D01*
D11*
X860588Y24082561D02*
X765350Y24130180D01*
X765350Y24130180D02*
X622493Y24130180D01*
X622493Y24130180D02*
X479636Y24082561D01*
X479636Y24082561D02*
X384398Y23987323D01*
X384398Y23987323D02*
X336779Y23892085D01*
X336779Y23892085D02*
X289160Y23701609D01*
X289160Y23701609D02*
X289160Y23558752D01*
X289160Y23558752D02*
X336779Y23368276D01*
X336779Y23368276D02*
X384398Y23273038D01*
X384398Y23273038D02*
X479636Y23177800D01*
X479636Y23177800D02*
X622493Y23130180D01*
X622493Y23130180D02*
X717731Y23130180D01*
X717731Y23130180D02*
X860588Y23177800D01*
X860588Y23177800D02*
X908207Y23225419D01*
X908207Y23225419D02*
X908207Y23558752D01*
X908207Y23558752D02*
X717731Y23558752D01*
X1336779Y23130180D02*
X1336779Y24130180D01*
X1336779Y24130180D02*
X1908207Y23130180D01*
X1908207Y23130180D02*
X1908207Y24130180D01*
X2384398Y23130180D02*
X2384398Y24130180D01*
X2384398Y24130180D02*
X2622493Y24130180D01*
X2622493Y24130180D02*
X2765350Y24082561D01*
X2765350Y24082561D02*
X2860588Y23987323D01*
X2860588Y23987323D02*
X2908207Y23892085D01*
X2908207Y23892085D02*
X2955826Y23701609D01*
X2955826Y23701609D02*
X2955826Y23558752D01*
X2955826Y23558752D02*
X2908207Y23368276D01*
X2908207Y23368276D02*
X2860588Y23273038D01*
X2860588Y23273038D02*
X2765350Y23177800D01*
X2765350Y23177800D02*
X2622493Y23130180D01*
X2622493Y23130180D02*
X2384398Y23130180D01*
X157138095Y-70144819D02*
X157138095Y-69144819D01*
X157138095Y-69621009D02*
X157709523Y-69621009D01*
X157709523Y-70144819D02*
X157709523Y-69144819D01*
X158090476Y-69144819D02*
X158709523Y-69144819D01*
X158709523Y-69144819D02*
X158376190Y-69525771D01*
X158376190Y-69525771D02*
X158519047Y-69525771D01*
X158519047Y-69525771D02*
X158614285Y-69573390D01*
X158614285Y-69573390D02*
X158661904Y-69621009D01*
X158661904Y-69621009D02*
X158709523Y-69716247D01*
X158709523Y-69716247D02*
X158709523Y-69954342D01*
X158709523Y-69954342D02*
X158661904Y-70049580D01*
X158661904Y-70049580D02*
X158614285Y-70097200D01*
X158614285Y-70097200D02*
X158519047Y-70144819D01*
X158519047Y-70144819D02*
X158233333Y-70144819D01*
X158233333Y-70144819D02*
X158138095Y-70097200D01*
X158138095Y-70097200D02*
X158090476Y-70049580D01*
D12*
X-333333Y20862580D02*
X-333333Y20148295D01*
X-333333Y20148295D02*
X-380952Y20005438D01*
X-380952Y20005438D02*
X-476190Y19910200D01*
X-476190Y19910200D02*
X-619047Y19862580D01*
X-619047Y19862580D02*
X-714285Y19862580D01*
X666666Y19862580D02*
X95238Y19862580D01*
X380952Y19862580D02*
X380952Y20862580D01*
X380952Y20862580D02*
X285714Y20719723D01*
X285714Y20719723D02*
X190476Y20624485D01*
X190476Y20624485D02*
X95238Y20576866D01*
D11*
X-333333Y8945180D02*
X-333333Y8230895D01*
X-333333Y8230895D02*
X-380952Y8088038D01*
X-380952Y8088038D02*
X-476190Y7992800D01*
X-476190Y7992800D02*
X-619047Y7945180D01*
X-619047Y7945180D02*
X-714285Y7945180D01*
X666666Y7945180D02*
X95238Y7945180D01*
X380952Y7945180D02*
X380952Y8945180D01*
X380952Y8945180D02*
X285714Y8802323D01*
X285714Y8802323D02*
X190476Y8707085D01*
X190476Y8707085D02*
X95238Y8659466D01*
D13*
X-4367293Y-5943782D02*
X-5053007Y-5943782D01*
X-4710150Y-5943782D02*
X-4710150Y-4743782D01*
X-4710150Y-4743782D02*
X-4824436Y-4915211D01*
X-4824436Y-4915211D02*
X-4938721Y-5029497D01*
X-4938721Y-5029497D02*
X-5053007Y-5086640D01*
X-6310150Y5756217D02*
X-5567293Y5756217D01*
X-5567293Y5756217D02*
X-5967293Y5299074D01*
X-5967293Y5299074D02*
X-5795864Y5299074D01*
X-5795864Y5299074D02*
X-5681579Y5241931D01*
X-5681579Y5241931D02*
X-5624436Y5184788D01*
X-5624436Y5184788D02*
X-5567293Y5070502D01*
X-5567293Y5070502D02*
X-5567293Y4784788D01*
X-5567293Y4784788D02*
X-5624436Y4670502D01*
X-5624436Y4670502D02*
X-5681579Y4613360D01*
X-5681579Y4613360D02*
X-5795864Y4556217D01*
X-5795864Y4556217D02*
X-6138721Y4556217D01*
X-6138721Y4556217D02*
X-6253007Y4613360D01*
X-6253007Y4613360D02*
X-6310150Y4670502D01*
X-4995864Y4556217D02*
X-4767293Y4556217D01*
X-4767293Y4556217D02*
X-4653007Y4613360D01*
X-4653007Y4613360D02*
X-4595864Y4670502D01*
X-4595864Y4670502D02*
X-4481579Y4841931D01*
X-4481579Y4841931D02*
X-4424436Y5070502D01*
X-4424436Y5070502D02*
X-4424436Y5527645D01*
X-4424436Y5527645D02*
X-4481579Y5641931D01*
X-4481579Y5641931D02*
X-4538722Y5699074D01*
X-4538722Y5699074D02*
X-4653007Y5756217D01*
X-4653007Y5756217D02*
X-4881579Y5756217D01*
X-4881579Y5756217D02*
X-4995864Y5699074D01*
X-4995864Y5699074D02*
X-5053007Y5641931D01*
X-5053007Y5641931D02*
X-5110150Y5527645D01*
X-5110150Y5527645D02*
X-5110150Y5241931D01*
X-5110150Y5241931D02*
X-5053007Y5127645D01*
X-5053007Y5127645D02*
X-4995864Y5070502D01*
X-4995864Y5070502D02*
X-4881579Y5013360D01*
X-4881579Y5013360D02*
X-4653007Y5013360D01*
X-4653007Y5013360D02*
X-4538722Y5070502D01*
X-4538722Y5070502D02*
X-4481579Y5127645D01*
X-4481579Y5127645D02*
X-4424436Y5241931D01*
X5018421Y5356217D02*
X5018421Y4556217D01*
X4732706Y5813360D02*
X4446992Y4956217D01*
X4446992Y4956217D02*
X5189849Y4956217D01*
X5875563Y5756217D02*
X5989849Y5756217D01*
X5989849Y5756217D02*
X6104135Y5699074D01*
X6104135Y5699074D02*
X6161278Y5641931D01*
X6161278Y5641931D02*
X6218420Y5527645D01*
X6218420Y5527645D02*
X6275563Y5299074D01*
X6275563Y5299074D02*
X6275563Y5013360D01*
X6275563Y5013360D02*
X6218420Y4784788D01*
X6218420Y4784788D02*
X6161278Y4670502D01*
X6161278Y4670502D02*
X6104135Y4613360D01*
X6104135Y4613360D02*
X5989849Y4556217D01*
X5989849Y4556217D02*
X5875563Y4556217D01*
X5875563Y4556217D02*
X5761278Y4613360D01*
X5761278Y4613360D02*
X5704135Y4670502D01*
X5704135Y4670502D02*
X5646992Y4784788D01*
X5646992Y4784788D02*
X5589849Y5013360D01*
X5589849Y5013360D02*
X5589849Y5299074D01*
X5589849Y5299074D02*
X5646992Y5527645D01*
X5646992Y5527645D02*
X5704135Y5641931D01*
X5704135Y5641931D02*
X5761278Y5699074D01*
X5761278Y5699074D02*
X5875563Y5756217D01*
X4546992Y-4858068D02*
X4604135Y-4800925D01*
X4604135Y-4800925D02*
X4718421Y-4743782D01*
X4718421Y-4743782D02*
X5004135Y-4743782D01*
X5004135Y-4743782D02*
X5118421Y-4800925D01*
X5118421Y-4800925D02*
X5175563Y-4858068D01*
X5175563Y-4858068D02*
X5232706Y-4972354D01*
X5232706Y-4972354D02*
X5232706Y-5086640D01*
X5232706Y-5086640D02*
X5175563Y-5258068D01*
X5175563Y-5258068D02*
X4489849Y-5943782D01*
X4489849Y-5943782D02*
X5232706Y-5943782D01*
D11*
X157138095Y-62894819D02*
X157138095Y-61894819D01*
X157138095Y-62371009D02*
X157709523Y-62371009D01*
X157709523Y-62894819D02*
X157709523Y-61894819D01*
X158138095Y-61990057D02*
X158185714Y-61942438D01*
X158185714Y-61942438D02*
X158280952Y-61894819D01*
X158280952Y-61894819D02*
X158519047Y-61894819D01*
X158519047Y-61894819D02*
X158614285Y-61942438D01*
X158614285Y-61942438D02*
X158661904Y-61990057D01*
X158661904Y-61990057D02*
X158709523Y-62085295D01*
X158709523Y-62085295D02*
X158709523Y-62180533D01*
X158709523Y-62180533D02*
X158661904Y-62323390D01*
X158661904Y-62323390D02*
X158090476Y-62894819D01*
X158090476Y-62894819D02*
X158709523Y-62894819D01*
X157138095Y-55644819D02*
X157138095Y-54644819D01*
X157138095Y-55121009D02*
X157709523Y-55121009D01*
X157709523Y-55644819D02*
X157709523Y-54644819D01*
X158709523Y-55644819D02*
X158138095Y-55644819D01*
X158423809Y-55644819D02*
X158423809Y-54644819D01*
X158423809Y-54644819D02*
X158328571Y-54787676D01*
X158328571Y-54787676D02*
X158233333Y-54882914D01*
X158233333Y-54882914D02*
X158138095Y-54930533D01*
X157138095Y-77394819D02*
X157138095Y-76394819D01*
X157138095Y-76871009D02*
X157709523Y-76871009D01*
X157709523Y-77394819D02*
X157709523Y-76394819D01*
X158614285Y-76728152D02*
X158614285Y-77394819D01*
X158376190Y-76347200D02*
X158138095Y-77061485D01*
X158138095Y-77061485D02*
X158757142Y-77061485D01*
D12*
%TO.C,J1*%
X-4000000Y7000000D02*
X4000000Y7000000D01*
X-4000000Y-7000000D02*
X4000000Y-7000000D01*
D14*
%TO.C,J4*%
X3750000Y22800000D02*
X3750000Y24130000D01*
X5080000Y22800000D02*
X3750000Y22800000D01*
X6350000Y22800000D02*
X6410000Y22800000D01*
X6350000Y22800000D02*
X6350000Y25460000D01*
X6410000Y22800000D02*
X6410000Y25460000D01*
X6350000Y25460000D02*
X6410000Y25460000D01*
%TO.C,J3*%
X11490000Y-22860000D02*
X11490000Y25460000D01*
X11490000Y-22860000D02*
X8830000Y-22860000D01*
X11490000Y25460000D02*
X8830000Y25460000D01*
X10160000Y-25460000D02*
X8830000Y-25460000D01*
X8830000Y-25460000D02*
X8830000Y-24130000D01*
X8830000Y-22860000D02*
X8830000Y25460000D01*
%TO.C,J2*%
X-11490000Y22860000D02*
X-11490000Y-25460000D01*
X-11490000Y22860000D02*
X-8830000Y22860000D01*
X-11490000Y-25460000D02*
X-8830000Y-25460000D01*
X-10160000Y25460000D02*
X-8830000Y25460000D01*
X-8830000Y25460000D02*
X-8830000Y24130000D01*
X-8830000Y22860000D02*
X-8830000Y-25460000D01*
%TD*%
M02*
